<svg width="398" height="200" viewBox="0 0 398 200" fill="none" xmlns="http://www.w3.org/2000/svg">
<path d="M0.5 16C0.5 7.43958 7.43959 0.5 16 0.5H382C390.56 0.5 397.5 7.43959 397.5 16V184C397.5 192.56 390.56 199.5 382 199.5H16C7.43959 199.5 0.5 192.56 0.5 184V16Z" stroke="black"/>
<path d="M282.9 76.3999C277.4 76.3999 271.9 77.9999 271.9 89.4999C271.9 93.9999 272.6 96.8999 274 98.6999C275.6 100.8 278.3 101.7 282.3 101.7C284.7 101.7 288.8 101.4 291.2 101L291.6 100.9V97.1999H283.5C278.8 97.1999 277.1 95.8999 277.1 92.0999V90.6999H289.8C291.7 90.6999 293 89.3999 293 87.3999V85.8999C293.1 79.6999 289.7 76.3999 282.9 76.3999ZM288 86.9999H277.1V85.9999C277.1 83.5999 277.9 80.7999 281.9 80.7999H283.8C287.3 80.7999 288 82.8999 288 86.0999V86.9999Z" fill="black"/>
<path d="M240.601 76.3999H239.401C232.001 76.3999 228.801 80.3999 228.801 89.3999C228.801 96.7999 230.601 101.8 239.401 101.8H240.601C247.801 101.8 251.201 97.7999 251.201 89.0999C251.201 80.1999 248.001 76.3999 240.601 76.3999ZM245.801 91.0999C245.801 95.5999 244.301 97.4999 240.701 97.4999H239.401C235.001 97.4999 234.201 95.4999 234.201 89.9999V88.2999C234.201 82.3999 235.401 80.7999 239.601 80.7999H240.401C244.401 80.7999 245.801 81.8999 245.801 88.2999V91.0999Z" fill="black"/>
<path d="M192.9 76.3999C187.4 76.3999 181.9 77.9999 181.9 89.4999C181.9 93.9999 182.6 96.8999 184 98.6999C185.6 100.8 188.3 101.7 192.3 101.7C194.7 101.7 198.8 101.4 201.2 101L201.6 100.9V97.1999H193.5C188.8 97.1999 187.1 95.8999 187.1 92.0999V90.6999H199.8C201.7 90.6999 203 89.3999 203 87.3999V85.8999C203.1 79.6999 199.7 76.3999 192.9 76.3999ZM198 86.9999H187.1V85.9999C187.1 83.5999 187.9 80.7999 191.9 80.7999H193.8C197.3 80.7999 198 82.8999 198 86.0999V86.9999Z" fill="black"/>
<path d="M172.9 69V77H165.9C161.2 77.1 156.5 78.3 156.5 89.5C156.5 100.9 160.9 101.7 167.1 101.7C169.7 101.7 173.2 101.6 177.6 101H178V69H172.9ZM172.9 97.3H167.2C163 97.3 161.8 95.9 161.8 90.7V87.9C161.8 83.2 163.3 81.5 167.6 81.5H172.9V97.3Z" fill="black"/>
<path d="M307.401 76.3999C304.801 76.3999 301.701 76.5999 299.401 76.9999H299.001V80.7999H307.801C311.001 80.7999 312.201 81.8999 312.201 84.9999V86.1999C309.501 85.7999 306.901 85.6999 304.601 85.6999C300.601 85.6999 295.301 86.5999 295.301 94.1999C295.301 101.3 299.601 101.8 305.301 101.8C307.901 101.8 312.901 101.6 316.601 100.9L317.001 100.8V84.8999C317.101 77.3999 312.501 76.3999 307.401 76.3999ZM312.101 97.2999H304.201C301.701 97.2999 300.701 96.4999 300.701 94.2999V93.3999C300.701 91.1999 301.901 90.1999 304.501 90.1999H312.201V97.2999H312.101Z" fill="black"/>
<path d="M215.8 95L208.3 77H203L213.1 101.3H218.2L228 77H222.9L215.8 95Z" fill="black"/>
<path d="M261.6 93.8999V80.9999H269V76.9999H263.4H261.6V70.2999V69.3999H256.8V70.2999V76.9999H252.9V77.4999V78.9999V79.4999V80.9999H256.5V93.9999C256.5 97.8999 257.4 101.8 263.9 101.8C265.8 101.8 267.8 101.5 269.9 101.1L270.3 101V97.3999H265.2C262.4 97.3999 261.6 96.5999 261.6 93.8999Z" fill="black"/>
<path d="M346.499 76.3999C344.099 76.3999 340.999 76.7999 338.199 77.3999C336.499 76.4999 334.399 76.3999 332.399 76.3999C327.799 76.3999 322.199 77.3999 322.199 77.3999V101.3H327.399V80.8999H332.199C335.699 80.8999 336.699 81.9999 336.699 85.8999V101.2H341.899V84.5999C341.899 83.0999 341.699 81.9999 341.399 80.9999H345.799C349.699 80.9999 350.999 82.1999 350.999 85.9999V101.2H356.099V84.7999C355.999 76.3999 349.599 76.3999 346.499 76.3999Z" fill="black"/>
<path d="M88.7004 54C63.1004 54 42.4004 74.7 42.4004 100.3C42.4004 125.9 63.1004 146.6 88.7004 146.6C114.3 146.6 135 125.9 135 100.3C135 74.7 114.3 54 88.7004 54Z" fill="#F8485E"/>
<path d="M170.099 124.4H158.699L156.199 129.9H154.699L163.799 110.2H165.199L174.299 129.9H172.799L170.099 124.4ZM169.599 123.2L164.399 111.8L159.199 123.2H169.599Z" fill="black"/>
<path d="M180.799 120.1C180.799 114.4 185.199 110.1 190.999 110.1C193.799 110.1 196.299 111 197.999 112.8L197.099 113.7C195.399 112 193.399 111.4 190.999 111.4C185.999 111.4 182.199 115.1 182.199 120.1C182.199 125.1 185.999 128.8 190.999 128.8C193.299 128.8 195.399 128.1 197.099 126.4L197.999 127.3C196.299 129.1 193.799 130.1 190.999 130.1C185.199 130.1 180.799 125.8 180.799 120.1Z" fill="black"/>
<path d="M201.299 109H202.699V129.9H201.299V109Z" fill="black"/>
<path d="M205.898 122.6C205.898 118.2 208.998 115.1 213.198 115.1C217.398 115.1 220.498 118.2 220.498 122.6C220.498 127 217.398 130.1 213.198 130.1C208.998 130.1 205.898 126.9 205.898 122.6ZM219.198 122.6C219.198 118.9 216.698 116.4 213.298 116.4C209.898 116.4 207.398 118.9 207.398 122.6C207.398 126.3 209.898 128.8 213.298 128.8C216.698 128.8 219.198 126.3 219.198 122.6Z" fill="black"/>
<path d="M236.699 115.2V129.9H235.299V126.7C234.299 128.8 232.299 130 229.799 130C226.099 130 223.699 127.9 223.699 123.8V115.2H225.099V123.7C225.099 127 226.899 128.8 229.899 128.8C233.199 128.8 235.299 126.6 235.299 123.1V115.3H236.699V115.2Z" fill="black"/>
<path d="M254.598 109V129.9H253.198V126.4C251.998 128.7 249.798 130 247.198 130C243.098 130 239.898 126.9 239.898 122.5C239.898 118.1 242.998 115 247.198 115C249.798 115 251.998 116.3 253.198 118.5V109H254.598ZM253.198 122.6C253.198 118.9 250.698 116.4 247.298 116.4C243.898 116.4 241.398 118.9 241.398 122.6C241.398 126.3 243.898 128.8 247.298 128.8C250.698 128.8 253.198 126.3 253.198 122.6Z" fill="black"/>
<path d="M119.6 96.6998H101.8V129.1H80.7996C69.3996 129.1 59.0996 122.2 59.0996 107.4C59.0996 96.4998 64.7996 85.6998 80.7996 85.6998H85.6996C85.6996 85.6998 87.5996 91.0998 88.3996 96.7998H81.0996C74.5996 96.7998 70.7996 100.4 70.7996 107.4C70.7996 114 74.2996 118 81.0996 118H90.4996V69.2998H101.9V85.7998H119.6V96.6998Z" fill="white"/>
</svg>
