<svg width="109" height="107" viewBox="0 0 109 107" fill="none" xmlns="http://www.w3.org/2000/svg">
<path d="M99.8662 82.3701L66.8151 83.6579L66.7917 83.0571L99.8428 81.7693L99.8662 82.3701Z" fill="#6D7982"/>
<path d="M84.2744 99.2295L83.6736 99.2529L82.3857 66.2017L82.9866 66.1783L84.2744 99.2295Z" fill="#6D7982"/>
<path d="M72.3191 95.0601L71.8791 94.6512L94.3389 70.3684L94.7797 70.7773L72.3191 95.0601" fill="#6D7982"/>
<path d="M95.2661 94.1659L70.985 71.7045L71.3918 71.2626L95.6739 93.724L95.2661 94.1659Z" fill="#6D7982"/>
<path d="M98.7563 88.6856L67.6977 77.3083L67.9046 76.7442L98.9627 88.1204L98.7563 88.6856" fill="#6D7982"/>
<path d="M77.9233 98.3461L77.3601 98.1406L88.7359 67.0813L89.3002 67.2891L77.9233 98.3461Z" fill="#6D7982"/>
<path d="M68.4534 89.9463L68.2008 89.4001L98.2062 75.4834L98.4591 76.0283L68.4534 89.9463" fill="#6D7982"/>
<path d="M90.016 97.8439L76.0981 67.8387L76.6448 67.5851L90.5623 97.5915L90.016 97.8439" fill="#6D7982"/>
<path d="M83.3794 98.0486L83.3859 98.0483C83.1815 98.0503 82.9848 98.1049 82.8197 98.1895C82.6529 98.0937 82.4714 98.0298 82.2653 98.0138C82.0599 98.0025 81.8634 98.0403 81.6909 98.1144C81.5358 98.0061 81.3527 97.9278 81.1464 97.8937C80.9473 97.8653 80.7495 97.8911 80.5716 97.9582C80.4233 97.8316 80.2501 97.7433 80.0504 97.6957C79.85 97.6554 79.6508 97.6631 79.4665 97.7184C79.3299 97.5805 79.1627 97.4775 78.9682 97.4189C78.7665 97.3606 78.5675 97.3563 78.3833 97.3936C78.2583 97.2492 78.0972 97.1351 77.9008 97.0634C77.7119 96.9925 77.5112 96.9702 77.3265 96.9955C77.2119 96.8447 77.0568 96.7111 76.873 96.628C76.6885 96.5389 76.4884 96.5046 76.2957 96.5181C76.1939 96.3536 76.0499 96.2208 75.8716 96.1194C75.6933 96.0181 75.5048 95.9713 75.3128 95.9667C75.2215 95.7958 75.0893 95.6505 74.9166 95.5356C74.7435 95.4232 74.5555 95.3644 74.3675 95.3416C74.2883 95.1702 74.1675 95.0124 74.0005 94.8865C73.8397 94.7664 73.6552 94.6894 73.4682 94.6545C73.4011 94.4766 73.2921 94.3124 73.1429 94.1738C72.9863 94.0415 72.8082 93.9461 72.6205 93.9053C72.571 93.7207 72.4742 93.5439 72.3295 93.3991C72.1852 93.2543 72.018 93.1525 71.8357 93.0934C71.7932 92.9085 71.7142 92.7239 71.5811 92.5678C71.4489 92.4092 71.2879 92.2964 71.1103 92.2251C71.0791 92.0385 71.0105 91.8486 70.89 91.686C70.7704 91.5222 70.6153 91.3947 70.4424 91.3123C70.4349 91.1201 70.3739 90.9287 70.2709 90.7582C70.1616 90.5819 70.0174 90.4431 69.8506 90.3485C69.8565 90.1618 69.8125 89.9637 69.7152 89.7809C69.6232 89.604 69.4917 89.4527 69.3311 89.3446C69.3482 89.1574 69.3161 88.96 69.2365 88.7766C69.1571 88.5871 69.0363 88.4306 68.8873 88.3088C68.9157 88.1211 68.9028 87.9231 68.8343 87.7332C68.7665 87.5372 68.6582 87.3742 68.5152 87.2401C68.5616 87.0578 68.5605 86.8593 68.5105 86.6626L68.5103 86.6566C68.4552 86.4602 68.3568 86.2895 68.2254 86.1502C68.2851 85.9674 68.3013 85.7694 68.2635 85.571C68.2245 85.368 68.1401 85.1907 68.0195 85.039C68.0906 84.8617 68.1197 84.668 68.093 84.4644C68.0728 84.2606 68 84.0697 67.8914 83.9115C67.9745 83.7397 68.0159 83.5468 68.0079 83.3413C68 83.1382 67.938 82.948 67.8418 82.7833C67.9372 82.6159 67.9957 82.4271 68 82.2223C68.0098 82.0173 67.961 81.8267 67.8754 81.6555C67.9839 81.496 68.0558 81.3127 68.0764 81.1061C68.0985 80.9006 68.0673 80.7021 67.9939 80.5328C68.1156 80.3764 68.1989 80.1987 68.2331 80C68.2671 79.7989 68.2528 79.6008 68.1916 79.4167C68.3237 79.2743 68.42 79.1009 68.4726 78.9063C68.5188 78.7059 68.5177 78.5074 68.4742 78.3225C68.6134 78.1907 68.7206 78.0241 68.7862 77.835C68.8506 77.6399 68.8673 77.4407 68.8354 77.2494C68.9806 77.1294 69.1019 76.9742 69.1848 76.7844C69.2615 76.5949 69.2895 76.3952 69.2711 76.2094C69.4289 76.0997 69.5619 75.9513 69.6567 75.7671C69.7461 75.5891 69.7928 75.3887 69.7856 75.2025C69.9489 75.0986 70.095 74.9605 70.2015 74.7879C70.3038 74.6166 70.3616 74.4206 70.373 74.2336C70.5436 74.1439 70.6956 74.0177 70.8156 73.8505C70.9289 73.6824 71.0004 73.5003 71.0229 73.3057C71.2003 73.2386 71.3644 73.1191 71.4966 72.9635C71.6231 72.8081 71.7067 72.6243 71.7481 72.435C71.9258 72.3739 72.0971 72.2709 72.2394 72.1209L72.2397 72.127C72.3801 71.9771 72.4763 71.8048 72.5276 71.6163C72.7127 71.5742 72.8901 71.4818 73.0413 71.3435C73.1925 71.2053 73.2993 71.0398 73.364 70.8556C73.5503 70.8242 73.7344 70.7449 73.8979 70.6241C74.0609 70.4974 74.1811 70.3375 74.259 70.1648C74.4445 70.1455 74.6345 70.0779 74.8045 69.963C74.9752 69.854 75.1075 69.7045 75.1962 69.5325C75.3843 69.5312 75.5805 69.4754 75.7567 69.3783C75.9347 69.2763 76.0722 69.1373 76.1751 68.9769C76.367 68.9814 76.5637 68.9497 76.7468 68.8583C76.9309 68.7717 77.0826 68.6467 77.1965 68.4918C77.384 68.5146 77.5813 68.4876 77.7727 68.4152C77.9621 68.3416 78.1255 68.2269 78.2464 68.0838C78.4343 68.1186 78.6325 68.1109 78.8288 68.0479C79.0255 67.9933 79.1953 67.8843 79.3293 67.7528C79.5116 67.7986 79.7096 67.8102 79.9138 67.7661L79.9135 67.7601C80.1092 67.7164 80.2867 67.6252 80.4327 67.4992C80.6091 67.5645 80.8089 67.5856 81.0122 67.5548C81.2159 67.5228 81.3928 67.4437 81.5516 67.3292C81.7224 67.4068 81.9156 67.4414 82.1209 67.4274C82.331 67.4131 82.5145 67.3446 82.6792 67.2419C82.8454 67.3317 83.04 67.3795 83.2444 67.3776C83.4494 67.3756 83.6401 67.3248 83.8105 67.2352C83.971 67.336 84.1603 67.402 84.3646 67.4121C84.5642 67.4284 84.7616 67.3907 84.938 67.3116C85.0931 67.4187 85.2762 67.497 85.4771 67.5252C85.6757 67.5536 85.8738 67.5339 86.0588 67.4665C86.2012 67.5873 86.3799 67.6826 86.5793 67.7218C86.7799 67.7693 86.9778 67.7556 87.1639 67.7062C87.2942 67.8396 87.4674 67.9411 87.6614 67.9998C87.857 68.0571 88.0555 68.0626 88.2473 68.0251C88.3726 68.1634 88.5339 68.2847 88.7219 68.3556C88.9178 68.4262 89.112 68.4487 89.3032 68.4244C89.4168 68.5752 89.5726 68.7016 89.7571 68.7907C89.9469 68.8735 90.1401 68.9081 90.3328 68.8946C90.4355 69.0591 90.5787 69.1979 90.7578 69.2932C90.9352 69.3947 91.1303 69.4412 91.3223 69.4458C91.4133 69.6107 91.547 69.762 91.7198 69.8756C91.8848 69.9835 92.0754 70.0483 92.2688 70.066C92.3468 70.2363 92.4673 70.394 92.6287 70.5189C92.7912 70.6474 92.9808 70.7231 93.1681 70.7519C93.2352 70.9298 93.3441 71.0952 93.4934 71.2326C93.6493 71.365 93.8273 71.4543 94.0157 71.5023C94.0648 71.6857 94.1612 71.8565 94.3054 72.0073C94.4497 72.1522 94.6224 72.2549 94.8052 72.314C94.843 72.4979 94.9284 72.6751 95.0609 72.8324C95.1926 72.9897 95.3546 73.1038 95.5308 73.1763C95.5562 73.3667 95.6287 73.5504 95.7503 73.7154C95.8709 73.8792 96.0206 74.0057 96.1922 74.0881C96.2067 74.2801 96.2673 74.4715 96.3702 74.6408C96.4792 74.8183 96.6227 74.9559 96.7892 75.0529C96.7912 75.2382 96.8342 75.4351 96.9257 75.6132L96.9259 75.6193C97.0226 75.796 97.1562 75.9412 97.316 76.0494C97.3 76.2425 97.3312 76.4399 97.4112 76.6233C97.4896 76.8128 97.6104 76.9706 97.766 77.0909C97.7376 77.2786 97.75 77.4767 97.8186 77.6665C97.8802 77.8627 97.9943 78.0268 98.1323 78.1538C98.0912 78.3419 98.0929 78.5416 98.1433 78.7371C98.1974 78.9335 98.2963 79.1042 98.4273 79.2447C98.3676 79.4264 98.3519 79.6255 98.3965 79.8296C98.4333 80.0255 98.5189 80.2088 98.6393 80.3557C98.5682 80.5318 98.5393 80.7315 98.56 80.9353C98.5867 81.14 98.6592 81.3226 98.7673 81.4808C98.6842 81.6537 98.6439 81.8467 98.6519 82.0522L98.653 82.081L98.6544 82.1171C98.6624 82.3225 98.7177 82.513 98.8139 82.6777C98.7241 82.8437 98.6656 83.0325 98.6557 83.2375C98.6515 83.441 98.6944 83.6391 98.7805 83.8103C98.6719 83.965 98.6007 84.1543 98.5783 84.3537C98.5563 84.5592 98.5885 84.7565 98.6611 84.9342C98.5414 85.0821 98.4563 85.2611 98.4227 85.461C98.3826 85.6612 98.4022 85.865 98.4581 86.0433C98.3316 86.1879 98.2358 86.3601 98.1832 86.5547C98.1299 86.7542 98.1325 86.9526 98.1754 87.1387C98.0357 87.2693 97.928 87.4372 97.8636 87.6311C97.793 87.8204 97.7824 88.0194 97.8143 88.2107C97.6624 88.3309 97.5415 88.4861 97.4657 88.6756C97.3824 88.8654 97.3533 89.0603 97.3725 89.2509C97.215 89.3593 97.0817 89.5089 96.9873 89.6931C96.8983 89.8723 96.8575 90.0665 96.8588 90.2578C96.6944 90.3556 96.5484 90.4937 96.442 90.6712C96.3345 90.8451 96.2811 91.0325 96.2703 91.2255C96.0988 91.3116 95.9472 91.4378 95.8282 91.6049C95.7078 91.7721 95.6378 91.9542 95.6138 92.1489C95.4366 92.222 95.2714 92.3367 95.1463 92.492C95.0137 92.6476 94.9311 92.8314 94.8899 93.0195C94.7122 93.0806 94.5418 93.1835 94.3956 93.3276C94.2581 93.4774 94.1622 93.6496 94.1087 93.8322C93.9241 93.8816 93.748 93.9727 93.5964 94.111C93.4455 94.2432 93.3321 94.4101 93.2658 94.5932C93.0805 94.6245 92.8974 94.7038 92.7335 94.8306C92.5761 94.951 92.4559 95.1122 92.3774 95.2837C92.1878 95.3032 91.9963 95.3708 91.8263 95.4857C91.6552 95.5947 91.5289 95.7428 91.4344 95.9102C91.248 95.9175 91.0501 95.9673 90.8741 96.0704C90.6974 96.1676 90.5584 96.3054 90.4558 96.4731C90.2637 96.4625 90.0662 96.4991 89.8829 96.5844C89.7001 96.6698 89.5484 96.7961 89.4346 96.9521C89.2456 96.9282 89.049 96.9479 88.8586 97.0215C88.6626 97.0953 88.5056 97.2158 88.3782 97.3592C88.1902 97.3256 87.9922 97.3261 87.7954 97.3891C87.5989 97.4497 87.4355 97.5524 87.2952 97.6914C87.1135 97.6371 86.9143 97.6268 86.7173 97.6766C86.5146 97.7218 86.3376 97.8118 86.1982 97.9387C86.0156 97.8725 85.8158 97.8501 85.6187 97.8831C85.4152 97.9079 85.2307 97.9885 85.0795 98.1015C84.9017 98.0254 84.708 97.9908 84.5031 98.0048C84.3006 98.0175 84.1091 98.0851 83.9519 98.1888C83.7795 98.098 83.5836 98.0527 83.3794 98.0486V98.0486ZM83.4317 100.452C83.6537 100.444 83.8551 100.377 84.0328 100.266C84.229 100.368 84.4529 100.42 84.6873 100.403C84.9223 100.389 85.1342 100.302 85.3101 100.17C85.512 100.258 85.7365 100.29 85.9698 100.258C86.2022 100.225 86.4095 100.127 86.5787 99.9819C86.7871 100.058 87.0156 100.073 87.2417 100.022C87.4753 99.9711 87.6747 99.8538 87.8309 99.6985C88.0385 99.7554 88.2737 99.7582 88.4999 99.6904C88.7258 99.6215 88.9127 99.4938 89.0574 99.3257C89.2754 99.3714 89.5038 99.3553 89.7232 99.2685C89.9423 99.1817 90.1231 99.0435 90.2537 98.8639C90.4725 98.8903 90.6996 98.8573 90.9126 98.76C91.1247 98.6542 91.2932 98.5032 91.414 98.318C91.6296 98.3277 91.8561 98.2767 92.0626 98.1604C92.2636 98.0442 92.426 97.8814 92.527 97.6861C92.7488 97.6835 92.9679 97.6136 93.1619 97.4857C93.3611 97.3515 93.5041 97.1715 93.5938 96.9754C93.8092 96.955 94.0285 96.8754 94.2151 96.7286C94.3969 96.5831 94.5338 96.3912 94.6036 96.1911C94.8197 96.1514 95.0312 96.0529 95.207 95.8968C95.381 95.7396 95.4996 95.5412 95.5577 95.3283C95.7724 95.2778 95.9724 95.1617 96.1346 94.9929C96.2968 94.8241 96.4024 94.6154 96.4412 94.4033C96.6561 94.3347 96.8445 94.207 96.9935 94.0267C97.1491 93.8474 97.2367 93.6321 97.2653 93.4132C97.4662 93.3343 97.6465 93.1949 97.7838 93.003C97.9206 92.8112 97.9972 92.5916 98.005 92.3686C98.2009 92.2707 98.3756 92.1195 98.5005 91.922C98.6186 91.7189 98.6765 91.494 98.6737 91.2762C98.8625 91.1618 99.0234 90.9978 99.13 90.7891C99.2365 90.5755 99.2761 90.3513 99.261 90.1341C99.4371 90.0081 99.5859 89.8326 99.6803 89.6123C99.7742 89.392 99.7961 89.1697 99.7568 88.9474C99.9319 88.8081 100.064 88.6237 100.139 88.4029C100.214 88.1774 100.224 87.9495 100.167 87.7339C100.329 87.5832 100.454 87.3869 100.512 87.1548C100.569 86.9299 100.56 86.7016 100.491 86.4876C100.641 86.3254 100.748 86.1238 100.787 85.8924C100.831 85.662 100.799 85.4286 100.718 85.226C100.857 85.0533 100.945 84.8452 100.972 84.6095C100.998 84.3726 100.954 84.1468 100.856 83.9521C100.981 83.7727 101.051 83.5534 101.06 83.3183C101.069 83.0833 101.006 82.8631 100.896 82.6748C101.009 82.4839 101.067 82.2589 101.058 82.0234L101.056 81.9874L101.055 81.9465C101.046 81.711 100.965 81.4975 100.844 81.3169C100.938 81.1206 100.978 80.8904 100.95 80.6556C100.923 80.4232 100.831 80.2162 100.692 80.041C100.774 79.8381 100.801 79.6096 100.756 79.3754C100.711 79.1485 100.606 78.942 100.457 78.7793C100.52 78.5722 100.529 78.3432 100.466 78.117C100.409 77.8845 100.287 77.6907 100.124 77.5406C100.172 77.3281 100.168 77.0996 100.087 76.8741L100.087 76.8801C100.012 76.6532 99.8718 76.4673 99.7044 76.3294C99.7383 76.1174 99.7114 75.8838 99.618 75.6708C99.5257 75.4518 99.3746 75.2759 99.196 75.1565C99.2108 74.9345 99.1719 74.7073 99.0618 74.4998C98.9513 74.2935 98.7884 74.1314 98.5973 74.0185C98.6002 73.8017 98.544 73.5764 98.4159 73.3768C98.2937 73.1758 98.1182 73.0262 97.9237 72.9327C97.9085 72.7094 97.8331 72.4897 97.6947 72.3037C97.5593 72.1092 97.3734 71.972 97.1722 71.8896C97.1385 71.6743 97.047 71.4612 96.8958 71.2866C96.7444 71.1059 96.5529 70.981 96.3462 70.912C96.2956 70.6974 96.1913 70.4957 96.0292 70.3287C95.8644 70.1534 95.6619 70.0469 95.4488 69.995C95.3866 69.7869 95.2655 69.587 95.0897 69.4314C94.9159 69.2757 94.7016 69.1817 94.4892 69.1479C94.4092 68.9416 94.2758 68.753 94.0892 68.6098C93.9026 68.4667 93.6885 68.3847 93.4664 68.3693C93.3795 68.1681 93.2291 67.9874 93.0315 67.8627C92.8327 67.7321 92.614 67.6684 92.3971 67.6648C92.2876 67.4705 92.1308 67.3069 91.9217 67.1899C91.7189 67.0774 91.4938 67.0309 91.2718 67.0395C91.1562 66.8587 90.9812 66.703 90.7676 66.6018C90.5527 66.5031 90.3232 66.4747 90.1075 66.5024C89.9736 66.3259 89.7944 66.1896 89.5747 66.1007C89.3483 66.0193 89.1187 66.0053 88.9046 66.0498C88.7592 65.887 88.5674 65.756 88.3421 65.6914C88.1175 65.6231 87.8821 65.6251 87.6734 65.6874C87.5174 65.531 87.3132 65.4186 87.0839 65.3745C86.8534 65.3222 86.6262 65.343 86.4175 65.4186C86.2498 65.2735 86.0472 65.1791 85.8118 65.1461C85.5759 65.1132 85.3478 65.1461 85.1525 65.238C84.9732 65.1126 84.7587 65.0247 84.524 65.0097C84.2893 64.9948 84.0625 65.0518 83.8673 65.1557C83.6826 65.0365 83.4634 64.974 83.2285 64.9772C82.9938 64.9743 82.7736 65.0418 82.5921 65.1644C82.3955 65.0626 82.1696 65.0112 81.9372 65.0275C81.7029 65.0487 81.4888 65.128 81.3135 65.2612C81.1126 65.174 80.8823 65.1396 80.6481 65.1728C80.4155 65.2119 80.2097 65.3102 80.0456 65.4562C79.8381 65.3789 79.6091 65.3649 79.3764 65.4161C79.149 65.4671 78.949 65.582 78.7929 65.7385C78.5796 65.6818 78.3525 65.6787 78.1248 65.7465C77.8994 65.8155 77.711 65.9492 77.5678 66.1112C77.3486 66.0728 77.1207 66.0865 76.9017 66.1745C76.6831 66.26 76.5019 66.4007 76.3693 66.5803C76.1529 66.5527 75.9257 66.5844 75.7121 66.6902C75.5002 66.7875 75.3315 66.9457 75.2131 67.1309C74.9937 67.1214 74.7672 67.1723 74.5672 67.2884C74.3621 67.4047 74.2061 67.5661 74.0987 67.764C73.8832 67.7724 73.6629 67.8351 73.4627 67.9693C73.2687 68.0972 73.1258 68.2773 73.0372 68.4781C72.8162 68.4988 72.6026 68.5805 72.415 68.725C72.2275 68.8719 72.0977 69.0635 72.0265 69.2637C71.8118 69.3033 71.5989 69.4019 71.425 69.5591C71.2506 69.7164 71.1314 69.9136 71.073 70.1276C70.8593 70.1829 70.6591 70.293 70.4965 70.4618C70.3359 70.6366 70.2343 70.8391 70.1891 71.0575C69.9808 71.1258 69.7871 71.2477 69.6387 71.434C69.4883 71.6144 69.4012 71.8284 69.3726 72.0473C69.1717 72.1261 68.9909 72.2656 68.8537 72.4587C68.7163 72.6506 68.6411 72.8689 68.63 73.092C68.4373 73.1898 68.2613 73.3399 68.1433 73.5442C68.0181 73.7489 67.9613 73.9677 67.9699 74.1889C67.7825 74.2985 67.6198 74.4685 67.5127 74.6772C67.401 74.8862 67.3668 75.1162 67.3817 75.3322C67.207 75.4582 67.0569 75.6337 66.9625 75.854C66.8764 76.068 66.8552 76.2975 66.8877 76.5177C66.7181 76.6519 66.5813 76.8437 66.5047 77.0634C66.4289 77.289 66.427 77.5177 66.4773 77.7324C66.3209 77.8829 66.2021 78.0801 66.1388 78.3112C66.0802 78.5361 66.0957 78.7642 66.1581 78.9784C66.0135 79.1405 65.9082 79.3432 65.8696 79.5734C65.8241 79.8038 65.85 80.0375 65.937 80.2399C65.7994 80.4137 65.7116 80.6217 65.6841 80.8563C65.6632 81.093 65.7087 81.3187 65.7995 81.5137C65.6804 81.6929 65.6054 81.9136 65.5958 82.1487C65.5926 82.3823 65.6491 82.604 65.7663 82.7968C65.6531 82.9817 65.5951 83.2066 65.6043 83.4421C65.6134 83.6753 65.6888 83.8962 65.8162 84.0778C65.7203 84.2729 65.6751 84.4985 65.7029 84.7321C65.7305 84.9657 65.8224 85.1787 65.9611 85.3478C65.8784 85.5545 65.8519 85.7793 65.8962 86.0111C65.9419 86.2452 66.0462 86.4457 66.1968 86.6084C66.1328 86.8215 66.1233 87.0505 66.1811 87.2769C66.2439 87.5031 66.3661 87.6958 66.5286 87.8471C66.476 88.0658 66.4849 88.2941 66.5598 88.5138C66.6353 88.7395 66.7756 88.9266 66.942 89.0586C66.9096 89.2765 66.9359 89.5041 67.0286 89.7243C67.1208 89.9434 67.2719 90.1168 67.4521 90.2422C67.431 90.4597 67.476 90.6866 67.5866 90.8929C67.6902 91.1007 67.8541 91.2688 68.0435 91.3757C68.0408 91.5973 68.0975 91.8189 68.2199 92.0175C68.3471 92.2184 68.5154 92.3743 68.7189 92.4675C68.7273 92.6838 68.8017 92.9047 68.9418 93.0979C69.0812 93.285 69.2614 93.4224 69.4687 93.5046C69.4961 93.7261 69.5874 93.9332 69.7387 94.1139C69.891 94.2933 70.0826 94.4194 70.2898 94.4895C70.3344 94.7056 70.4381 94.905 70.6076 95.0789C70.7706 95.2471 70.9742 95.3535 71.1858 95.4054C71.2426 95.6198 71.364 95.8137 71.5397 95.9693C71.7199 96.1308 71.9271 96.225 72.1391 96.2589C72.2206 96.4663 72.3543 96.6536 72.54 96.7968C72.7266 96.9412 72.9404 97.022 73.1586 97.0375C73.2497 97.2398 73.3954 97.4206 73.5925 97.5441C73.7894 97.6749 74.0157 97.7383 74.2317 97.7431C74.3352 97.9376 74.4996 98.1057 74.7019 98.217C74.911 98.3352 75.1351 98.3819 75.352 98.3734C75.4737 98.554 75.6431 98.7111 75.8566 98.8099C76.0711 98.911 76.3001 98.937 76.5168 98.9105C76.6492 99.0871 76.8301 99.2305 77.0486 99.3122C77.2755 99.3924 77.5041 99.4076 77.7201 99.3631C77.8653 99.5319 78.0564 99.6581 78.2814 99.7263C78.507 99.797 78.7358 99.7941 78.9496 99.7316C79.1066 99.8867 79.3033 99.9994 79.5338 100.052C79.764 100.096 79.999 100.081 80.1997 100.008C80.3682 100.146 80.577 100.245 80.8129 100.279C81.0427 100.312 81.2711 100.273 81.4722 100.186C81.6513 100.318 81.8656 100.4 82.1002 100.415C82.335 100.43 82.5553 100.379 82.7511 100.275C82.9355 100.387 83.1545 100.458 83.3955 100.454L83.4317 100.452" fill="#16324D"/>
<path d="M85.6743 82.6223C85.7247 83.9177 84.7165 85.0077 83.4208 85.0582C82.1258 85.1086 81.0353 84.1004 80.9848 82.805C80.9344 81.5095 81.9431 80.4195 83.2381 80.3691C84.5338 80.3186 85.6238 81.3268 85.6743 82.6223Z" fill="#16324D"/>
<path d="M43.8613 84.5527L10.8112 85.8405L10.7878 85.2397L43.8379 83.9519L43.8613 84.5527Z" fill="#6D7982"/>
<path d="M28.2705 101.411L27.6688 101.435L26.381 68.3834L26.9827 68.36L28.2705 101.411Z" fill="#6D7982"/>
<path d="M16.3151 97.2427L15.8738 96.8338L38.3354 72.551L38.7758 72.9599L16.3151 97.2427Z" fill="#6D7982"/>
<path d="M39.2627 96.3485L14.9797 73.8871L15.3879 73.4452L39.6699 95.9066L39.2627 96.3485Z" fill="#6D7982"/>
<path d="M42.7514 90.8673L11.6923 79.49L11.8993 78.9259L42.9578 90.302L42.7514 90.8673" fill="#6D7982"/>
<path d="M21.9189 100.529L21.3552 100.323L32.7315 69.2639L33.2963 69.4718L21.9189 100.529Z" fill="#6D7982"/>
<path d="M12.4489 92.1289L12.1959 91.5828L42.2021 77.666L42.4552 78.211L12.4489 92.1289" fill="#6D7982"/>
<path d="M34.0116 100.027L20.0932 70.0213L20.6399 69.7677L34.5574 99.7742L34.0116 100.027" fill="#6D7982"/>
<path d="M27.3755 100.23L27.3811 100.23C27.1766 100.232 26.9799 100.287 26.815 100.371C26.649 100.275 26.467 100.211 26.2595 100.195C26.055 100.184 25.859 100.222 25.687 100.296C25.5309 100.188 25.3483 100.109 25.1425 100.075C24.9424 100.047 24.7451 100.073 24.5677 100.14C24.4184 100.013 24.2453 99.9249 24.0459 99.8773C23.8456 99.837 23.646 99.8448 23.4624 99.9C23.3255 99.7622 23.1583 99.6592 22.9638 99.6005C22.7626 99.5422 22.5641 99.5379 22.3798 99.5752C22.2534 99.4308 22.0914 99.3168 21.8964 99.245C21.707 99.1741 21.5073 99.1518 21.3221 99.1771C21.2071 99.0263 21.0524 98.8927 20.8681 98.8097C20.6836 98.7206 20.4835 98.6862 20.2917 98.6997C20.1898 98.5352 20.0451 98.4024 19.8677 98.301C19.6884 98.1997 19.5004 98.1529 19.3079 98.1483C19.2171 97.9774 19.0845 97.8321 18.9127 97.7172C18.7386 97.6049 18.5506 97.546 18.3626 97.5232C18.2835 97.3518 18.1626 97.1941 17.9956 97.0682C17.8348 96.9481 17.6508 96.871 17.4633 96.8362C17.3957 96.6583 17.2877 96.494 17.1375 96.3554C16.9815 96.2231 16.8038 96.1277 16.6156 96.0869C16.5661 95.9023 16.4695 95.7256 16.3246 95.5808C16.1803 95.4359 16.0146 95.3341 15.8313 95.275C15.7883 95.0902 15.7083 94.9055 15.5767 94.7494C15.4436 94.5909 15.2831 94.478 15.1059 94.4067C15.0752 94.2201 15.0066 94.0302 14.8861 93.8676C14.7655 93.7039 14.6106 93.5763 14.4375 93.494C14.43 93.3017 14.369 93.1103 14.2669 92.9398C14.1567 92.7636 14.013 92.6247 13.8472 92.5301C13.8521 92.3434 13.8086 92.1453 13.7107 91.9626C13.6184 91.7856 13.487 91.6343 13.3262 91.5262C13.3443 91.339 13.3112 91.1417 13.2316 90.9582C13.1524 90.7688 13.0315 90.6122 12.8815 90.4905C12.9123 90.3027 12.8975 90.1047 12.8304 89.9148C12.7626 89.7188 12.6533 89.5558 12.5093 89.4218C12.5577 89.2394 12.5556 89.0409 12.5057 88.8443L12.5055 88.8383C12.4503 88.6418 12.3524 88.4711 12.2205 88.3319C12.2797 88.149 12.2964 87.951 12.2586 87.7527C12.2197 87.5496 12.1352 87.3724 12.0151 87.2206C12.0867 87.0433 12.1148 86.8496 12.0891 86.646C12.0679 86.4423 11.9951 86.2513 11.887 86.0931C11.9701 85.9214 12.011 85.7284 12.003 85.5229C11.9951 85.3198 11.9336 85.1297 11.8369 84.9649C11.9324 84.7975 11.9918 84.6087 11.9951 84.404C12.0059 84.1989 11.9562 84.0083 11.871 83.8371C11.9799 83.6776 12.0509 83.4943 12.0725 83.2877C12.0945 83.0822 12.0624 82.8837 11.9895 82.7144C12.1107 82.5581 12.1937 82.3803 12.2272 82.1817C12.2618 81.9805 12.2479 81.7825 12.1876 81.5983C12.3198 81.4559 12.4151 81.2825 12.4686 81.0879C12.5144 80.8875 12.5128 80.689 12.4694 80.5042C12.6085 80.3724 12.7162 80.2057 12.7813 80.0166C12.8457 79.8215 12.8624 79.6223 12.8305 79.431C12.9767 79.311 13.0975 79.1558 13.1799 78.9661C13.2568 78.7765 13.2861 78.5768 13.2667 78.391C13.424 78.2814 13.557 78.133 13.6518 77.9488C13.7412 77.7708 13.7879 77.5704 13.7807 77.3841C13.944 77.2803 14.0901 77.1422 14.1976 76.9695C14.299 76.7983 14.3576 76.6022 14.3683 76.4153C14.5401 76.3255 14.6908 76.1993 14.8107 76.0321C14.924 75.8641 14.996 75.6819 15.018 75.4873C15.1964 75.4202 15.3595 75.3007 15.4931 75.145C15.6191 74.9897 15.7022 74.8059 15.7433 74.6166C15.9209 74.5555 16.0914 74.4526 16.236 74.3025L16.2362 74.3085C16.3752 74.1587 16.4704 73.9865 16.5232 73.7979C16.7087 73.7558 16.8852 73.6634 17.0354 73.5252C17.1876 73.3869 17.2958 73.2214 17.3606 73.0371C17.5455 73.0059 17.7295 72.9265 17.8932 72.8058C18.056 72.6791 18.1772 72.5191 18.2541 72.3464C18.4405 72.3271 18.6311 72.2595 18.8001 72.1446C18.9703 72.0357 19.1026 71.8861 19.1928 71.7141C19.3789 71.7129 19.5756 71.6571 19.7518 71.5599C19.9289 71.458 20.0678 71.319 20.1702 71.1585C20.3626 71.1631 20.5598 71.1313 20.7437 71.0399C20.9261 70.9533 21.0778 70.8283 21.1916 70.6734C21.3791 70.6962 21.5774 70.6692 21.7669 70.5968C21.9564 70.5233 22.1216 70.4085 22.2425 70.2654C22.4304 70.3002 22.6281 70.2925 22.8239 70.2295C23.0208 70.1749 23.1909 70.066 23.3239 69.9344C23.5067 69.9802 23.7061 69.9917 23.9089 69.9477L23.9087 69.9417C24.1043 69.898 24.2818 69.8068 24.4287 69.6808C24.6047 69.7461 24.804 69.7672 25.0073 69.7364C25.211 69.7044 25.3884 69.6253 25.5467 69.5108C25.7175 69.5884 25.9116 69.623 26.116 69.609C26.3261 69.5948 26.5096 69.5263 26.6748 69.4235C26.8415 69.5133 27.0351 69.5611 27.2396 69.5592C27.4435 69.5573 27.6352 69.5065 27.8057 69.4168C27.9657 69.5177 28.1554 69.5837 28.3598 69.5938C28.5593 69.6101 28.7567 69.5723 28.9341 69.4932C29.0883 69.6003 29.2714 69.6786 29.4722 69.7069C29.6723 69.7352 29.8703 69.7154 30.0539 69.6481C30.1972 69.7689 30.375 69.8643 30.5758 69.9034C30.776 69.9509 30.9734 69.9372 31.1587 69.8879C31.2898 70.0212 31.4635 70.1227 31.658 70.1814C31.8516 70.2388 32.0506 70.2443 32.2429 70.2067C32.3682 70.345 32.529 70.4663 32.7184 70.5372C32.9144 70.6078 33.1076 70.6303 33.2993 70.606C33.4129 70.7568 33.5687 70.8832 33.7518 70.9723C33.9421 71.0552 34.1366 71.0897 34.328 71.0762C34.4311 71.2407 34.5748 71.3795 34.7534 71.4749C34.9313 71.5763 35.1264 71.6228 35.3184 71.6274C35.4094 71.7923 35.5417 71.9436 35.715 72.0572C35.8813 72.1651 36.0714 72.2299 36.264 72.2476C36.3421 72.4179 36.4634 72.5756 36.6247 72.7005C36.7863 72.829 36.9759 72.9047 37.1632 72.9335C37.2303 73.1114 37.3392 73.2769 37.4885 73.4143C37.6449 73.5466 37.8224 73.6359 38.011 73.6839C38.0599 73.8674 38.1568 74.0381 38.3014 74.1889C38.4448 74.3338 38.6185 74.4365 38.8008 74.4956C38.8381 74.6795 38.9236 74.8567 39.0552 75.0141C39.1887 75.1713 39.3497 75.2854 39.526 75.358C39.5523 75.5483 39.6253 75.732 39.7459 75.897C39.8665 76.0608 40.0167 76.1873 40.1878 76.2697C40.2027 76.4617 40.2633 76.6531 40.3658 76.8224C40.4748 76.9999 40.6202 77.1375 40.7848 77.2345C40.7873 77.4198 40.8307 77.6167 40.9218 77.7949L40.922 77.8009C41.0192 77.9776 41.1513 78.1229 41.3111 78.231C41.2951 78.4242 41.3264 78.6215 41.4063 78.805C41.4862 78.9944 41.6065 79.1522 41.7621 79.2725C41.7332 79.4602 41.7451 79.6583 41.8137 79.8482C41.8754 80.0444 41.9909 80.2084 42.1274 80.3354C42.0863 80.5236 42.088 80.7233 42.1385 80.9187C42.1935 81.1151 42.2914 81.2858 42.4234 81.4263C42.3651 81.6079 42.3475 81.8072 42.3916 82.0112C42.4298 82.2071 42.5145 82.3904 42.6344 82.5373C42.5633 82.7134 42.5349 82.9131 42.5551 83.1169C42.5818 83.3217 42.6543 83.5042 42.7634 83.6624C42.6803 83.8354 42.639 84.0283 42.647 84.2338L42.6481 84.2626L42.6495 84.2987C42.6575 84.5042 42.7138 84.6946 42.81 84.8593C42.7202 85.0253 42.6607 85.2141 42.6513 85.4191C42.6466 85.6227 42.691 85.8207 42.7757 85.9919C42.667 86.1466 42.5972 86.3359 42.5744 86.5353C42.5519 86.7408 42.5836 86.9382 42.6564 87.1159C42.5371 87.2637 42.4528 87.4427 42.4183 87.6426C42.3782 87.8428 42.3983 88.0466 42.4542 88.2249C42.3267 88.3695 42.2309 88.5417 42.1783 88.7364C42.1264 88.9358 42.1276 89.1343 42.1701 89.3204C42.0313 89.451 41.9236 89.6188 41.8601 89.8127C41.7881 90.002 41.7775 90.201 41.8094 90.3923C41.6575 90.5126 41.5381 90.6677 41.4608 90.8572C41.3775 91.047 41.3493 91.2419 41.369 91.4325C41.2101 91.541 41.0782 91.6905 40.9833 91.8747C40.8934 92.0539 40.8521 92.2481 40.8539 92.4394C40.6895 92.5373 40.544 92.6753 40.4367 92.8528C40.3296 93.0267 40.2764 93.2141 40.2669 93.407C40.0939 93.4932 39.9423 93.6195 39.8233 93.7866C39.7034 93.9537 39.6329 94.1358 39.6089 94.3305C39.4317 94.4036 39.2665 94.5183 39.1414 94.6737C39.0093 94.8292 38.9262 95.013 38.885 95.2012C38.7065 95.2623 38.537 95.3652 38.3926 95.5092C38.2532 95.659 38.1574 95.8313 38.1039 96.0139C37.9202 96.0632 37.7432 96.1543 37.592 96.2926C37.4406 96.4248 37.3272 96.5917 37.2611 96.7748C37.0766 96.8061 36.8935 96.8854 36.7287 97.0122C36.5712 97.1327 36.4519 97.2938 36.374 97.4653C36.1829 97.4848 35.9914 97.5524 35.8215 97.6674C35.6527 97.7762 35.524 97.9245 35.4295 98.0918C35.2431 98.0991 35.0462 98.1489 34.8707 98.252C34.6934 98.3492 34.5536 98.487 34.4519 98.6547C34.2588 98.6441 34.0613 98.6807 33.8785 98.7661C33.6952 98.8514 33.5435 98.9777 33.4298 99.1338C33.2422 99.1098 33.0441 99.1295 32.8542 99.2031C32.6582 99.277 32.5007 99.3974 32.3733 99.5408C32.1863 99.5072 31.9874 99.5077 31.7915 99.5707C31.5955 99.6313 31.4302 99.734 31.2918 99.873C31.1086 99.8187 30.9104 99.8084 30.7134 99.8582C30.5102 99.9034 30.3336 99.9934 30.1933 100.12C30.0112 100.054 29.811 100.032 29.6134 100.065C29.4103 100.09 29.2268 100.17 29.0746 100.283C28.8968 100.207 28.7032 100.172 28.4992 100.186C28.2947 100.199 28.1052 100.267 27.946 100.37C27.7737 100.28 27.5801 100.234 27.3755 100.23V100.23ZM27.4273 102.634C27.6489 102.625 27.8512 102.558 28.027 102.448C28.2242 102.55 28.449 102.601 28.6824 102.585C28.9174 102.571 29.1308 102.483 29.3057 102.351C29.5066 102.44 29.7316 102.472 29.965 102.44C30.1993 102.407 30.4046 102.309 30.5748 102.164C30.7832 102.24 31.0112 102.255 31.2378 102.204C31.4713 102.153 31.6698 102.035 31.8269 101.88C32.0336 101.937 32.2688 101.94 32.4952 101.872C32.7209 101.803 32.9083 101.675 33.0526 101.507C33.2706 101.553 33.499 101.537 33.7184 101.45C33.9383 101.363 34.1187 101.225 34.2513 101.045C34.4676 101.072 34.6962 101.039 34.9091 100.942C35.1213 100.836 35.2898 100.685 35.4091 100.5C35.6248 100.509 35.8527 100.458 36.0578 100.342C36.2587 100.226 36.4212 100.063 36.5221 99.8678C36.744 99.8651 36.9645 99.7952 37.1575 99.6673C37.3572 99.5332 37.5002 99.3531 37.5889 99.1571C37.8048 99.1366 38.0245 99.057 38.2102 98.9102C38.392 98.7647 38.5298 98.5728 38.5996 98.3727C38.8139 98.3331 39.0273 98.2345 39.2022 98.0784C39.3761 97.9212 39.4948 97.7228 39.5528 97.51C39.768 97.4594 39.9675 97.3434 40.1298 97.1746C40.2919 97.0058 40.399 96.797 40.4378 96.5849C40.6513 96.5164 40.8396 96.3887 40.9886 96.2084C41.1452 96.029 41.2332 95.8137 41.2604 95.5948C41.4614 95.516 41.6426 95.3765 41.7804 95.1846C41.9162 94.9928 41.9923 94.7732 42.002 94.5502C42.1961 94.4523 42.3707 94.3011 42.4956 94.1037C42.6142 93.9005 42.6721 93.6756 42.6693 93.4579C42.8576 93.3434 43.0204 93.1794 43.126 92.9707C43.2325 92.7571 43.2712 92.533 43.2571 92.3157C43.4322 92.1897 43.582 92.0142 43.6759 91.7939C43.7693 91.5736 43.7912 91.3513 43.752 91.129C43.9271 90.9898 44.0586 90.8053 44.1337 90.5846C44.21 90.359 44.2189 90.1311 44.1621 89.9155C44.3245 89.7648 44.449 89.5686 44.5068 89.3364C44.5648 89.1115 44.5559 88.8832 44.4874 88.6692C44.6366 88.507 44.744 88.3054 44.7819 88.0741C44.827 87.8436 44.7944 87.6102 44.7145 87.4075C44.8522 87.2349 44.9404 87.0269 44.967 86.7911C44.9944 86.5542 44.9489 86.3285 44.8516 86.1337C44.9767 85.9543 45.0457 85.735 45.0554 85.4999C45.065 85.2649 45.0015 85.0447 44.8916 84.8564C45.004 84.6655 45.0621 84.4406 45.0529 84.2051L45.0515 84.169L45.0499 84.1281C45.0407 83.8926 44.9604 83.6791 44.8387 83.4985C44.9336 83.3023 44.9735 83.072 44.946 82.8372C44.9186 82.6048 44.8259 82.3978 44.687 82.2227C44.7699 82.0197 44.7957 81.7912 44.7518 81.557C44.7063 81.3301 44.6018 81.1236 44.4517 80.9609C44.5155 80.7539 44.5245 80.5248 44.4621 80.2986C44.4041 80.0662 44.2833 79.8723 44.1208 79.7222C44.1671 79.5098 44.1629 79.2813 44.0827 79.0557L44.0829 79.0617C44.0078 78.8348 43.8684 78.6489 43.7008 78.511C43.7335 78.2991 43.707 78.0654 43.6146 77.8524C43.5213 77.6334 43.3702 77.4576 43.1916 77.3381C43.206 77.1161 43.1665 76.889 43.057 76.6815C42.9464 76.4751 42.7835 76.313 42.5925 76.2001C42.5968 75.9833 42.5391 75.7581 42.411 75.5585C42.2888 75.3574 42.1157 75.2077 41.9179 75.1143C41.9036 74.891 41.8292 74.6713 41.6898 74.4854C41.5557 74.2908 41.3699 74.1536 41.1674 74.0713C41.1345 73.8559 41.0421 73.6429 40.891 73.4682C40.741 73.2875 40.5485 73.1626 40.3413 73.0937C40.292 72.879 40.186 72.6773 40.0243 72.5103C39.86 72.335 39.6575 72.2285 39.4444 72.1767C39.3827 71.9685 39.2606 71.7686 39.0848 71.613C38.9115 71.4573 38.6977 71.3633 38.4852 71.3295C38.4038 71.1232 38.2709 70.9346 38.0858 70.7914C37.8997 70.6482 37.6849 70.5663 37.4615 70.551C37.3756 70.3497 37.2247 70.169 37.0267 70.0444C36.8293 69.9137 36.6096 69.85 36.3936 69.8464C36.2827 69.6521 36.1254 69.4886 35.9177 69.3715C35.714 69.2591 35.4889 69.2125 35.2669 69.2211C35.1513 69.0403 34.9773 68.8846 34.7623 68.7835C34.5478 68.6847 34.3178 68.6564 34.1031 68.684C33.9702 68.5074 33.7895 68.3713 33.5693 68.2824C33.3434 68.2009 33.1138 68.187 32.8998 68.2314C32.7552 68.0686 32.5625 67.9377 32.3382 67.873C32.1126 67.8048 31.8782 67.8067 31.67 67.8689C31.5139 67.7125 31.3098 67.6002 31.079 67.5562C30.8485 67.5038 30.6218 67.5247 30.4136 67.6002C30.2458 67.4551 30.0432 67.3607 29.8079 67.3277C29.5715 67.2948 29.3443 67.3277 29.1486 67.4196C28.9688 67.2942 28.7543 67.2063 28.5196 67.1914C28.2845 67.1765 28.0577 67.2334 27.8624 67.3373C27.6777 67.2181 27.46 67.1556 27.2246 67.1588C26.9894 67.1559 26.7696 67.2234 26.5873 67.3461C26.3901 67.2442 26.1657 67.1928 25.9323 67.2091C25.698 67.2303 25.4853 67.3096 25.3095 67.4428C25.1073 67.3556 24.8774 67.3212 24.6437 67.3544C24.4111 67.3936 24.2048 67.4919 24.0407 67.6379C23.8332 67.5605 23.6042 67.5466 23.3721 67.5977C23.1441 67.6487 22.9446 67.7636 22.7885 67.9201C22.5752 67.8635 22.3476 67.8603 22.1204 67.9281C21.8945 67.9971 21.7061 68.1308 21.5639 68.2928C21.3451 68.2544 21.1158 68.2681 20.8973 68.3561C20.6773 68.4417 20.4962 68.5823 20.3654 68.7619C20.148 68.7343 19.9204 68.766 19.7082 68.8718C19.4953 68.9691 19.3266 69.1274 19.2078 69.3125C18.9903 69.3029 18.7642 69.3539 18.5633 69.47C18.3582 69.5863 18.2013 69.7477 18.0948 69.9456C17.8783 69.954 17.658 70.0168 17.4588 70.1509C17.2648 70.2788 17.1209 70.4589 17.0333 70.6597C16.8113 70.6804 16.5978 70.7621 16.4106 70.9066C16.2241 71.0535 16.0928 71.2452 16.0217 71.4453C15.8069 71.485 15.5941 71.5835 15.4201 71.7408C15.2467 71.898 15.127 72.0952 15.0686 72.3093C14.8544 72.3645 14.6543 72.4747 14.4921 72.6434C14.331 72.8182 14.2304 73.0207 14.1843 73.2391C13.9764 73.3074 13.7836 73.4293 13.6338 73.6156C13.4843 73.796 13.3964 74.01 13.3691 74.2289C13.1658 74.3078 12.986 74.4472 12.8492 74.6403C12.7115 74.8322 12.6362 75.0506 12.6271 75.2736C12.4316 75.3715 12.2574 75.5215 12.1384 75.7259C12.0147 75.9305 11.9574 76.1493 11.966 76.3705C11.7776 76.4801 11.6149 76.6501 11.5088 76.8588C11.3971 77.0678 11.3638 77.2978 11.3769 77.5139C11.2021 77.6398 11.052 77.8154 10.9586 78.0356C10.8715 78.2497 10.8503 78.4792 10.8824 78.6993C10.7137 78.8335 10.5764 79.0254 10.4999 79.245C10.425 79.4706 10.4216 79.6994 10.4724 79.914C10.316 80.0645 10.1972 80.2617 10.1339 80.4929C10.0763 80.7177 10.0909 80.9458 10.1537 81.16C10.0091 81.3221 9.90377 81.5248 9.86376 81.755C9.81822 81.9855 9.84609 82.2191 9.9316 82.4215C9.79456 82.5954 9.70723 82.8034 9.67918 83.0379C9.6588 83.2746 9.70333 83.5004 9.79458 83.6954C9.67555 83.8745 9.60051 84.0953 9.5909 84.3303C9.58821 84.5639 9.64521 84.7856 9.76092 84.9784C9.64778 85.1634 9.59023 85.3883 9.59941 85.6238C9.60849 85.8569 9.68341 86.0778 9.81084 86.2594C9.71542 86.4545 9.67066 86.6801 9.69806 86.9137C9.72509 87.1474 9.818 87.3604 9.95673 87.5295C9.87452 87.7361 9.84706 87.961 9.89231 88.1927C9.93802 88.4268 10.0418 88.6274 10.1924 88.79C10.1284 89.0031 10.1193 89.2321 10.1762 89.4586C10.239 89.6848 10.3612 89.8774 10.5232 90.0287C10.4725 90.2474 10.4814 90.4757 10.5554 90.6954C10.6305 90.9212 10.7698 91.1083 10.9381 91.2402C10.9047 91.4581 10.931 91.6857 11.0237 91.906C11.1174 92.125 11.267 92.2985 11.4482 92.4238C11.4256 92.6413 11.4702 92.8682 11.5817 93.0745C11.6861 93.2823 11.8483 93.4505 12.0396 93.5573C12.0361 93.7789 12.0936 94.0005 12.2146 94.1992C12.3423 94.4 12.5115 94.5559 12.713 94.6492C12.7214 94.8655 12.7964 95.0864 12.937 95.2795C13.0753 95.4667 13.2565 95.604 13.4639 95.6862C13.4913 95.9078 13.5839 96.1148 13.734 96.2955C13.8866 96.4749 14.0777 96.601 14.2858 96.6711C14.3295 96.8873 14.4342 97.0866 14.6022 97.2606C14.7658 97.4287 14.9693 97.5351 15.1819 97.587C15.2382 97.8014 15.3609 97.9952 15.5339 98.151C15.7155 98.3124 15.9242 98.4066 16.1356 98.4404C16.2157 98.6479 16.3499 98.8353 16.536 98.9785C16.7226 99.1228 16.936 99.2036 17.1537 99.2192C17.2453 99.4214 17.3905 99.6023 17.5877 99.7258C17.785 99.8565 18.0103 99.9199 18.2273 99.9247C18.3311 100.119 18.4947 100.287 18.697 100.399C18.9066 100.517 19.1312 100.563 19.3471 100.555C19.4689 100.736 19.6382 100.893 19.8522 100.991C20.0667 101.093 20.2962 101.119 20.5119 101.092C20.6452 101.269 20.8252 101.412 21.0437 101.494C21.2711 101.574 21.5002 101.589 21.7152 101.545C21.8604 101.714 22.0515 101.84 22.2761 101.908C22.5021 101.979 22.7309 101.976 22.9452 101.913C23.1017 102.068 23.2994 102.181 23.5294 102.233C23.7596 102.277 23.9941 102.262 24.1957 102.189C24.3633 102.327 24.5722 102.426 24.808 102.46C25.0378 102.494 25.2662 102.455 25.4673 102.367C25.6464 102.5 25.8607 102.582 26.0953 102.597C26.3306 102.612 26.5519 102.561 26.7463 102.457C26.9307 102.569 27.1506 102.64 27.3906 102.635L27.4273 102.634" fill="#16324D"/>
<path d="M51.6827 84.4802L51.0739 86.0481L59.1752 82.5057L56.5315 82.1358L51.5786 84.441L51.6827 84.4802" fill="#6D7982"/>
<path d="M61.1649 81.5926C61.186 82.1334 60.7641 82.5903 60.223 82.6114L55.6372 82.7901C55.0964 82.8112 54.6389 82.3885 54.6179 81.8477C54.5968 81.3058 55.0199 80.8488 55.5607 80.8277L60.1465 80.649C60.6877 80.628 61.1438 81.0507 61.1649 81.5926Z" fill="#16324D"/>
<path d="M52.504 51.489C52.8208 54.4089 52.7353 57.1132 52.0421 59.7121C59.6211 58.8933 65.3809 55.3378 65.1298 51.4775C64.8778 47.6158 58.6959 44.8375 51.0665 45.0149C51.834 47.0724 52.2651 49.2929 52.504 51.489" fill="#975144"/>
<path d="M57.0211 79.4977C57.0211 79.4977 64.7442 65.0492 65.137 51.5775L55.2747 54.382L54.75 79.0904L57.0211 79.4977" fill="#975144"/>
<path d="M56.0161 59.6138C56.0161 59.6138 48.9644 62.6158 38.0112 60.2588C38.0112 60.2588 40.1469 53.984 36.6754 46.4538C36.6754 46.4538 49.1089 43.5448 56.2123 44.8257C56.2123 44.8257 60.0324 53.7973 56.0161 59.6138Z" fill="#1B2645"/>
<path d="M56.2123 44.8257C56.2123 44.8257 60.0324 53.7973 56.0161 59.6138L50.9996 74.9999L58.9996 77.4999C65.7996 59.4999 67.1663 50.3332 65.9996 48.9999C63.1996 46.9999 57.9747 45.0504 56.2123 44.8257Z" fill="#1B2645"/>
<path d="M54.5985 80.6538C54.8554 81.0325 55.2855 81.1782 55.7711 81.128C56.1158 81.0929 56.447 81.0042 56.7836 80.9309C57.2452 80.8299 57.6709 80.912 58.1023 81.0974C58.8955 81.4408 59.6521 81.9974 60.556 81.7504C61.0327 81.6199 61.4165 81.2005 61.5049 80.7217L61.5387 80.8154C61.6006 81.0634 61.4962 81.3166 61.3472 81.5113C60.9571 82.0188 60.2674 82.2478 59.6446 82.1794C59.0114 82.109 58.4786 81.7422 57.8755 81.5768C57.5918 81.4988 57.3015 81.4824 57.0114 81.5142C56.7094 81.5476 56.4168 81.6288 56.1196 81.6741C55.8363 81.7152 55.5423 81.7231 55.2743 81.6131C54.9986 81.4999 54.7846 81.2784 54.6392 81.0229C54.5746 80.9099 54.5452 80.7485 54.5062 80.6273L54.5985 80.6538" fill="#16324D"/>
<path d="M54.4793 79.0803C54.5213 78.962 54.6284 78.7676 54.6284 78.7676C54.8782 78.8927 55.1323 79.0164 55.4119 79.0524C55.6983 79.0894 55.978 79.028 56.246 78.9321C56.7398 78.7552 57.2718 78.4251 57.8064 78.6318C58.0484 78.7258 58.2503 78.8985 58.4498 79.0592C58.6782 79.2405 58.9129 79.4095 59.18 79.5326C59.7659 79.8023 60.4379 79.8194 61.0151 80.1062C61.2347 80.2156 61.4457 80.3819 61.5081 80.631C61.5708 80.8777 61.4664 81.1309 61.3174 81.3257C60.9273 81.8343 60.2371 82.0622 59.6144 81.9938C58.9817 81.9234 58.4488 81.5578 57.8448 81.3912C57.5616 81.3132 57.2723 81.2955 56.9806 81.3286C56.6801 81.3619 56.3862 81.4432 56.0888 81.4873C55.8056 81.5296 55.5121 81.5374 55.245 81.4275C54.9679 81.3143 54.7553 81.0939 54.6089 80.8373C54.3042 80.3027 54.2723 79.6553 54.4793 79.0803" fill="#3E4156"/>
<path d="M59.7676 79.8081C59.6239 79.7595 59.4692 79.7367 59.3181 79.7425C58.9191 79.7605 58.555 79.9612 58.4361 80.3594L58.3477 80.4074L58.2996 80.319C58.4402 79.8502 58.8722 79.6167 59.3126 79.6019C59.4811 79.5954 59.6527 79.62 59.8127 79.6739L59.8581 79.7636L59.7676 79.8081" fill="white"/>
<path d="M59.1319 79.5278C58.9871 79.4781 58.8324 79.4564 58.6804 79.4623C58.2819 79.4803 57.9179 79.6822 57.7975 80.0805L57.7091 80.1272L57.661 80.0388C57.8031 79.5711 58.235 79.3377 58.675 79.3217C58.8444 79.3151 59.0164 79.3385 59.177 79.3937L59.2224 79.4846L59.1319 79.5278" fill="white"/>
<path d="M58.4932 79.2465C58.3494 79.1979 58.1948 79.1763 58.0428 79.1822C57.6447 79.1989 57.2797 79.4009 57.1612 79.7991L57.0723 79.8459L57.0242 79.7575C57.1648 79.2886 57.5977 79.0551 58.0372 79.0404C58.2062 79.0338 58.3782 79.0572 58.5393 79.1123L58.5827 79.2021L58.4927 79.2465L58.4932 79.2465" fill="white"/>
<path d="M73.2911 52.5903C73.2911 52.5903 76.5399 49.507 84.4572 49.4059C84.4572 49.4059 84.6105 58.1171 84.9092 61.0048C84.9806 61.6917 84.5594 62.8502 82.2577 62.9399C79.9557 63.0296 79.6852 63.0474 78.372 63.0913C77.6747 63.1137 76.5432 63.2504 75.8062 61.0334C75.07 58.815 73.2911 52.5903 73.2911 52.5903Z" fill="#6D7982"/>
<path d="M74.5815 54.8471L72.1289 56.1609L71.9194 55.7694L74.3717 54.4567L74.5815 54.8471Z" fill="#6D7982"/>
<path d="M77.5425 61.5888L75.0898 62.9011L74.8803 62.5109L77.3341 61.1985L77.5425 61.5888Z" fill="#6D7982"/>
<path d="M65.789 89.7167C65.5881 89.7245 65.3982 89.6044 65.3265 89.4062C62.8044 82.4842 64.3438 74.8287 69.3414 69.4251C73.5991 64.8217 79.8632 62.5304 86.0975 63.2997C86.3563 63.3305 86.5408 63.5665 86.5092 63.8253C86.4769 64.0841 86.2408 64.2726 85.9817 64.237C80.047 63.5066 74.0878 65.6849 70.0349 70.0672C65.2787 75.2087 63.8146 82.4954 66.2142 89.0827C66.3037 89.3284 66.1765 89.5993 65.9312 89.6883L65.789 89.7167" fill="#16324D"/>
<path d="M70.8253 53.0178C70.7169 53.0221 70.6071 52.9896 70.514 52.9171C70.3092 52.7563 70.2742 52.4596 70.4364 52.2544L73.3399 48.5626C73.5012 48.3575 73.7979 48.3229 74.003 48.4837C74.2082 48.6454 74.2437 48.9426 74.083 49.1472L71.1788 52.8381C71.0893 52.9521 70.9587 53.0126 70.8253 53.0178" fill="#6D7982"/>
<path d="M43.6804 68.7225C43.4837 68.7302 43.2963 68.6147 43.2211 68.4215L39.6823 59.3198C39.5872 59.0756 39.7077 58.8025 39.9512 58.7075C40.1944 58.6138 40.4684 58.7331 40.5627 58.9774L44.1019 68.079C44.1969 68.322 44.076 68.5964 43.8328 68.6901L43.6804 68.7225" fill="#6D7982"/>
<path d="M72.613 57.6073C72.4178 57.6149 72.2303 57.4982 72.155 57.3062L69.735 51.0946C69.6394 50.8516 69.7609 50.5774 70.004 50.4833C70.2481 50.3882 70.5211 50.5083 70.6158 50.7519L73.0359 56.9626C73.13 57.2056 73.0091 57.4799 72.7673 57.5748L72.613 57.6073Z" fill="#6D7982"/>
<path d="M50.4573 89.6394L27.3782 87.1579L27.4286 86.6878L50.5082 89.1705L50.4573 89.6394" fill="#16324D"/>
<path d="M83.3661 83.6589C82.9831 83.6738 82.6139 83.4535 82.4578 83.0781L71.0324 55.7258C70.8312 55.2448 71.0579 54.6905 71.5394 54.4894C72.0219 54.2877 72.5752 54.5153 72.7765 54.9978L84.2023 82.3494C84.4034 82.8314 84.1753 83.3843 83.6942 83.5859C83.5869 83.631 83.4773 83.6546 83.3661 83.6589" fill="#386FAA"/>
<path d="M50.9565 86.4307C50.6256 86.4436 50.3193 86.2197 50.2417 85.8833C50.1532 85.5052 50.3853 85.1267 50.7615 85.0338C50.8802 85.0027 58.2898 82.8148 73.51 60.3162C73.7287 59.9911 74.1705 59.9065 74.4936 60.1262C74.8181 60.3459 74.903 60.7855 74.6843 61.1105C58.9645 84.3483 51.4062 86.3398 51.0926 86.4122L50.9565 86.4307Z" fill="#386FAA"/>
<path d="M45.9182 98.6568L44.6543 98.0886L50.3013 85.4987L51.5665 86.0656L45.9182 98.6568Z" fill="#6D7982"/>
<path d="M48.7137 98.2711C48.7348 98.8131 48.3121 99.2701 47.7714 99.2911L43.1847 99.4699C42.6429 99.491 42.1869 99.0682 42.1658 98.5263C42.1447 97.9843 42.5665 97.5286 43.1082 97.5075L47.6949 97.3287C48.2357 97.3077 48.6926 97.7292 48.7137 98.2711Z" fill="#16324D"/>
<path d="M34.0447 57.8552C35.808 63.1001 43.8225 60.2315 47.7925 59.6821C48.7862 59.5447 50.726 58.9058 51.0831 57.8027C51.4581 56.6415 49.1071 56.9809 48.6493 57.0439C45.859 57.4298 39.9874 58.9452 38.7863 55.3747C38.2412 53.7542 33.5164 56.2871 34.0447 57.8552" fill="#386FAA"/>
<path d="M62.0805 54.7981C61.8364 54.8076 61.6059 54.6498 61.5334 54.4034C61.4477 54.1115 61.615 53.8079 61.9059 53.7217L79.4964 45.6488C79.7855 45.5641 80.0929 45.7304 80.178 46.0208C80.2636 46.3118 80.0964 46.6164 79.8048 46.7015L62.214 54.7756L62.0805 54.7981" fill="#6D7982"/>
<path d="M45.8447 80.3583C45.6279 80.3667 45.4287 80.2252 45.3699 80.0073C44.4562 76.6225 42.6062 73.5679 40.0203 71.175C36.3544 67.7855 31.5869 66.024 26.5984 66.2183C21.6092 66.4127 16.9946 68.5386 13.6048 72.2042C13.4276 72.3953 13.1286 72.4069 12.9365 72.2303C12.7447 72.0524 12.733 71.7532 12.9104 71.5621C16.4716 67.7117 21.3198 65.4781 26.5608 65.2739L26.5616 65.2738C31.804 65.0708 36.8105 66.9192 40.6619 70.482C43.3789 72.9962 45.3237 76.2036 46.2831 79.7611C46.3504 80.0136 46.2011 80.2734 45.9494 80.3409L45.8447 80.3583" fill="#16324D"/>
<path d="M66.9828 58.9591C64.1825 59.9311 59.6804 62.1441 55.5693 64.0325C52.0297 65.6568 48.4324 67.2773 45.1945 69.4578C44.7927 69.7286 44.3882 69.9995 43.9848 70.274C46.1082 71.5741 48.2859 72.7818 50.4162 74.0672C54.4828 69.2427 62.2221 63.0945 66.9828 58.9591ZM72.4827 57.2585C66.1793 62.4469 57.0284 69.7958 51.8745 76.1418C51.8201 76.2077 51.7569 76.2715 51.6882 76.3308C51.4079 78.839 51.1581 81.417 51.7054 83.8906C51.9295 84.9012 49.8829 85.5129 49.6648 84.5237C49.0991 81.975 49.3002 79.3556 49.5758 76.7765L49.4075 76.6904C46.815 75.0524 44.1165 73.5954 41.5045 71.9894C36.614 75.445 31.9185 79.3095 28.7209 84.401C28.0581 85.4546 24.9012 85.6234 25.7714 84.2379C30.1763 77.2243 37.0641 72.1804 43.9185 67.7432C47.6829 65.3062 51.7449 63.3932 55.8869 61.6962C60.0306 59.9978 67.4119 56.4586 71.5655 55.5924C72.7574 55.3444 73.4706 56.4449 72.4827 57.2585" fill="#386FAA"/>
<path d="M52.4004 85.4172C52.3685 84.6 51.6808 83.9625 50.8641 83.9943C50.0458 84.0262 49.4093 84.7153 49.4412 85.5325C49.473 86.3496 50.1612 86.986 50.9794 86.9541C51.7961 86.9223 52.4322 86.2343 52.4004 85.4172Z" fill="#16324D"/>
<path d="M29.6713 84.8049C29.7218 86.1003 28.7122 87.1903 27.4174 87.2408C26.1214 87.2913 25.0314 86.2831 24.9809 84.9876C24.9305 83.6922 25.9387 82.6022 27.2347 82.5517C28.5295 82.5013 29.6209 83.5094 29.6713 84.8049Z" fill="#16324D"/>
<path d="M53.5686 85.3722C53.5116 83.9086 52.2805 82.7687 50.8179 82.8257C49.3552 82.8827 48.2148 84.115 48.2718 85.5786C48.3288 87.0411 49.5616 88.1797 51.0243 88.1227C52.4869 88.0657 53.6256 86.8347 53.5686 85.3722ZM55.3781 85.3017C55.474 87.7628 53.5564 89.8365 51.0948 89.9325C46.4125 90.1149 45.0279 85.2164 44.8383 83.4992C44.6492 81.7807 27.2584 83.1696 27.2584 83.1696L27.2343 82.5519L50.7474 81.0159C53.2089 80.92 55.2822 82.8395 55.3781 85.3017Z" fill="#16324D"/>
<path d="M47.2265 61.9457C44.6688 63.3909 42.1522 64.3808 39.49 64.7709C43.2384 71.4092 48.7809 75.2961 52.2267 73.5383C55.6756 71.7803 55.7835 65.0038 52.6059 58.0653C51.0186 59.5846 49.1497 60.8586 47.2265 61.9457" fill="#975144"/>
<path d="M45.0178 96.5584C45.0178 96.5584 53.5921 82.5979 54.7893 69.1739L44.7773 71.3838L42.7753 96.0163L45.0178 96.5584" fill="#975144"/>
<path d="M41.1511 68.3828C41.1511 68.3828 28.7684 58.0334 26.6034 47.0406C26.6034 47.0406 41.7879 51.5701 47.3327 45.4054C47.3327 45.4054 53.183 55.6863 54.8133 62.7161C54.8133 62.7161 48.0819 69.7724 41.1511 68.3828Z" fill="#1F2B4D"/>
<path d="M54.8133 62.7161C54.8133 62.7161 48.0819 69.7724 41.1511 68.3828C41.1511 68.3828 43.4997 70.4274 43.4998 72.4999C43.5 76 38.4996 93.0001 38.4996 93.0001L48 94.9999C51.8757 88.3107 58.6644 72.489 54.8133 62.7161Z" fill="#1F2B4D"/>
<path d="M42.5298 97.5675C42.7641 97.9603 43.1851 98.1329 43.6727 98.1115C44.0181 98.0968 44.3544 98.0271 44.695 97.9742C45.1624 97.9018 45.5827 98.0094 46.0008 98.2194C46.7729 98.6105 47.4945 99.2118 48.4117 99.0184C48.8948 98.9178 49.303 98.5203 49.4199 98.0476L49.4482 98.1452C49.4955 98.3949 49.3767 98.6402 49.2162 98.827C48.7973 99.3103 48.0938 99.4978 47.4757 99.3919C46.8481 99.2852 46.3394 98.8862 45.7462 98.6854C45.468 98.5903 45.1793 98.5547 44.8876 98.5708C44.5844 98.5863 44.2884 98.6495 43.9872 98.6769C43.7037 98.7012 43.4085 98.6898 43.1474 98.5652C42.8786 98.4361 42.6786 98.2032 42.5499 97.9386C42.4913 97.8217 42.4722 97.6588 42.4402 97.5361L42.5298 97.5675" fill="#16324D"/>
<path d="M42.5048 95.9897C42.5558 95.8746 42.6735 95.6871 42.6735 95.6871C42.9158 95.8257 43.1615 95.9641 43.4382 96.0184C43.7209 96.0723 44.006 96.0275 44.2784 95.9483C44.7804 95.8024 45.332 95.5041 45.8533 95.7425C46.0897 95.8488 46.2797 96.034 46.4703 96.2059C46.6872 96.4021 46.9124 96.5846 47.1712 96.7226C47.7383 97.0279 48.4091 97.0848 48.9673 97.4048C49.1803 97.5265 49.3816 97.7064 49.4284 97.9585C49.4764 98.2094 49.358 98.4547 49.1975 98.6415C48.7772 99.1249 48.0736 99.3111 47.4559 99.2052C46.8293 99.0985 46.3197 98.6995 45.7266 98.4987C45.4492 98.4036 45.1607 98.3691 44.8674 98.3842C44.5653 98.3996 44.2682 98.4629 43.9674 98.4891C43.6835 98.5158 43.3898 98.5043 43.1287 98.3797C42.8598 98.2494 42.6598 98.0165 42.5297 97.7519C42.2576 97.1993 42.2653 96.5515 42.5048 95.9897" fill="#3E4156"/>
<path d="M47.7419 97.0336C47.5785 96.9665 47.3976 96.935 47.2225 96.9419C46.8514 96.9587 46.5142 97.138 46.3799 97.5043L46.2889 97.5463L46.2459 97.4553C46.4035 97.0255 46.8058 96.8149 47.217 96.8013C47.4128 96.7936 47.6126 96.828 47.7955 96.9015L47.8344 96.9938L47.7419 97.0336" fill="white"/>
<path d="M47.1226 96.715C46.9592 96.6479 46.7784 96.6165 46.6033 96.6233C46.2312 96.6402 45.8935 96.8194 45.7584 97.187L45.667 97.229L45.6243 97.138C45.7829 96.707 46.1857 96.4975 46.5978 96.4815C46.7936 96.4739 46.9934 96.5094 47.1764 96.5841L47.2152 96.6765L47.1226 96.715" fill="white"/>
<path d="M46.5027 96.3968C46.3392 96.3286 46.1593 96.2983 45.9842 96.3051C45.6134 96.3208 45.2758 96.5 45.1406 96.8663L45.0488 96.9096L45.0066 96.8186C45.1652 96.3876 45.5679 96.1781 45.9787 96.1633C46.1744 96.1557 46.3738 96.19 46.5563 96.266L46.5952 96.3583L46.5027 96.3968" fill="white"/>
<path d="M55.1236 29.8106C55.1236 29.8106 55.925 33.8357 57.142 35.2161C58.8781 37.1803 76.8591 45.0718 76.8591 45.0718L74.7367 47.0181C74.7367 47.0181 56.4374 41.7849 53.7179 38.9774C52.2032 37.4131 49.909 32.0443 49.909 32.0443L55.1236 29.8106" fill="#4B4E64"/>
<path d="M54.5072 24.589L47.2535 22.1348C45.7996 28.1733 48.3363 32.1393 50.8606 36.3436C54.9621 36.5372 58.4502 32.6841 58.4502 32.6841C58.4502 32.6841 56.2291 29.6842 54.5072 24.589Z" fill="#373A4B"/>
<path d="M75.328 47.8782C76.5832 48.8062 76.6614 49.27 77.5412 48.7176C78.4209 48.1647 79.6372 47.1066 78.5105 45.8919C77.4318 44.7299 76.4205 44.9795 75.5408 45.5324C74.6615 46.0841 74.3285 47.1418 75.328 47.8782Z" fill="#1F2B4D"/>
<path d="M26.4039 45.3736C26.4504 51.1634 31.1817 55.8181 36.971 55.7711C42.7602 55.7243 47.4149 50.9934 47.368 45.2042C47.3206 39.4154 42.5907 34.7607 36.802 34.808C31.0122 34.8545 26.3579 39.5849 26.4039 45.3736" fill="#1F2B4D"/>
<path d="M25.6484 43.0992C29.0616 21.3132 43.7121 14.4251 51.0703 16.0388C52.0583 17.1929 53.3805 18.2824 54.9359 18.6261C55.9102 27.9705 50.4801 31.8007 48.7074 47.0471C48.7074 47.0471 33.8882 54.8639 25.6484 43.0992Z" fill="#3E4156"/>
<path d="M53.1303 19.4761C52.7354 19.6347 51.7047 18.8323 51.1783 18.2451C50.7089 17.7206 50.3544 17.2855 50.2934 16.5994C50.1901 15.4216 51.3099 13.1646 51.8718 12.695C52.3671 12.2798 53.6283 12.5423 53.9159 13.1197C54.3577 14.0063 53.9342 17.9897 53.9342 17.9897C53.7773 18.742 53.688 19.2509 53.1303 19.4761" fill="#975144"/>
<path d="M52.4614 14.5924C52.0424 14.1044 51.7724 13.6179 51.574 13.0636C51.6781 12.9006 51.778 12.774 51.8718 12.6957C52.3671 12.2804 53.6283 12.543 53.916 13.1203C54.1324 13.5572 54.1404 14.7424 54.0918 15.8359C53.4711 15.6037 52.8158 15.0022 52.4614 14.5924Z" fill="#1E0C0E"/>
<path d="M50.7179 2.20601C50.5508 2.46887 50.5185 2.67234 50.5709 2.98321C50.6458 3.43162 50.4279 3.79034 50.4498 4.21915C50.4562 4.34647 50.4075 4.42298 50.3477 4.49271C50.0429 4.17602 50.3701 3.76491 50.0396 3.45042C49.9302 3.34757 49.8367 3.28743 49.6921 3.24492C49.4843 3.18441 49.6301 2.66603 49.6553 2.51942C49.7248 2.12677 49.116 2.0217 49.0476 2.41311C48.9643 2.89416 48.8528 3.56647 49.401 3.79665C49.6223 3.89033 49.5193 4.43353 49.5787 4.6659L49.5942 4.7002L49.4311 4.71497L49.362 4.58288C49.2629 4.39177 49.373 4.20092 49.1671 4.03203C49.0569 3.94245 48.9121 3.94087 48.7802 3.94721C48.6377 3.95638 48.5132 3.52795 48.4742 3.43078C48.331 3.06085 47.7542 3.28072 47.8981 3.65302C47.994 3.89841 48.0962 4.14116 48.2806 4.33617C48.4541 4.51836 48.5733 4.51251 48.7434 4.53717L48.7568 4.69673C48.7912 4.82176 48.8471 4.92909 48.9126 5.04208L48.9961 5.15918L48.9812 5.16338C48.9233 5.07657 48.8563 4.99734 48.7597 4.95416C48.5792 4.87093 48.3756 4.88247 48.1841 4.90197C48.0934 4.91393 48.0007 4.92477 47.9093 4.93435L47.7862 4.94636C47.6137 4.96993 47.6203 4.94802 47.811 4.88161C47.9423 4.50942 47.383 4.24959 47.2503 4.62304C47.1475 4.91589 47.0426 5.26178 47.3395 5.47527C47.5848 5.65226 48.2414 5.40643 48.4639 5.53376C48.3389 5.68787 48.386 5.71732 48.1247 5.60835C48.0167 5.56322 47.8819 5.55523 47.7657 5.56698C47.6444 5.57893 47.0638 6.00233 47.0998 6.03342C46.7965 5.77565 46.406 6.25303 46.7099 6.50958C46.9851 6.74317 47.2455 6.6596 47.5214 6.4623C47.7569 6.29426 47.7995 6.20355 48.1308 6.27127C48.3292 6.31048 48.5136 6.33458 48.6923 6.20486C48.781 6.14002 48.8519 6.05421 48.9233 5.96839C49.0099 5.9951 49.1064 5.99616 49.2135 5.97273C49.1408 6.13203 49.0019 6.45277 49.0072 6.45617C48.8179 6.38532 48.6998 6.39834 48.5153 6.4645C48.0828 6.62096 48.375 7.13311 47.8303 7.19887C47.4022 7.25045 47.1891 7.4778 47.0729 7.87588C46.9619 8.25932 47.5704 8.35958 47.6821 7.98213C47.7687 7.68269 48.4249 7.8244 48.6131 7.56312C48.7104 7.42935 48.7493 7.34118 48.792 7.18186C48.8581 6.9482 48.827 7.10347 49.0247 7.08493C49.3437 7.05686 49.5099 6.8217 49.637 6.54836C49.7125 6.38655 49.8069 6.26493 49.9106 6.161C50.0851 6.19993 50.2482 6.18516 50.4008 6.13227C50.5343 6.16679 50.6822 6.08038 50.7465 5.94549L50.8478 5.86572C51.0845 5.89381 51.3332 5.62897 51.146 5.38833C51.0149 5.22013 50.6737 5.03003 50.9079 4.86084C51.0395 4.76544 51.1432 4.56643 51.1137 4.40029C51.0512 4.06333 51.1665 3.81451 51.2219 3.48378C51.2617 3.23912 51.0619 2.80641 51.1953 2.59661C51.4076 2.267 50.9342 1.87142 50.7179 2.20601" fill="#190A0A"/>
<path d="M55.8574 14.975C56.4312 14.9695 56.7842 14.5923 56.9662 14.1616C57.1935 13.622 57.2093 12.9558 57.1884 12.2742C57.5552 12.1937 58.288 11.7909 57.9039 11.4279C57.6836 11.2162 57.5379 10.903 57.2689 10.5043C56.7335 9.68506 57.0569 8.67112 56.9284 7.77347C56.6197 5.50961 53.6806 5.4761 52.122 6.32033C51.1321 6.86679 50.8268 7.92335 50.8803 8.98519C50.9426 9.92032 50.8816 10.8037 50.8403 11.732C50.7944 12.7015 51.9594 13.5852 52.7556 13.9995C53.2041 14.242 54.7779 14.9858 55.8574 14.975" fill="#975144"/>
<path d="M56.3216 9.31328L56.3047 9.2658L56.2958 9.23966L56.2722 9.20207L56.2107 9.12022L56.1258 9.04169L56.0168 8.97131L55.8899 8.92331L55.7497 8.89747C55.6556 8.89271 55.5606 8.90364 55.4751 8.93224L55.3574 8.98618L55.264 9.0524L55.1953 9.12248L55.1535 9.18308L55.1218 9.23848C55.09 9.30711 55.1195 9.38659 55.1875 9.41884L55.3059 9.41664L55.3405 9.39965L55.3754 9.37904L55.4579 9.33731L55.5146 9.31705L55.5788 9.3001L55.6495 9.29253L55.7228 9.29208L55.8667 9.31777L55.9279 9.34306L55.9806 9.3711L56.022 9.39476L56.0374 9.40378L56.057 9.42228L56.0917 9.45823L56.2892 9.45656L56.3216 9.31328" fill="#1E0C0E"/>
<path d="M55.3917 10.1311C55.3816 10.282 55.4952 10.4111 55.6451 10.4221C55.7946 10.4332 55.9246 10.3186 55.9352 10.1689C55.9453 10.0193 55.8341 9.88883 55.6836 9.87904C55.5324 9.86809 55.4022 9.98147 55.3917 10.1311Z" fill="#1E0C0E"/>
<path d="M56.3424 12.3639L56.3403 12.4674C56.3512 12.6897 56.4369 12.8007 56.563 12.8752C56.6895 12.9485 56.8645 12.9754 57.0323 12.9869L57.0953 13.0591L57.023 13.122C56.8485 13.1096 56.6553 13.0846 56.4952 12.9922C56.3337 12.901 56.2127 12.7312 56.2051 12.4727L56.2066 12.3547L56.2789 12.2917L56.3424 12.3639" fill="#362522"/>
<path d="M57.557 6.22902C57.5453 6.07542 57.5307 5.91833 57.5057 5.75923C57.4482 5.39319 55.0137 1.90151 50.4075 5.91064C49.5617 6.64766 49.2228 7.7946 49.2361 8.90616C49.2464 9.83609 49.5006 10.7746 49.9664 11.5796C50.3111 12.1728 50.8525 12.6512 51.4066 13.0436C51.5909 12.573 51.8156 12.1142 52.0205 11.6525L52.0216 11.5369L52.0288 11.409C52.0359 11.3137 52.05 11.2192 52.0657 11.1247C52.0874 10.9963 52.1053 10.862 52.1441 10.7353C52.1836 10.6038 52.2457 10.4823 52.3178 10.3687C52.3087 10.5207 52.3048 10.6749 52.3341 10.8218C52.3558 10.9341 52.4053 11.0453 52.5046 11.1076C52.5836 11.1551 52.6852 11.1716 52.7715 11.1418C52.8677 11.1103 52.9165 11.0266 52.944 10.9353C52.9909 10.7758 52.997 10.6058 53.0203 10.4424C53.0874 9.96805 53.2447 9.53106 53.5141 9.13302C53.591 9.0193 53.6723 8.91022 53.7565 8.80223C53.9027 8.60878 54.0553 8.4211 54.2039 8.22996C54.3349 8.05877 54.4414 7.85725 54.5177 7.65569C54.6194 7.39778 54.7185 7.06776 55.0138 6.97442C55.4091 6.84949 55.787 7.17296 56.0799 7.39142C56.3047 7.55958 56.8418 8.01404 57.1155 7.70129C57.4639 7.30499 57.5891 6.74048 57.557 6.22902" fill="#1E0C0E"/>
<path d="M54.8967 9.45098C54.9124 9.36011 54.9793 9.254 54.9535 9.15873C54.9237 9.05518 54.797 9.01318 54.708 8.97572C54.7126 8.89009 54.7825 8.85968 54.8295 8.80128C54.8744 8.74537 54.9394 8.65378 54.9531 8.58224L54.9301 8.37613C54.8779 8.30474 54.8157 8.3144 54.7812 8.22307C54.7187 8.06664 54.8958 7.93337 54.9296 7.78401C54.9486 7.70505 54.9249 7.6157 54.9 7.54325C54.8747 7.46119 54.7566 7.38636 54.7824 7.31314C54.8621 7.08859 55.1909 6.9133 55.4672 6.87365L55.4596 6.84746C55.4595 6.73674 55.4412 6.62794 55.4275 6.52015L54.3854 6.50058L54.4318 6.64079C54.5467 6.93479 54.4475 7.11799 54.2846 7.37587C54.1066 7.65601 53.9248 7.98925 54.2967 8.1926C54.3962 8.24769 54.5735 8.27449 54.649 8.36542C54.7275 8.46345 54.6318 8.56468 54.5697 8.64653C54.4882 8.75081 54.3743 8.86836 54.358 9.0062C54.3413 9.14526 54.4535 9.22394 54.5609 9.28836C54.6609 9.34705 54.8195 9.39864 54.8374 9.53033C54.8556 9.6608 54.7374 9.80141 54.6872 9.91529C54.6475 10.0035 54.5973 10.139 54.7145 10.191C54.8035 10.2309 54.9349 10.1764 54.9858 10.0974C55.0463 9.99758 54.9936 9.8865 54.9561 9.79048C54.9097 9.67675 54.8761 9.57455 54.8967 9.45098" fill="#1E0C0E"/>
<path d="M54.7013 12.0101C54.7013 12.0101 53.4792 11.45 52.3858 10.1121L52.0938 9.70106C52.0938 9.70106 54.4206 11.2003 55.0473 11.4527C55.0473 11.4527 55.2013 11.7283 54.7013 12.0101" fill="#81CACF"/>
<path d="M54.6366 14.5278C54.6366 14.5278 52.5288 12.943 51.535 11.375L51.965 11.5749C51.965 11.5749 53.1242 13.4049 54.5038 13.7483C54.5038 13.7483 55.0383 14.1114 54.6366 14.5278Z" fill="#81CACF"/>
<path d="M58.0521 12.8699C58.1163 11.86 58.169 11.0167 57.2714 10.3404C57.1878 10.3292 57.1025 10.3229 57.0161 10.3287C56.3697 10.3659 55.7822 10.7896 55.2151 11.1101C55.0112 11.2252 54.8078 11.3487 54.6621 11.5577C54.3382 12.0289 54.3093 12.7702 54.3489 13.35C54.388 13.9225 54.4197 14.6735 54.9325 14.9472C55.3263 15.1617 55.8607 15.183 56.2885 15.1447C56.6136 15.1152 56.9673 15.0833 57.2965 14.9887C57.8692 14.4741 58.0086 13.5624 58.0521 12.8699" fill="#81CACF"/>
<path d="M58.0525 12.8697C58.1066 12.0228 58.1491 11.293 57.634 10.6812C57.4821 10.6317 57.3229 10.6018 57.1587 10.6106L57.1138 10.6148C56.6369 10.6574 56.1787 10.9292 55.7352 11.192C55.6296 11.2539 55.5252 11.3158 55.4213 11.374C55.2328 11.4824 55.0499 11.5918 54.9279 11.7675C54.6975 12.1014 54.6026 12.672 54.6527 13.415L54.6568 13.4738C54.6939 14.0152 54.7334 14.6287 55.1339 14.8453C55.542 15.0629 56.1065 15.0506 56.4074 15.0244L56.4223 15.0226C56.7485 14.9943 57.0979 14.9602 57.4167 14.8647C57.8864 14.3361 58.0122 13.5104 58.0525 12.8697" fill="white"/>
<path d="M57.7965 12.2909C57.8927 12.2739 57.9859 12.2414 58.0716 12.2104L58.0823 12.2063L58.0828 12.0511L58.0382 12.0624C57.9524 12.0826 57.8633 12.1005 57.7693 12.1126C57.6765 12.1295 57.5789 12.1369 57.4791 12.1456C57.3809 12.1578 57.2774 12.1595 57.1766 12.1634C57.0748 12.1698 56.9713 12.1666 56.8716 12.1693C56.7714 12.1671 56.6727 12.1662 56.5762 12.1651C56.3833 12.1582 56.2043 12.1507 56.0503 12.1447C55.7405 12.1303 55.5332 12.1203 55.5332 12.1203C55.5332 12.1203 55.5828 12.14 55.6714 12.1667C55.7597 12.1909 55.8863 12.2305 56.0394 12.2619C56.1935 12.2956 56.3742 12.3246 56.5701 12.3447C56.7623 12.3661 56.9727 12.3735 57.1821 12.3666C57.3914 12.356 57.6019 12.3406 57.7965 12.2909Z" fill="#81CACF"/>
<path d="M57.766 12.9173C57.8532 12.9007 57.9353 12.871 58.0107 12.8416L58.0557 12.8254L58.0652 12.6709C57.9652 12.6977 57.8586 12.7235 57.7407 12.739C57.658 12.753 57.5704 12.7588 57.4822 12.7659C57.3979 12.7752 57.3059 12.7764 57.2172 12.781C57.038 12.7904 56.8577 12.7854 56.688 12.7848C56.5171 12.7794 56.3594 12.7759 56.222 12.7705C55.948 12.7619 55.7662 12.7545 55.7662 12.7545C55.7662 12.7545 55.8084 12.7733 55.8865 12.7992C55.9648 12.8202 56.0763 12.858 56.2123 12.8864C56.3472 12.9196 56.5075 12.9447 56.6799 12.9644C56.8518 12.983 57.0364 12.9903 57.2224 12.9854C57.4082 12.9758 57.5946 12.9601 57.766 12.9173" fill="#81CACF"/>
<path d="M57.6813 13.4291C57.7499 13.4168 57.8138 13.3927 57.8745 13.3686L58.0122 13.3055L58.0288 13.1689L58.0021 13.1795C57.9027 13.2111 57.7853 13.2373 57.6551 13.2508C57.5902 13.2618 57.5244 13.2643 57.4556 13.2706C57.3863 13.2793 57.3167 13.2796 57.2462 13.2812C57.1074 13.289 56.9672 13.286 56.8351 13.2876C56.7006 13.2868 56.577 13.2844 56.4702 13.2837C56.2566 13.2788 56.111 13.2833 56.111 13.2833C56.111 13.2833 56.2471 13.349 56.4597 13.4009C56.5656 13.4281 56.692 13.4508 56.8262 13.4672C56.9618 13.4836 57.1073 13.49 57.2529 13.4867C57.3984 13.4787 57.5464 13.4669 57.6813 13.4291" fill="#81CACF"/>
<path d="M52.4506 11.0458C52.544 10.7654 52.626 10.477 52.5464 10.184C52.4715 9.90528 52.2656 9.66417 51.9688 9.62399C51.682 9.58582 51.3507 9.72389 51.2071 9.98223C51.1258 10.1298 51.1148 10.3036 51.1296 10.4667C51.1502 10.6813 51.2131 10.8955 51.302 11.0894C51.3924 11.2869 51.5189 11.4914 51.7186 11.5895C51.8957 11.6789 52.094 11.6543 52.2838 11.6264L52.4506 11.0458" fill="#975144"/>
<path d="M53.1351 16.7473C54.918 18.0053 57.1355 18.1693 56.3012 20.2875C55.3492 22.6173 52.788 20.0489 51.7525 19.1709C50.201 17.8557 48.6502 17.6658 46.7651 18.4903C45.4105 19.0437 43.0928 21.6362 41.6945 19.9793C40.164 18.1638 39.9124 16.0048 41.1283 14.039C42.307 12.1589 43.6473 11.1101 45.8575 11.1492C47.0691 11.185 48.4557 12.4453 49.273 13.2944C50.1016 14.1575 52.0581 15.9877 53.1351 16.7473" fill="#59586C"/>
<path d="M37.3942 50.4475C36.0998 52.6275 32.3842 53.3953 30.5774 51.4643C30.2665 51.1323 30.7467 50.6078 31.0602 50.9434C32.5378 52.5233 35.6916 51.9255 36.7681 50.1131C37.0006 49.7209 37.6289 50.0523 37.3942 50.4475" fill="white"/>
<path d="M47.3536 31.4051C47.3536 31.4051 47.5092 35.5062 48.4917 37.0626C49.8938 39.2767 66.9998 51.2258 66.9998 51.2258L64.1138 52.4491C64.1138 52.4491 46.7562 43.437 44.5148 40.2338C43.268 38.4499 41.8519 32.7864 41.8519 32.7864L47.3536 31.4051" fill="#4B4E64"/>
<path d="M48.0464 27.7614C48.9396 33.0655 50.1842 34.7701 50.1842 34.7701C50.1842 34.7701 46.1304 38.0215 42.1119 37.1819C40.2839 32.6307 38.4073 28.3133 40.7979 22.5806" fill="#3E4156"/>
<path d="M48.3855 27.6537C48.7887 29.881 49.1567 32.655 50.4837 34.5793C50.6009 34.7496 50.5233 34.9539 50.3759 35.0691C47.998 36.9177 45.0321 37.9463 42.0314 37.5276C41.9052 37.5101 41.8177 37.3988 41.7738 37.2895C39.731 32.2085 38.4838 27.7212 40.4853 22.4135C40.6463 21.9872 41.2711 22.3251 41.1117 22.7477C39.6941 26.5062 39.8903 29.9244 41.1381 33.6792C41.603 35.0785 41.8761 36.9339 43.8108 36.9581C45.4833 36.979 47.2091 36.1694 48.6283 35.3807C49.0839 35.1279 49.5159 34.8281 49.9331 34.5179C49.6115 34.7571 49.884 35.0412 49.4816 34.2225C48.5133 32.2503 48.0975 30.0108 47.7085 27.869C47.6281 27.4247 48.3041 27.2051 48.3855 27.6537Z" fill="white"/>
<path d="M64.3804 53.6875C65.6244 54.6305 65.6965 55.0955 66.5833 54.5541C67.469 54.0128 68.6986 52.9673 67.5864 51.7408C66.521 50.5656 65.5068 50.8036 64.6205 51.3448C63.7343 51.8866 63.3901 52.9386 64.3804 53.6875Z" fill="#1F2B4D"/>
<path d="M38.892 51.3173C41.7046 56.3819 44.4508 61.5006 48.4909 65.718C48.806 66.0475 48.3262 66.5705 48.0087 66.2399C43.9274 61.9795 41.1373 56.8182 38.2933 51.6988C38.0718 51.2994 38.6695 50.9164 38.892 51.3173" fill="white"/>
<path d="M40.0021 50.6337C41.6026 52.931 42.8332 55.4334 44.2335 57.8522C45.7295 60.4381 47.8214 62.6169 49.7369 64.8879C50.0286 65.2328 49.5498 65.7581 49.2546 65.4086C47.519 63.3508 45.7274 61.3613 44.1952 59.1403C42.4071 56.5511 41.2072 53.6046 39.4035 51.0153C39.141 50.6386 39.7412 50.2598 40.0021 50.6337" fill="white"/>
</svg>
