<svg width="1440" height="1024" viewBox="0 0 1440 1024" fill="none" xmlns="http://www.w3.org/2000/svg">
<g clipPath="url(#clip0_182_20409)">
<rect width="1440" height="1024" fill="#142630"/>
<path d="M-1 747H1440V1025H-1V747Z" fill="#007F76"/>
<path d="M755 747.5C423.5 470.5 186.5 409 0.5 434.5L-1.5 749.5L755 747.5Z" fill="#94DDC3"/>
<path d="M960.5 747C1028.5 571 1308.5 525 1440 526.5V747.5L960.5 747Z" fill="#94DDC3"/>
<path d="M1492 752.5L991.5 752C1007.33 712.5 1057.8 634.9 1133 640.5C1208.2 646.1 1220 691.5 1216.5 713.5C1234.1 703.1 1241.5 720.167 1243 730C1261.4 711.2 1283.67 730.167 1292.5 742C1306.1 718.8 1325.5 726.667 1333.5 733.5C1333 704 1354.5 671 1387 667.5C1413 664.7 1423.5 685 1425.5 695.5C1480.7 672.7 1492.83 725 1492 752.5Z" fill="#006B74"/>
<path d="M27 682C5 679.6 -10.8333 692.667 -16 699.5L-52.5 749.5L351.5 749C341.5 692.2 287 688 261 693C264.5 687.5 266.5 672.1 246.5 654.5C226.5 636.9 204.167 651.833 195.5 661.5C190.167 639.5 169.1 595.4 127.5 595C34.3 595.4 21.6667 653.167 27 682Z" fill="#006B74"/>
<path d="M1118 806C962.699 844.261 310.624 939.942 4 983" stroke="#D91717" strokeWidth="7"/>
<path d="M-66 1068C-44.3145 1128.93 32.8053 1087.59 55 1073C91.5001 1049 92.4999 1056 126.5 1036.5C160.5 1017 187.5 1007.5 226.5 992.5C260.682 979.353 344.654 957.677 392 951C490.488 937.111 877.48 897.048 1178.5 845.5C1488 792.5 1281.5 771.5 1152.91 792.577C1026.83 813.243 916 820.5 827 825C738 829.5 637.5 838.5 595 842C497.86 850 424.5 853 337.5 865.5C271.629 874.964 223.5 882 161 906C73.5197 939.592 43.5001 951.5 3.50006 974.5C-56.9106 1009.24 -76.4999 1038.5 -66 1068Z" fill="#D9D9D9"/>
<path opacity="0.9" d="M34.3041 1017.97C53.9894 1001.4 95.1936 982.589 105.221 977.729C117.391 977.274 101.214 987.917 82.2672 997.704C61.1763 1008.6 52.1247 1017.22 40.9011 1023.92C30.5589 1030.09 23.9916 1026.65 34.3041 1017.97Z" fill="white"/>
<path opacity="0.9" d="M389.223 898.564C361.248 904.825 340.907 905.212 312.249 911.898C303.557 913.925 292.997 909.646 329.679 902.383C350.749 898.21 375.213 896.406 388.39 893.227C398.786 890.719 397.932 896.615 389.223 898.564Z" fill="white"/>
<path opacity="0.9" d="M526.777 885.813C522.396 886.794 509.733 886.802 477.887 889.581C467.224 890.512 442.308 889.032 486.891 884.201C512.499 881.426 511.732 883.281 527.808 880.866C540.489 878.96 537.221 883.473 526.777 885.813Z" fill="white"/>
<path opacity="0.9" d="M631.292 874.351C627.55 875.096 616.968 876.645 589.859 878.357C580.783 878.93 574.43 873.462 597.617 873.971C609.006 873.756 618.563 871.894 632.268 870.17C643.08 868.81 640.211 872.577 631.292 874.351Z" fill="white"/>
<path opacity="0.9" d="M740.645 864.223C736.903 864.965 705.526 867.307 699.21 868.205C698.027 868.373 696.085 863.669 706.08 863.618C719.68 863.548 727.918 861.759 741.623 860.042C752.436 858.689 749.565 862.453 740.645 864.223Z" fill="white"/>
<path opacity="0.9" d="M246.884 931.503C206.382 941.694 204.277 940.371 166.051 959.783C154.457 965.67 140.142 964.778 189.521 941.761C217.884 928.54 222.826 929.271 242.358 926.352C258.581 923.929 258.452 928.592 246.884 931.503Z" fill="white"/>
<path opacity="0.9" d="M806.297 857.258C806.238 856.5 806.793 855.834 807.548 855.755L853.651 850.904C854.798 850.783 855.817 851.632 855.906 852.781V852.781C855.993 853.908 855.15 854.892 854.023 854.979L807.803 858.548C807.031 858.608 806.356 858.03 806.297 857.258V857.258Z" fill="white"/>
<path opacity="0.9" d="M900.156 849.024C900.101 848.196 900.716 847.475 901.542 847.397L953.259 842.555C954.513 842.438 955.618 843.379 955.7 844.636V844.636C955.784 845.91 954.794 846.995 953.518 847.026C948.49 847.146 936.412 847.475 928.007 848.027C919.158 848.608 906.309 849.967 901.853 850.45C900.984 850.544 900.213 849.896 900.156 849.024V849.024Z" fill="white"/>
<path opacity="0.9" d="M1001.65 838.515C1001.58 837.542 1002.3 836.694 1003.27 836.614C1008.34 836.2 1023.31 834.922 1033.5 833.5C1048.69 831.38 1058.83 829.588 1063.46 828.719C1065.01 828.429 1066.47 829.546 1066.58 831.113V831.113C1066.69 832.491 1065.7 833.708 1064.33 833.878C1058.63 834.586 1044.2 836.328 1034.21 837.065C1023.85 837.83 1008.81 839.543 1003.63 840.148C1002.62 840.265 1001.73 839.523 1001.65 838.515V838.515Z" fill="white"/>
<path opacity="0.9" d="M1118.85 822.407C1118.78 821.404 1119.52 820.525 1120.52 820.425C1125.45 819.931 1139.47 818.405 1149.72 816.099C1159.41 813.919 1174 809.192 1180.38 807.07C1182 806.533 1183.69 807.66 1183.81 809.357V809.357C1183.9 810.562 1183.16 811.666 1182 812.019C1176.91 813.575 1163 817.762 1153.22 820.099C1143.13 822.508 1126.27 823.746 1120.78 824.1C1119.78 824.164 1118.93 823.407 1118.85 822.407V822.407Z" fill="white"/>
</g>
<defs>
<clipPath id="clip0_182_20409">
<rect width="1440" height="1024" fill="white"/>
</clipPath>
</defs>
</svg>
