<svg width="398" height="200" viewBox="0 0 398 200" fill="none" xmlns="http://www.w3.org/2000/svg">
<path d="M0.5 16C0.5 7.43958 7.43959 0.5 16 0.5H382C390.56 0.5 397.5 7.43959 397.5 16V184C397.5 192.56 390.56 199.5 382 199.5H16C7.43959 199.5 0.5 192.56 0.5 184V16Z" stroke="black"/>
<g clip-path="url(#clip0_755_1610)">
<path d="M244.116 116.063C238.617 116.063 234.017 114.213 230.317 110.512C226.65 106.812 224.817 102.195 224.817 96.6604C224.817 91.126 226.65 86.5261 230.317 82.8607C233.982 79.1254 238.582 77.2578 244.116 77.2578C249.719 77.2578 254.267 79.2811 257.76 83.3276L254.336 86.6478C251.672 83.4314 248.266 81.8231 244.116 81.8231C240 81.8231 236.559 83.2065 233.792 85.9734C231.06 88.7064 229.694 92.2687 229.694 96.6604C229.694 101.052 231.06 104.615 233.792 107.351C236.559 110.118 240 111.502 244.116 111.501C248.439 111.501 252.191 109.685 255.374 106.054L258.85 109.426C257.09 111.532 254.872 113.209 252.365 114.328C249.772 115.492 246.959 116.084 244.116 116.063V116.063ZM266.745 78.0879V115.233H261.972V78.0879H266.745ZM270.194 102.523C270.194 98.6152 271.422 95.3814 273.877 92.8214C276.368 90.262 279.498 88.9824 283.268 88.9824C287.037 88.9824 290.15 90.262 292.606 92.8214C295.096 95.3786 296.341 98.6123 296.341 102.523C296.341 106.465 295.096 109.699 292.606 112.224C290.151 114.784 287.038 116.064 283.268 116.063C279.497 116.062 276.367 114.781 273.877 112.221C271.422 109.664 270.194 106.432 270.194 102.523ZM274.967 102.523C274.967 105.256 275.762 107.469 277.353 109.163C278.944 110.857 280.916 111.704 283.268 111.704C285.62 111.704 287.591 110.857 289.182 109.163C290.772 107.469 291.567 105.256 291.568 102.523C291.568 99.825 290.773 97.6288 289.182 95.9341C287.558 94.2055 285.587 93.3409 283.268 93.3401C280.948 93.3394 278.977 94.2041 277.353 95.9341C275.763 97.6295 274.968 99.8257 274.967 102.523ZM322.058 115.233H317.492V111.705H317.281C316.554 112.95 315.439 113.988 313.934 114.818C312.502 115.629 310.885 116.058 309.24 116.063C306.127 116.063 303.732 115.172 302.054 113.391C300.376 111.609 299.538 109.076 299.538 105.791V89.8124H304.311V105.482C304.415 109.632 306.507 111.707 310.588 111.707C312.49 111.707 314.081 110.938 315.361 109.398C316.642 107.859 317.281 106.017 317.281 103.874V89.8124H322.054L322.058 115.233ZM337.563 116.063C334.246 116.063 331.392 114.749 329.003 112.12C326.651 109.457 325.475 106.258 325.475 102.523C325.476 98.7874 326.652 95.5882 329.003 92.9251C331.39 90.2973 334.243 88.9831 337.563 88.9824C339.431 88.9824 341.134 89.3801 342.674 90.1756C344.213 90.971 345.397 92.0259 346.227 93.3401H346.439L346.227 89.8124V78.0879H351V115.233H346.434V111.705H346.223C345.395 113.02 344.212 114.074 342.672 114.868C341.131 115.661 339.429 116.059 337.563 116.063V116.063ZM338.341 111.705C340.693 111.705 342.613 110.858 344.1 109.164C345.656 107.47 346.434 105.257 346.434 102.524C346.434 99.8613 345.656 97.6651 344.1 95.9351C342.579 94.2066 340.659 93.3419 338.341 93.3412C336.059 93.3412 334.139 94.2058 332.583 95.9351C331.026 97.6644 330.248 99.8606 330.248 102.524C330.248 105.221 331.026 107.418 332.583 109.112C334.139 110.842 336.059 111.706 338.341 111.705Z" fill="#5F6368"/>
<path d="M65.429 98.9419V93.1972H84.6558C84.8697 94.359 84.9739 95.5383 84.9671 96.7196C84.9671 101.027 83.7876 106.361 79.991 110.155C76.3002 114.001 71.5824 116.053 65.3274 116.053C53.7405 116.053 44 106.617 44 95.0267C44 83.4366 53.7405 74 65.3284 74C71.7391 74 76.3012 76.5135 79.7358 79.7956L75.6851 83.8463C73.2214 81.5393 69.8916 79.7437 65.3284 79.7437C56.869 79.7437 50.2551 86.5641 50.2551 95.0267C50.2551 103.489 56.869 110.315 65.3284 110.315C70.8148 110.315 73.9424 108.11 75.9413 106.11C77.5707 104.48 78.6442 102.142 79.0603 98.9472L65.429 98.9419Z" fill="#4285F4"/>
<path d="M114.262 102.514C114.262 110.315 108.16 116.054 100.677 116.054C93.1934 116.054 87.0908 110.315 87.0908 102.514C87.0908 94.668 93.1924 88.9751 100.679 88.9751C108.165 88.9751 114.262 94.668 114.262 102.514ZM108.315 102.514C108.315 97.6441 104.778 94.3091 100.677 94.3091C96.5751 94.3091 93.0367 97.642 93.0367 102.514C93.0367 107.335 96.574 110.72 100.677 110.72C104.779 110.72 108.315 107.335 108.315 102.514Z" fill="#EA4335"/>
<path d="M143.902 102.514C143.902 110.315 137.805 116.054 130.316 116.054C122.828 116.054 116.729 110.315 116.729 102.514C116.729 94.668 122.83 88.9751 130.316 88.9751C137.803 88.9751 143.902 94.668 143.902 102.514ZM137.955 102.514C137.955 97.6441 134.418 94.3091 130.316 94.3091C126.215 94.3091 122.676 97.642 122.676 102.514C122.676 107.335 126.214 110.72 130.316 110.72C134.419 110.72 137.955 107.335 137.955 102.514V102.514Z" fill="#FBBC04"/>
<path d="M172.312 89.7956V114.104C172.312 124.105 166.416 128.208 159.443 128.208C152.879 128.208 148.932 123.797 147.446 120.208L152.627 118.054C153.549 120.259 155.803 122.874 159.447 122.874C163.907 122.874 166.676 120.104 166.676 114.925V112.977H166.47C165.137 114.618 162.574 116.054 159.344 116.054C152.575 116.054 146.372 110.155 146.372 102.566C146.372 94.9242 152.575 88.9751 159.344 88.9751C162.574 88.9751 165.137 90.4108 166.47 92.001H166.676V89.7956H172.312ZM167.082 102.566C167.082 97.7966 163.906 94.308 159.853 94.308C155.751 94.308 152.316 97.7955 152.316 102.566C152.316 107.284 155.751 110.719 159.853 110.719C163.904 110.72 167.082 107.284 167.082 102.566Z" fill="#4285F4"/>
<path d="M182.385 75.5688V115.233H176.438V75.5688H182.385Z" fill="#34A853"/>
<path d="M205.353 106.976L209.967 110.054C208.485 112.258 204.892 116.054 198.687 116.054C190.997 116.054 185.254 110.104 185.254 102.514C185.254 94.4679 191.048 88.9751 198.02 88.9751C205.045 88.9751 208.48 94.5653 209.608 97.5912L210.223 99.1295L192.119 106.617C193.504 109.335 195.657 110.72 198.683 110.72C201.709 110.72 203.815 109.233 205.353 106.976ZM191.15 102.106L203.25 97.0808C202.583 95.3869 200.585 94.2095 198.226 94.2095C195.201 94.2064 190.997 96.8691 191.15 102.105V102.106Z" fill="#EA4335"/>
</g>
<defs>
<clipPath id="clip0_755_1610">
<rect width="307" height="54.2077" fill="white" transform="translate(44 74)"/>
</clipPath>
</defs>
</svg>
