<svg width="398" height="200" viewBox="0 0 398 200" fill="none" xmlns="http://www.w3.org/2000/svg">
<path d="M0.5 16C0.5 7.43958 7.43959 0.5 16 0.5H382C390.56 0.5 397.5 7.43959 397.5 16V184C397.5 192.56 390.56 199.5 382 199.5H16C7.43959 199.5 0.5 192.56 0.5 184V16Z" stroke="black"/>
<path d="M282.9 76.3999C277.4 76.3999 271.9 77.9999 271.9 89.4999C271.9 93.9999 272.6 96.8999 274 98.6999C275.6 100.8 278.3 101.7 282.3 101.7C284.7 101.7 288.8 101.4 291.2 101L291.6 100.9V97.1999H283.5C278.8 97.1999 277.1 95.8999 277.1 92.0999V90.6999H289.8C291.7 90.6999 293 89.3999 293 87.3999V85.8999C293.1 79.6999 289.7 76.3999 282.9 76.3999ZM288 86.9999H277.1V85.9999C277.1 83.5999 277.9 80.7999 281.9 80.7999H283.8C287.3 80.7999 288 82.8999 288 86.0999V86.9999Z" fill="black"/>
<path d="M240.601 76.3999H239.401C232.001 76.3999 228.801 80.3999 228.801 89.3999C228.801 96.7999 230.601 101.8 239.401 101.8H240.601C247.801 101.8 251.201 97.7999 251.201 89.0999C251.201 80.1999 248.001 76.3999 240.601 76.3999ZM245.801 91.0999C245.801 95.5999 244.301 97.4999 240.701 97.4999H239.401C235.001 97.4999 234.201 95.4999 234.201 89.9999V88.2999C234.201 82.3999 235.401 80.7999 239.601 80.7999H240.401C244.401 80.7999 245.801 81.8999 245.801 88.2999V91.0999Z" fill="black"/>
<path d="M192.9 76.3999C187.4 76.3999 181.9 77.9999 181.9 89.4999C181.9 93.9999 182.6 96.8999 184 98.6999C185.6 100.8 188.3 101.7 192.3 101.7C194.7 101.7 198.8 101.4 201.2 101L201.6 100.9V97.1999H193.5C188.8 97.1999 187.1 95.8999 187.1 92.0999V90.6999H199.8C201.7 90.6999 203 89.3999 203 87.3999V85.8999C203.1 79.6999 199.7 76.3999 192.9 76.3999ZM198 86.9999H187.1V85.9999C187.1 83.5999 187.9 80.7999 191.9 80.7999H193.8C197.3 80.7999 198 82.8999 198 86.0999V86.9999Z" fill="black"/>
<path d="M172.9 69V77H165.9C161.2 77.1 156.5 78.3 156.5 89.5C156.5 100.9 160.9 101.7 167.1 101.7C169.7 101.7 173.2 101.6 177.6 101H178V69H172.9ZM172.9 97.3H167.2C163 97.3 161.8 95.9 161.8 90.7V87.9C161.8 83.2 163.3 81.5 167.6 81.5H172.9V97.3Z" fill="black"/>
<path d="M307.401 76.3999C304.801 76.3999 301.701 76.5999 299.401 76.9999H299.001V80.7999H307.801C311.001 80.7999 312.201 81.8999 312.201 84.9999V86.1999C309.501 85.7999 306.901 85.6999 304.601 85.6999C300.601 85.6999 295.301 86.5999 295.301 94.1999C295.301 101.3 299.601 101.8 305.301 101.8C307.901 101.8 312.901 101.6 316.601 100.9L317.001 100.8V84.8999C317.101 77.3999 312.501 76.3999 307.401 76.3999ZM312.101 97.2999H304.201C301.701 97.2999 300.701 96.4999 300.701 94.2999V93.3999C300.701 91.1999 301.901 90.1999 304.501 90.1999H312.201V97.2999H312.101Z" fill="black"/>
<path d="M215.8 95L208.3 77H203L213.1 101.3H218.2L228 77H222.9L215.8 95Z" fill="black"/>
<path d="M261.6 93.8999V80.9999H269V76.9999H263.4H261.6V70.2999V69.3999H256.8V70.2999V76.9999H252.9V77.4999V78.9999V79.4999V80.9999H256.5V93.9999C256.5 97.8999 257.4 101.8 263.9 101.8C265.8 101.8 267.8 101.5 269.9 101.1L270.3 101V97.3999H265.2C262.4 97.3999 261.6 96.5999 261.6 93.8999Z" fill="black"/>
<path d="M346.499 76.3999C344.099 76.3999 340.999 76.7999 338.199 77.3999C336.499 76.4999 334.399 76.3999 332.399 76.3999C327.799 76.3999 322.199 77.3999 322.199 77.3999V101.3H327.399V80.8999H332.199C335.699 80.8999 336.699 81.9999 336.699 85.8999V101.2H341.899V84.5999C341.899 83.0999 341.699 81.9999 341.399 80.9999H345.799C349.699 80.9999 350.999 82.1999 350.999 85.9999V101.2H356.099V84.7999C355.999 76.3999 349.599 76.3999 346.499 76.3999Z" fill="black"/>
<path d="M88.7004 54C63.1004 54 42.4004 74.7 42.4004 100.3C42.4004 125.9 63.1004 146.6 88.7004 146.6C114.3 146.6 135 125.9 135 100.3C135 74.7 114.3 54 88.7004 54Z" fill="#F8485E"/>
<path d="M172 120.2H173.4V127.6C172.5 128.4 171.5 129.1 170.3 129.5C169.1 129.9 167.8 130.1 166.4 130.1C164.4 130.1 162.7 129.7 161.1 128.8C159.5 127.9 158.3 126.7 157.4 125.2C156.5 123.7 156.1 122 156.1 120.1C156.1 118.2 156.5 116.5 157.4 115C158.3 113.5 159.5 112.3 161.1 111.4C162.7 110.5 164.4 110.1 166.4 110.1C167.8 110.1 169.2 110.3 170.4 110.8C171.6 111.3 172.6 111.9 173.5 112.8L172.6 113.8C171.8 113 170.8 112.4 169.8 112C168.8 111.6 167.6 111.5 166.4 111.5C164.7 111.5 163.2 111.9 161.8 112.6C160.4 113.4 159.4 114.4 158.6 115.7C157.8 117 157.4 118.5 157.4 120.1C157.4 121.7 157.8 123.2 158.6 124.5C159.4 125.8 160.4 126.9 161.8 127.6C163.2 128.4 164.7 128.7 166.4 128.7C168.7 128.7 170.5 128.1 172 126.9V120.2Z" fill="black"/>
<path d="M187.799 128.8C186.299 127.9 184.999 126.7 184.099 125.2C183.199 123.7 182.799 122 182.799 120.1C182.799 118.2 183.199 116.5 184.099 115C184.999 113.5 186.199 112.3 187.799 111.4C189.299 110.5 191.099 110.1 192.999 110.1C194.399 110.1 195.699 110.3 196.899 110.8C198.099 111.3 199.099 111.9 199.999 112.8L199.099 113.7C197.499 112.1 195.499 111.4 192.999 111.4C191.299 111.4 189.799 111.8 188.499 112.5C187.199 113.2 186.099 114.3 185.299 115.6C184.499 116.9 184.099 118.4 184.099 120C184.099 121.6 184.499 123.1 185.299 124.4C186.099 125.7 187.099 126.8 188.499 127.5C189.899 128.3 191.399 128.6 192.999 128.6C195.399 128.6 197.499 127.8 199.099 126.2L199.999 127.1C199.199 128 198.099 128.7 196.899 129.2C195.699 129.7 194.399 129.9 192.999 129.9C190.999 130.1 189.299 129.6 187.799 128.8Z" fill="black"/>
<path d="M203.199 109H204.599V129.9H203.199V109Z" fill="black"/>
<path d="M211.399 129.1C210.299 128.5 209.399 127.6 208.799 126.4C208.199 125.3 207.799 124 207.799 122.6C207.799 121.2 208.099 119.9 208.799 118.8C209.399 117.7 210.299 116.8 211.399 116.1C212.499 115.5 213.799 115.1 215.199 115.1C216.599 115.1 217.799 115.4 218.999 116.1C220.099 116.7 220.999 117.6 221.599 118.8C222.199 119.9 222.599 121.2 222.599 122.6C222.599 124 222.299 125.3 221.599 126.4C220.899 127.5 220.099 128.4 218.999 129.1C217.899 129.7 216.599 130.1 215.199 130.1C213.799 130.1 212.599 129.7 211.399 129.1ZM218.199 128C219.099 127.5 219.799 126.7 220.299 125.8C220.799 124.9 221.099 123.8 221.099 122.6C221.099 121.4 220.799 120.3 220.299 119.4C219.799 118.5 219.099 117.7 218.199 117.2C217.299 116.7 216.299 116.4 215.199 116.4C214.099 116.4 213.099 116.7 212.199 117.2C211.299 117.7 210.599 118.5 210.099 119.4C209.599 120.3 209.299 121.4 209.299 122.6C209.299 123.8 209.599 124.9 210.099 125.8C210.599 126.7 211.299 127.5 212.199 128C213.099 128.5 214.099 128.8 215.199 128.8C216.299 128.8 217.299 128.5 218.199 128Z" fill="black"/>
<path d="M238.6 115.2V129.9H237.2V126.7C236.7 127.7 236 128.5 235 129.1C234 129.7 232.9 130 231.6 130C229.7 130 228.2 129.5 227.1 128.4C226 127.3 225.5 125.8 225.5 123.8V115.2H226.9V123.7C226.9 125.4 227.3 126.6 228.2 127.5C229 128.4 230.2 128.8 231.8 128.8C233.5 128.8 234.8 128.3 235.7 127.3C236.7 126.3 237.1 124.9 237.1 123.1V115.3H238.6V115.2Z" fill="black"/>
<path d="M256.5 109V129.9H255.1V126.4C254.5 127.5 253.7 128.4 252.7 129C251.7 129.6 250.5 129.9 249.1 129.9C247.7 129.9 246.5 129.6 245.4 128.9C244.3 128.3 243.4 127.4 242.8 126.3C242.2 125.2 241.9 123.9 241.9 122.4C241.9 120.9 242.2 119.7 242.8 118.5C243.4 117.4 244.3 116.5 245.4 115.9C246.5 115.3 247.7 115 249.1 115C250.4 115 251.6 115.3 252.6 115.9C253.6 116.5 254.5 117.4 255.1 118.5V109H256.5ZM252.3 128C253.2 127.5 253.9 126.7 254.4 125.8C254.9 124.9 255.2 123.8 255.2 122.6C255.2 121.4 254.9 120.3 254.4 119.4C253.9 118.5 253.2 117.7 252.3 117.2C251.4 116.7 250.4 116.4 249.3 116.4C248.2 116.4 247.2 116.7 246.3 117.2C245.4 117.7 244.7 118.5 244.2 119.4C243.7 120.3 243.4 121.4 243.4 122.6C243.4 123.8 243.7 124.9 244.2 125.8C244.7 126.7 245.4 127.5 246.3 128C247.2 128.5 248.2 128.8 249.3 128.8C250.4 128.8 251.4 128.5 252.3 128Z" fill="black"/>
<path d="M119.6 96.6998H101.8V129.1H80.7996C69.3996 129.1 59.0996 122.2 59.0996 107.4C59.0996 96.4998 64.7996 85.6998 80.7996 85.6998H85.6996C85.6996 85.6998 87.5996 91.0998 88.3996 96.7998H81.0996C74.5996 96.7998 70.7996 100.4 70.7996 107.4C70.7996 114 74.2996 118 81.0996 118H90.4996V69.2998H101.9V85.7998H119.6V96.6998Z" fill="white"/>
</svg>
