<svg width="398" height="200" viewBox="0 0 398 200" fill="none" xmlns="http://www.w3.org/2000/svg">
<path d="M0.5 16C0.5 7.43958 7.43959 0.5 16 0.5H382C390.56 0.5 397.5 7.43959 397.5 16V184C397.5 192.56 390.56 199.5 382 199.5H16C7.43959 199.5 0.5 192.56 0.5 184V16Z" stroke="black"/>
<path d="M282.9 76.3999C277.4 76.3999 271.9 77.9999 271.9 89.4999C271.9 93.9999 272.6 96.8999 274 98.6999C275.6 100.8 278.3 101.7 282.3 101.7C284.7 101.7 288.8 101.4 291.2 101L291.6 100.9V97.1999H283.5C278.8 97.1999 277.1 95.8999 277.1 92.0999V90.6999H289.8C291.7 90.6999 293 89.3999 293 87.3999V85.8999C293.1 79.6999 289.7 76.3999 282.9 76.3999ZM288 86.9999H277.1V85.9999C277.1 83.5999 277.9 80.7999 281.9 80.7999H283.8C287.3 80.7999 288 82.8999 288 86.0999V86.9999Z" fill="black"/>
<path d="M240.601 76.3999H239.401C232.001 76.3999 228.801 80.3999 228.801 89.3999C228.801 96.7999 230.601 101.8 239.401 101.8H240.601C247.801 101.8 251.201 97.7999 251.201 89.0999C251.201 80.1999 248.001 76.3999 240.601 76.3999ZM245.801 91.0999C245.801 95.5999 244.301 97.4999 240.701 97.4999H239.401C235.001 97.4999 234.201 95.4999 234.201 89.9999V88.2999C234.201 82.3999 235.401 80.7999 239.601 80.7999H240.401C244.401 80.7999 245.801 81.8999 245.801 88.2999V91.0999Z" fill="black"/>
<path d="M192.9 76.3999C187.4 76.3999 181.9 77.9999 181.9 89.4999C181.9 93.9999 182.6 96.8999 184 98.6999C185.6 100.8 188.3 101.7 192.3 101.7C194.7 101.7 198.8 101.4 201.2 101L201.6 100.9V97.1999H193.5C188.8 97.1999 187.1 95.8999 187.1 92.0999V90.6999H199.8C201.7 90.6999 203 89.3999 203 87.3999V85.8999C203.1 79.6999 199.7 76.3999 192.9 76.3999ZM198 86.9999H187.1V85.9999C187.1 83.5999 187.9 80.7999 191.9 80.7999H193.8C197.3 80.7999 198 82.8999 198 86.0999V86.9999Z" fill="black"/>
<path d="M172.9 69V77H165.9C161.2 77.1 156.5 78.3 156.5 89.5C156.5 100.9 160.9 101.7 167.1 101.7C169.7 101.7 173.2 101.6 177.6 101H178V69H172.9ZM172.9 97.3H167.2C163 97.3 161.8 95.9 161.8 90.7V87.9C161.8 83.2 163.3 81.5 167.6 81.5H172.9V97.3Z" fill="black"/>
<path d="M307.401 76.3999C304.801 76.3999 301.701 76.5999 299.401 76.9999H299.001V80.7999H307.801C311.001 80.7999 312.201 81.8999 312.201 84.9999V86.1999C309.501 85.7999 306.901 85.6999 304.601 85.6999C300.601 85.6999 295.301 86.5999 295.301 94.1999C295.301 101.3 299.601 101.8 305.301 101.8C307.901 101.8 312.901 101.6 316.601 100.9L317.001 100.8V84.8999C317.101 77.3999 312.501 76.3999 307.401 76.3999ZM312.101 97.2999H304.201C301.701 97.2999 300.701 96.4999 300.701 94.2999V93.3999C300.701 91.1999 301.901 90.1999 304.501 90.1999H312.201V97.2999H312.101Z" fill="black"/>
<path d="M215.8 95L208.3 77H203L213.1 101.3H218.2L228 77H222.9L215.8 95Z" fill="black"/>
<path d="M261.6 93.8999V80.9999H269V76.9999H263.4H261.6V70.2999V69.3999H256.8V70.2999V76.9999H252.9V77.4999V78.9999V79.4999V80.9999H256.5V93.9999C256.5 97.8999 257.4 101.8 263.9 101.8C265.8 101.8 267.8 101.5 269.9 101.1L270.3 101V97.3999H265.2C262.4 97.3999 261.6 96.5999 261.6 93.8999Z" fill="black"/>
<path d="M346.499 76.3999C344.099 76.3999 340.999 76.7999 338.199 77.3999C336.499 76.4999 334.399 76.3999 332.399 76.3999C327.799 76.3999 322.199 77.3999 322.199 77.3999V101.3H327.399V80.8999H332.199C335.699 80.8999 336.699 81.9999 336.699 85.8999V101.2H341.899V84.5999C341.899 83.0999 341.699 81.9999 341.399 80.9999H345.799C349.699 80.9999 350.999 82.1999 350.999 85.9999V101.2H356.099V84.7999C355.999 76.3999 349.599 76.3999 346.499 76.3999Z" fill="black"/>
<path d="M88.7004 54C63.1004 54 42.4004 74.7 42.4004 100.3C42.4004 125.9 63.1004 146.6 88.7004 146.6C114.3 146.6 135 125.9 135 100.3C135 74.7 114.3 54 88.7004 54Z" fill="#F8485E"/>
<path d="M157.9 110.2H159.3V129.9H157.9V110.2Z" fill="black"/>
<path d="M176.2 116.7C177.3 117.8 177.8 119.3 177.8 121.3V129.9H176.4V121.4C176.4 119.7 176 118.5 175.1 117.6C174.2 116.7 173.1 116.3 171.6 116.3C169.9 116.3 168.5 116.8 167.5 117.8C166.5 118.8 166 120.2 166 122V129.8H164.6V115.2H166V118.4C166.5 117.4 167.3 116.6 168.3 116C169.3 115.4 170.5 115.1 171.9 115.1C173.7 115.1 175.1 115.7 176.2 116.7Z" fill="black"/>
<path d="M194 116.7C195.1 117.8 195.6 119.3 195.6 121.3V129.9H194.2V121.4C194.2 119.7 193.8 118.5 192.9 117.6C192 116.7 190.9 116.3 189.4 116.3C187.7 116.3 186.3 116.8 185.3 117.8C184.3 118.8 183.8 120.2 183.8 122V129.8H182.4V115.2H183.8V118.4C184.3 117.4 185.1 116.6 186.1 116C187.1 115.4 188.3 115.1 189.7 115.1C191.5 115.1 192.9 115.7 194 116.7Z" fill="black"/>
<path d="M202.301 129.1C201.201 128.5 200.301 127.6 199.701 126.4C199.101 125.3 198.701 124 198.701 122.6C198.701 121.2 199.001 119.9 199.701 118.8C200.301 117.7 201.201 116.8 202.301 116.1C203.401 115.5 204.701 115.1 206.101 115.1C207.501 115.1 208.701 115.4 209.901 116.1C211.001 116.7 211.901 117.6 212.501 118.8C213.101 119.9 213.501 121.2 213.501 122.6C213.501 124 213.201 125.3 212.501 126.4C211.801 127.5 211.001 128.4 209.901 129.1C208.801 129.7 207.501 130.1 206.101 130.1C204.701 130.1 203.401 129.7 202.301 129.1ZM209.001 128C209.901 127.5 210.601 126.7 211.101 125.8C211.601 124.9 211.901 123.8 211.901 122.6C211.901 121.4 211.601 120.3 211.101 119.4C210.601 118.5 209.901 117.7 209.001 117.2C208.101 116.7 207.101 116.4 206.001 116.4C204.901 116.4 203.901 116.7 203.001 117.2C202.101 117.7 201.401 118.5 200.901 119.4C200.401 120.3 200.101 121.4 200.101 122.6C200.101 123.8 200.401 124.9 200.901 125.8C201.401 126.7 202.101 127.5 203.001 128C203.901 128.5 204.901 128.8 206.001 128.8C207.101 128.8 208.201 128.5 209.001 128Z" fill="black"/>
<path d="M228.401 115.2L221.801 129.9H220.401L213.801 115.2H215.301L221.201 128.3L227.101 115.2H228.401Z" fill="black"/>
<path d="M239.5 116.5C240.5 117.4 241 118.8 241 120.6V129.9H239.6V127.3C239.1 128.2 238.4 128.8 237.5 129.3C236.6 129.8 235.5 130 234.3 130C232.7 130 231.4 129.6 230.4 128.8C229.5 128 229 127 229 125.8C229 124.6 229.4 123.6 230.3 122.8C231.2 122 232.6 121.7 234.5 121.7H239.5V120.5C239.5 119.1 239.1 118.1 238.4 117.4C237.7 116.7 236.6 116.3 235.1 116.3C234.1 116.3 233.2 116.5 232.3 116.8C231.4 117.1 230.7 117.6 230 118.2L229.3 117.2C230 116.5 230.9 116 231.9 115.7C232.9 115.4 234 115.2 235.1 115.2C237.1 115.1 238.5 115.6 239.5 116.5ZM237.6 128C238.5 127.4 239.1 126.6 239.5 125.6V122.8H234.5C233.1 122.8 232 123.1 231.4 123.6C230.8 124.1 230.4 124.8 230.4 125.8C230.4 126.8 230.8 127.5 231.5 128.1C232.2 128.7 233.2 128.9 234.5 128.9C235.7 128.9 236.8 128.6 237.6 128Z" fill="black"/>
<path d="M252.901 129C252.501 129.3 252.101 129.6 251.601 129.8C251.101 130 250.501 130.1 249.901 130.1C248.601 130.1 247.601 129.7 246.901 129C246.201 128.3 245.901 127.3 245.901 126.1V116.5H243.201V115.3H245.901V112H247.301V115.2H252.001V116.4H247.301V125.9C247.301 126.9 247.501 127.6 248.001 128.1C248.501 128.6 249.101 128.8 250.001 128.8C250.901 128.8 251.701 128.5 252.301 128L252.901 129Z" fill="black"/>
<path d="M255.601 111.3C255.401 111.1 255.301 110.8 255.301 110.5C255.301 110.2 255.401 109.9 255.601 109.7C255.801 109.5 256.101 109.4 256.401 109.4C256.701 109.4 257.001 109.5 257.201 109.7C257.401 109.9 257.501 110.2 257.501 110.5C257.501 110.8 257.401 111.1 257.201 111.3C257.001 111.5 256.701 111.6 256.401 111.6C256.101 111.6 255.801 111.6 255.601 111.3ZM255.701 115.2H257.101V129.9H255.701V115.2Z" fill="black"/>
<path d="M273.7 115.2L267.1 129.9H265.7L259 115.2H260.5L266.4 128.3L272.3 115.2H273.7Z" fill="black"/>
<path d="M288.1 122.9H275.5C275.5 124 275.8 125.1 276.4 126C276.9 126.9 277.7 127.6 278.6 128.1C279.5 128.6 280.6 128.8 281.7 128.8C282.7 128.8 283.5 128.6 284.4 128.3C285.3 128 285.9 127.4 286.4 126.8L287.2 127.7C286.6 128.5 285.8 129.1 284.8 129.5C283.8 129.9 282.8 130.1 281.7 130.1C280.2 130.1 278.9 129.8 277.8 129.1C276.7 128.5 275.8 127.6 275.1 126.5C274.4 125.4 274.1 124.1 274.1 122.6C274.1 121.2 274.4 119.9 275 118.8C275.6 117.7 276.5 116.8 277.5 116.1C278.6 115.5 279.8 115.1 281.1 115.1C282.4 115.1 283.6 115.4 284.7 116C285.8 116.6 286.6 117.5 287.2 118.6C287.8 119.7 288.1 121 288.1 122.4V122.9ZM278.3 117.1C277.5 117.6 276.8 118.2 276.3 119C275.8 119.8 275.5 120.8 275.4 121.8H286.7C286.6 120.7 286.4 119.8 285.9 119C285.4 118.2 284.7 117.5 283.9 117.1C283.1 116.7 282.1 116.4 281.1 116.4C280.1 116.4 279.1 116.6 278.3 117.1Z" fill="black"/>
<path d="M301.7 111.5H294.6V110.2H310.2V111.5H303.1V129.9H301.7V111.5Z" fill="black"/>
<path d="M324.6 122.9H312C312 124 312.3 125.1 312.9 126C313.4 126.9 314.2 127.6 315.1 128.1C316 128.6 317.1 128.8 318.2 128.8C319.2 128.8 320 128.6 320.9 128.3C321.8 128 322.4 127.4 322.9 126.8L323.7 127.7C323.1 128.5 322.3 129.1 321.3 129.5C320.3 129.9 319.3 130.1 318.2 130.1C316.7 130.1 315.4 129.8 314.3 129.1C313.2 128.5 312.3 127.6 311.6 126.5C310.9 125.4 310.6 124.1 310.6 122.6C310.6 121.2 310.9 119.9 311.5 118.8C312.1 117.7 313 116.8 314 116.1C315.1 115.5 316.3 115.1 317.6 115.1C318.9 115.1 320.1 115.4 321.2 116C322.3 116.6 323.1 117.5 323.7 118.6C324.3 119.7 324.6 121 324.6 122.4V122.9ZM314.8 117.1C314 117.6 313.3 118.2 312.8 119C312.3 119.8 312 120.8 311.9 121.8H323.2C323.1 120.7 322.9 119.8 322.4 119C321.9 118.2 321.2 117.5 320.4 117.1C319.6 116.7 318.6 116.4 317.6 116.4C316.6 116.4 315.6 116.6 314.8 117.1Z" fill="black"/>
<path d="M329.901 129.1C328.801 128.5 327.901 127.6 327.301 126.4C326.701 125.3 326.301 124 326.301 122.6C326.301 121.2 326.601 119.9 327.301 118.7C327.901 117.6 328.801 116.7 329.901 116.1C331.001 115.5 332.301 115.2 333.701 115.2C334.901 115.2 336.001 115.4 336.901 115.9C337.901 116.4 338.701 117 339.301 117.9L338.301 118.7C337.801 118 337.101 117.4 336.301 117.1C335.501 116.7 334.701 116.6 333.701 116.6C332.601 116.6 331.501 116.9 330.601 117.4C329.701 117.9 329.001 118.6 328.501 119.6C328.001 120.5 327.701 121.6 327.701 122.8C327.701 124 328.001 125.1 328.501 126C329.001 126.9 329.701 127.7 330.601 128.2C331.501 128.7 332.501 129 333.701 129C334.601 129 335.501 128.8 336.301 128.5C337.101 128.1 337.701 127.6 338.301 126.9L339.301 127.7C338.701 128.6 337.901 129.3 336.901 129.7C335.901 130.2 334.901 130.4 333.701 130.4C332.301 130 331.001 129.7 329.901 129.1Z" fill="black"/>
<path d="M353.901 116.7C355.001 117.8 355.501 119.3 355.501 121.3V129.9H354.101V121.4C354.101 119.7 353.701 118.5 352.801 117.6C351.901 116.7 350.801 116.3 349.301 116.3C347.601 116.3 346.201 116.8 345.201 117.8C344.201 118.8 343.701 120.2 343.701 122V129.8H342.301V109H343.701V118.3C344.201 117.3 345.001 116.5 346.001 115.9C347.001 115.3 348.201 115.1 349.501 115.1C351.401 115.1 352.801 115.7 353.901 116.7Z" fill="black"/>
<path d="M119.6 96.6998H101.8V129.1H80.7996C69.3996 129.1 59.0996 122.2 59.0996 107.4C59.0996 96.4998 64.7996 85.6998 80.7996 85.6998H85.6996C85.6996 85.6998 87.5996 91.0998 88.3996 96.7998H81.0996C74.5996 96.7998 70.7996 100.4 70.7996 107.4C70.7996 114 74.2996 118 81.0996 118H90.4996V69.2998H101.9V85.7998H119.6V96.6998Z" fill="white"/>
</svg>
