<svg width="398" height="200" viewBox="0 0 398 200" fill="none" xmlns="http://www.w3.org/2000/svg">
<path d="M0.5 16C0.5 7.43958 7.43959 0.5 16 0.5H382C390.56 0.5 397.5 7.43959 397.5 16V184C397.5 192.56 390.56 199.5 382 199.5H16C7.43959 199.5 0.5 192.56 0.5 184V16Z" stroke="black"/>
<path d="M282.9 76.3999C277.4 76.3999 271.9 77.9999 271.9 89.4999C271.9 93.9999 272.6 96.8999 274 98.6999C275.6 100.8 278.3 101.7 282.3 101.7C284.7 101.7 288.8 101.4 291.2 101L291.6 100.9V97.1999H283.5C278.8 97.1999 277.1 95.8999 277.1 92.0999V90.6999H289.8C291.7 90.6999 293 89.3999 293 87.3999V85.8999C293.1 79.6999 289.7 76.3999 282.9 76.3999ZM288 86.9999H277.1V85.9999C277.1 83.5999 277.9 80.7999 281.9 80.7999H283.8C287.3 80.7999 288 82.8999 288 86.0999V86.9999Z" fill="black"/>
<path d="M240.601 76.3999H239.401C232.001 76.3999 228.801 80.3999 228.801 89.3999C228.801 96.7999 230.601 101.8 239.401 101.8H240.601C247.801 101.8 251.201 97.7999 251.201 89.0999C251.201 80.1999 248.001 76.3999 240.601 76.3999ZM245.801 91.0999C245.801 95.5999 244.301 97.4999 240.701 97.4999H239.401C235.001 97.4999 234.201 95.4999 234.201 89.9999V88.2999C234.201 82.3999 235.401 80.7999 239.601 80.7999H240.401C244.401 80.7999 245.801 81.8999 245.801 88.2999V91.0999Z" fill="black"/>
<path d="M192.9 76.3999C187.4 76.3999 181.9 77.9999 181.9 89.4999C181.9 93.9999 182.6 96.8999 184 98.6999C185.6 100.8 188.3 101.7 192.3 101.7C194.7 101.7 198.8 101.4 201.2 101L201.6 100.9V97.1999H193.5C188.8 97.1999 187.1 95.8999 187.1 92.0999V90.6999H199.8C201.7 90.6999 203 89.3999 203 87.3999V85.8999C203.1 79.6999 199.7 76.3999 192.9 76.3999ZM198 86.9999H187.1V85.9999C187.1 83.5999 187.9 80.7999 191.9 80.7999H193.8C197.3 80.7999 198 82.8999 198 86.0999V86.9999Z" fill="black"/>
<path d="M172.9 69V77H165.9C161.2 77.1 156.5 78.3 156.5 89.5C156.5 100.9 160.9 101.7 167.1 101.7C169.7 101.7 173.2 101.6 177.6 101H178V69H172.9ZM172.9 97.3H167.2C163 97.3 161.8 95.9 161.8 90.7V87.9C161.8 83.2 163.3 81.5 167.6 81.5H172.9V97.3Z" fill="black"/>
<path d="M307.401 76.3999C304.801 76.3999 301.701 76.5999 299.401 76.9999H299.001V80.7999H307.801C311.001 80.7999 312.201 81.8999 312.201 84.9999V86.1999C309.501 85.7999 306.901 85.6999 304.601 85.6999C300.601 85.6999 295.301 86.5999 295.301 94.1999C295.301 101.3 299.601 101.8 305.301 101.8C307.901 101.8 312.901 101.6 316.601 100.9L317.001 100.8V84.8999C317.101 77.3999 312.501 76.3999 307.401 76.3999ZM312.101 97.2999H304.201C301.701 97.2999 300.701 96.4999 300.701 94.2999V93.3999C300.701 91.1999 301.901 90.1999 304.501 90.1999H312.201V97.2999H312.101Z" fill="black"/>
<path d="M215.8 95L208.3 77H203L213.1 101.3H218.2L228 77H222.9L215.8 95Z" fill="black"/>
<path d="M261.6 93.8999V80.9999H269V76.9999H263.4H261.6V70.2999V69.3999H256.8V70.2999V76.9999H252.9V77.4999V78.9999V79.4999V80.9999H256.5V93.9999C256.5 97.8999 257.4 101.8 263.9 101.8C265.8 101.8 267.8 101.5 269.9 101.1L270.3 101V97.3999H265.2C262.4 97.3999 261.6 96.5999 261.6 93.8999Z" fill="black"/>
<path d="M346.499 76.3999C344.099 76.3999 340.999 76.7999 338.199 77.3999C336.499 76.4999 334.399 76.3999 332.399 76.3999C327.799 76.3999 322.199 77.3999 322.199 77.3999V101.3H327.399V80.8999H332.199C335.699 80.8999 336.699 81.9999 336.699 85.8999V101.2H341.899V84.5999C341.899 83.0999 341.699 81.9999 341.399 80.9999H345.799C349.699 80.9999 350.999 82.1999 350.999 85.9999V101.2H356.099V84.7999C355.999 76.3999 349.599 76.3999 346.499 76.3999Z" fill="black"/>
<path d="M88.7004 54C63.1004 54 42.4004 74.7 42.4004 100.3C42.4004 125.9 63.1004 146.6 88.7004 146.6C114.3 146.6 135 125.9 135 100.3C135 74.7 114.3 54 88.7004 54Z" fill="black"/>
<path d="M176.5 129.9V113L168.3 127.2H167.6L159.4 113V129.8H158V110.2H159.2L168 125.4L176.8 110.2H178V129.9H176.5Z" fill="black"/>
<path d="M192.9 128.8C191.4 127.9 190.1 126.7 189.2 125.2C188.3 123.7 187.9 122 187.9 120.1C187.9 118.2 188.3 116.5 189.2 115C190.1 113.5 191.3 112.3 192.9 111.4C194.4 110.5 196.2 110.1 198.1 110.1C199.5 110.1 200.8 110.3 202 110.8C203.2 111.3 204.2 111.9 205.1 112.8L204.2 113.7C202.6 112.1 200.6 111.4 198.1 111.4C196.4 111.4 194.9 111.8 193.6 112.5C192.3 113.2 191.2 114.3 190.4 115.6C189.6 116.9 189.2 118.4 189.2 120C189.2 121.6 189.6 123.1 190.4 124.4C191.2 125.7 192.2 126.8 193.6 127.5C195 128.3 196.5 128.6 198.1 128.6C200.5 128.6 202.6 127.8 204.2 126.2L205.1 127.1C204.3 128 203.2 128.7 202 129.2C200.8 129.7 199.5 129.9 198.1 129.9C196.2 130.1 194.5 129.6 192.9 128.8Z" fill="black"/>
<path d="M208.4 109H209.8V129.9H208.4V109Z" fill="black"/>
<path d="M216.6 129.1C215.5 128.5 214.6 127.6 214 126.4C213.4 125.3 213 124 213 122.6C213 121.2 213.3 119.9 214 118.8C214.6 117.7 215.5 116.8 216.6 116.1C217.7 115.5 219 115.1 220.4 115.1C221.8 115.1 223 115.4 224.2 116.1C225.3 116.7 226.2 117.6 226.8 118.8C227.4 119.9 227.8 121.2 227.8 122.6C227.8 124 227.5 125.3 226.8 126.4C226.1 127.5 225.3 128.4 224.2 129.1C223.1 129.7 221.8 130.1 220.4 130.1C219 130.1 217.7 129.7 216.6 129.1ZM223.4 128C224.3 127.5 225 126.7 225.5 125.8C226 124.9 226.3 123.8 226.3 122.6C226.3 121.4 226 120.3 225.5 119.4C225 118.5 224.3 117.7 223.4 117.2C222.5 116.7 221.5 116.4 220.4 116.4C219.3 116.4 218.3 116.7 217.4 117.2C216.5 117.7 215.8 118.5 215.3 119.4C214.8 120.3 214.5 121.4 214.5 122.6C214.5 123.8 214.8 124.9 215.3 125.8C215.8 126.7 216.5 127.5 217.4 128C218.3 128.5 219.3 128.8 220.4 128.8C221.5 128.8 222.5 128.5 223.4 128Z" fill="black"/>
<path d="M243.799 115.2V129.9H242.399V126.7C241.899 127.7 241.199 128.5 240.199 129.1C239.199 129.7 238.099 130 236.799 130C234.899 130 233.399 129.5 232.299 128.4C231.199 127.3 230.699 125.8 230.699 123.8V115.2H232.099V123.7C232.099 125.4 232.499 126.6 233.399 127.5C234.199 128.4 235.399 128.8 236.999 128.8C238.699 128.8 239.999 128.3 240.899 127.3C241.899 126.3 242.299 124.9 242.299 123.1V115.3H243.799V115.2Z" fill="black"/>
<path d="M261.7 109V129.9H260.3V126.4C259.7 127.5 258.9 128.4 257.9 129C256.9 129.6 255.7 129.9 254.3 129.9C252.9 129.9 251.7 129.6 250.6 128.9C249.5 128.3 248.6 127.4 248 126.3C247.4 125.2 247.1 123.9 247.1 122.4C247.1 120.9 247.4 119.7 248 118.5C248.6 117.4 249.5 116.5 250.6 115.9C251.7 115.3 252.9 115 254.3 115C255.6 115 256.8 115.3 257.8 115.9C258.8 116.5 259.7 117.4 260.3 118.5V109H261.7ZM257.4 128C258.3 127.5 259 126.7 259.5 125.8C260 124.9 260.3 123.8 260.3 122.6C260.3 121.4 260 120.3 259.5 119.4C259 118.5 258.3 117.7 257.4 117.2C256.5 116.7 255.5 116.4 254.4 116.4C253.3 116.4 252.3 116.7 251.4 117.2C250.5 117.7 249.8 118.5 249.3 119.4C248.8 120.3 248.5 121.4 248.5 122.6C248.5 123.8 248.8 124.9 249.3 125.8C249.8 126.7 250.5 127.5 251.4 128C252.3 128.5 253.3 128.8 254.4 128.8C255.5 128.8 256.5 128.5 257.4 128Z" fill="black"/>
<path d="M119.6 96.6998H101.8V129.1H80.7996C69.3996 129.1 59.0996 122.2 59.0996 107.4C59.0996 96.4998 64.7996 85.6998 80.7996 85.6998H85.6996C85.6996 85.6998 87.5996 91.0998 88.3996 96.7998H81.0996C74.5996 96.7998 70.7996 100.4 70.7996 107.4C70.7996 114 74.2996 118 81.0996 118H90.4996V69.2998H101.9V85.7998H119.6V96.6998Z" fill="white"/>
</svg>
