<svg width="476" height="72" viewBox="0 0 476 72" fill="none" xmlns="http://www.w3.org/2000/svg">
<path d="M84.127 70.5C85.1208 70.5 95.5465 70.1926 98.127 65C98.627 64 85.3427 41.0943 77.127 37.5C65.6972 32.4996 45.8152 33.9999 43.8268 34.9999C40.5336 36.8936 40.6082 39.2358 40.6323 41.1772C40.6349 41.3919 40.6489 41.5962 40.7295 41.7952C42.7249 46.7185 68.4574 63.6446 84.127 70.5Z" fill="#C7515C"/>
<path fill-rule="evenodd" clip-rule="evenodd" d="M84.127 70.5C85.1208 70.5 95.5465 70.1926 98.127 65L97.627 64C91.627 66.8 87.7936 66.5 86.627 66C63.827 54 48.5935 40.3333 43.8268 34.9999C40.5774 36.8683 40.6068 39.1735 40.6313 41.0994C40.6316 41.1254 40.632 41.1513 40.6323 41.1772C40.6349 41.3919 40.6489 41.5962 40.7295 41.7952C42.7249 46.7185 68.4574 63.6446 84.127 70.5Z" fill="#A03E47"/>
<path d="M30.627 18.5003C32.127 9.00003 49.127 1.00005 74.127 21.0003C63.627 23.5 39.827 24.9005 30.627 18.5003Z" fill="#C7515C"/>
<path fill-rule="evenodd" clip-rule="evenodd" d="M30.627 18.4964C30.8437 18.6736 31.0987 18.8376 31.389 18.9891C41.0796 24.8215 63.9053 23.4298 74.127 20.9964L70.127 18.0901C59.4645 19.781 37.5272 22.1918 31.389 18.9891C31.125 18.8303 30.8709 18.6661 30.627 18.4964Z" fill="#A03E47"/>
<path d="M3.62672 2.5C-3.17328 6.5 1.12672 22.8333 4.12672 30.5L7.12695 29.5C11.927 9.1 6.79346 2.83333 3.62672 2.5Z" fill="#AD3147"/>
<path d="M4.75188 68.2761C-2.18357 64.5158 1.39634 47.7667 4.12695 40L7.62737 42.0001C13.1364 62.2201 7.90507 67.8324 4.75188 68.2761Z" fill="#AD3147"/>
<path d="M10.6887 28.4994C10.6887 28.4994 21.127 20 30.1274 20.5C48.127 29 75.1274 22.5 75.1274 22.5C75.1274 22.5 72.1275 22.4998 121.627 27C121.627 27 128.127 10 130.127 8.9999C132.735 7.69596 139.127 5.99985 143.127 9.49948C143.127 9.49948 141.627 37.4997 131.127 44.9995C124.796 49.5221 119.729 49.3372 112.127 50.9995C104.248 52.7224 91.627 53.5 91.627 53.5C91.627 53.5 82.627 40 77.127 37.5C60.127 32.5 45.4686 34.5528 44.127 35C41.627 36 40.127 40 40.827 42C40.827 43 56.127 54.6 56.127 54.6C56.127 54.6 44.6274 55.4995 37.1274 53.9995C14.6274 49.4995 11.6887 43.4995 11.6887 43.4995C11.6887 43.4995 1.58061 40.4789 1.12745 35.4995C0.626957 30 10.6887 28.4994 10.6887 28.4994Z" fill="#AD3147"/>
<path fill-rule="evenodd" clip-rule="evenodd" d="M11.6887 43.4995C12.938 35.0991 11.5426 29.9993 10.6887 28.4994L15.127 25.5C17.627 29 20.727 34.7 17.127 47.5C16.4856 47.2516 15.4488 46.7569 14.4145 46.0769C12.1978 44.5389 11.6887 43.4995 11.6887 43.4995ZM75.094 22.5079L75.1274 22.5C75.1274 22.5 75.0836 22.5 75.094 22.5079Z" fill="#D9D9D9" fill-opacity="0.8"/>
<path d="M90.627 53.5C97.127 34.5 93.627 25.5 93.127 24.5L98.627 25C99.427 31.8 97.127 48 94.127 53L90.627 53.5Z" fill="white"/>
<path d="M98.627 52.5C105.127 33.5 101.627 26.5 101.127 25.5L106.627 26C107.427 32.8 105.127 47 102.127 52L98.627 52.5Z" fill="white"/>
<path fill-rule="evenodd" clip-rule="evenodd" d="M134.825 41.0804C127.819 42.9297 111.665 46.1827 100.627 45C90.9709 43.9654 86.5477 40.7901 83.2559 38.4271C81.7751 37.3641 80.5232 36.4654 79.127 36C61.502 31.0288 49.5955 32.5932 44.146 33.3092C43.5663 33.3854 43.0596 33.4519 42.627 33.5C39.9279 33.7999 38.1282 36.618 36.5806 39.0414C35.5479 40.6585 34.6275 42.0998 33.627 42.5C28.427 43.7 17.127 40.6667 12.127 39C7.72695 39.8 2.96062 36.9997 1.12745 35.4995C1.58061 40.4789 11.6887 43.4995 11.6887 43.4995C11.6887 43.4995 14.6274 49.4995 37.1274 53.9995C44.6274 55.4995 56.127 54.6 56.127 54.6C56.127 54.6 40.827 43 40.827 42C40.127 40 41.627 36 44.127 35C45.4686 34.5528 60.127 32.5 77.127 37.5C82.627 40 91.627 53.5 91.627 53.5C91.627 53.5 104.248 52.7224 112.127 50.9995C113.94 50.6032 115.608 50.3119 117.184 50.0368C122.217 49.1578 126.305 48.4439 131.127 44.9995C132.51 44.0118 133.737 42.6685 134.825 41.0804ZM75.094 22.5079C75.1162 22.5027 75.1274 22.5 75.1274 22.5C75.1274 22.5 75.0836 22.5 75.094 22.5079Z" fill="#333333" fill-opacity="0.5"/>
<path d="M127.627 13H142.827L142.427 16H126.227L127.627 13Z" fill="white"/>
<path d="M123.628 22H141.427L140.927 25H122.428L123.628 22Z" fill="white"/>
<path fill-rule="evenodd" clip-rule="evenodd" d="M156.294 39.9988L188.04 53.0002L187.213 54.2513L154.895 40.8718L126.613 40.3756L126.64 38.8759L154.814 39.3701L186.088 15.1038L187.165 16.1477L156.294 39.9988Z" fill="#AD3147"/>
<path d="M186.877 64.0285V1.66466C201.238 6.33002 219.838 8.02818 241.173 8.2173C262.726 8.40835 287.144 7.05844 312.907 5.63411L313.933 5.57739C366.036 2.6974 423.565 -0.405702 474.377 8.25779V70.6325C433.302 59.0917 380.703 61.8432 328.842 65.2676C325.882 65.4632 322.923 65.6609 319.969 65.8582C270.96 69.1332 223.236 72.3224 186.877 64.0285Z" fill="white" stroke="#AD3147" stroke-width="1.5"/>
<path d="M214.891 21.9H216.191V31H214.891V21.9ZM209.665 31H208.365V21.9H209.665V31ZM215.008 26.944H209.535V25.813H215.008V26.944ZM223.01 31V29.544L222.945 29.271V26.788C222.945 26.2593 222.789 25.852 222.477 25.566C222.173 25.2713 221.714 25.124 221.099 25.124C220.691 25.124 220.293 25.1933 219.903 25.332C219.513 25.462 219.183 25.6397 218.915 25.865L218.395 24.929C218.75 24.643 219.175 24.4263 219.669 24.279C220.171 24.123 220.696 24.045 221.242 24.045C222.186 24.045 222.914 24.2747 223.426 24.734C223.937 25.1933 224.193 25.8953 224.193 26.84V31H223.01ZM220.748 31.078C220.236 31.078 219.786 30.9913 219.396 30.818C219.014 30.6447 218.72 30.4063 218.512 30.103C218.304 29.791 218.2 29.44 218.2 29.05C218.2 28.6773 218.286 28.3393 218.46 28.036C218.642 27.7327 218.932 27.49 219.331 27.308C219.738 27.126 220.284 27.035 220.969 27.035H223.153V27.932H221.021C220.397 27.932 219.976 28.036 219.76 28.244C219.543 28.452 219.435 28.7033 219.435 28.998C219.435 29.336 219.569 29.609 219.838 29.817C220.106 30.0163 220.479 30.116 220.956 30.116C221.424 30.116 221.831 30.012 222.178 29.804C222.533 29.596 222.789 29.2927 222.945 28.894L223.192 29.752C223.027 30.1593 222.737 30.4843 222.321 30.727C221.905 30.961 221.38 31.078 220.748 31.078ZM228.182 31L225.166 24.11H226.466L229.144 30.35H228.52L231.25 24.11H232.472L229.456 31H228.182ZM236.515 31.078C235.778 31.078 235.128 30.9263 234.565 30.623C234.01 30.3197 233.577 29.9037 233.265 29.375C232.961 28.8463 232.81 28.2397 232.81 27.555C232.81 26.8703 232.957 26.2637 233.252 25.735C233.555 25.2063 233.967 24.7947 234.487 24.5C235.015 24.1967 235.609 24.045 236.268 24.045C236.935 24.045 237.524 24.1923 238.036 24.487C238.547 24.7817 238.946 25.1977 239.232 25.735C239.526 26.2637 239.674 26.8833 239.674 27.594C239.674 27.646 239.669 27.7067 239.661 27.776C239.661 27.8453 239.656 27.9103 239.648 27.971H233.785V27.074H238.998L238.491 27.386C238.499 26.944 238.408 26.5497 238.218 26.203C238.027 25.8563 237.763 25.5877 237.425 25.397C237.095 25.1977 236.71 25.098 236.268 25.098C235.834 25.098 235.449 25.1977 235.111 25.397C234.773 25.5877 234.508 25.8607 234.318 26.216C234.127 26.5627 234.032 26.9613 234.032 27.412V27.62C234.032 28.0793 234.136 28.491 234.344 28.855C234.56 29.2103 234.859 29.4877 235.241 29.687C235.622 29.8863 236.06 29.986 236.554 29.986C236.961 29.986 237.329 29.9167 237.659 29.778C237.997 29.6393 238.291 29.4313 238.543 29.154L239.232 29.96C238.92 30.324 238.53 30.6013 238.062 30.792C237.602 30.9827 237.087 31.078 236.515 31.078ZM245.08 31V23.499C245.08 22.823 245.275 22.2857 245.665 21.887C246.064 21.4797 246.627 21.276 247.355 21.276C247.624 21.276 247.879 21.3107 248.122 21.38C248.373 21.4407 248.586 21.5403 248.759 21.679L248.382 22.628C248.252 22.524 248.105 22.446 247.94 22.394C247.775 22.3333 247.602 22.303 247.42 22.303C247.056 22.303 246.779 22.407 246.588 22.615C246.397 22.8143 246.302 23.1133 246.302 23.512V24.435L246.328 25.007V31H245.08ZM243.91 25.137V24.11H248.304V25.137H243.91ZM252.38 31.078C251.791 31.078 251.271 30.9697 250.82 30.753C250.378 30.5363 250.031 30.207 249.78 29.765C249.537 29.3143 249.416 28.751 249.416 28.075V24.11H250.664V27.932C250.664 28.608 250.824 29.115 251.145 29.453C251.474 29.791 251.934 29.96 252.523 29.96C252.956 29.96 253.333 29.8733 253.654 29.7C253.975 29.518 254.222 29.258 254.395 28.92C254.568 28.5733 254.655 28.1573 254.655 27.672V24.11H255.903V31H254.72V29.141L254.915 29.635C254.69 30.0943 254.352 30.4497 253.901 30.701C253.45 30.9523 252.943 31.078 252.38 31.078ZM261.958 24.045C262.521 24.045 263.015 24.1533 263.44 24.37C263.873 24.5867 264.211 24.916 264.454 25.358C264.696 25.8 264.818 26.359 264.818 27.035V31H263.57V27.178C263.57 26.5107 263.405 26.008 263.076 25.67C262.755 25.332 262.3 25.163 261.711 25.163C261.269 25.163 260.883 25.2497 260.554 25.423C260.224 25.5963 259.969 25.852 259.787 26.19C259.613 26.528 259.527 26.9483 259.527 27.451V31H258.279V24.11H259.475V25.969L259.28 25.475C259.505 25.0243 259.852 24.6733 260.32 24.422C260.788 24.1707 261.334 24.045 261.958 24.045ZM274.272 31.078C273.682 31.078 273.149 30.948 272.673 30.688C272.205 30.4193 271.832 30.025 271.555 29.505C271.286 28.985 271.152 28.335 271.152 27.555C271.152 26.775 271.29 26.125 271.568 25.605C271.854 25.085 272.231 24.695 272.699 24.435C273.175 24.175 273.7 24.045 274.272 24.045C274.948 24.045 275.546 24.1923 276.066 24.487C276.586 24.7817 276.997 25.1933 277.301 25.722C277.604 26.242 277.756 26.853 277.756 27.555C277.756 28.257 277.604 28.8723 277.301 29.401C276.997 29.9297 276.586 30.3413 276.066 30.636C275.546 30.9307 274.948 31.078 274.272 31.078ZM270.619 31V21.354H271.867V25.943L271.737 27.542L271.815 29.141V31H270.619ZM274.168 29.986C274.61 29.986 275.004 29.8863 275.351 29.687C275.706 29.4877 275.983 29.206 276.183 28.842C276.391 28.4693 276.495 28.0403 276.495 27.555C276.495 27.061 276.391 26.6363 276.183 26.281C275.983 25.917 275.706 25.6353 275.351 25.436C275.004 25.2367 274.61 25.137 274.168 25.137C273.734 25.137 273.34 25.2367 272.985 25.436C272.638 25.6353 272.361 25.917 272.153 26.281C271.953 26.6363 271.854 27.061 271.854 27.555C271.854 28.0403 271.953 28.4693 272.153 28.842C272.361 29.206 272.638 29.4877 272.985 29.687C273.34 29.8863 273.734 29.986 274.168 29.986ZM279.588 33.6C279.259 33.6 278.938 33.5437 278.626 33.431C278.314 33.327 278.046 33.171 277.82 32.963L278.353 32.027C278.527 32.1917 278.717 32.3173 278.925 32.404C279.133 32.4907 279.354 32.534 279.588 32.534C279.892 32.534 280.143 32.456 280.342 32.3C280.542 32.144 280.728 31.8667 280.901 31.468L281.33 30.519L281.46 30.363L284.164 24.11H285.386L282.045 31.689C281.846 32.1743 281.621 32.5557 281.369 32.833C281.127 33.1103 280.858 33.3053 280.563 33.418C280.269 33.5393 279.944 33.6 279.588 33.6ZM281.226 31.221L278.08 24.11H279.38L282.058 30.246L281.226 31.221ZM293.045 31.078C292.343 31.078 291.715 30.9263 291.16 30.623C290.614 30.3197 290.185 29.9037 289.873 29.375C289.561 28.8463 289.405 28.2397 289.405 27.555C289.405 26.8703 289.561 26.2637 289.873 25.735C290.185 25.2063 290.614 24.7947 291.16 24.5C291.715 24.1967 292.343 24.045 293.045 24.045C293.669 24.045 294.224 24.1707 294.709 24.422C295.203 24.6647 295.585 25.0287 295.853 25.514L294.904 26.125C294.679 25.787 294.402 25.54 294.072 25.384C293.752 25.2193 293.405 25.137 293.032 25.137C292.582 25.137 292.179 25.2367 291.823 25.436C291.468 25.6353 291.186 25.917 290.978 26.281C290.77 26.6363 290.666 27.061 290.666 27.555C290.666 28.049 290.77 28.478 290.978 28.842C291.186 29.206 291.468 29.4877 291.823 29.687C292.179 29.8863 292.582 29.986 293.032 29.986C293.405 29.986 293.752 29.908 294.072 29.752C294.402 29.5873 294.679 29.336 294.904 28.998L295.853 29.596C295.585 30.0727 295.203 30.441 294.709 30.701C294.224 30.9523 293.669 31.078 293.045 31.078ZM297.38 31V21.354H298.628V31H297.38ZM301.011 31V24.11H302.259V31H301.011ZM301.635 22.784C301.392 22.784 301.189 22.706 301.024 22.55C300.868 22.394 300.79 22.2033 300.79 21.978C300.79 21.744 300.868 21.549 301.024 21.393C301.189 21.237 301.392 21.159 301.635 21.159C301.878 21.159 302.077 21.237 302.233 21.393C302.398 21.5403 302.48 21.7267 302.48 21.952C302.48 22.186 302.402 22.3853 302.246 22.55C302.09 22.706 301.886 22.784 301.635 22.784ZM307.645 31.078C306.943 31.078 306.315 30.9263 305.76 30.623C305.214 30.3197 304.785 29.9037 304.473 29.375C304.161 28.8463 304.005 28.2397 304.005 27.555C304.005 26.8703 304.161 26.2637 304.473 25.735C304.785 25.2063 305.214 24.7947 305.76 24.5C306.315 24.1967 306.943 24.045 307.645 24.045C308.269 24.045 308.824 24.1707 309.309 24.422C309.803 24.6647 310.184 25.0287 310.453 25.514L309.504 26.125C309.279 25.787 309.001 25.54 308.672 25.384C308.351 25.2193 308.005 25.137 307.632 25.137C307.181 25.137 306.778 25.2367 306.423 25.436C306.068 25.6353 305.786 25.917 305.578 26.281C305.37 26.6363 305.266 27.061 305.266 27.555C305.266 28.049 305.37 28.478 305.578 28.842C305.786 29.206 306.068 29.4877 306.423 29.687C306.778 29.8863 307.181 29.986 307.632 29.986C308.005 29.986 308.351 29.908 308.672 29.752C309.001 29.5873 309.279 29.336 309.504 28.998L310.453 29.596C310.184 30.0727 309.803 30.441 309.309 30.701C308.824 30.9523 308.269 31.078 307.645 31.078ZM312.994 29.336L313.02 27.737L316.985 24.11H318.493L315.451 27.1L314.775 27.672L312.994 29.336ZM311.98 31V21.354H313.228V31H311.98ZM317.245 31L314.541 27.646L315.347 26.645L318.779 31H317.245ZM319.991 31V24.11H321.239V31H319.991ZM320.615 22.784C320.372 22.784 320.168 22.706 320.004 22.55C319.848 22.394 319.77 22.2033 319.77 21.978C319.77 21.744 319.848 21.549 320.004 21.393C320.168 21.237 320.372 21.159 320.615 21.159C320.857 21.159 321.057 21.237 321.213 21.393C321.377 21.5403 321.46 21.7267 321.46 21.952C321.46 22.186 321.382 22.3853 321.226 22.55C321.07 22.706 320.866 22.784 320.615 22.784ZM327.3 24.045C327.864 24.045 328.358 24.1533 328.782 24.37C329.216 24.5867 329.554 24.916 329.796 25.358C330.039 25.8 330.16 26.359 330.16 27.035V31H328.912V27.178C328.912 26.5107 328.748 26.008 328.418 25.67C328.098 25.332 327.643 25.163 327.053 25.163C326.611 25.163 326.226 25.2497 325.896 25.423C325.567 25.5963 325.311 25.852 325.129 26.19C324.956 26.528 324.869 26.9483 324.869 27.451V31H323.621V24.11H324.817V25.969L324.622 25.475C324.848 25.0243 325.194 24.6733 325.662 24.422C326.13 24.1707 326.676 24.045 327.3 24.045ZM335.486 33.6C334.853 33.6 334.238 33.509 333.64 33.327C333.051 33.1537 332.57 32.9023 332.197 32.573L332.795 31.611C333.116 31.8883 333.51 32.105 333.978 32.261C334.446 32.4257 334.936 32.508 335.447 32.508C336.262 32.508 336.86 32.3173 337.241 31.936C337.622 31.5547 337.813 30.974 337.813 30.194V28.738L337.943 27.373L337.878 25.995V24.11H339.061V30.064C339.061 31.2773 338.758 32.17 338.151 32.742C337.544 33.314 336.656 33.6 335.486 33.6ZM335.33 30.714C334.663 30.714 334.065 30.5753 333.536 30.298C333.016 30.012 332.6 29.6177 332.288 29.115C331.985 28.6123 331.833 28.0317 331.833 27.373C331.833 26.7057 331.985 26.125 332.288 25.631C332.6 25.1283 333.016 24.7383 333.536 24.461C334.065 24.1837 334.663 24.045 335.33 24.045C335.919 24.045 336.457 24.1663 336.942 24.409C337.427 24.643 337.813 25.007 338.099 25.501C338.394 25.995 338.541 26.619 338.541 27.373C338.541 28.1183 338.394 28.738 338.099 29.232C337.813 29.726 337.427 30.0987 336.942 30.35C336.457 30.5927 335.919 30.714 335.33 30.714ZM335.473 29.622C335.932 29.622 336.34 29.5267 336.695 29.336C337.05 29.1453 337.328 28.881 337.527 28.543C337.735 28.205 337.839 27.815 337.839 27.373C337.839 26.931 337.735 26.541 337.527 26.203C337.328 25.865 337.05 25.605 336.695 25.423C336.34 25.2323 335.932 25.137 335.473 25.137C335.014 25.137 334.602 25.2323 334.238 25.423C333.883 25.605 333.601 25.865 333.393 26.203C333.194 26.541 333.094 26.931 333.094 27.373C333.094 27.815 333.194 28.205 333.393 28.543C333.601 28.881 333.883 29.1453 334.238 29.336C334.602 29.5267 335.014 29.622 335.473 29.622ZM347.888 31.078C347.195 31.078 346.579 30.9263 346.042 30.623C345.505 30.3197 345.08 29.9037 344.768 29.375C344.456 28.8377 344.3 28.231 344.3 27.555C344.3 26.8703 344.456 26.2637 344.768 25.735C345.08 25.2063 345.505 24.7947 346.042 24.5C346.579 24.1967 347.195 24.045 347.888 24.045C348.573 24.045 349.184 24.1967 349.721 24.5C350.267 24.7947 350.692 25.2063 350.995 25.735C351.307 26.255 351.463 26.8617 351.463 27.555C351.463 28.2397 351.307 28.8463 350.995 29.375C350.692 29.9037 350.267 30.3197 349.721 30.623C349.184 30.9263 348.573 31.078 347.888 31.078ZM347.888 29.986C348.33 29.986 348.724 29.8863 349.071 29.687C349.426 29.4877 349.704 29.206 349.903 28.842C350.102 28.4693 350.202 28.0403 350.202 27.555C350.202 27.061 350.102 26.6363 349.903 26.281C349.704 25.917 349.426 25.6353 349.071 25.436C348.724 25.2367 348.33 25.137 347.888 25.137C347.446 25.137 347.052 25.2367 346.705 25.436C346.358 25.6353 346.081 25.917 345.873 26.281C345.665 26.6363 345.561 27.061 345.561 27.555C345.561 28.0403 345.665 28.4693 345.873 28.842C346.081 29.206 346.358 29.4877 346.705 29.687C347.052 29.8863 347.446 29.986 347.888 29.986ZM356.868 24.045C357.431 24.045 357.925 24.1533 358.35 24.37C358.783 24.5867 359.121 24.916 359.364 25.358C359.607 25.8 359.728 26.359 359.728 27.035V31H358.48V27.178C358.48 26.5107 358.315 26.008 357.986 25.67C357.665 25.332 357.21 25.163 356.621 25.163C356.179 25.163 355.793 25.2497 355.464 25.423C355.135 25.5963 354.879 25.852 354.697 26.19C354.524 26.528 354.437 26.9483 354.437 27.451V31H353.189V24.11H354.385V25.969L354.19 25.475C354.415 25.0243 354.762 24.6733 355.23 24.422C355.698 24.1707 356.244 24.045 356.868 24.045ZM367.895 31.078C367.201 31.078 366.664 30.8917 366.283 30.519C365.901 30.1463 365.711 29.6133 365.711 28.92V22.602H366.959V28.868C366.959 29.2407 367.05 29.5267 367.232 29.726C367.422 29.9253 367.691 30.025 368.038 30.025C368.428 30.025 368.753 29.9167 369.013 29.7L369.403 30.597C369.212 30.7617 368.982 30.883 368.714 30.961C368.454 31.039 368.181 31.078 367.895 31.078ZM364.541 25.137V24.11H368.935V25.137H364.541ZM374.591 24.045C375.154 24.045 375.648 24.1533 376.073 24.37C376.506 24.5867 376.844 24.916 377.087 25.358C377.329 25.8 377.451 26.359 377.451 27.035V31H376.203V27.178C376.203 26.5107 376.038 26.008 375.709 25.67C375.388 25.332 374.933 25.163 374.344 25.163C373.902 25.163 373.516 25.2497 373.187 25.423C372.857 25.5963 372.602 25.852 372.42 26.19C372.246 26.528 372.16 26.9483 372.16 27.451V31H370.912V21.354H372.16V25.969L371.913 25.475C372.138 25.0243 372.485 24.6733 372.953 24.422C373.421 24.1707 373.967 24.045 374.591 24.045ZM382.828 31.078C382.091 31.078 381.441 30.9263 380.878 30.623C380.323 30.3197 379.89 29.9037 379.578 29.375C379.275 28.8463 379.123 28.2397 379.123 27.555C379.123 26.8703 379.27 26.2637 379.565 25.735C379.868 25.2063 380.28 24.7947 380.8 24.5C381.329 24.1967 381.922 24.045 382.581 24.045C383.248 24.045 383.838 24.1923 384.349 24.487C384.86 24.7817 385.259 25.1977 385.545 25.735C385.84 26.2637 385.987 26.8833 385.987 27.594C385.987 27.646 385.983 27.7067 385.974 27.776C385.974 27.8453 385.97 27.9103 385.961 27.971H380.098V27.074H385.311L384.804 27.386C384.813 26.944 384.722 26.5497 384.531 26.203C384.34 25.8563 384.076 25.5877 383.738 25.397C383.409 25.1977 383.023 25.098 382.581 25.098C382.148 25.098 381.762 25.1977 381.424 25.397C381.086 25.5877 380.822 25.8607 380.631 26.216C380.44 26.5627 380.345 26.9613 380.345 27.412V27.62C380.345 28.0793 380.449 28.491 380.657 28.855C380.874 29.2103 381.173 29.4877 381.554 29.687C381.935 29.8863 382.373 29.986 382.867 29.986C383.274 29.986 383.643 29.9167 383.972 29.778C384.31 29.6393 384.605 29.4313 384.856 29.154L385.545 29.96C385.233 30.324 384.843 30.6013 384.375 30.792C383.916 30.9827 383.4 31.078 382.828 31.078ZM397.771 31.078C397.034 31.078 396.384 30.9263 395.821 30.623C395.266 30.3197 394.833 29.9037 394.521 29.375C394.217 28.8463 394.066 28.2397 394.066 27.555C394.066 26.8703 394.213 26.2637 394.508 25.735C394.811 25.2063 395.223 24.7947 395.743 24.5C396.271 24.1967 396.865 24.045 397.524 24.045C398.191 24.045 398.78 24.1923 399.292 24.487C399.803 24.7817 400.202 25.1977 400.488 25.735C400.782 26.2637 400.93 26.8833 400.93 27.594C400.93 27.646 400.925 27.7067 400.917 27.776C400.917 27.8453 400.912 27.9103 400.904 27.971H395.041V27.074H400.254L399.747 27.386C399.755 26.944 399.664 26.5497 399.474 26.203C399.283 25.8563 399.019 25.5877 398.681 25.397C398.351 25.1977 397.966 25.098 397.524 25.098C397.09 25.098 396.705 25.1977 396.367 25.397C396.029 25.5877 395.764 25.8607 395.574 26.216C395.383 26.5627 395.288 26.9613 395.288 27.412V27.62C395.288 28.0793 395.392 28.491 395.6 28.855C395.816 29.2103 396.115 29.4877 396.497 29.687C396.878 29.8863 397.316 29.986 397.81 29.986C398.217 29.986 398.585 29.9167 398.915 29.778C399.253 29.6393 399.547 29.4313 399.799 29.154L400.488 29.96C400.176 30.324 399.786 30.6013 399.318 30.792C398.858 30.9827 398.343 31.078 397.771 31.078ZM402.662 31V21.354H403.91V31H402.662ZM409.361 31.078C408.625 31.078 407.975 30.9263 407.411 30.623C406.857 30.3197 406.423 29.9037 406.111 29.375C405.808 28.8463 405.656 28.2397 405.656 27.555C405.656 26.8703 405.804 26.2637 406.098 25.735C406.402 25.2063 406.813 24.7947 407.333 24.5C407.862 24.1967 408.456 24.045 409.114 24.045C409.782 24.045 410.371 24.1923 410.882 24.487C411.394 24.7817 411.792 25.1977 412.078 25.735C412.373 26.2637 412.52 26.8833 412.52 27.594C412.52 27.646 412.516 27.7067 412.507 27.776C412.507 27.8453 412.503 27.9103 412.494 27.971H406.631V27.074H411.844L411.337 27.386C411.346 26.944 411.255 26.5497 411.064 26.203C410.874 25.8563 410.609 25.5877 410.271 25.397C409.942 25.1977 409.556 25.098 409.114 25.098C408.681 25.098 408.295 25.1977 407.957 25.397C407.619 25.5877 407.355 25.8607 407.164 26.216C406.974 26.5627 406.878 26.9613 406.878 27.412V27.62C406.878 28.0793 406.982 28.491 407.19 28.855C407.407 29.2103 407.706 29.4877 408.087 29.687C408.469 29.8863 408.906 29.986 409.4 29.986C409.808 29.986 410.176 29.9167 410.505 29.778C410.843 29.6393 411.138 29.4313 411.389 29.154L412.078 29.96C411.766 30.324 411.376 30.6013 410.908 30.792C410.449 30.9827 409.933 31.078 409.361 31.078ZM422.872 24.045C423.427 24.045 423.917 24.1533 424.341 24.37C424.766 24.5867 425.095 24.916 425.329 25.358C425.572 25.8 425.693 26.359 425.693 27.035V31H424.445V27.178C424.445 26.5107 424.289 26.008 423.977 25.67C423.665 25.332 423.228 25.163 422.664 25.163C422.248 25.163 421.884 25.2497 421.572 25.423C421.26 25.5963 421.018 25.852 420.844 26.19C420.68 26.528 420.597 26.9483 420.597 27.451V31H419.349V27.178C419.349 26.5107 419.193 26.008 418.881 25.67C418.578 25.332 418.14 25.163 417.568 25.163C417.161 25.163 416.801 25.2497 416.489 25.423C416.177 25.5963 415.935 25.852 415.761 26.19C415.588 26.528 415.501 26.9483 415.501 27.451V31H414.253V24.11H415.449V25.943L415.254 25.475C415.471 25.0243 415.805 24.6733 416.255 24.422C416.706 24.1707 417.23 24.045 417.828 24.045C418.487 24.045 419.055 24.2097 419.531 24.539C420.008 24.8597 420.32 25.3493 420.467 26.008L419.96 25.8C420.168 25.2713 420.532 24.8467 421.052 24.526C421.572 24.2053 422.179 24.045 422.872 24.045ZM431.058 31.078C430.321 31.078 429.671 30.9263 429.108 30.623C428.553 30.3197 428.12 29.9037 427.808 29.375C427.504 28.8463 427.353 28.2397 427.353 27.555C427.353 26.8703 427.5 26.2637 427.795 25.735C428.098 25.2063 428.51 24.7947 429.03 24.5C429.558 24.1967 430.152 24.045 430.811 24.045C431.478 24.045 432.067 24.1923 432.579 24.487C433.09 24.7817 433.489 25.1977 433.775 25.735C434.069 26.2637 434.217 26.8833 434.217 27.594C434.217 27.646 434.212 27.7067 434.204 27.776C434.204 27.8453 434.199 27.9103 434.191 27.971H428.328V27.074H433.541L433.034 27.386C433.042 26.944 432.951 26.5497 432.761 26.203C432.57 25.8563 432.306 25.5877 431.968 25.397C431.638 25.1977 431.253 25.098 430.811 25.098C430.377 25.098 429.992 25.1977 429.654 25.397C429.316 25.5877 429.051 25.8607 428.861 26.216C428.67 26.5627 428.575 26.9613 428.575 27.412V27.62C428.575 28.0793 428.679 28.491 428.887 28.855C429.103 29.2103 429.402 29.4877 429.784 29.687C430.165 29.8863 430.603 29.986 431.097 29.986C431.504 29.986 431.872 29.9167 432.202 29.778C432.54 29.6393 432.834 29.4313 433.086 29.154L433.775 29.96C433.463 30.324 433.073 30.6013 432.605 30.792C432.145 30.9827 431.63 31.078 431.058 31.078ZM439.629 24.045C440.192 24.045 440.686 24.1533 441.111 24.37C441.544 24.5867 441.882 24.916 442.125 25.358C442.367 25.8 442.489 26.359 442.489 27.035V31H441.241V27.178C441.241 26.5107 441.076 26.008 440.747 25.67C440.426 25.332 439.971 25.163 439.382 25.163C438.94 25.163 438.554 25.2497 438.225 25.423C437.895 25.5963 437.64 25.852 437.458 26.19C437.284 26.528 437.198 26.9483 437.198 27.451V31H435.95V24.11H437.146V25.969L436.951 25.475C437.176 25.0243 437.523 24.6733 437.991 24.422C438.459 24.1707 439.005 24.045 439.629 24.045ZM447.164 31.078C446.471 31.078 445.934 30.8917 445.552 30.519C445.171 30.1463 444.98 29.6133 444.98 28.92V22.602H446.228V28.868C446.228 29.2407 446.319 29.5267 446.501 29.726C446.692 29.9253 446.961 30.025 447.307 30.025C447.697 30.025 448.022 29.9167 448.282 29.7L448.672 30.597C448.482 30.7617 448.252 30.883 447.983 30.961C447.723 31.039 447.45 31.078 447.164 31.078ZM443.81 25.137V24.11H448.204V25.137H443.81ZM452.157 31.078C451.585 31.078 451.039 31 450.519 30.844C450.008 30.688 449.605 30.4973 449.31 30.272L449.83 29.284C450.125 29.4833 450.489 29.6523 450.922 29.791C451.355 29.9297 451.797 29.999 452.248 29.999C452.829 29.999 453.245 29.9167 453.496 29.752C453.756 29.5873 453.886 29.3577 453.886 29.063C453.886 28.8463 453.808 28.6773 453.652 28.556C453.496 28.4347 453.288 28.3437 453.028 28.283C452.777 28.2223 452.495 28.1703 452.183 28.127C451.871 28.075 451.559 28.0143 451.247 27.945C450.935 27.867 450.649 27.763 450.389 27.633C450.129 27.4943 449.921 27.308 449.765 27.074C449.609 26.8313 449.531 26.5107 449.531 26.112C449.531 25.696 449.648 25.332 449.882 25.02C450.116 24.708 450.445 24.4697 450.87 24.305C451.303 24.1317 451.815 24.045 452.404 24.045C452.855 24.045 453.31 24.1013 453.769 24.214C454.237 24.318 454.618 24.4697 454.913 24.669L454.38 25.657C454.068 25.449 453.743 25.306 453.405 25.228C453.067 25.15 452.729 25.111 452.391 25.111C451.845 25.111 451.438 25.202 451.169 25.384C450.9 25.5573 450.766 25.7827 450.766 26.06C450.766 26.294 450.844 26.476 451 26.606C451.165 26.7273 451.373 26.8227 451.624 26.892C451.884 26.9613 452.17 27.022 452.482 27.074C452.794 27.1173 453.106 27.178 453.418 27.256C453.73 27.3253 454.012 27.425 454.263 27.555C454.523 27.685 454.731 27.867 454.887 28.101C455.052 28.335 455.134 28.647 455.134 29.037C455.134 29.453 455.013 29.8127 454.77 30.116C454.527 30.4193 454.185 30.6577 453.743 30.831C453.301 30.9957 452.772 31.078 452.157 31.078ZM212.46 51V49.544L212.395 49.271V46.788C212.395 46.2593 212.239 45.852 211.927 45.566C211.624 45.2713 211.164 45.124 210.549 45.124C210.142 45.124 209.743 45.1933 209.353 45.332C208.963 45.462 208.634 45.6397 208.365 45.865L207.845 44.929C208.2 44.643 208.625 44.4263 209.119 44.279C209.622 44.123 210.146 44.045 210.692 44.045C211.637 44.045 212.365 44.2747 212.876 44.734C213.387 45.1933 213.643 45.8953 213.643 46.84V51H212.46ZM210.198 51.078C209.687 51.078 209.236 50.9913 208.846 50.818C208.465 50.6447 208.17 50.4063 207.962 50.103C207.754 49.791 207.65 49.44 207.65 49.05C207.65 48.6773 207.737 48.3393 207.91 48.036C208.092 47.7327 208.382 47.49 208.781 47.308C209.188 47.126 209.734 47.035 210.419 47.035H212.603V47.932H210.471C209.847 47.932 209.427 48.036 209.21 48.244C208.993 48.452 208.885 48.7033 208.885 48.998C208.885 49.336 209.019 49.609 209.288 49.817C209.557 50.0163 209.929 50.116 210.406 50.116C210.874 50.116 211.281 50.012 211.628 49.804C211.983 49.596 212.239 49.2927 212.395 48.894L212.642 49.752C212.477 50.1593 212.187 50.4843 211.771 50.727C211.355 50.961 210.831 51.078 210.198 51.078ZM219.632 44.045C220.195 44.045 220.689 44.1533 221.114 44.37C221.547 44.5867 221.885 44.916 222.128 45.358C222.37 45.8 222.492 46.359 222.492 47.035V51H221.244V47.178C221.244 46.5107 221.079 46.008 220.75 45.67C220.429 45.332 219.974 45.163 219.385 45.163C218.943 45.163 218.557 45.2497 218.228 45.423C217.898 45.5963 217.643 45.852 217.461 46.19C217.287 46.528 217.201 46.9483 217.201 47.451V51H215.953V44.11H217.149V45.969L216.954 45.475C217.179 45.0243 217.526 44.6733 217.994 44.422C218.462 44.1707 219.008 44.045 219.632 44.045ZM227.648 51.078C226.981 51.078 226.383 50.9307 225.854 50.636C225.334 50.3413 224.922 49.9297 224.619 49.401C224.316 48.8723 224.164 48.257 224.164 47.555C224.164 46.853 224.316 46.242 224.619 45.722C224.922 45.1933 225.334 44.7817 225.854 44.487C226.383 44.1923 226.981 44.045 227.648 44.045C228.229 44.045 228.753 44.175 229.221 44.435C229.689 44.695 230.062 45.085 230.339 45.605C230.625 46.125 230.768 46.775 230.768 47.555C230.768 48.335 230.629 48.985 230.352 49.505C230.083 50.025 229.715 50.4193 229.247 50.688C228.779 50.948 228.246 51.078 227.648 51.078ZM227.752 49.986C228.185 49.986 228.575 49.8863 228.922 49.687C229.277 49.4877 229.555 49.206 229.754 48.842C229.962 48.4693 230.066 48.0403 230.066 47.555C230.066 47.061 229.962 46.6363 229.754 46.281C229.555 45.917 229.277 45.6353 228.922 45.436C228.575 45.2367 228.185 45.137 227.752 45.137C227.31 45.137 226.916 45.2367 226.569 45.436C226.222 45.6353 225.945 45.917 225.737 46.281C225.529 46.6363 225.425 47.061 225.425 47.555C225.425 48.0403 225.529 48.4693 225.737 48.842C225.945 49.206 226.222 49.4877 226.569 49.687C226.916 49.8863 227.31 49.986 227.752 49.986ZM230.105 51V49.141L230.183 47.542L230.053 45.943V41.354H231.301V51H230.105ZM237.336 51V43.499C237.336 42.823 237.531 42.2857 237.921 41.887C238.319 41.4797 238.883 41.276 239.611 41.276C239.879 41.276 240.135 41.3107 240.378 41.38C240.629 41.4407 240.841 41.5403 241.015 41.679L240.638 42.628C240.508 42.524 240.36 42.446 240.196 42.394C240.031 42.3333 239.858 42.303 239.676 42.303C239.312 42.303 239.034 42.407 238.844 42.615C238.653 42.8143 238.558 43.1133 238.558 43.512V44.435L238.584 45.007V51H237.336ZM236.166 45.137V44.11H240.56V45.137H236.166ZM241.743 51V44.11H242.991V51H241.743ZM242.367 42.784C242.124 42.784 241.92 42.706 241.756 42.55C241.6 42.394 241.522 42.2033 241.522 41.978C241.522 41.744 241.6 41.549 241.756 41.393C241.92 41.237 242.124 41.159 242.367 41.159C242.609 41.159 242.809 41.237 242.965 41.393C243.129 41.5403 243.212 41.7267 243.212 41.952C243.212 42.186 243.134 42.3853 242.978 42.55C242.822 42.706 242.618 42.784 242.367 42.784ZM249.047 44.045C249.61 44.045 250.104 44.1533 250.529 44.37C250.962 44.5867 251.3 44.916 251.543 45.358C251.785 45.8 251.907 46.359 251.907 47.035V51H250.659V47.178C250.659 46.5107 250.494 46.008 250.165 45.67C249.844 45.332 249.389 45.163 248.8 45.163C248.358 45.163 247.972 45.2497 247.643 45.423C247.313 45.5963 247.058 45.852 246.876 46.19C246.702 46.528 246.616 46.9483 246.616 47.451V51H245.368V44.11H246.564V45.969L246.369 45.475C246.594 45.0243 246.941 44.6733 247.409 44.422C247.877 44.1707 248.423 44.045 249.047 44.045ZM257.063 51.078C256.396 51.078 255.798 50.9307 255.269 50.636C254.749 50.3413 254.338 49.9297 254.034 49.401C253.731 48.8723 253.579 48.257 253.579 47.555C253.579 46.853 253.731 46.242 254.034 45.722C254.338 45.1933 254.749 44.7817 255.269 44.487C255.798 44.1923 256.396 44.045 257.063 44.045C257.644 44.045 258.168 44.175 258.636 44.435C259.104 44.695 259.477 45.085 259.754 45.605C260.04 46.125 260.183 46.775 260.183 47.555C260.183 48.335 260.045 48.985 259.767 49.505C259.499 50.025 259.13 50.4193 258.662 50.688C258.194 50.948 257.661 51.078 257.063 51.078ZM257.167 49.986C257.601 49.986 257.991 49.8863 258.337 49.687C258.693 49.4877 258.97 49.206 259.169 48.842C259.377 48.4693 259.481 48.0403 259.481 47.555C259.481 47.061 259.377 46.6363 259.169 46.281C258.97 45.917 258.693 45.6353 258.337 45.436C257.991 45.2367 257.601 45.137 257.167 45.137C256.725 45.137 256.331 45.2367 255.984 45.436C255.638 45.6353 255.36 45.917 255.152 46.281C254.944 46.6363 254.84 47.061 254.84 47.555C254.84 48.0403 254.944 48.4693 255.152 48.842C255.36 49.206 255.638 49.4877 255.984 49.687C256.331 49.8863 256.725 49.986 257.167 49.986ZM259.52 51V49.141L259.598 47.542L259.468 45.943V41.354H260.716V51H259.52ZM268.935 51.078C268.241 51.078 267.704 50.8917 267.323 50.519C266.941 50.1463 266.751 49.6133 266.751 48.92V42.602H267.999V48.868C267.999 49.2407 268.09 49.5267 268.272 49.726C268.462 49.9253 268.731 50.025 269.078 50.025C269.468 50.025 269.793 49.9167 270.053 49.7L270.443 50.597C270.252 50.7617 270.022 50.883 269.754 50.961C269.494 51.039 269.221 51.078 268.935 51.078ZM265.581 45.137V44.11H269.975V45.137H265.581ZM275.631 44.045C276.194 44.045 276.688 44.1533 277.113 44.37C277.546 44.5867 277.884 44.916 278.127 45.358C278.369 45.8 278.491 46.359 278.491 47.035V51H277.243V47.178C277.243 46.5107 277.078 46.008 276.749 45.67C276.428 45.332 275.973 45.163 275.384 45.163C274.942 45.163 274.556 45.2497 274.227 45.423C273.897 45.5963 273.642 45.852 273.46 46.19C273.286 46.528 273.2 46.9483 273.2 47.451V51H271.952V41.354H273.2V45.969L272.953 45.475C273.178 45.0243 273.525 44.6733 273.993 44.422C274.461 44.1707 275.007 44.045 275.631 44.045ZM283.868 51.078C283.132 51.078 282.482 50.9263 281.918 50.623C281.364 50.3197 280.93 49.9037 280.618 49.375C280.315 48.8463 280.163 48.2397 280.163 47.555C280.163 46.8703 280.311 46.2637 280.605 45.735C280.909 45.2063 281.32 44.7947 281.84 44.5C282.369 44.1967 282.963 44.045 283.621 44.045C284.289 44.045 284.878 44.1923 285.389 44.487C285.901 44.7817 286.299 45.1977 286.585 45.735C286.88 46.2637 287.027 46.8833 287.027 47.594C287.027 47.646 287.023 47.7067 287.014 47.776C287.014 47.8453 287.01 47.9103 287.001 47.971H281.138V47.074H286.351L285.844 47.386C285.853 46.944 285.762 46.5497 285.571 46.203C285.381 45.8563 285.116 45.5877 284.778 45.397C284.449 45.1977 284.063 45.098 283.621 45.098C283.188 45.098 282.802 45.1977 282.464 45.397C282.126 45.5877 281.862 45.8607 281.671 46.216C281.481 46.5627 281.385 46.9613 281.385 47.412V47.62C281.385 48.0793 281.489 48.491 281.697 48.855C281.914 49.2103 282.213 49.4877 282.594 49.687C282.976 49.8863 283.413 49.986 283.907 49.986C284.315 49.986 284.683 49.9167 285.012 49.778C285.35 49.6393 285.645 49.4313 285.896 49.154L286.585 49.96C286.273 50.324 285.883 50.6013 285.415 50.792C284.956 50.9827 284.44 51.078 283.868 51.078ZM295.93 44.045C296.494 44.045 296.988 44.1533 297.412 44.37C297.846 44.5867 298.184 44.916 298.426 45.358C298.669 45.8 298.79 46.359 298.79 47.035V51H297.542V47.178C297.542 46.5107 297.378 46.008 297.048 45.67C296.728 45.332 296.273 45.163 295.683 45.163C295.241 45.163 294.856 45.2497 294.526 45.423C294.197 45.5963 293.941 45.852 293.759 46.19C293.586 46.528 293.499 46.9483 293.499 47.451V51H292.251V41.354H293.499V45.969L293.252 45.475C293.478 45.0243 293.824 44.6733 294.292 44.422C294.76 44.1707 295.306 44.045 295.93 44.045ZM301.1 51V44.11H302.348V51H301.1ZM301.724 42.784C301.481 42.784 301.278 42.706 301.113 42.55C300.957 42.394 300.879 42.2033 300.879 41.978C300.879 41.744 300.957 41.549 301.113 41.393C301.278 41.237 301.481 41.159 301.724 41.159C301.967 41.159 302.166 41.237 302.322 41.393C302.487 41.5403 302.569 41.7267 302.569 41.952C302.569 42.186 302.491 42.3853 302.335 42.55C302.179 42.706 301.975 42.784 301.724 42.784ZM307.578 51.078C306.911 51.078 306.313 50.9307 305.784 50.636C305.264 50.3413 304.852 49.9297 304.549 49.401C304.246 48.8723 304.094 48.257 304.094 47.555C304.094 46.853 304.246 46.242 304.549 45.722C304.852 45.1933 305.264 44.7817 305.784 44.487C306.313 44.1923 306.911 44.045 307.578 44.045C308.159 44.045 308.683 44.175 309.151 44.435C309.619 44.695 309.992 45.085 310.269 45.605C310.555 46.125 310.698 46.775 310.698 47.555C310.698 48.335 310.559 48.985 310.282 49.505C310.013 50.025 309.645 50.4193 309.177 50.688C308.709 50.948 308.176 51.078 307.578 51.078ZM307.682 49.986C308.115 49.986 308.505 49.8863 308.852 49.687C309.207 49.4877 309.485 49.206 309.684 48.842C309.892 48.4693 309.996 48.0403 309.996 47.555C309.996 47.061 309.892 46.6363 309.684 46.281C309.485 45.917 309.207 45.6353 308.852 45.436C308.505 45.2367 308.115 45.137 307.682 45.137C307.24 45.137 306.846 45.2367 306.499 45.436C306.152 45.6353 305.875 45.917 305.667 46.281C305.459 46.6363 305.355 47.061 305.355 47.555C305.355 48.0403 305.459 48.4693 305.667 48.842C305.875 49.206 306.152 49.4877 306.499 49.687C306.846 49.8863 307.24 49.986 307.682 49.986ZM310.035 51V49.141L310.113 47.542L309.983 45.943V41.354H311.231V51H310.035ZM316.439 51.078C315.772 51.078 315.174 50.9307 314.645 50.636C314.125 50.3413 313.714 49.9297 313.41 49.401C313.107 48.8723 312.955 48.257 312.955 47.555C312.955 46.853 313.107 46.242 313.41 45.722C313.714 45.1933 314.125 44.7817 314.645 44.487C315.174 44.1923 315.772 44.045 316.439 44.045C317.02 44.045 317.544 44.175 318.012 44.435C318.48 44.695 318.853 45.085 319.13 45.605C319.416 46.125 319.559 46.775 319.559 47.555C319.559 48.335 319.421 48.985 319.143 49.505C318.875 50.025 318.506 50.4193 318.038 50.688C317.57 50.948 317.037 51.078 316.439 51.078ZM316.543 49.986C316.977 49.986 317.367 49.8863 317.713 49.687C318.069 49.4877 318.346 49.206 318.545 48.842C318.753 48.4693 318.857 48.0403 318.857 47.555C318.857 47.061 318.753 46.6363 318.545 46.281C318.346 45.917 318.069 45.6353 317.713 45.436C317.367 45.2367 316.977 45.137 316.543 45.137C316.101 45.137 315.707 45.2367 315.36 45.436C315.014 45.6353 314.736 45.917 314.528 46.281C314.32 46.6363 314.216 47.061 314.216 47.555C314.216 48.0403 314.32 48.4693 314.528 48.842C314.736 49.206 315.014 49.4877 315.36 49.687C315.707 49.8863 316.101 49.986 316.543 49.986ZM318.896 51V49.141L318.974 47.542L318.844 45.943V41.354H320.092V51H318.896ZM325.522 51.078C324.785 51.078 324.135 50.9263 323.572 50.623C323.017 50.3197 322.584 49.9037 322.272 49.375C321.968 48.8463 321.817 48.2397 321.817 47.555C321.817 46.8703 321.964 46.2637 322.259 45.735C322.562 45.2063 322.974 44.7947 323.494 44.5C324.022 44.1967 324.616 44.045 325.275 44.045C325.942 44.045 326.531 44.1923 327.043 44.487C327.554 44.7817 327.953 45.1977 328.239 45.735C328.533 46.2637 328.681 46.8833 328.681 47.594C328.681 47.646 328.676 47.7067 328.668 47.776C328.668 47.8453 328.663 47.9103 328.655 47.971H322.792V47.074H328.005L327.498 47.386C327.506 46.944 327.415 46.5497 327.225 46.203C327.034 45.8563 326.77 45.5877 326.432 45.397C326.102 45.1977 325.717 45.098 325.275 45.098C324.841 45.098 324.456 45.1977 324.118 45.397C323.78 45.5877 323.515 45.8607 323.325 46.216C323.134 46.5627 323.039 46.9613 323.039 47.412V47.62C323.039 48.0793 323.143 48.491 323.351 48.855C323.567 49.2103 323.866 49.4877 324.248 49.687C324.629 49.8863 325.067 49.986 325.561 49.986C325.968 49.986 326.336 49.9167 326.666 49.778C327.004 49.6393 327.298 49.4313 327.55 49.154L328.239 49.96C327.927 50.324 327.537 50.6013 327.069 50.792C326.609 50.9827 326.094 51.078 325.522 51.078ZM334.092 44.045C334.656 44.045 335.15 44.1533 335.574 44.37C336.008 44.5867 336.346 44.916 336.588 45.358C336.831 45.8 336.952 46.359 336.952 47.035V51H335.704V47.178C335.704 46.5107 335.54 46.008 335.21 45.67C334.89 45.332 334.435 45.163 333.845 45.163C333.403 45.163 333.018 45.2497 332.688 45.423C332.359 45.5963 332.103 45.852 331.921 46.19C331.748 46.528 331.661 46.9483 331.661 47.451V51H330.413V44.11H331.609V45.969L331.414 45.475C331.64 45.0243 331.986 44.6733 332.454 44.422C332.922 44.1707 333.468 44.045 334.092 44.045ZM344.729 51.078C344.157 51.078 343.611 51 343.091 50.844C342.58 50.688 342.177 50.4973 341.882 50.272L342.402 49.284C342.697 49.4833 343.061 49.6523 343.494 49.791C343.928 49.9297 344.37 49.999 344.82 49.999C345.401 49.999 345.817 49.9167 346.068 49.752C346.328 49.5873 346.458 49.3577 346.458 49.063C346.458 48.8463 346.38 48.6773 346.224 48.556C346.068 48.4347 345.86 48.3437 345.6 48.283C345.349 48.2223 345.067 48.1703 344.755 48.127C344.443 48.075 344.131 48.0143 343.819 47.945C343.507 47.867 343.221 47.763 342.961 47.633C342.701 47.4943 342.493 47.308 342.337 47.074C342.181 46.8313 342.103 46.5107 342.103 46.112C342.103 45.696 342.22 45.332 342.454 45.02C342.688 44.708 343.018 44.4697 343.442 44.305C343.876 44.1317 344.387 44.045 344.976 44.045C345.427 44.045 345.882 44.1013 346.341 44.214C346.809 44.318 347.191 44.4697 347.485 44.669L346.952 45.657C346.64 45.449 346.315 45.306 345.977 45.228C345.639 45.15 345.301 45.111 344.963 45.111C344.417 45.111 344.01 45.202 343.741 45.384C343.473 45.5573 343.338 45.7827 343.338 46.06C343.338 46.294 343.416 46.476 343.572 46.606C343.737 46.7273 343.945 46.8227 344.196 46.892C344.456 46.9613 344.742 47.022 345.054 47.074C345.366 47.1173 345.678 47.178 345.99 47.256C346.302 47.3253 346.584 47.425 346.835 47.555C347.095 47.685 347.303 47.867 347.459 48.101C347.624 48.335 347.706 48.647 347.706 49.037C347.706 49.453 347.585 49.8127 347.342 50.116C347.1 50.4193 346.757 50.6577 346.315 50.831C345.873 50.9957 345.345 51.078 344.729 51.078ZM352.165 51.078C351.576 51.078 351.056 50.9697 350.605 50.753C350.163 50.5363 349.816 50.207 349.565 49.765C349.322 49.3143 349.201 48.751 349.201 48.075V44.11H350.449V47.932C350.449 48.608 350.609 49.115 350.93 49.453C351.259 49.791 351.719 49.96 352.308 49.96C352.741 49.96 353.118 49.8733 353.439 49.7C353.76 49.518 354.007 49.258 354.18 48.92C354.353 48.5733 354.44 48.1573 354.44 47.672V44.11H355.688V51H354.505V49.141L354.7 49.635C354.475 50.0943 354.137 50.4497 353.686 50.701C353.235 50.9523 352.728 51.078 352.165 51.078ZM358.064 51V44.11H359.26V45.982L359.143 45.514C359.334 45.0373 359.654 44.6733 360.105 44.422C360.556 44.1707 361.11 44.045 361.769 44.045V45.254C361.717 45.2453 361.665 45.241 361.613 45.241C361.57 45.241 361.526 45.241 361.483 45.241C360.816 45.241 360.287 45.4403 359.897 45.839C359.507 46.2377 359.312 46.814 359.312 47.568V51H358.064ZM366.96 51.078C366.388 51.078 365.864 50.948 365.387 50.688C364.919 50.4193 364.542 50.025 364.256 49.505C363.979 48.985 363.84 48.335 363.84 47.555C363.84 46.775 363.974 46.125 364.243 45.605C364.52 45.085 364.893 44.695 365.361 44.435C365.838 44.175 366.371 44.045 366.96 44.045C367.636 44.045 368.234 44.1923 368.754 44.487C369.274 44.7817 369.686 45.1933 369.989 45.722C370.292 46.242 370.444 46.853 370.444 47.555C370.444 48.257 370.292 48.8723 369.989 49.401C369.686 49.9297 369.274 50.3413 368.754 50.636C368.234 50.9307 367.636 51.078 366.96 51.078ZM363.307 53.522V44.11H364.503V45.969L364.425 47.568L364.555 49.167V53.522H363.307ZM366.856 49.986C367.298 49.986 367.692 49.8863 368.039 49.687C368.394 49.4877 368.672 49.206 368.871 48.842C369.079 48.4693 369.183 48.0403 369.183 47.555C369.183 47.061 369.079 46.6363 368.871 46.281C368.672 45.917 368.394 45.6353 368.039 45.436C367.692 45.2367 367.298 45.137 366.856 45.137C366.423 45.137 366.028 45.2367 365.673 45.436C365.326 45.6353 365.049 45.917 364.841 46.281C364.642 46.6363 364.542 47.061 364.542 47.555C364.542 48.0403 364.642 48.4693 364.841 48.842C365.049 49.206 365.326 49.4877 365.673 49.687C366.028 49.8863 366.423 49.986 366.856 49.986ZM372.168 51V44.11H373.364V45.982L373.247 45.514C373.438 45.0373 373.759 44.6733 374.209 44.422C374.66 44.1707 375.215 44.045 375.873 44.045V45.254C375.821 45.2453 375.769 45.241 375.717 45.241C375.674 45.241 375.631 45.241 375.587 45.241C374.92 45.241 374.391 45.4403 374.001 45.839C373.611 46.2377 373.416 46.814 373.416 47.568V51H372.168ZM377.412 51V44.11H378.66V51H377.412ZM378.036 42.784C377.793 42.784 377.589 42.706 377.425 42.55C377.269 42.394 377.191 42.2033 377.191 41.978C377.191 41.744 377.269 41.549 377.425 41.393C377.589 41.237 377.793 41.159 378.036 41.159C378.278 41.159 378.478 41.237 378.634 41.393C378.798 41.5403 378.881 41.7267 378.881 41.952C378.881 42.186 378.803 42.3853 378.647 42.55C378.491 42.706 378.287 42.784 378.036 42.784ZM383.018 51.078C382.446 51.078 381.9 51 381.38 50.844C380.869 50.688 380.466 50.4973 380.171 50.272L380.691 49.284C380.986 49.4833 381.35 49.6523 381.783 49.791C382.217 49.9297 382.659 49.999 383.109 49.999C383.69 49.999 384.106 49.9167 384.357 49.752C384.617 49.5873 384.747 49.3577 384.747 49.063C384.747 48.8463 384.669 48.6773 384.513 48.556C384.357 48.4347 384.149 48.3437 383.889 48.283C383.638 48.2223 383.356 48.1703 383.044 48.127C382.732 48.075 382.42 48.0143 382.108 47.945C381.796 47.867 381.51 47.763 381.25 47.633C380.99 47.4943 380.782 47.308 380.626 47.074C380.47 46.8313 380.392 46.5107 380.392 46.112C380.392 45.696 380.509 45.332 380.743 45.02C380.977 44.708 381.307 44.4697 381.731 44.305C382.165 44.1317 382.676 44.045 383.265 44.045C383.716 44.045 384.171 44.1013 384.63 44.214C385.098 44.318 385.48 44.4697 385.774 44.669L385.241 45.657C384.929 45.449 384.604 45.306 384.266 45.228C383.928 45.15 383.59 45.111 383.252 45.111C382.706 45.111 382.299 45.202 382.03 45.384C381.762 45.5573 381.627 45.7827 381.627 46.06C381.627 46.294 381.705 46.476 381.861 46.606C382.026 46.7273 382.234 46.8227 382.485 46.892C382.745 46.9613 383.031 47.022 383.343 47.074C383.655 47.1173 383.967 47.178 384.279 47.256C384.591 47.3253 384.873 47.425 385.124 47.555C385.384 47.685 385.592 47.867 385.748 48.101C385.913 48.335 385.995 48.647 385.995 49.037C385.995 49.453 385.874 49.8127 385.631 50.116C385.389 50.4193 385.046 50.6577 384.604 50.831C384.162 50.9957 383.634 51.078 383.018 51.078ZM390.623 51.078C389.886 51.078 389.236 50.9263 388.673 50.623C388.118 50.3197 387.685 49.9037 387.373 49.375C387.07 48.8463 386.918 48.2397 386.918 47.555C386.918 46.8703 387.065 46.2637 387.36 45.735C387.663 45.2063 388.075 44.7947 388.595 44.5C389.124 44.1967 389.717 44.045 390.376 44.045C391.043 44.045 391.633 44.1923 392.144 44.487C392.655 44.7817 393.054 45.1977 393.34 45.735C393.635 46.2637 393.782 46.8833 393.782 47.594C393.782 47.646 393.778 47.7067 393.769 47.776C393.769 47.8453 393.765 47.9103 393.756 47.971H387.893V47.074H393.106L392.599 47.386C392.608 46.944 392.517 46.5497 392.326 46.203C392.135 45.8563 391.871 45.5877 391.533 45.397C391.204 45.1977 390.818 45.098 390.376 45.098C389.943 45.098 389.557 45.1977 389.219 45.397C388.881 45.5877 388.617 45.8607 388.426 46.216C388.235 46.5627 388.14 46.9613 388.14 47.412V47.62C388.14 48.0793 388.244 48.491 388.452 48.855C388.669 49.2103 388.968 49.4877 389.349 49.687C389.73 49.8863 390.168 49.986 390.662 49.986C391.069 49.986 391.438 49.9167 391.767 49.778C392.105 49.6393 392.4 49.4313 392.651 49.154L393.34 49.96C393.028 50.324 392.638 50.6013 392.17 50.792C391.711 50.9827 391.195 51.078 390.623 51.078ZM395.58 48.127L395.346 41.9H396.815L396.568 48.127H395.58ZM396.087 51.078C395.844 51.078 395.641 50.9957 395.476 50.831C395.311 50.6663 395.229 50.4713 395.229 50.246C395.229 50.0033 395.311 49.804 395.476 49.648C395.641 49.492 395.844 49.414 396.087 49.414C396.33 49.414 396.529 49.492 396.685 49.648C396.841 49.804 396.919 50.0033 396.919 50.246C396.919 50.4713 396.841 50.6663 396.685 50.831C396.529 50.9957 396.33 51.078 396.087 51.078Z" fill="#1C1C1C"/>
<path d="M120.12 33C119.66 33.3067 119.617 33.5 119.12 34C117.847 35.2798 126.623 40.5087 128.62 41.5C129.627 42 137.117 41.5 137.12 40C137.121 39 135.803 35.8087 133.62 34.5C131.117 33 121.617 31.9999 120.12 33Z" fill="white"/>
</svg>
