<svg width="237" height="218" viewBox="0 0 237 218" fill="none" xmlns="http://www.w3.org/2000/svg">
<mask id="path-1-outside-1_498_1810" maskUnits="userSpaceOnUse" x="0" y="-1" width="237" height="219" fill="black">
<rect fill="white" y="-1" width="237" height="219"/>
<path fill-rule="evenodd" clip-rule="evenodd" d="M168.126 8.44804C167.387 8.71316 166.674 8.99637 165.986 9.29443C161.17 11.3809 157.596 14.1955 155.139 16.6306C153.036 18.7146 152.47 21.7283 153.465 24.3104C153.796 25.1711 154.302 25.9838 154.981 26.6982C155.615 27.3644 156.252 27.9986 156.891 28.6026C161.373 32.8411 165.934 35.6003 169.844 37.3906H128.344C124.69 37.3906 121.729 40.2702 121.729 43.8221V83.1202C120.955 84.2645 120.167 85.3561 119.37 86.3972C116.222 90.5045 112.924 93.8239 109.749 96.4957L109.751 96.4984C107.456 98.4302 105.226 100.022 103.165 101.325C101.071 98.027 99.0405 93.6119 97.308 87.7468C94.9178 79.6544 91.5544 73.6911 88.7538 69.7219C85.9364 65.7288 80.7023 64.0679 76.0291 65.744C67.471 68.8136 61.2958 73.5588 57.2309 77.5874C55.9749 78.8323 55.0977 80.3066 54.6019 81.8716C53.6963 84.7299 54.0629 87.8909 55.7171 90.5099C56.0829 91.089 56.5116 91.6416 57.0034 92.1586C57.2731 92.4421 57.5433 92.7217 57.8139 92.9973C65.588 100.917 73.6843 105.621 80.2539 108.4H10.9962C9.34146 108.4 8 109.704 8 111.313V132.479C8 134.088 9.34146 135.392 10.9962 135.392H17.1709V205.82C17.1709 207.954 18.9501 209.683 21.1447 209.683H171.391C171.462 209.683 171.532 209.682 171.602 209.678H191.495H222.117H222.383C224.185 209.678 225.818 208.978 227.011 207.843C228.241 206.726 229 205.191 229 203.496V43.5732C229 41.8784 228.241 40.3428 227.011 39.2259C225.818 38.0906 224.185 37.3906 222.383 37.3906H222.117H202.09C203.157 37.0096 204.159 36.6056 205.094 36.1909C205.094 36.1909 205.094 36.1909 205.095 36.1909C208.439 34.7087 210.936 33.091 212.537 31.9058C212.537 31.9057 212.538 31.9056 212.538 31.9056C212.653 31.8201 212.763 31.7293 212.867 31.6337C214.019 30.575 214.449 28.9338 213.882 27.4692C212.328 23.453 209.209 20.237 206.664 18.1258C205.957 17.5398 205.11 17.2349 204.259 17.1911C202.881 17.1201 201.492 17.7341 200.675 18.948C200.651 18.9832 200.628 19.019 200.605 19.0553C197.724 23.6503 194.49 27.1055 191.423 29.6866C191.423 29.6873 191.424 29.6881 191.425 29.6888C189.838 31.0245 188.296 32.1248 186.871 33.0253C185.426 30.7476 184.024 27.6989 182.828 23.6501C181.371 18.7174 179.391 14.93 177.616 12.2232C177.379 11.8616 177.146 11.5194 176.918 11.1964C174.971 8.43723 171.355 7.28982 168.126 8.44804Z"/>
</mask>
<path d="M165.986 9.29443L169.166 16.6352L169.166 16.6352L165.986 9.29443ZM168.126 8.44803L170.828 15.9783L170.828 15.9783L168.126 8.44803ZM155.139 16.6306L149.507 10.948L149.507 10.9487L155.139 16.6306ZM153.465 24.3104L146 27.1873L146 27.1873L153.465 24.3104ZM154.981 26.6982L160.778 21.1843L160.777 21.184L154.981 26.6982ZM156.891 28.6026L162.389 22.7905L162.387 22.7886L156.891 28.6026ZM169.844 37.3906V45.3906L173.175 30.1167L169.844 37.3906ZM121.729 83.1202L128.356 87.6008L129.729 85.5707V83.1202H121.729ZM119.37 86.3972L125.72 91.2633L125.72 91.262L119.37 86.3972ZM109.749 96.4957L104.598 90.3748L98.5282 95.4828L103.585 101.595L109.749 96.4957ZM109.751 96.4984L114.903 102.619L120.972 97.5108L115.915 91.399L109.751 96.4984ZM103.165 101.325L96.4108 105.612L100.69 112.353L107.439 108.087L103.165 101.325ZM97.308 87.7468L89.6357 90.0129L89.6357 90.0132L97.308 87.7468ZM88.7538 69.7219L82.2171 74.3339L82.2171 74.3341L88.7538 69.7219ZM76.0291 65.744L73.3283 58.2136L73.3281 58.2137L76.0291 65.744ZM57.2309 77.5874L51.5995 71.9053L51.5994 71.9054L57.2309 77.5874ZM54.6019 81.8716L62.2283 84.2877L62.2283 84.2877L54.6019 81.8716ZM55.7171 90.5099L62.481 86.2379L62.4809 86.2378L55.7171 90.5099ZM57.0034 92.1586L51.2073 97.6727L51.2074 97.6728L57.0034 92.1586ZM57.8139 92.9973L63.5231 87.3933L63.5224 87.3925L57.8139 92.9973ZM80.2539 108.4V116.4L83.371 101.033L80.2539 108.4ZM17.1709 135.392H25.1709V127.392H17.1709V135.392ZM171.602 209.678V201.678H171.399L171.196 201.688L171.602 209.678ZM227.011 207.843L221.632 201.921L221.563 201.983L221.496 202.047L227.011 207.843ZM227.011 39.2259L221.496 45.021L221.563 45.0852L221.632 45.1479L227.011 39.2259ZM202.09 37.3906L199.4 29.8567L202.09 45.3906V37.3906ZM205.094 36.1909L205.294 28.1934L203.496 28.1485L201.852 28.8773L205.094 36.1909ZM205.095 36.1909L204.895 44.1884L206.692 44.2334L208.336 43.5046L205.095 36.1909ZM212.537 31.9058L217.298 38.3354L217.402 38.2584L217.503 38.1782L212.537 31.9058ZM212.538 31.9056L207.779 25.4749L207.674 25.5524L207.572 25.6332L212.538 31.9056ZM212.867 31.6337L218.28 37.5246L218.28 37.5245L212.867 31.6337ZM213.882 27.4692L221.344 24.5828L221.343 24.5812L213.882 27.4692ZM206.664 18.1258L211.771 11.9684L211.771 11.968L206.664 18.1258ZM204.259 17.1911L203.848 25.1805L203.848 25.1805L204.259 17.1911ZM200.675 18.948L207.311 23.416L207.312 23.4149L200.675 18.948ZM200.605 19.0553L193.829 14.8025L193.828 14.8048L200.605 19.0553ZM191.423 29.6866L186.272 23.5658L180.176 28.6959L185.281 34.8126L191.423 29.6866ZM191.425 29.6888L196.576 35.8093L202.671 30.6791L197.567 24.5627L191.425 29.6888ZM186.871 33.0253L180.116 37.311L184.393 44.0537L191.144 39.7883L186.871 33.0253ZM182.828 23.6501L175.156 25.9161L175.156 25.9163L182.828 23.6501ZM177.616 12.2232L170.925 16.608L170.926 16.6096L177.616 12.2232ZM176.918 11.1964L170.381 15.8079L170.381 15.8083L176.918 11.1964ZM169.166 16.6352C169.699 16.4042 170.253 16.1844 170.828 15.9783L165.425 0.917815C164.522 1.24193 163.649 1.58852 162.806 1.95368L169.166 16.6352ZM160.77 22.3132C162.67 20.4301 165.438 18.2503 169.166 16.6352L162.806 1.95367C156.901 4.51156 152.522 7.96089 149.507 10.948L160.77 22.3132ZM160.93 21.4334C160.992 21.5942 161.003 21.7646 160.97 21.9239C160.934 22.0959 160.849 22.2339 160.77 22.3125L149.507 10.9487C145.108 15.3089 143.883 21.695 146 27.1873L160.93 21.4334ZM160.777 21.184C160.828 21.2368 160.887 21.322 160.93 21.4334L146 27.1873C146.706 29.0201 147.776 30.7308 149.185 32.2123L160.777 21.184ZM162.387 22.7886C161.85 22.2809 161.313 21.7467 160.778 21.1843L149.185 32.212C149.917 32.982 150.655 33.7163 151.396 34.4166L162.387 22.7886ZM173.175 30.1167C169.955 28.6425 166.152 26.3503 162.389 22.7905L151.394 34.4148C156.593 39.3319 161.913 42.5581 166.514 44.6646L173.175 30.1167ZM128.344 45.3906H169.844V29.3906H128.344V45.3906ZM129.729 43.8221C129.729 44.8997 128.894 45.3906 128.344 45.3906V29.3906C120.486 29.3906 113.729 35.6408 113.729 43.8221H129.729ZM129.729 83.1202V43.8221H113.729V83.1202H129.729ZM125.72 91.262C126.613 90.0969 127.493 88.8772 128.356 87.6008L115.101 78.6396C114.417 79.6518 113.721 80.6153 113.019 81.5324L125.72 91.262ZM114.9 102.617C118.486 99.5987 122.194 95.8638 125.72 91.2633L113.02 81.5311C110.25 85.1453 107.361 88.049 104.598 90.3748L114.9 102.617ZM115.915 91.399L115.913 91.3962L103.585 101.595L103.587 101.598L115.915 91.399ZM107.439 108.087C109.785 106.605 112.311 104.801 114.903 102.619L104.6 90.378C102.602 92.0596 100.668 93.439 98.8908 94.562L107.439 108.087ZM89.6357 90.0132C91.5364 96.4476 93.8457 101.572 96.4108 105.612L109.919 97.0369C108.297 94.4823 106.545 90.7762 104.98 85.4805L89.6357 90.0132ZM82.2171 74.3341C84.5795 77.6821 87.5237 82.8625 89.6357 90.0129L104.98 85.4807C102.312 76.4464 98.5294 69.7001 95.2904 65.1096L82.2171 74.3341ZM78.7299 73.2743C80.0401 72.8044 81.4865 73.2985 82.2171 74.3339L95.2905 65.1098C90.3864 58.1591 81.3644 55.3315 73.3283 58.2136L78.7299 73.2743ZM62.8624 83.2696C66.2907 79.8718 71.5026 75.8666 78.7301 73.2742L73.3281 58.2137C63.4394 61.7606 56.301 67.2458 51.5995 71.9053L62.8624 83.2696ZM62.2283 84.2877C62.3379 83.9419 62.5368 83.5923 62.8625 83.2695L51.5994 71.9054C49.413 74.0723 47.8576 76.6712 46.9755 79.4554L62.2283 84.2877ZM62.4809 86.2378C62.1067 85.6453 62.0229 84.936 62.2283 84.2877L46.9755 79.4554C45.3698 84.5238 46.0192 90.1366 48.9533 94.7821L62.4809 86.2378ZM62.7995 86.6445C62.6707 86.5092 62.5661 86.3727 62.481 86.2379L48.9532 94.7819C49.5996 95.8054 50.3524 96.7741 51.2073 97.6727L62.7995 86.6445ZM63.5224 87.3925C63.2812 87.1469 63.0402 86.8975 62.7994 86.6444L51.2074 97.6728C51.5061 97.9868 51.8054 98.2965 52.1054 98.602L63.5224 87.3925ZM83.371 101.033C77.6155 98.5977 70.4468 94.447 63.5231 87.3933L52.1046 98.6012C60.7293 107.388 69.7531 112.644 77.1369 115.768L83.371 101.033ZM10.9962 116.4H80.2539V100.4H10.9962V116.4ZM16 111.313C16 114.335 13.5446 116.4 10.9962 116.4V100.4C5.13827 100.4 0 105.074 0 111.313H16ZM16 132.479V111.313H0V132.479H16ZM10.9962 127.392C13.5456 127.392 16 129.459 16 132.479H0C0 138.717 5.13728 143.392 10.9962 143.392V127.392ZM17.1709 127.392H10.9962V143.392H17.1709V127.392ZM25.1709 205.82V135.392H9.1709V205.82H25.1709ZM21.1447 201.683C23.1533 201.683 25.1709 203.324 25.1709 205.82H9.1709C9.1709 212.584 14.7469 217.683 21.1447 217.683V201.683ZM171.391 201.683H21.1447V217.683H171.391V201.683ZM171.196 201.688C171.26 201.685 171.325 201.683 171.391 201.683V217.683C171.598 217.683 171.804 217.678 172.009 217.668L171.196 201.688ZM191.495 201.678H171.602V217.678H191.495V201.678ZM222.117 201.678H191.495V217.678H222.117V201.678ZM222.383 201.678H222.117V217.678H222.383V201.678ZM221.496 202.047C221.753 201.803 222.081 201.678 222.383 201.678V217.678C226.288 217.678 229.883 216.153 232.526 213.638L221.496 202.047ZM221 203.496C221 202.704 221.372 202.157 221.632 201.921L232.389 213.765C235.109 211.295 237 207.677 237 203.496H221ZM221 43.5732V203.496H237V43.5732H221ZM221.632 45.1479C221.372 44.9113 221 44.3648 221 43.5732H237C237 39.392 235.11 35.7744 232.39 33.304L221.632 45.1479ZM222.383 45.3906C222.081 45.3906 221.753 45.2659 221.496 45.021L232.526 33.4309C229.883 30.9153 226.289 29.3906 222.383 29.3906V45.3906ZM222.117 45.3906H222.383V29.3906H222.117V45.3906ZM202.09 45.3906H222.117V29.3906H202.09V45.3906ZM201.852 28.8773C201.091 29.2148 200.273 29.5448 199.4 29.8567L204.781 44.9246C206.041 44.4745 207.227 43.9964 208.336 43.5046L201.852 28.8773ZM204.894 44.1884C204.908 44.1887 204.918 44.189 204.925 44.1891C204.929 44.1892 204.932 44.1893 204.934 44.1893C204.935 44.1893 204.935 44.1893 204.936 44.1893C204.936 44.1893 204.936 44.1894 204.936 44.1894C204.936 44.1894 204.936 44.1894 204.936 44.1894C204.936 44.1894 204.937 44.1894 204.937 44.1894C204.937 44.1894 204.937 44.1894 204.937 44.1894C204.937 44.1894 204.935 44.1893 204.934 44.1893C204.932 44.1893 204.929 44.1892 204.926 44.1891C204.919 44.189 204.908 44.1888 204.895 44.1884L205.295 28.1934C205.281 28.1931 205.27 28.1928 205.263 28.1927C205.26 28.1926 205.257 28.1926 205.255 28.1925C205.254 28.1925 205.253 28.1925 205.253 28.1925C205.253 28.1925 205.253 28.1925 205.252 28.1925C205.252 28.1925 205.252 28.1925 205.252 28.1925C205.252 28.1925 205.252 28.1925 205.252 28.1925C205.252 28.1925 205.252 28.1925 205.252 28.1925C205.252 28.1925 205.253 28.1925 205.255 28.1925C205.257 28.1926 205.26 28.1926 205.263 28.1927C205.27 28.1928 205.281 28.1931 205.294 28.1934L204.894 44.1884ZM208.336 43.5046C212.298 41.7485 215.302 39.8132 217.298 38.3354L207.777 25.4762C206.571 26.3688 204.579 27.669 201.853 28.8772L208.336 43.5046ZM217.503 38.1782C217.499 38.1815 217.495 38.1842 217.494 38.1856C217.492 38.1869 217.49 38.1881 217.491 38.1878C217.491 38.1878 217.491 38.1878 217.491 38.1878C217.491 38.1878 217.491 38.1878 217.491 38.1878C217.491 38.1878 217.491 38.1877 217.491 38.1877C217.491 38.1876 217.491 38.1874 217.491 38.1872C217.492 38.1869 217.493 38.1862 217.494 38.1855C217.496 38.184 217.499 38.1813 217.503 38.1779L207.572 25.6332C207.576 25.6298 207.58 25.6272 207.581 25.6258C207.583 25.6244 207.585 25.6233 207.584 25.6235C207.584 25.6235 207.584 25.6235 207.584 25.6235C207.584 25.6235 207.584 25.6236 207.584 25.6236C207.584 25.6236 207.584 25.6236 207.584 25.6237C207.584 25.6238 207.584 25.6239 207.583 25.6241C207.583 25.6245 207.582 25.6251 207.581 25.6259C207.579 25.6273 207.576 25.63 207.572 25.6334L217.503 38.1782ZM207.454 25.7429C207.558 25.6475 207.666 25.558 207.779 25.4749L217.296 38.3362C217.64 38.0821 217.968 37.8111 218.28 37.5246L207.454 25.7429ZM206.421 30.3557C205.733 28.5765 206.325 26.7805 207.454 25.743L218.28 37.5245C221.713 34.3694 223.165 29.2911 221.344 24.5828L206.421 30.3557ZM201.556 24.2831C203.669 26.0359 205.585 28.1966 206.422 30.3573L221.343 24.5812C219.07 18.7094 214.748 14.4381 211.771 11.9684L201.556 24.2831ZM203.848 25.1805C203.064 25.1402 202.243 24.8529 201.557 24.2835L211.771 11.968C209.671 10.2267 207.155 9.32959 204.67 9.20165L203.848 25.1805ZM207.312 23.4149C206.436 24.7161 205.044 25.2421 203.848 25.1805L204.67 9.20165C200.717 8.99815 196.548 10.7521 194.039 14.481L207.312 23.4149ZM194.039 14.4799C193.975 14.5749 193.904 14.683 193.829 14.8025L207.381 23.308C207.352 23.3549 207.328 23.3916 207.311 23.416L194.039 14.4799ZM193.828 14.8048C191.426 18.6349 188.76 21.4716 186.272 23.5658L196.574 35.8073C200.219 32.7394 204.021 28.6658 207.383 23.3057L193.828 14.8048ZM185.281 34.8126C185.271 34.8008 185.263 34.7912 185.258 34.7854C185.256 34.7825 185.254 34.7801 185.253 34.7787C185.252 34.7774 185.251 34.7763 185.251 34.7766C185.251 34.7766 185.251 34.7767 185.251 34.7769C185.251 34.777 185.251 34.7771 185.252 34.7774C185.252 34.7778 185.253 34.7784 185.253 34.7793C185.255 34.7808 185.257 34.7834 185.259 34.7865C185.264 34.7927 185.273 34.8027 185.283 34.8149L197.567 24.5627C197.577 24.5746 197.584 24.5842 197.589 24.5899C197.592 24.5929 197.594 24.5953 197.595 24.5967C197.596 24.5979 197.597 24.599 197.597 24.5987C197.596 24.5987 197.596 24.5986 197.596 24.5985C197.596 24.5984 197.596 24.5982 197.596 24.598C197.596 24.5976 197.595 24.5969 197.594 24.5961C197.593 24.5945 197.591 24.592 197.588 24.5888C197.583 24.5827 197.575 24.5727 197.565 24.5605L185.281 34.8126ZM191.144 39.7883C192.854 38.708 194.692 37.3953 196.576 35.8093L186.273 23.5683C184.984 24.6537 183.738 25.5416 182.597 26.2622L191.144 39.7883ZM175.156 25.9163C176.52 30.534 178.2 34.291 180.116 37.311L193.626 28.7395C192.652 27.2041 191.528 24.8638 190.5 21.3838L175.156 25.9163ZM170.926 16.6096C172.319 18.7342 173.944 21.8136 175.156 25.9161L190.5 21.384C188.798 15.6213 186.463 11.1258 184.306 7.83676L170.926 16.6096ZM170.381 15.8083C170.557 16.0579 170.739 16.3245 170.925 16.608L184.307 7.83829C184.019 7.39883 183.734 6.98098 183.455 6.58457L170.381 15.8083ZM170.828 15.9783C170.744 16.0082 170.663 16.0037 170.607 15.9858C170.552 15.9686 170.46 15.9198 170.381 15.8079L183.455 6.58501C179.422 0.867347 172.017 -1.44668 165.425 0.917816L170.828 15.9783Z" fill="white" mask="url(#path-1-outside-1_498_1810)"/>
<path d="M179.137 36.6929C179.137 36.6929 191.594 33.4223 200.606 19.055C201.895 16.9994 204.779 16.5631 206.664 18.1258C209.209 20.237 212.328 23.453 213.882 27.4692C214.5 29.0659 213.934 30.8726 212.538 31.9056C208.27 35.0638 197.636 41.2944 181.604 39.8419L179.137 36.6929Z" fill="#0F7C84"/>
<path d="M155.138 16.6306C157.947 13.8471 162.213 10.569 168.126 8.44803C171.355 7.28982 174.972 8.43723 176.918 11.1964C178.853 13.9389 181.177 18.0588 182.828 23.6501C186.184 35.0103 191.159 38.4968 194.167 39.1718V40.634H180.63C180.63 40.634 167.12 39.4564 154.981 26.6976C152.263 23.8407 152.335 19.4087 155.138 16.6306Z" fill="#0F7C84"/>
<path d="M176.918 11.1964C174.972 8.43723 171.355 7.28982 168.126 8.44804C162.214 10.569 157.947 13.8476 155.138 16.6306C152.335 19.4092 152.263 23.8407 154.981 26.6982C157.526 29.3731 160.13 31.533 162.657 33.2857C163.615 33.4369 164.597 33.5195 165.601 33.5195C173.328 33.5195 179.91 28.8456 182.405 22.3024C180.794 17.393 178.693 13.7127 176.918 11.1964Z" fill="url(#paint0_linear_498_1810)"/>
<path d="M206.662 18.126C204.778 16.5628 201.894 16.9996 200.604 19.0553C197.723 23.6503 194.489 27.1055 191.422 29.6866C194.622 33.5624 199.546 36.0802 205.094 36.1909C208.438 34.7087 210.936 33.091 212.536 31.9058C213.932 30.8723 214.499 29.0656 213.881 27.4695C212.327 23.4532 209.207 20.2372 206.662 18.126Z" fill="url(#paint1_linear_498_1810)"/>
<path d="M222.383 37.4453H128.344C124.69 37.4453 121.729 40.3249 121.729 43.8768V203.719C121.729 207.04 124.498 209.733 127.915 209.733H222.383C226.037 209.733 228.999 206.853 228.999 203.302V43.8768C228.999 40.3249 226.037 37.4453 222.383 37.4453Z" fill="url(#paint2_linear_498_1810)"/>
<path d="M191.496 37.4453V209.733H222.118C225.92 209.733 229.001 206.964 229.001 203.551V43.6279C229.001 40.2137 225.92 37.4453 222.118 37.4453H191.496Z" fill="#E8A752"/>
<path d="M166.561 37.4453H148.363V209.733H166.561V37.4453Z" fill="url(#paint3_linear_498_1810)"/>
<path d="M215.269 37.4453H205.223V209.733H215.269V37.4453Z" fill="#0F7C84"/>
<path d="M171.391 209.738H21.1447C18.9501 209.738 17.1709 208.009 17.1709 205.875V132.23H175.365V205.875C175.365 208.009 173.586 209.738 171.391 209.738Z" fill="url(#paint4_linear_498_1810)"/>
<path d="M131.803 209.738H171.39C173.585 209.738 175.364 208.009 175.364 205.875V132.23H131.803V209.738Z" fill="#369E98"/>
<path d="M175.365 132.23H17.1709V142.1H175.365V132.23Z" fill="#369E98"/>
<path d="M175.364 132.23H131.803V142.1H175.364V132.23Z" fill="#217A73"/>
<path d="M91.9648 106.691C91.9648 106.691 109.995 101.958 123.039 81.163C124.905 78.1878 129.08 77.556 131.806 79.8179C135.491 82.8741 140.005 87.5286 142.255 93.3412C143.149 95.6517 142.33 98.2668 140.309 99.7624C134.133 104.334 118.741 113.352 95.5354 111.25L91.9648 106.691Z" fill="#AE1C53"/>
<path d="M57.2309 77.6421C61.2958 73.6135 67.471 68.8683 76.0291 65.7986C80.7023 64.1226 85.9364 65.7835 88.7538 69.7765C91.5544 73.7458 94.9178 79.7091 97.308 87.8015C102.165 104.244 109.366 109.29 113.72 110.267V112.383H94.1263C94.1263 112.383 74.5715 110.68 57.0032 92.213C53.0693 88.078 53.1738 81.6632 57.2309 77.6421Z" fill="#AE1C53"/>
<path d="M88.754 69.7769C85.9372 65.7833 80.7025 64.1224 76.0293 65.799C67.4712 68.8692 61.2966 73.6138 57.2311 77.6425C53.1734 81.6635 53.0696 88.0783 57.0034 92.2133C60.6861 96.0843 64.455 99.2107 68.1139 101.747C69.5003 101.966 70.9218 102.086 72.3732 102.086C83.5576 102.086 93.0833 95.3208 96.6961 85.8499C94.3653 78.7456 91.3236 73.4194 88.754 69.7769Z" fill="url(#paint5_linear_498_1810)"/>
<path d="M131.808 79.8181C129.081 77.5562 124.907 78.1874 123.041 81.1631C118.869 87.8138 114.189 92.8149 109.75 96.5504C114.381 102.161 121.508 105.804 129.538 105.965C134.377 103.82 137.993 101.478 140.311 99.7626C142.332 98.2669 143.151 95.6519 142.258 93.3414C140.006 87.5287 135.492 82.8743 131.808 79.8181Z" fill="url(#paint6_linear_498_1810)"/>
<path d="M92.6792 132.23H84.7227L87.9488 199.345L92.6792 132.23Z" fill="#369E98"/>
<path d="M177.463 135.447H10.9962C9.34146 135.447 8 134.143 8 132.534V111.368C8 109.759 9.34146 108.455 10.9962 108.455H177.463C179.118 108.455 180.46 109.759 180.46 111.368V132.534C180.46 134.143 179.118 135.447 177.463 135.447Z" fill="url(#paint7_linear_498_1810)"/>
<path d="M140.467 135.447H177.464C179.119 135.447 180.461 134.143 180.461 132.534V111.368C180.461 109.759 179.119 108.455 177.464 108.455H140.467V135.447Z" fill="#369E98"/>
<path d="M87.9468 108.455H60.7266V209.735H87.9468V108.455Z" fill="url(#paint8_linear_498_1810)"/>
<path d="M167.582 108.455H151.945V209.735H167.582V108.455Z" fill="#AE1C53"/>
<defs>
<linearGradient id="paint0_linear_498_1810" x1="163.999" y1="15.953" x2="207.037" y2="87.9984" gradientUnits="userSpaceOnUse">
<stop stop-color="#23AEC9"/>
<stop offset="1" stop-color="#0F7C84"/>
</linearGradient>
<linearGradient id="paint1_linear_498_1810" x1="208.11" y1="23.8131" x2="156.754" y2="82.7401" gradientUnits="userSpaceOnUse">
<stop stop-color="#23AEC9"/>
<stop offset="1" stop-color="#0F7C84"/>
</linearGradient>
<linearGradient id="paint2_linear_498_1810" x1="175.364" y1="46.3391" x2="175.364" y2="283.691" gradientUnits="userSpaceOnUse">
<stop offset="0.027" stop-color="#FFF7BB"/>
<stop offset="1" stop-color="#D18D3B"/>
</linearGradient>
<linearGradient id="paint3_linear_498_1810" x1="157.462" y1="42.4302" x2="157.462" y2="229.936" gradientUnits="userSpaceOnUse">
<stop stop-color="#23AEC9"/>
<stop offset="1" stop-color="#0F7C84"/>
</linearGradient>
<linearGradient id="paint4_linear_498_1810" x1="39.4961" y1="170.984" x2="301.739" y2="170.984" gradientUnits="userSpaceOnUse">
<stop stop-color="#B2EDE8"/>
<stop offset="0.9946" stop-color="#2B8982"/>
</linearGradient>
<linearGradient id="paint5_linear_498_1810" x1="63.8058" y1="74.54" x2="125.677" y2="123.406" gradientUnits="userSpaceOnUse">
<stop offset="0.0054" stop-color="#EF4B70"/>
<stop offset="1" stop-color="#AE1C53"/>
</linearGradient>
<linearGradient id="paint6_linear_498_1810" x1="133.162" y1="88.8903" x2="43.7695" y2="186.954" gradientUnits="userSpaceOnUse">
<stop offset="0.0054" stop-color="#EF4B70"/>
<stop offset="1" stop-color="#AE1C53"/>
</linearGradient>
<linearGradient id="paint7_linear_498_1810" x1="41.0639" y1="121.951" x2="278.264" y2="121.951" gradientUnits="userSpaceOnUse">
<stop offset="0.0054" stop-color="#B2EDE8"/>
<stop offset="1" stop-color="#2B8982"/>
</linearGradient>
<linearGradient id="paint8_linear_498_1810" x1="56.3714" y1="115.41" x2="190.333" y2="460.132" gradientUnits="userSpaceOnUse">
<stop offset="0.0054" stop-color="#EF4B70"/>
<stop offset="1" stop-color="#AE1C53"/>
</linearGradient>
</defs>
</svg>
