<svg width="398" height="200" viewBox="0 0 398 200" fill="none" xmlns="http://www.w3.org/2000/svg">
<path d="M0.5 16C0.5 7.43958 7.43959 0.5 16 0.5H382C390.56 0.5 397.5 7.43959 397.5 16V184C397.5 192.56 390.56 199.5 382 199.5H16C7.43959 199.5 0.5 192.56 0.5 184V16Z" stroke="black"/>
<path fill-rule="evenodd" clip-rule="evenodd" d="M129.346 86.4058C126.259 86.4058 123.575 87.4761 121.294 89.2154V86.6733H114.047V114.904H121.562V96.8416C122.636 95.3699 125.186 93.363 128.407 93.363C129.615 93.363 130.554 93.4968 131.493 93.7644V86.5396C130.822 86.4058 130.017 86.4058 129.346 86.4058Z" fill="black"/>
<path fill-rule="evenodd" clip-rule="evenodd" d="M63.1831 106.341C65.0619 108.08 68.0144 109.151 70.9669 109.151C72.98 109.151 74.5905 108.214 74.5905 106.742C74.5905 102.461 60.9016 104.066 60.9016 94.8347C60.9016 89.3492 66.1356 86.0044 71.7722 86.0044C75.3957 86.0044 79.4218 87.3423 81.3007 88.8141L77.8114 94.2996C76.3351 93.2292 74.4562 92.4265 72.4432 92.4265C70.2959 92.4265 68.5513 93.2292 68.5513 94.7009C68.5513 98.3134 82.2401 96.9754 82.2401 106.742C82.2401 112.228 76.8719 115.439 70.9669 115.439C67.075 115.439 62.9147 114.101 59.5596 111.693L63.1831 106.341Z" fill="black"/>
<path fill-rule="evenodd" clip-rule="evenodd" d="M110.826 100.588C110.826 92.694 105.324 86.1382 97.5398 86.1382C89.085 86.1382 83.7168 92.9616 83.7168 100.855C83.7168 109.686 90.0244 115.573 98.4793 115.573C102.908 115.573 107.337 113.7 110.021 110.489L105.726 106.207C104.384 107.679 101.834 109.418 98.6135 109.418C94.5873 109.418 91.3664 106.742 90.9638 102.729H110.558C110.692 102.06 110.826 101.391 110.826 100.588ZM91.3664 97.243C91.7691 94.7009 94.3189 92.2927 97.4056 92.2927C100.492 92.2927 102.774 94.7009 103.042 97.243H91.3664Z" fill="black"/>
<path fill-rule="evenodd" clip-rule="evenodd" d="M149.611 103.933L157.261 86.6733H165.179L152.161 115.037H146.927L133.909 86.6733H141.827L149.611 103.933Z" fill="black"/>
<path fill-rule="evenodd" clip-rule="evenodd" d="M171.62 73.4277C174.304 73.4277 176.585 75.5684 176.585 78.2443C176.585 80.9201 174.304 83.0608 171.62 83.0608C168.936 83.0608 166.654 80.9201 166.654 78.2443C166.654 75.5684 168.802 73.4277 171.62 73.4277Z" fill="black"/>
<path d="M175.243 86.6733H167.728V114.904H175.243V86.6733Z" fill="black"/>
<path fill-rule="evenodd" clip-rule="evenodd" d="M206.647 109.151C203.292 113.566 199.132 115.573 193.764 115.573C185.04 115.573 178.599 109.017 178.599 100.855C178.599 92.694 185.175 86.1382 193.764 86.1382C198.595 86.1382 203.024 88.4127 205.708 91.7575L200.34 96.4403C198.863 94.4334 196.582 93.0954 193.764 93.0954C189.335 93.0954 186.114 96.574 186.114 100.855C186.114 105.271 189.335 108.615 193.898 108.615C196.985 108.615 199.4 106.742 200.608 104.869L206.647 109.151Z" fill="black"/>
<path fill-rule="evenodd" clip-rule="evenodd" d="M234.159 110.489C231.475 113.7 226.912 115.573 222.618 115.573C214.163 115.573 207.855 109.686 207.855 100.855C207.855 92.9616 213.224 86.1382 221.679 86.1382C229.462 86.1382 234.965 92.694 234.965 100.588C234.965 101.391 234.965 102.06 234.831 102.729H215.237C215.639 106.742 218.86 109.418 222.886 109.418C226.107 109.418 228.657 107.545 229.999 106.207L234.159 110.489ZM227.181 97.243C226.912 94.7009 224.631 92.2927 221.544 92.2927C218.458 92.2927 215.774 94.7009 215.505 97.243H227.181Z" fill="black"/>
<path fill-rule="evenodd" clip-rule="evenodd" d="M237.917 115.037V86.6734H245.164V88.9478C247.311 87.2085 249.995 86.1382 253.216 86.1382C257.108 86.1382 260.732 87.8775 263.013 90.6872C264.892 92.9616 265.966 95.7713 265.966 100.588V115.037H258.45V100.053C258.45 97.243 257.779 95.7713 256.706 94.7009C255.766 93.7644 254.156 93.0954 252.411 93.0954C249.19 93.0954 246.64 95.1023 245.567 96.574V114.904H237.917V115.037Z" fill="black"/>
<path fill-rule="evenodd" clip-rule="evenodd" d="M285.426 86.1382C276.434 86.1382 268.918 93.4968 268.784 102.595C268.784 107.411 270.797 111.693 274.018 114.77C275.226 115.84 276.971 115.974 278.313 115.037C280.192 113.566 282.607 112.763 285.426 112.763C288.244 112.763 290.659 113.7 292.538 115.037C293.88 115.974 295.625 115.974 296.833 114.77C300.054 111.693 301.933 107.545 301.933 102.729C301.798 93.4968 294.551 86.1382 285.426 86.1382ZM285.291 110.89C280.326 110.89 276.971 107.144 276.971 102.595C276.971 98.0458 280.326 94.2996 285.291 94.2996C290.257 94.2996 293.612 98.0458 293.612 102.595C293.612 107.277 290.257 110.89 285.291 110.89Z" fill="#62D84E"/>
<path fill-rule="evenodd" clip-rule="evenodd" d="M316.829 115.037H311.192L299.919 86.6733H307.569L313.742 102.862L319.781 86.6733H326.089L332.128 102.862L338.301 86.6733H345.817L334.544 115.037H328.907L322.868 98.8485L316.829 115.037Z" fill="black"/>
<path d="M345.952 111.826H345.281V113.03H344.744V109.686H346.086C346.623 109.686 347.16 110.221 347.16 110.756C347.16 111.157 346.891 111.559 346.489 111.692L347.294 113.03H346.757L345.952 111.826ZM345.281 111.291H346.086C346.355 111.291 346.623 111.023 346.623 110.756C346.623 110.488 346.355 110.221 346.086 110.221H345.281V111.291Z" fill="black"/>
<path d="M345.817 108.348C347.562 108.348 348.904 109.686 348.904 111.425C348.904 113.164 347.562 114.502 345.817 114.502C344.073 114.502 342.731 113.164 342.731 111.425C342.731 109.686 344.207 108.348 345.817 108.348ZM345.817 107.946C343.804 107.946 342.328 109.552 342.328 111.425C342.328 113.432 343.939 114.904 345.817 114.904C347.831 114.904 349.307 113.298 349.307 111.425C349.441 109.418 347.831 107.946 345.817 107.946Z" fill="black"/>
</svg>
