<svg width="79" height="75" viewBox="0 0 79 75" fill="none" xmlns="http://www.w3.org/2000/svg">
<path d="M22.1492 47.6133C25.0841 47.6201 27.213 47.9457 28.5801 48.2242C29.295 48.3754 30.0998 48.5729 30.3562 49.1852C30.74 50.1212 29.5837 51.3442 29.4358 51.4934C34.8161 52.1932 38.2612 50.7086 39.8917 49.8032C41.4861 48.9174 43.5113 47.3925 43.2165 46.5239C42.7644 45.203 37.9041 46.5415 36.6754 44.3735C36.2811 43.6775 36.4016 42.8552 36.5535 42.2889C31.7515 44.0754 26.9505 45.8408 22.1492 47.6133Z" fill="#E8F1FD"/>
<path d="M36.4321 47.8218C31.0909 49.6487 28.8725 51.7168 27.5401 53.5759C26.8021 54.6119 24.7876 57.5235 25.2441 61.3554C25.3274 62.0451 25.7162 65.1527 27.939 66.9039C30.8731 69.2164 35.0372 67.6215 38.9704 66.9502C52.4876 64.6357 57.4506 74.1582 65.9473 70.3462C71.0831 68.0366 75.1034 61.923 74.0786 57.0056C73.1951 52.7449 68.7783 50.5379 64.929 48.6172C52.4607 42.3909 40.0362 46.5845 36.4321 47.8218Z" fill="#E8F1FD"/>
<path d="M21.1349 32.1507C17.2218 31.7054 13.1818 32.3934 9.6419 34.1073C8.37039 34.7241 7.14219 35.4843 6.17093 36.5173C5.19967 37.5503 4.50563 38.8782 4.41595 40.2959C4.34036 41.5516 4.76569 42.836 5.57984 43.7978C6.71695 45.1413 8.47885 45.7764 10.1931 46.2042C12.796 46.8545 15.4781 47.1474 18.149 47.3692C23.0539 47.7796 28.1612 47.9229 32.7063 46.0262C34.0244 45.4751 35.3235 44.7109 36.0627 43.4839C37.2818 41.4644 36.5729 38.7249 34.9941 36.9661C33.4149 35.2145 31.1655 34.2401 28.9591 33.416L21.1349 32.1507Z" fill="#E8F1FD"/>
<path d="M22.3952 17.2535C22.5628 25.2196 29.5934 33.8375 32.6914 37.2218L25.0138 40.6952L18.9526 35.8859L16.124 26.8016C16.124 26.8016 15.1644 15.2007 17.1421 15.0958C24.6914 14.6953 22.2914 12.323 22.3952 17.2535Z" fill="white" fill-opacity="0.2"/>
<path d="M55.0916 19.1224C55.4283 30.899 47.8207 43.7419 44.6914 48.766L52.4465 53.9224L58.569 46.7828L61.4261 33.297C61.4261 33.297 62.3965 9.13377 60.3977 9.28024C57.0914 9.52253 54.6914 5.12287 55.0916 19.1224Z" fill="white" fill-opacity="0.2"/>
<path d="M26.9902 50.4666C27.4657 52.5524 28.7061 54.4521 30.4187 55.7356" stroke="#131B24" stroke-width="0.114471" stroke-miterlimit="10" stroke-linecap="round" stroke-linejoin="round"/>
<path d="M25.2109 46.9597C25.2504 49.8046 26.2954 52.6224 28.1101 54.8157" stroke="#131B24" stroke-width="0.114471" stroke-miterlimit="10" stroke-linecap="round" stroke-linejoin="round"/>
<path d="M10.1445 23.2878C10.2186 25.3351 10.5338 27.3644 11.0778 29.34" stroke="#131B24" stroke-width="0.114471" stroke-miterlimit="10" stroke-linecap="round" stroke-linejoin="round"/>
<path d="M11.332 26.8967C11.4903 27.9786 11.7836 29.0452 12.2138 30.054" stroke="#131B24" stroke-width="0.114471" stroke-miterlimit="10" stroke-linecap="round" stroke-linejoin="round"/>
<path d="M29.6769 31.9837C30.2037 31.0871 30.6965 30.1607 31.1401 29.2251" stroke="#131B24" stroke-width="0.114471" stroke-miterlimit="10" stroke-linecap="round" stroke-linejoin="round"/>
<path d="M30.995 30.8026C31.6501 29.7206 32.1465 28.5468 32.4544 27.3153" stroke="#131B24" stroke-width="0.114471" stroke-miterlimit="10" stroke-linecap="round" stroke-linejoin="round"/>
<path d="M33.2029 39.9161C31.8865 43.6925 25.5617 44.5503 22.0596 44.4128C19.2564 44.3056 14.4997 43.4135 12.2991 40.8216C11.8684 40.3149 11.5328 39.7346 11.3274 39.0891C11.2221 38.7451 10.8311 37.4834 11.368 36.1911C12.9075 32.488 20.3142 32.7804 22.5523 32.8703C24.6422 32.9537 29.0836 33.1248 31.6072 34.9527C32.3206 35.4646 32.8726 36.1109 33.1839 36.9236C33.7241 38.3332 33.2992 39.6515 33.2029 39.9161Z" fill="#6278B1"/>
<path d="M33.2018 39.9158C31.8855 43.6922 25.5607 44.55 22.0586 44.4125C19.2553 44.3052 14.4986 43.4132 12.2981 40.8213C20.4063 44.0227 27.4502 43.3799 30.2086 39.7862C30.7932 39.0264 31.6204 37.5629 31.6061 34.9524C32.3195 35.4643 32.8715 36.1105 33.1829 36.9232C33.723 38.3329 33.2982 39.6512 33.2018 39.9158Z" fill="#51679E"/>
<path d="M19.4816 24.0858C20.7594 24.1411 21.0293 24.9308 21.9894 24.8097C22.7859 24.7098 22.768 24.1432 24.0564 23.7888C24.9584 23.5379 25.4115 23.6919 25.5158 23.7318C25.5158 23.7318 26.1076 23.9484 26.5491 24.696C27.1881 25.7845 27.0762 30.1648 26.2421 36.0343C25.6614 36.377 24.1272 37.1805 22.0459 37.0621C20.2254 36.962 18.9285 36.2057 18.3576 35.8344C17.7893 33.6031 17.4692 31.6867 17.2774 30.2355C16.6962 25.8536 17.1961 24.9275 17.7451 24.4986C18.353 24.0157 19.2769 24.0769 19.4816 24.0858Z" fill="#8C2935"/>
<path d="M26.6108 31.7787C26.6861 32.3265 26.1605 33.1949 25.6098 32.6831C25.2508 31.5005 25.4715 30.1592 25.7561 28.9763C25.7985 28.8154 26.0472 27.8077 26.4168 28.0925C26.692 29.2502 26.6278 30.57 26.6108 31.7787Z" fill="#131B24"/>
<path d="M17.6227 33.1927C17.6384 33.3207 17.674 33.4778 17.7996 33.5186C17.8763 33.5431 17.9555 33.5112 18.0347 33.4793C18.3591 33.3377 18.6985 33.1756 18.8952 32.88C19.0692 32.6188 19.1044 32.2949 19.1182 31.9773C19.1815 30.6786 18.9937 29.1357 18.3937 27.964C17.9697 27.1393 17.8757 28.3305 17.8107 28.6884C17.6883 29.3904 17.6007 30.108 17.5627 30.8207C17.5144 31.6108 17.5296 32.4036 17.6227 33.1927Z" fill="#131B24"/>
<path d="M21.9727 25.6929C22.2298 28.5755 22.2106 31.4674 22.1844 34.359" stroke="#126C0F" stroke-width="0.114471" stroke-miterlimit="10" stroke-linecap="round" stroke-linejoin="round"/>
<path d="M8.62714 38.2491C8.45594 38.6095 8.77492 39.083 8.98738 39.4034C9.69136 40.4594 11.1245 41.1722 11.7307 40.7316C11.8111 40.6715 11.8562 40.6098 11.8866 40.5616C12.2944 39.9639 11.9568 38.7752 11.2038 38.198C10.3415 37.5312 8.89223 37.6806 8.62714 38.2491Z" fill="#131B24"/>
<path d="M5.81484 39.4858C5.95141 39.4351 6.16626 39.3737 6.42807 39.3709C6.78902 39.3653 7.06037 39.469 7.40047 39.6181C7.62946 39.72 7.93427 39.8675 8.27101 40.0943C8.74814 39.2026 9.22495 38.3179 9.70207 37.4262C10.691 37.1295 11.6407 37.4111 12.0373 38.0507C12.2556 38.3996 12.2529 38.7885 12.2284 39.0279C11.4831 40.3961 10.7378 41.7642 9.99252 43.1323C9.91948 43.1857 9.84029 43.2177 9.76172 43.2355C9.66075 43.2806 9.54872 43.2545 9.44374 43.2288C9.08001 43.1352 8.72548 42.9926 8.37831 42.8431C7.80216 42.5919 7.55658 42.3832 7.20816 42.0994C6.43642 41.4648 5.97988 40.7377 5.72565 40.2387C5.75078 39.9852 5.78296 39.7319 5.81484 39.4858Z" fill="#6B3546"/>
<path d="M8.70431 41.4C9.17705 41.7529 9.68539 42.1002 9.94576 42.6208C10.0238 42.7797 10.0784 42.9872 9.97992 43.1385C9.97225 43.1524 9.71233 43.4382 9.6976 43.4517C9.62364 43.5263 8.01616 43.0818 7.35218 42.5721C6.68114 42.0621 6.04936 41.4619 5.65728 40.7164C5.55258 40.5209 5.46292 40.3048 5.45858 40.0783C5.45703 39.9509 5.314 39.9872 5.38243 39.877C5.42815 39.8012 5.66506 39.5568 5.74485 39.5108C6.29574 39.2022 6.83421 39.8338 7.1811 40.1529C7.67104 40.5985 8.17632 41.0164 8.70431 41.4Z" fill="white"/>
<path d="M8.46595 41.6655C8.93869 42.0184 9.44703 42.3657 9.7074 42.8862C9.78539 43.0452 9.84006 43.2527 9.74156 43.404C9.67344 43.5071 9.54392 43.5581 9.42238 43.5882C8.60721 43.7934 7.77811 43.3402 7.11382 42.8376C6.44277 42.3276 5.811 41.7273 5.41892 40.9819C5.31422 40.7864 5.22456 40.5703 5.22022 40.3438C5.21588 40.1173 5.31805 39.8812 5.51355 39.7765C6.06444 39.468 6.60291 40.0995 6.94979 40.4187C7.43268 40.8639 7.93827 41.2748 8.46595 41.6655Z" fill="#131B24"/>
<path d="M7.38086 39.5815C7.91344 39.8592 8.423 40.1783 8.90955 40.5389" stroke="#131B24" stroke-width="0.114471" stroke-miterlimit="10" stroke-linecap="round" stroke-linejoin="round"/>
<path d="M20.186 36.8965C20.0534 37.0181 19.8671 37.0737 19.6403 37.0851C18.826 37.1064 17.4609 36.4532 15.8926 35.2678C15.7146 35.1328 15.5298 34.9904 15.3453 34.8409C14.9191 35.5368 14.4999 36.233 14.0805 36.9363C13.349 38.1494 12.6172 39.3696 11.8853 40.5898C11.901 40.5551 11.9246 40.4995 11.9347 40.4292C12.0571 39.7272 11.0548 39.0261 10.7528 38.815C10.1416 38.3924 9.05464 37.8503 8.67871 38.2018C8.65661 38.222 8.64158 38.2426 8.62654 38.2632C9.14321 37.1115 9.98083 35.4079 11.2733 33.4906C12.5206 31.6349 13.1623 30.7008 14.1358 30.4318C16.7204 29.7091 19.6897 33.657 19.9233 33.9783C20.2175 34.6983 20.8037 36.3504 20.186 36.8965Z" fill="#1D2E59"/>
<path d="M19.6391 37.0851C18.8248 37.1064 17.4598 36.4532 15.8915 35.2678C16.0849 35.3752 16.328 35.4777 16.6009 35.5461C17.0484 35.6645 17.5171 35.7838 17.8313 35.5499C18.029 35.3957 18.0741 35.1714 18.1853 34.2355C18.2288 33.8838 18.2843 33.4194 18.3508 32.8635C19.2579 33.4757 19.6933 35.9983 19.6391 37.0851Z" fill="#131B24"/>
<path d="M16.8256 35.924C17.6704 36.3425 18.7343 36.7635 19.9955 37.0373C23.0714 37.708 25.6695 37.1628 27.124 36.7307C27.8644 37.1093 28.0274 37.4276 28.0247 37.6538C28.0153 38.686 24.5036 39.4251 22.5982 39.6538C19.3988 40.0386 18.1147 39.3111 17.7154 39.0604C17.2749 38.7796 16.2972 38.1644 16.2823 37.2019C16.273 36.6003 16.6253 36.1417 16.8256 35.924Z" fill="#677EB8"/>
<path d="M28.3355 42.355C28.8122 42.9414 30.6436 42.2993 31.512 41.3538C31.683 41.1632 31.7965 40.9913 31.7615 40.82C31.6785 40.4486 30.9351 40.3033 30.4901 40.2911C30.4124 40.2877 28.8081 40.2607 28.3565 41.3798C28.3019 41.4977 28.0804 42.0398 28.3355 42.355Z" fill="#131B24"/>
<path d="M34.1967 41.471C34.065 41.4087 33.8563 41.329 33.5957 41.3035C33.2366 41.2668 32.9573 41.3466 32.6056 41.4658C32.3686 41.5475 32.0522 41.6681 31.6971 41.8649C31.2989 40.9353 30.9003 40.0128 30.502 39.0831C29.5425 38.7021 28.572 38.9005 28.1216 39.5034C27.8739 39.8322 27.843 40.2199 27.8467 40.4605C28.471 41.8879 29.0952 43.3153 29.7195 44.7428C29.7876 44.8023 29.8637 44.841 29.9405 44.8655C30.0372 44.9192 30.151 44.9029 30.2578 44.8863C30.6283 44.8246 30.9938 44.7131 31.3526 44.5942C31.9483 44.3937 32.211 44.207 32.5827 43.9544C33.4064 43.3889 33.9241 42.704 34.2205 42.2288C34.217 41.9811 34.2069 41.7261 34.1967 41.471Z" fill="#6B3546"/>
<path d="M31.1549 43.136C30.6534 43.4467 30.117 43.7488 29.8126 44.2448C29.7211 44.3965 29.6487 44.5984 29.7338 44.7577C29.7402 44.7722 29.9745 45.0793 29.988 45.0941C30.0552 45.1748 31.6951 44.8709 32.4007 44.4206C33.1133 43.9705 33.7946 43.4271 34.2496 42.7183C34.3708 42.5326 34.4788 42.3251 34.5027 42.0998C34.5153 41.973 34.6547 42.0215 34.596 41.9058C34.557 41.8263 34.3421 41.5624 34.2666 41.5096C33.7444 41.1546 33.1534 41.7372 32.7802 42.0252C32.2536 42.4268 31.7144 42.7924 31.1549 43.136Z" fill="white"/>
<path d="M31.3756 43.4145C30.8741 43.7252 30.3377 44.0273 30.0333 44.5234C29.9418 44.675 29.8694 44.877 29.9545 45.0363C30.0134 45.1449 30.1381 45.2069 30.2566 45.2474C31.0509 45.5223 31.9161 45.1424 32.6214 44.6991C33.334 44.249 34.0153 43.7056 34.4703 42.9969C34.5915 42.8111 34.6995 42.6036 34.7234 42.3784C34.7473 42.1531 34.666 41.9091 34.4802 41.7879C33.9581 41.4328 33.367 42.0155 32.9939 42.3035C32.4672 42.705 31.9277 43.0777 31.3756 43.4145Z" fill="#131B24"/>
<path d="M32.4331 41.5502C32.0822 41.6481 31.7566 41.8179 31.4712 42.039" stroke="#131B24" stroke-width="0.114471" stroke-miterlimit="10" stroke-linecap="round" stroke-linejoin="round"/>
<path d="M31.7625 40.8208C31.7361 40.7773 31.6965 40.7119 31.6357 40.6456C31.0942 40.0846 29.8279 40.5815 29.691 40.6392C29.4605 40.7353 28.4529 41.1373 28.2892 41.9789C28.2702 42.0912 28.2659 42.1901 28.2702 42.2539C27.4946 40.4026 26.726 38.5517 25.9503 36.7004C25.6424 35.9727 25.3414 35.2454 25.0338 34.5106C24.826 34.5723 24.6253 34.6344 24.4175 34.6961C24.3601 34.7148 24.3101 34.7268 24.2527 34.7456C24.6628 33.6034 25.0887 32.7519 25.5303 32.1911C25.56 32.157 25.5827 32.1226 25.6122 32.0956C25.9924 31.6453 26.3776 31.4073 26.7741 31.3962C28.3051 31.321 29.9655 34.4625 31.7625 40.8208Z" fill="#1D2E59"/>
<path d="M26.0235 36.463C26.006 36.54 25.9814 36.6168 25.9498 36.6932C25.6419 35.9655 25.3409 35.2382 25.0333 34.5034C24.8255 34.5652 24.6248 34.6272 24.417 34.6889C24.4286 34.5833 24.4403 34.4777 24.466 34.3728C24.5464 33.9873 24.7314 33.6346 24.9094 33.2816C25.1023 32.908 25.2886 32.5271 25.5368 32.1842C25.5595 32.1498 25.5819 32.1225 25.6046 32.0881L25.6117 32.0884L26.0196 31.9787C26.1457 33.4765 26.4118 35.0087 26.0235 36.463Z" fill="#131B24"/>
<path d="M21.3856 37.0773C21.3482 37.1252 21.2543 37.1707 20.9808 37.1164C21.0146 37.1532 21.1027 37.2419 21.1248 37.3843C21.1248 37.3843 21.1531 37.5482 21.0684 37.7072C21.038 37.7554 20.9088 37.962 20.2351 38.0036C19.59 38.0393 19.1366 38.055 18.8511 37.788C18.5521 37.5063 18.5355 37.0742 18.6158 36.6886C18.6336 36.6045 18.6514 36.5204 18.6759 36.4437C18.6765 36.4296 18.6839 36.4228 18.6845 36.4087C18.7913 36.0668 18.9293 35.8181 18.9293 35.8181L19.3824 35.8095L20.5005 35.7942L21.003 35.7877C21.0269 35.8877 21.0693 36.0523 21.1384 36.2533C21.2075 36.4543 21.2784 36.613 21.3297 36.7354C21.4074 36.9015 21.4381 37.0089 21.3856 37.0773Z" fill="#6B3546"/>
<path d="M21.0896 36.5985C21.0745 36.6191 21.0524 36.6393 21.0306 36.6525C20.9797 36.6857 20.9155 36.6971 20.887 36.7029C19.7618 36.8805 19.2486 36.8088 19.2486 36.8088C19.101 36.7882 18.8834 36.7505 18.6172 36.6895C18.6267 36.6333 18.6448 36.5422 18.6774 36.4446C18.6847 36.4378 18.6853 36.4237 18.693 36.4099C18.7323 36.3196 18.786 36.2229 18.8608 36.1272C19.0244 35.9433 19.2122 35.8524 19.3841 35.8033C19.4556 35.7851 19.5201 35.7667 19.5842 35.7553C19.6913 35.7317 20.1048 35.6576 20.5023 35.788C20.6557 35.8371 20.8077 35.9215 20.9437 36.0476C21.0385 36.1437 21.1051 36.2385 21.1448 36.3039C21.1561 36.368 21.1715 36.503 21.0896 36.5985Z" fill="#6B3546"/>
<path d="M21.331 36.7214C21.3237 36.7281 21.3237 36.7281 21.3166 36.7278C21.281 36.7334 21.2389 36.7245 21.204 36.7159C21.141 36.699 21.0855 36.6754 21.0299 36.6518C20.7101 36.5248 20.3982 36.3769 20.0618 36.3057C19.7045 36.2266 19.3285 36.2527 18.9771 36.3648C18.8838 36.3962 18.7681 36.4548 18.6923 36.4091C18.799 36.0672 18.9371 35.8185 18.9371 35.8185L19.3901 35.8098C19.4616 35.7917 19.5261 35.7733 19.5902 35.7619C19.6974 35.7383 20.1108 35.6642 20.5083 35.7946L21.0107 35.7881C21.0347 35.8881 21.0771 36.0526 21.1462 36.2537C21.2085 36.4473 21.2797 36.5989 21.331 36.7214Z" fill="#131B24"/>
<path d="M18.0273 26.1252C17.9831 27.7996 17.9838 29.5819 18.0648 31.4667C18.1397 33.3301 18.2828 35.0903 18.466 36.7391C18.5111 36.6774 19.1113 35.883 20.1061 35.9402C20.8541 35.9797 21.3137 36.4734 21.4079 36.5836C21.2201 35.0407 21.0709 33.4217 20.9531 31.7333C20.8365 30.0166 20.7736 28.366 20.7496 26.7948L18.0273 26.1252Z" fill="#8C2935"/>
<path d="M21.3218 35.7951C21.1733 34.4873 21.0552 33.1313 20.9537 31.7195C20.8749 30.5986 20.8231 29.5071 20.791 28.4519" stroke="#131B24" stroke-width="0.114471" stroke-miterlimit="10" stroke-linecap="round" stroke-linejoin="round"/>
<path d="M24.9242 37.8595C24.6505 38.1376 24.1974 38.1463 23.5541 38.1396C22.8826 38.1318 22.7426 37.9347 22.7094 37.8838C22.6167 37.7383 22.6381 37.5695 22.6381 37.5695C22.6584 37.4289 22.7332 37.3332 22.7701 37.2994C22.4984 37.3654 22.4011 37.3259 22.3606 37.2817C22.2728 37.1859 22.3799 36.9996 22.5094 36.6233C22.5259 36.5674 22.5499 36.5048 22.567 36.4348C22.6253 36.2322 22.6606 36.0711 22.6793 35.9658L23.182 35.9522L24.3011 35.9158L24.7544 35.9C24.7544 35.9 24.9264 36.1763 25.052 36.5424C25.0517 36.5495 25.0587 36.5498 25.0584 36.5568C25.0775 36.6072 25.0894 36.6572 25.1082 36.7146C25.1389 36.822 25.1622 36.9362 25.1715 37.0497C25.1945 37.3336 25.1461 37.6357 24.9242 37.8595Z" fill="#6B3546"/>
<path d="M25.1269 36.9417C25.091 36.9542 25.0554 36.9598 25.0195 36.9724C23.8458 37.2893 22.8937 37.2269 22.6374 36.7773C22.6113 36.7266 22.5855 36.6689 22.5747 36.5907C22.5692 36.5551 22.5636 36.5195 22.5655 36.4771C22.6038 36.408 22.6575 36.3113 22.7539 36.2094C22.8797 36.0805 23.0322 35.9881 23.1832 35.931C23.5715 35.7851 23.9865 35.8384 24.0988 35.8574C24.162 35.8673 24.2323 35.8774 24.3023 35.8946C24.4773 35.9375 24.6722 36.0096 24.841 36.1937C24.9426 36.2971 25.0083 36.4131 25.0461 36.5209C25.0458 36.5279 25.0529 36.5282 25.0526 36.5353C25.0713 36.5927 25.0903 36.643 25.1023 36.693C25.1186 36.8069 25.1287 36.8993 25.1269 36.9417Z" fill="#6B3546"/>
<path d="M25.1594 37.0354C25.1524 37.0351 25.1456 37.0278 25.1386 37.0274C25.0968 37.0115 25.0551 36.9955 25.0136 36.9725C24.6526 36.8154 24.292 36.6513 23.9068 36.5639C23.4654 36.467 23.0053 36.4754 22.5756 36.5982C22.5541 36.6043 22.5326 36.6105 22.5111 36.6166C22.5277 36.5608 22.5516 36.4981 22.5688 36.4282C22.6271 36.2256 22.6624 36.0644 22.6811 35.9591L23.1838 35.9456C23.5721 35.7997 23.987 35.853 24.0994 35.872C24.1626 35.8819 24.2329 35.892 24.3029 35.9091L24.7562 35.8934C24.7562 35.8934 24.9282 36.1696 25.0538 36.5358C25.0535 36.5428 25.0605 36.5431 25.0602 36.5502C25.0789 36.6076 25.098 36.6579 25.11 36.7079C25.1269 36.8077 25.1502 36.9219 25.1594 37.0354Z" fill="#131B24"/>
<path d="M26.4271 26.6937C26.4151 28.2774 26.3252 30.0276 26.1097 31.8996C25.8998 33.8072 25.591 35.5479 25.2543 37.1176C25.2147 37.0522 24.6854 36.2088 23.6894 36.1799C22.9408 36.1545 22.4403 36.6067 22.3369 36.7083C22.6573 35.1874 22.9459 33.5873 23.2092 31.9155C23.4738 30.2153 23.6792 28.5763 23.8388 27.013L26.4271 26.6937Z" fill="#8C2935"/>
<path d="M23.7502 28.2543C23.6286 29.7555 23.4309 31.3807 23.1154 33.114C22.8934 34.3209 22.6391 35.4557 22.3671 36.5119" stroke="#131B24" stroke-width="0.114471" stroke-miterlimit="10" stroke-linecap="round" stroke-linejoin="round"/>
<path d="M21.012 19.4421C21.0126 19.428 20.9822 19.3135 21.0478 19.2669C21.0991 19.2267 21.1838 19.2303 21.2664 19.2834C21.0374 19.1816 20.9928 18.5784 21.3369 18.7984C21.1892 18.4526 21.7214 18.0866 21.7702 18.5909C22.0682 18.2431 22.2085 18.5957 21.9707 18.8613C22.3157 18.5721 22.3117 18.9892 22.1123 19.1857C22.436 18.8956 22.5823 19.6021 21.6486 19.7668C21.5854 19.757 21.0719 19.6923 21.012 19.4421Z" fill="#126C0F"/>
<path d="M20.1981 20.7568C20.176 20.6144 20.1539 20.472 20.1953 20.3324C20.2361 20.2068 20.3186 20.0972 20.4211 20.0168C20.5236 19.9364 20.6464 19.878 20.7618 19.8264C21.2808 19.6014 21.8461 19.449 22.4023 19.5085C22.6064 19.5315 22.8231 19.5904 22.9579 19.7447C23.0389 19.8331 23.0831 19.9553 23.1135 20.0697C23.1741 20.3057 23.1845 20.5537 23.1459 20.7925L20.1981 20.7568Z" fill="#22391F"/>
<path d="M20.2965 22.248C20.4393 24.6659 20.0024 25.7716 22.8679 25.2591C23.9157 25.0711 23.3347 21.8279 23.158 20.6815C23.1162 20.3402 22.2307 20.2099 21.6546 20.284C19.8622 20.5176 20.2542 20.775 20.2965 22.248Z" fill="#A66946"/>
<path d="M23.2567 22.3049C23.3217 22.1097 23.4417 21.9522 23.5939 21.8668C23.6881 21.8143 23.8026 21.7839 23.907 21.8238C24.0116 21.8566 24.1062 21.9597 24.136 22.0883C24.1596 22.1955 24.1336 22.3075 24.0943 22.3977C23.9747 22.7108 23.7242 22.9405 23.4465 22.985C23.3682 22.9958 23.2764 22.9918 23.2378 22.9052" fill="#A66946"/>
<path d="M23.3875 22.3958C23.4943 22.2166 23.6698 22.0827 23.8632 22.0274" stroke="#131B24" stroke-width="0.114471" stroke-miterlimit="10" stroke-linecap="round" stroke-linejoin="round"/>
<path d="M20.4832 22.489C20.4064 22.3018 20.2787 22.1477 20.1194 22.0701C20.0224 22.0235 19.9104 21.9974 19.8023 22.0422C19.7017 22.0803 19.605 22.1893 19.5851 22.3228C19.5664 22.4281 19.5971 22.5355 19.6425 22.6294C19.7776 22.9394 20.037 23.1557 20.3185 23.1891C20.3958 23.1996 20.4885 23.1824 20.5275 23.0992" fill="#A66946"/>
<path d="M19.8438 22.2419C20.0411 22.2576 20.2265 22.3858 20.318 22.5595" stroke="#131B24" stroke-width="0.114471" stroke-miterlimit="10" stroke-linecap="round" stroke-linejoin="round"/>
<path d="M22.5108 23.8779C22.5099 23.8991 22.5093 23.9132 22.5013 23.9341C22.4805 24.0888 22.4317 24.2352 22.3559 24.3521L22.3556 24.3592C22.3556 24.3592 22.3553 24.3663 22.3482 24.366C22.3028 24.4347 22.2433 24.5029 22.1844 24.5569C22.1257 24.6039 22.0536 24.6361 21.976 24.6327C21.9689 24.6324 21.9548 24.6318 21.9477 24.6315L21.9407 24.6312C21.9336 24.6309 21.9266 24.6306 21.9124 24.63C21.9124 24.63 21.9124 24.63 21.9054 24.6297C21.8983 24.6294 21.8913 24.6291 21.8842 24.6288C21.7439 24.6015 21.6061 24.5177 21.5263 24.4011C21.5266 24.394 21.5195 24.3937 21.5195 24.3937C21.5195 24.3937 21.5198 24.3867 21.5128 24.3864C21.4468 24.2774 21.4031 24.1411 21.381 23.9987C21.3813 23.9917 21.3816 23.9846 21.3749 23.9772C21.3647 23.8849 21.3543 23.7995 21.3583 23.7078C21.3561 23.5945 21.3677 23.4889 21.3858 23.3978C21.4039 23.3066 21.4429 23.2234 21.4957 23.1479C21.496 23.1408 21.503 23.1411 21.5033 23.1341C21.6531 22.9425 21.9057 22.8262 22.1359 22.8998C22.2335 22.9323 22.3148 23.0136 22.3741 23.1152C22.3809 23.1226 22.3809 23.1226 22.3805 23.1296C22.4459 23.2527 22.4889 23.4031 22.5031 23.5664C22.52 23.6661 22.5225 23.7723 22.5108 23.8779Z" fill="#131B24"/>
<path d="M22.5097 23.8778C22.5088 23.899 22.5082 23.9131 22.5002 23.934C22.4794 24.0887 22.4306 24.2351 22.3548 24.3521C22.3545 24.3591 22.3474 24.3588 22.3471 24.3659C22.3017 24.4346 22.2422 24.5028 22.1833 24.5568C22.125 24.5967 22.0531 24.6219 21.9749 24.6327C21.9537 24.6317 21.9325 24.6308 21.9113 24.6299C21.7634 24.6164 21.6118 24.525 21.5255 24.394C21.5258 24.3869 21.5187 24.3866 21.5187 24.3866C21.4457 24.2773 21.4024 24.134 21.3802 23.9916C21.3805 23.9845 21.3808 23.9775 21.3741 23.9701C21.3885 23.9637 21.4032 23.9502 21.4177 23.9437C21.526 23.8918 21.6604 23.8906 21.7719 23.9307C21.8345 23.9547 21.8965 23.9927 21.9603 23.9884C22.0171 23.9838 22.061 23.9503 22.1116 23.9242C22.2276 23.8585 22.3842 23.837 22.5097 23.8778Z" fill="#FD4926"/>
<path d="M22.3799 23.1152C22.3793 23.1294 22.3716 23.1432 22.3713 23.1502C22.371 23.1573 22.3637 23.164 22.3566 23.1637C22.3495 23.1634 22.3425 23.1631 22.3425 23.1631C22.0825 23.1236 21.8139 23.119 21.5509 23.1501C21.5368 23.1495 21.5224 23.1559 21.5159 23.1415C21.5092 23.1341 21.5092 23.1341 21.5095 23.1271C21.6592 22.9355 21.9118 22.8191 22.142 22.8928C22.2396 22.9253 22.321 23.0066 22.3799 23.1152Z" fill="white"/>
<path d="M22.3486 24.3664C22.2959 24.4419 22.2434 24.5104 22.1774 24.5641C22.1188 24.6111 22.0467 24.6433 21.969 24.6399C21.962 24.6396 21.9478 24.639 21.9408 24.6387L21.9337 24.6384C21.9267 24.6381 21.9125 24.6375 21.9055 24.6372C21.8984 24.6369 21.8914 24.6366 21.8843 24.6363C21.744 24.609 21.6062 24.5252 21.5264 24.4086C21.5267 24.4015 21.5196 24.4012 21.5196 24.4012C21.5196 24.4012 21.5199 24.3942 21.5129 24.3939C21.6602 24.4215 21.8573 24.4441 22.0918 24.4189C22.1844 24.4017 22.2771 24.3845 22.3486 24.3664Z" fill="white"/>
<path d="M21.1658 22.0943C21.373 22.2094 21.3895 21.8281 21.3168 21.7118C21.0835 21.5461 21.0077 21.9884 21.1658 22.0943Z" fill="#201D1E"/>
<path d="M22.3718 22.0265C22.579 22.1415 22.5955 21.7603 22.5227 21.644C22.2965 21.4786 22.2207 21.9209 22.3718 22.0265Z" fill="#201D1E"/>
<path d="M21.8131 21.1892C21.8162 21.4439 21.8264 21.699 21.8295 21.9538C21.7454 21.936 21.6589 21.9747 21.6205 22.0437C21.5748 22.1195 21.6064 22.2058 21.6466 22.257C21.7071 22.3304 21.8336 22.35 21.9419 22.2981" stroke="#131B24" stroke-width="0.114471" stroke-miterlimit="10" stroke-linecap="round" stroke-linejoin="round"/>
<path d="M20.7057 21.1408C20.6815 21.2105 20.7057 21.3035 20.7607 21.3412C20.9531 21.4698 21.612 20.9537 21.5429 20.7527C21.5242 20.6953 21.441 20.6564 21.3772 20.6607C21.2639 20.6628 21.2449 20.7752 21.0841 20.8955C20.8794 21.0493 20.7388 21.0291 20.7057 21.1408Z" fill="#231F20"/>
<path d="M22.1468 20.489C22.1327 20.4884 22.0544 20.4991 22.0311 20.5476C21.9464 20.7066 22.3974 21.2354 22.6908 21.1562C22.7767 21.1316 22.8574 21.0644 22.8534 20.9935C22.85 20.9084 22.7156 20.9097 22.517 20.7596C22.3184 20.6096 22.2674 20.4801 22.1468 20.489Z" fill="#231F20"/>
<path d="M19.9949 21.0388C19.9949 21.0388 19.9439 20.9093 19.9789 20.7552C20.0423 20.4326 20.7982 19.9632 21.7117 19.9391C22.4409 19.9211 23.3701 20.1877 23.4162 20.5928C23.4309 20.742 23.333 20.8792 23.2149 20.9943C23.2094 20.9587 23.2041 20.9161 23.1986 20.8805C23.0126 20.7663 22.453 20.4592 21.6863 20.525C20.9125 20.5905 20.4074 20.9859 20.2386 21.1272C20.2432 21.1839 20.2408 21.2404 20.2454 21.2972C20.1828 21.2733 20.052 21.1898 19.9949 21.0388Z" fill="#126C0F"/>
<path d="M20.3288 20.3536C20.5387 20.2424 20.834 20.1208 21.1912 20.0373C21.5841 19.9482 21.9239 19.9417 22.178 19.9527" stroke="#131B24" stroke-width="0.114471" stroke-miterlimit="10" stroke-linecap="round" stroke-linejoin="round"/>
<path d="M69.4377 58.9965C67.29 65.1487 56.981 66.5483 51.2757 66.3295C47.8372 66.1948 42.5909 65.3381 38.6768 63.1176C38.2351 62.8651 37.8152 62.5993 37.41 62.3201C36.5867 61.7328 35.8512 61.0785 35.247 60.3309C34.5952 59.5389 34.0963 58.6473 33.7861 57.6437C33.6123 57.0845 32.9729 55.027 33.8492 52.9219C36.3527 46.8841 48.4262 47.3645 52.0766 47.5084C56.2423 47.6746 66.1345 48.0605 69.0396 53.3282C69.1771 53.5817 69.3002 53.8416 69.4083 54.1222C70.2921 56.4166 69.5835 58.5714 69.4377 58.9965Z" fill="#385188"/>
<path d="M69.4381 58.9964C67.2904 65.1485 56.9814 66.5481 51.2761 66.3294C46.6583 66.1506 38.7868 64.6711 35.2474 60.3308C41.0439 62.5268 47.2481 63.6371 53.4456 63.5942C57.2025 63.5659 61.0495 63.0889 64.3782 61.3517C65.7604 60.6265 67.0534 59.6782 67.9709 58.4165C68.8884 57.1549 69.4102 55.5578 69.18 54.0131C69.1478 53.7783 69.094 53.5496 69.0329 53.3277C69.1704 53.5812 69.2936 53.8412 69.4017 54.1217C70.2925 56.4165 69.5838 58.5712 69.4381 58.9964Z" fill="#233A6D"/>
<path d="M69.6201 58.382C69.5508 58.6761 69.4778 58.8922 69.4379 58.9965C69.252 59.5331 68.9967 60.0383 68.6936 60.5061" stroke="#131B24" stroke-width="0.114471" stroke-miterlimit="10" stroke-linecap="round" stroke-linejoin="round"/>
<path d="M62.2812 48.8274C65.4809 49.7439 68.3402 51.3318 69.4076 54.1222C69.6044 54.64 69.7236 55.1544 69.7876 55.6381" stroke="#131B24" stroke-width="0.114471" stroke-miterlimit="10" stroke-linecap="round" stroke-linejoin="round"/>
<path d="M51.4423 37.1964C51.3485 37.4045 51.1244 37.5151 50.9151 37.6121C50.3882 37.858 49.86 38.1322 49.4598 38.5534C49.0596 38.9746 48.8004 39.5716 48.9101 40.1422" stroke="#734830" stroke-width="0.114471" stroke-miterlimit="10" stroke-linecap="round" stroke-linejoin="round"/>
<path d="M51.4996 37.4959C51.3732 37.8016 51.1087 38.0307 50.8318 38.2167C50.1251 38.6953 49.3001 38.9637 48.5024 39.2545C47.7044 39.5524 46.8976 39.8923 46.2847 40.4882" stroke="#734830" stroke-width="0.114471" stroke-miterlimit="10" stroke-linecap="round" stroke-linejoin="round"/>
<path d="M56.5918 37.1726C56.8595 37.361 57.1272 37.5494 57.3574 37.7857C58.0073 38.4575 58.2592 39.501 57.98 40.3942C57.7159 41.2669 57.0294 41.9303 56.3659 42.5522" stroke="#734830" stroke-width="0.114471" stroke-miterlimit="10" stroke-linecap="round" stroke-linejoin="round"/>
<path d="M51.8143 36.1097C51.6357 36.3141 51.3488 36.7331 51.2885 37.4731C51.2219 37.7036 51.0919 38.0941 50.7853 38.4769C50.224 39.1881 49.6366 39.1981 48.668 40.0048C48.3231 40.294 48.0003 40.563 47.7345 40.9829C47.1727 41.8709 47.2152 42.8488 47.2841 43.3822C47.3829 43.2239 47.5897 43.1833 47.7748 43.156C49.2253 42.9783 50.6904 43.2822 52.1394 43.4652C53.5885 43.6482 55.1284 43.6936 56.4435 43.0504C56.2472 42.3558 56.3315 41.8785 56.4512 41.5654C56.6659 41.016 57.0017 40.9386 57.3061 40.2799C57.4153 40.0441 57.6571 39.5241 57.5787 38.8842C57.4868 38.0669 56.9367 37.5409 56.7255 37.3549C56.7156 37.0928 56.66 36.7438 56.4549 36.4167C55.6416 35.1084 52.9234 34.8351 51.8143 36.1097Z" fill="#A66946"/>
<path d="M68.0289 29.3082C68.1905 28.3533 68.0417 27.3779 67.8635 26.4295C67.795 26.0517 67.7204 25.6524 67.8563 25.2905C67.8799 25.2349 67.9109 25.1726 67.9686 25.1468C68.0769 25.0949 68.2314 25.2855 68.278 25.3512C68.7017 25.8576 68.6432 26.7179 68.7629 26.7301C68.8264 26.7329 68.9209 26.5107 69.0212 25.9916C69.1595 25.2479 69.1116 24.8851 69.1602 24.2507C69.2059 23.6869 69.2598 23.0951 69.5562 22.6199C69.86 22.138 70.4891 21.8186 71.0024 22.053C71.3769 22.2249 71.5789 22.6226 71.7036 23.0099C72.1513 24.4297 71.8091 25.9638 71.4564 27.4126C71.18 28.5676 70.8807 29.7641 70.1061 30.6641L68.0289 29.3082Z" fill="#1D2E59"/>
<path d="M38.4558 31.3099C38.1294 30.1924 38.0895 28.9883 38.3297 27.853C38.3649 27.6918 38.398 27.2547 38.2384 27.1842C38.0788 27.1136 37.782 27.4332 37.6172 27.6453C37.1066 28.3304 37.2019 29.0701 37.0883 29.0794C36.8256 29.1033 36.122 24.9354 35.2583 24.6292C34.9866 24.5326 34.7368 24.5854 34.7368 24.5854C34.7368 24.5854 34.4507 24.6579 34.1844 24.9293C33.214 25.9411 33.1237 27.5356 33.511 28.882C34.0162 30.6084 34.723 31.9263 35.3496 32.6465L38.4558 31.3099Z" fill="#1D2E59"/>
<path d="M59.3978 42.1041C59.7253 42.0546 60.0528 42.0051 60.38 41.9627C60.5794 41.4409 61.0225 40.5194 61.9496 39.6896C62.5824 39.1229 63.2256 38.8042 63.6719 38.6255C63.6343 38.1854 63.6302 37.3011 64.0548 36.3152C64.5341 35.2113 65.2902 34.5722 65.6481 34.3118C65.4982 33.8527 65.2678 32.9657 65.4705 31.8782C65.7943 30.117 66.9979 29.1082 67.3417 28.8473C67.4337 28.5188 67.5325 28.1978 67.6245 27.8693C68.0797 27.8112 68.8313 27.766 69.7129 27.9881C70.5803 28.2095 71.2074 28.5903 71.5779 28.8539C71.5393 29.0927 71.501 29.3244 71.4694 29.5635C71.6481 29.8471 72.5038 31.3199 72.0425 33.153C71.7097 34.4682 70.8762 35.2596 70.5457 35.5424C70.6722 35.8874 71.2646 37.5609 70.4196 39.2713C70.0011 40.1161 69.4057 40.6349 69.0261 40.9084C68.9175 41.4554 68.6909 42.2801 68.1376 43.1332C67.2582 44.4955 66.0763 45.1658 65.5131 45.4314C65.4644 45.7404 65.3883 46.0271 65.2926 46.2776C64.4173 48.6869 61.7785 49.683 60.8958 49.9772C61.0518 50.2952 61.2557 50.8132 61.2626 51.4713C61.2791 52.8865 60.3892 53.8382 60.1673 54.062C58.7905 54.4974 56.7759 54.9619 54.3143 54.9684C52.0012 54.9744 50.0877 54.5732 48.747 54.1757C48.5192 53.8829 47.6639 52.7284 47.8367 51.187C47.9066 50.5535 48.1333 50.054 48.3171 49.7296C48.1188 49.7351 47.2198 49.7528 46.4284 49.082C45.6168 48.3891 45.508 47.472 45.488 47.2802C45.1694 47.2876 43.7477 47.2897 42.5072 46.2104C41.2596 45.1309 41.066 43.7221 41.0304 43.4023C40.6507 43.3505 39.239 43.1196 38.1191 41.8687C36.9179 40.5366 36.8931 38.9866 36.9013 38.6333C35.2811 37.5022 34.5484 35.476 35.0054 33.5791C34.8494 33.2611 34.6931 32.9502 34.5371 32.6323C35.512 31.1892 37.2635 30.4305 38.9852 30.6889C39.0755 31.0536 39.1658 31.4182 39.249 31.7825C39.5274 31.8865 40.3884 32.2562 40.9699 33.2008C41.6503 34.3124 41.4534 35.4284 41.4001 35.6807C41.8359 35.7421 43.0219 35.9561 44.1044 36.9295C45.2205 37.9397 45.5504 39.1422 45.645 39.5706C47.0143 39.9624 48.1262 40.9087 48.7433 42.1732C50.2887 41.9289 52.1072 41.7459 54.1376 41.7348C56.1108 41.7354 57.8794 41.8898 59.3978 42.1041Z" fill="#4A8CCA"/>
<path d="M47.8203 49.425C48.6319 49.6299 49.4769 49.716 50.313 49.6815" stroke="#131B24" stroke-width="0.114471" stroke-miterlimit="10" stroke-linecap="round" stroke-linejoin="round"/>
<path d="M55.1463 50.1387C57.2372 50.2009 59.3295 50.0652 61.4188 50.0001" stroke="#131B24" stroke-width="0.114471" stroke-miterlimit="10" stroke-linecap="round" stroke-linejoin="round"/>
<path d="M51.3836 40.845C51.1885 41.268 51.4666 41.7044 51.1853 42.4844C51.1531 42.5749 51.1037 42.7355 51.1305 42.9347C51.1747 43.2195 51.4424 43.4079 51.7064 43.5183C52.1303 43.6923 52.5882 43.7333 53.0397 43.76C54.1336 43.8144 55.2321 43.763 56.314 43.6047C56.6627 43.5561 57.0049 43.4932 57.3548 43.4164C57.5761 43.3694 57.8492 43.268 57.8731 43.0427C57.886 42.9089 57.8062 42.7923 57.7334 42.676C57.509 42.3056 57.3714 41.8894 57.3336 41.4563C57.329 41.3995 57.3244 41.3427 57.3133 41.2715C57.3133 41.2715 57.2958 41.1859 57.2706 41.1141C57.2209 40.9563 57.0232 40.7851 56.9271 40.7173C56.0194 40.1192 54.54 40.1471 54.54 40.1471C52.8199 40.1787 51.6874 40.2004 51.3836 40.845Z" fill="#4A8CCA"/>
<path d="M56.6872 40.9894C56.6796 41.1659 56.066 41.2879 55.4055 41.3512C55.1072 41.3807 54.7953 41.3955 54.5335 41.3983C54.0099 41.4039 53.4534 41.3515 52.9896 41.2819C52.3153 41.1749 51.8205 41.005 51.8205 40.8423C51.8211 40.6655 52.4079 40.5071 53.0764 40.4228C53.3609 40.3856 53.6589 40.3632 53.9348 40.361C54.4302 40.3542 54.9305 40.397 55.3658 40.4725C56.1313 40.5976 56.7016 40.8203 56.6872 40.9894Z" fill="#8F1A09"/>
<path d="M66.5195 40.2986C66.7946 40.4802 67.2636 40.7552 67.9091 40.8751C68.3582 40.9582 68.748 40.9397 69.0251 40.9092" stroke="#131B24" stroke-width="0.114471" stroke-miterlimit="10" stroke-linecap="round" stroke-linejoin="round"/>
<path d="M67.9414 34.9417C68.2886 35.0911 68.7134 35.2438 69.2248 35.3579C69.722 35.4714 70.1726 35.5192 70.5468 35.5354" stroke="#131B24" stroke-width="0.114471" stroke-miterlimit="10" stroke-linecap="round" stroke-linejoin="round"/>
<path d="M67.321 28.8469C67.7259 28.8079 68.2216 28.794 68.7922 28.847C69.4331 28.9101 69.9714 29.0536 70.3898 29.192" stroke="#131B24" stroke-width="0.114471" stroke-miterlimit="10" stroke-linecap="round" stroke-linejoin="round"/>
<path d="M42.3969 41.4245C42.1618 41.6265 41.8589 41.9246 41.5797 42.3298C41.3005 42.735 41.1354 43.1168 41.0311 43.4023" stroke="#131B24" stroke-width="0.114471" stroke-miterlimit="10" stroke-linecap="round" stroke-linejoin="round"/>
<path d="M38.1585 37.2033C37.9544 37.343 37.6761 37.5644 37.4211 37.8999C37.241 38.1396 37.1179 38.3677 37.0391 38.5552" stroke="#131B24" stroke-width="0.114471" stroke-miterlimit="10" stroke-linecap="round" stroke-linejoin="round"/>
<path d="M39.8323 36.2917C40.0579 36.1459 40.3552 35.9749 40.7355 35.8499C40.9795 35.7685 41.2079 35.7218 41.4003 35.6877" stroke="#131B24" stroke-width="0.114471" stroke-miterlimit="10" stroke-linecap="round" stroke-linejoin="round"/>
<path d="M34.9216 33.6963C35.6081 33.0329 36.3965 32.4658 37.243 32.0286" stroke="#131B24" stroke-width="0.114471" stroke-miterlimit="10" stroke-linecap="round" stroke-linejoin="round"/>
<path d="M53.914 44.6256C53.6534 44.9255 53.0388 45.7264 52.8736 46.9287C52.6955 48.2648 53.1751 49.2757 53.3584 49.6161C53.116 49.8248 52.5697 50.3528 52.3341 51.2197C51.9618 52.6322 52.7397 53.7763 52.8598 53.9442" stroke="#131B24" stroke-width="0.114471" stroke-miterlimit="10" stroke-linecap="round" stroke-linejoin="round"/>
<path d="M53.9478 41.5647C53.8002 41.8695 53.6594 42.1817 53.5118 42.4865C53.8249 42.6061 54.1772 42.6355 54.5053 42.5719C54.4835 42.4225 54.4549 42.2656 54.4061 42.0867C54.3508 41.8934 54.2946 41.7212 54.2304 41.5699C54.1384 41.573 54.0395 41.5687 53.9478 41.5647Z" fill="#8F1A09"/>
<path d="M51.3672 42.8315C51.3816 42.9878 51.4744 43.1332 51.6045 43.2308C51.7276 43.3281 51.8808 43.3842 52.0343 43.4333C52.5088 43.5812 53.0011 43.6449 53.502 43.6737C54.5886 43.7349 55.6825 43.6266 56.734 43.3539" stroke="#131B24" stroke-width="0.114471" stroke-miterlimit="10" stroke-linecap="round" stroke-linejoin="round"/>
<path d="M49.1981 51.1105L50.7441 54.4451L48.1438 54.8771L49.1981 51.1105Z" fill="#B0CFF8"/>
<path d="M50.5789 54.6712C50.5277 54.8741 50.3527 54.9939 50.3312 55C50.1155 55.0826 49.8825 55.0725 49.6585 55.0204C49.3153 54.9419 48.9905 54.7651 48.7689 54.4939C48.48 54.1419 48.5118 53.733 48.5216 53.5071C48.5332 53.2389 48.532 53.1044 48.6271 53.0307C48.9199 52.8029 49.7165 53.3537 50.1628 53.8257C50.386 54.0617 50.6559 54.3634 50.5789 54.6712Z" fill="#131B24"/>
<path d="M56.447 50.4628C56.447 50.4628 53.6759 53.3699 52.9966 54.6843C55.3488 55.5712 56.6449 55.0403 56.6449 55.0403L56.447 50.4628Z" fill="#B0CFF8"/>
<path d="M55.3632 53.2871L55.2689 54.6481C54.5417 54.6166 53.8146 54.5851 53.0875 54.5536C53.3947 54.3194 53.7666 54.0597 54.2086 53.8171C54.6287 53.5878 55.0182 53.4137 55.3632 53.2871Z" fill="#131B24"/>
<path d="M60.3539 55.2847C60.28 55.6846 59.9759 56.011 59.526 56.2744C58.4079 56.9403 56.3856 57.2559 54.7175 57.3958C53.3117 57.5188 52.1586 57.5255 52.0315 57.52C47.2437 57.5107 45.412 56.0381 44.8198 55.5032C44.3096 55.0355 43.4602 54.2349 43.6015 53.2579C43.7419 52.3021 44.7553 51.766 44.9867 51.6487C44.9867 51.6487 47.7567 54.6473 54.2421 54.4896C55.4244 54.463 56.7316 54.3286 58.1723 54.0515C58.6573 53.9594 59.1572 53.8466 59.6719 53.7204C60.0096 54.0886 60.4649 54.6812 60.3539 55.2847Z" fill="#2C4987"/>
<path d="M50.1328 54.1772C50.9106 54.3453 51.8167 54.4906 52.8333 54.5346" stroke="#131B24" stroke-width="0.114471" stroke-miterlimit="10" stroke-linecap="round" stroke-linejoin="round"/>
<path d="M60.1997 61.3278C60.0919 62.8367 59.8949 64.4478 58.9046 65.5931C58.622 65.9133 58.2773 66.1955 57.863 66.2907C57.4486 66.3859 56.9661 66.2589 56.727 65.902C56.4875 65.5521 56.4831 65.0003 56.0945 64.8278C56.0043 64.7886 55.8987 64.7769 55.8078 64.7518C55.2559 64.5935 55.0222 63.9468 54.9193 63.3836C54.5445 61.4224 54.7234 59.4144 54.7252 57.4129C54.7288 56.8402 54.7109 56.2736 54.6721 55.6991C54.6484 55.4293 54.625 55.1524 54.5228 54.9005C54.4654 54.7565 54.3723 54.6181 54.2569 54.507C54.4481 54.5011 54.7106 54.4842 55.0298 54.4627C55.434 54.4377 55.8668 54.407 56.1295 54.383C56.5555 54.3449 57.2452 54.2616 58.1871 54.0689C58.557 54.5093 58.8469 55.0028 59.1293 55.5031C59.2739 55.7569 59.4112 56.0174 59.5411 56.2847C59.7032 56.6242 59.8509 56.9701 59.963 57.3215C60.3459 58.6041 60.2931 59.988 60.1997 61.3278Z" fill="#014252"/>
<path d="M49.7574 54.057C49.6309 54.0373 49.4265 54.0214 49.1984 54.0611C48.6994 54.1526 48.3612 54.4492 48.221 54.5845C44.1848 58.2856 41.8967 60.4922 41.8967 60.4922C41.1955 61.1691 40.1362 62.1134 38.6852 63.1186C38.2435 62.8661 37.8235 62.6003 37.4183 62.3211C40.8241 59.2929 44.2228 56.2645 47.6286 53.2363C47.8843 53.3747 48.168 53.5213 48.4946 53.6557C48.9532 53.8453 49.3792 53.9699 49.7574 54.057Z" fill="#014252"/>
<path d="M34.3674 56.2817C34.3674 56.2817 42.6311 49.0293 45.3283 48.156C48.0255 47.2826 50.07 52.9868 50.07 52.9868C49.8739 52.943 49.6707 52.8988 49.4746 52.8549C49.152 53.1168 48.8292 53.3857 48.5066 53.6476C44.7691 56.8241 41.0386 60.0009 37.301 63.1773L34.3674 56.2817Z" fill="#B0CFF8"/>
<path d="M34.3668 56.2818C33.1364 57.0914 35.2115 63.2354 36.8784 63.2864C37.1114 63.2965 37.3001 63.1844 37.3001 63.1844C38.0612 62.7577 37.8372 61.0717 37.7828 60.6945C37.4893 58.4893 35.9603 56.0679 34.6605 56.1955C34.5755 56.1989 34.4757 56.2158 34.3668 56.2818Z" fill="#131B24"/>
<path d="M47.6975 48.967C47.4209 48.6579 46.985 48.2713 46.3693 48.1173C45.1725 47.825 44.0625 48.6327 42.7539 49.6158C40.517 51.2942 38.849 52.5728 37.7368 53.43" stroke="#131B24" stroke-width="0.114471" stroke-miterlimit="10" stroke-linecap="round" stroke-linejoin="round"/>
<path d="M29.5466 56.4126C29.8244 56.368 30.278 56.3452 30.7793 56.5296C32.0182 56.9934 32.3772 58.3387 32.4131 58.4887C33.0306 58.1123 33.641 57.7356 34.2585 57.3592C34.6363 57.128 35.1028 57.1341 35.4749 57.3624C35.8951 57.621 36.4069 58.0534 36.752 58.7403C37.3191 59.854 37.0946 60.9547 36.8841 61.568C36.7866 61.8608 36.5988 62.1144 36.3502 62.3017C35.0846 63.2724 33.8119 64.2428 32.5463 65.2136C31.5489 62.2776 30.5514 59.3417 29.5466 56.4126Z" fill="#1D2E59"/>
<path d="M32.8763 62.9438C32.4937 61.9795 31.9147 61.3038 31.762 60.2575C31.6151 59.2397 31.4467 57.9028 30.7823 57.0748C30.4336 56.6353 29.9084 56.3509 29.3679 56.4194C29.3538 56.4188 28.7709 56.6482 28.5546 56.7449C28.5751 56.7599 28.5886 56.7747 28.6092 56.7897C28.5435 56.8364 28.492 56.8837 28.4548 56.9245C28.2164 57.2041 28.0464 57.5363 27.9602 57.8932C27.8636 58.3276 27.8932 58.7886 27.9519 59.2296C28.1471 60.7658 28.6194 62.2715 29.3378 63.6464C29.6516 64.24 30.0222 64.8289 30.579 65.1996C30.9367 65.4343 31.3839 65.5598 31.8031 65.5143L31.8197 65.6211C32.0149 65.5234 32.1236 65.4645 32.3117 65.3665C32.3623 65.3404 32.4203 65.3076 32.4642 65.2741C33.1578 64.7737 33.1886 63.7354 32.8763 62.9438Z" fill="white"/>
<path d="M30.3425 57.3104C29.94 56.805 29.2325 56.4844 28.6288 56.7058C28.3845 56.7942 28.1792 56.9622 28.015 57.1602C27.7766 57.4398 27.6066 57.7719 27.5204 58.1289C27.4238 58.5632 27.4534 59.0242 27.5121 59.4653C27.7072 61.0014 28.1796 62.5072 28.898 63.8821C29.2118 64.4756 29.5824 65.0646 30.1392 65.4352C30.6961 65.8059 31.484 65.9037 32.0315 65.5101C32.718 65.0094 32.7488 63.971 32.4365 63.1795C32.0539 62.2152 31.4749 61.5394 31.3222 60.4931C31.1682 59.4751 30.9995 58.1452 30.3425 57.3104Z" fill="#131B24"/>
<path d="M31.666 57.113C31.868 57.3481 32.121 57.7127 32.3261 58.2025C32.5371 58.7209 32.6093 59.1767 32.6379 59.4962" stroke="#B0CFF8" stroke-width="0.114471" stroke-miterlimit="10" stroke-linecap="round" stroke-linejoin="round"/>
<path d="M27.936 58.3157C28.6318 58.2539 29.3294 58.1498 30.0145 58.0097" stroke="#B0CFF8" stroke-width="0.114471" stroke-miterlimit="10" stroke-linecap="round" stroke-linejoin="round"/>
<path d="M28.5824 59.0722C29.2671 58.9392 29.9571 58.8488 30.652 58.8082" stroke="#B0CFF8" stroke-width="0.114471" stroke-miterlimit="10" stroke-linecap="round" stroke-linejoin="round"/>
<path d="M28.1079 60.5438C28.8344 60.5894 29.5673 60.4867 30.2499 60.2404" stroke="#B0CFF8" stroke-width="0.114471" stroke-miterlimit="10" stroke-linecap="round" stroke-linejoin="round"/>
<path d="M28.8102 61.4659C29.1736 61.4038 29.537 61.3417 29.9004 61.2797" stroke="#B0CFF8" stroke-width="0.114471" stroke-miterlimit="10" stroke-linecap="round" stroke-linejoin="round"/>
<path d="M29.3483 63.1088C30.2163 63.1534 31.0883 62.9436 31.8356 62.5092" stroke="#B0CFF8" stroke-width="0.114471" stroke-miterlimit="10" stroke-linecap="round" stroke-linejoin="round"/>
<path d="M29.4372 64.1383C29.9833 64.1054 30.525 64.0086 31.0415 63.84" stroke="#B0CFF8" stroke-width="0.114471" stroke-miterlimit="10" stroke-linecap="round" stroke-linejoin="round"/>
<path d="M30.5179 64.9981C31.1219 64.9323 31.7164 64.76 32.2655 64.4938" stroke="#B0CFF8" stroke-width="0.114471" stroke-miterlimit="10" stroke-linecap="round" stroke-linejoin="round"/>
<path d="M55.8044 63.6467C55.4879 61.3203 54.9908 56.9561 55.3305 53.194C55.4016 52.3696 55.592 51.2391 56.4531 50.463C57.3363 49.6667 58.7055 49.5704 59.6626 50.1706C60.7852 50.8699 61.0816 52.1911 61.4774 54.4857C61.7029 55.811 61.9156 57.7581 61.7479 60.1626C59.7598 61.3213 57.7787 62.4804 55.8044 63.6467Z" fill="#B0CFF8"/>
<path d="M55.9515 63.9993C56.6389 64.7858 59.3231 63.3956 60.5457 62.4371C60.8897 62.1691 61.3169 61.7774 61.5424 61.1435C61.6314 60.8857 61.8887 60.1683 61.6008 59.7952C60.9914 59.0049 57.8107 59.6098 56.4554 61.673C56.0758 62.2718 55.5067 63.492 55.9515 63.9993Z" fill="#131B24"/>
<path d="M61.3496 53.5327C61.5038 54.381 61.6332 55.3132 61.7095 56.3279C61.7827 57.2505 61.8019 58.1142 61.7956 58.9131" stroke="#131B24" stroke-width="0.114471" stroke-miterlimit="10" stroke-linecap="round" stroke-linejoin="round"/>
<path d="M61.5774 62.9704C61.4505 62.1445 61.3236 61.3186 61.1899 60.4853C60.8581 60.3082 60.2813 60.0711 59.5784 60.1326C58.3713 60.243 57.2981 61.1796 56.8085 62.5234C56.9201 63.377 57.0648 64.2815 57.2571 65.2305C57.426 66.0653 57.6592 67.3768 57.8604 68.1211C58.4205 67.7634 59.0597 66.7231 59.7283 65.9811C60.7456 64.8653 61.2896 63.736 61.5774 62.9704Z" fill="#1D2E59"/>
<path d="M58.1194 66.3927C58.653 65.5034 59.3358 64.9247 59.6549 63.9271C60.2107 62.1972 60.2444 61.5833 61.135 60.9429C61.3176 60.8093 61.9007 60.4102 62.6383 60.527C63.5723 60.6806 64.0371 61.5424 64.1025 61.6655C64.0053 62.1139 63.8431 62.7576 63.5832 63.5314C63.3719 64.1659 62.8228 65.9032 61.5017 67.6637C61.074 68.2322 60.6517 68.6736 60.0226 68.9929C59.596 69.2079 59.2028 69.304 58.9321 69.3489C58.7025 69.2611 58.3777 69.0844 58.1444 68.756C57.5841 67.975 57.8448 66.8546 58.1194 66.3927Z" fill="white"/>
<path d="M61.4418 61.2316C61.9553 60.8082 62.7763 60.6316 63.4117 60.9845C63.6674 61.1228 63.8706 61.3297 64.0306 61.5559C64.2571 61.8769 64.3965 62.2507 64.4371 62.6202C64.4882 63.0751 64.3839 63.5232 64.2593 63.9493C63.8271 65.437 63.0944 66.8411 62.1082 68.0573C61.6822 68.5834 61.1863 69.0924 60.5176 69.3464C59.8488 69.6003 58.9676 69.5339 58.4233 69.0364C57.7366 68.3984 57.8524 67.3567 58.3081 66.6338C58.8626 65.7525 59.5939 65.1971 59.9132 64.1925C60.2243 63.2158 60.5985 61.9235 61.4418 61.2316Z" fill="#131B24"/>
<path d="M61.6641 61.4453C62.3163 61.7352 62.9769 61.9973 63.6461 62.2243" stroke="#B0CFF8" stroke-width="0.114471" stroke-miterlimit="10" stroke-linecap="round" stroke-linejoin="round"/>
<path d="M61.25 62.0635C62.224 62.4381 63.1893 62.8477 64.132 63.2916" stroke="#B0CFF8" stroke-width="0.114471" stroke-miterlimit="10" stroke-linecap="round" stroke-linejoin="round"/>
<path d="M60.793 63.6001C61.5226 64.0631 62.3057 64.4365 63.1206 64.7264" stroke="#B0CFF8" stroke-width="0.114471" stroke-miterlimit="10" stroke-linecap="round" stroke-linejoin="round"/>
<path d="M61.1289 64.8306C61.7717 65.1767 62.4534 65.4396 63.1603 65.6116" stroke="#B0CFF8" stroke-width="0.114471" stroke-miterlimit="10" stroke-linecap="round" stroke-linejoin="round"/>
<path d="M58.6836 66.6055C59.5597 67.1173 60.4968 67.5256 61.4747 67.8085" stroke="#B0CFF8" stroke-width="0.114471" stroke-miterlimit="10" stroke-linecap="round" stroke-linejoin="round"/>
<path d="M58.4785 67.4248C59.1023 67.8833 59.8157 68.2324 60.5631 68.4487" stroke="#B0CFF8" stroke-width="0.114471" stroke-miterlimit="10" stroke-linecap="round" stroke-linejoin="round"/>
<path d="M55.4125 41.3518C55.1141 41.3813 54.8023 41.3961 54.5405 41.3989C54.0169 41.4045 53.4604 41.3521 52.9966 41.2825L53.0904 40.4237L53.1504 39.8534L55.3517 39.8144L55.3801 40.4663L55.4125 41.3518Z" fill="#CC6C4E"/>
<path d="M51.9601 38.7406C51.6117 38.4568 51.2013 38.6229 51.117 38.9375C51.0587 39.1401 51.2042 39.3727 51.2374 39.4237C51.5914 39.9058 52.3805 39.8127 52.4658 39.8022" fill="#EB9B7F"/>
<path d="M51.5117 38.7988C51.6934 38.8491 51.8653 38.9627 51.9863 39.1094" stroke="#131B24" stroke-width="0.114471" stroke-miterlimit="10" stroke-linecap="round" stroke-linejoin="round"/>
<path d="M56.2701 38.6794C56.5163 38.386 56.7713 38.3758 56.992 38.5056C57.3367 38.7115 57.1064 39.4583 56.5091 39.6941C56.3293 39.7641 56.1537 39.7353 56.049 39.7025" fill="#EB9B7F"/>
<path d="M56.2951 38.9141C56.362 38.8392 56.4289 38.7643 56.509 38.7112C56.5891 38.6581 56.6898 38.62 56.7886 38.6243" stroke="#131B24" stroke-width="0.114471" stroke-miterlimit="10" stroke-linecap="round" stroke-linejoin="round"/>
<path d="M51.4718 36.9659C51.5465 37.8532 51.827 39.3789 52.9715 40.553C53.3236 40.9148 53.8786 41.4905 54.5333 41.3987C55.195 41.3071 55.5724 40.5949 55.8492 40.0835C56.4727 38.9152 56.5108 37.7075 56.4281 36.841C56.2666 36.6501 55.5311 35.8332 54.3125 35.7168C52.629 35.559 51.554 36.8634 51.4718 36.9659Z" fill="#EB9B7F"/>
<path d="M53.8885 36.8368C53.5294 37.1254 53.1038 37.3191 52.6854 37.5061C52.2671 37.6931 51.8347 37.8795 51.4756 38.1681C51.1534 38.4229 50.899 38.7443 50.6722 39.081C50.4001 39.4865 50.1623 39.9148 49.9592 40.3586C49.842 40.6152 49.7453 40.8869 49.5799 41.1131C49.3691 41.4081 49.0693 41.6356 48.7771 41.8493C49.0291 41.5844 49.2267 41.2676 49.3546 40.9265C49.5862 40.3142 49.6018 39.6288 49.8822 39.0327C50.1 38.5753 50.378 38.1984 50.7914 37.9616C50.9074 37.8959 51.1966 37.7529 51.287 37.4597C51.3272 37.3483 51.3168 37.263 51.3198 37.1924C51.3225 36.8035 51.6328 36.4987 51.9225 36.1788C52.2564 35.8184 52.6519 35.5031 53.1181 35.3536C53.5125 35.2292 53.9714 35.249 54.3299 35.4626C54.6679 35.6611 54.5108 36.0221 54.3433 36.2978C54.235 36.5123 54.0717 36.6891 53.8885 36.8368Z" fill="#A66946"/>
<path d="M54.776 36.2813C55.2769 36.6354 55.5219 36.6955 55.816 36.9275C56.0072 37.0843 56.2068 37.3758 56.5921 37.9513C56.725 38.148 56.8242 38.3079 56.8902 38.4168C56.8598 38.3023 56.8183 38.1167 56.786 37.8819C56.7479 37.6185 56.7411 37.4485 56.7381 37.3564C56.6768 36.6465 56.1126 35.9572 55.5785 35.7148C55.5229 35.6912 55.398 35.6363 55.2218 35.6216C55.0103 35.6054 54.7602 35.6653 54.5985 35.8068C54.407 35.9824 54.6249 36.1757 54.776 36.2813Z" fill="#A66946"/>
<path d="M52.4126 37.5929C51.5345 37.9439 50.818 38.6484 50.3853 39.4926C50.092 40.0598 49.9086 40.7026 49.4919 41.1796" stroke="#734830" stroke-width="0.114471" stroke-miterlimit="10" stroke-linecap="round" stroke-linejoin="round"/>
<path d="M56.2539 37.4417C56.4176 37.7458 56.6104 38.03 56.8179 38.3007" stroke="#734830" stroke-width="0.114471" stroke-miterlimit="10" stroke-linecap="round" stroke-linejoin="round"/>
<path d="M52.411 37.1765C52.3742 37.2103 52.3223 37.2646 52.3481 37.3223C52.4061 37.4522 52.6201 37.4119 52.7272 37.3883C52.9055 37.3536 53.0844 37.3047 53.2566 37.2485C53.3425 37.224 53.5003 37.1742 53.519 37.0689C53.5629 36.8728 53.1654 36.9051 53.0589 36.9146C52.8244 36.9398 52.5875 37.0215 52.411 37.1765Z" fill="#734830"/>
<path d="M55.0992 37.158C55.0009 36.8143 56.1608 36.815 56.2373 37.1719C56.2551 37.2505 56.0645 37.2423 55.5342 37.2405C55.2794 37.2436 55.1235 37.251 55.0992 37.158Z" fill="#734830"/>
<path d="M55.1599 38.3762C55.2026 38.2083 55.2667 38.0343 55.4122 37.9416C55.4631 37.9084 55.5134 37.8894 55.5699 37.8918C55.6473 37.9022 55.7087 37.9544 55.7556 38.013C55.8358 38.1226 55.8794 38.2588 55.9092 38.3874" stroke="#131B24" stroke-width="0.114471" stroke-miterlimit="10" stroke-linecap="round" stroke-linejoin="round"/>
<path d="M52.6541 38.2681C52.6967 38.1002 52.7608 37.9261 52.9063 37.8334C52.9425 37.8138 53.0005 37.7809 53.0641 37.7837C53.2191 37.7974 53.3591 37.9945 53.4033 38.2793" stroke="#131B24" stroke-width="0.114471" stroke-miterlimit="10" stroke-linecap="round" stroke-linejoin="round"/>
<path d="M53.9102 38.6407C54.1624 38.2061 54.4214 37.9414 54.5604 37.997C54.7065 38.0528 54.683 38.4337 54.6775 38.5608" stroke="#131B24" stroke-width="0.114471" stroke-miterlimit="10" stroke-linecap="round" stroke-linejoin="round"/>
<path d="M54.1023 38.6062C54.1542 38.5519 54.199 38.4972 54.2506 38.45" stroke="#131B24" stroke-width="0.114471" stroke-miterlimit="10" stroke-linecap="round" stroke-linejoin="round"/>
<path d="M54.4629 38.459C54.4967 38.4958 54.5228 38.5465 54.5347 38.5965" stroke="#131B24" stroke-width="0.114471" stroke-miterlimit="10" stroke-linecap="round" stroke-linejoin="round"/>
<path d="M53.3868 39.1488C53.462 39.2086 53.962 39.5839 54.6041 39.4561C54.9466 39.3861 55.174 39.1979 55.2845 39.0966C55.2503 39.7246 54.9112 40.205 54.4898 40.2999C54.2541 40.3533 54.0527 40.2668 53.9763 40.2352C53.6088 40.0637 53.3795 39.6436 53.3868 39.1488Z" fill="white"/>
<path d="M53.3867 39.1626C53.7434 39.4185 54.2057 39.5234 54.64 39.4573" stroke="#131B24" stroke-width="0.114471" stroke-miterlimit="10" stroke-linecap="round" stroke-linejoin="round"/>
<path d="M54.3063 40.6103C54.4214 40.5658 54.5429 40.5357 54.6635 40.5268" stroke="#131B24" stroke-width="0.114471" stroke-miterlimit="10" stroke-linecap="round" stroke-linejoin="round"/>
<path d="M51.5029 36.239C51.4593 36.1027 51.3438 35.6663 51.5282 35.165C51.7211 34.6288 52.1216 34.3632 52.238 34.2905C52.2564 34.1923 52.2907 34.0523 52.3821 33.9006C52.5577 33.6041 52.8253 33.4672 52.9625 33.4024C53.107 33.3309 53.8427 33.002 54.4686 33.411C54.7298 33.585 54.8824 33.8179 54.9595 33.9981C55.1611 34.0776 55.5356 34.2494 55.8666 34.6103C56.3458 35.1403 56.4327 35.7452 56.4518 35.9582L51.5029 36.239Z" fill="#126C0F"/>
<path d="M51.255 35.8807C51.1839 36.0545 51.1553 36.223 51.0986 36.5529C51.0128 37.0655 51.0478 37.2368 51.142 37.347C51.1961 37.4059 51.2507 37.4507 51.2921 37.4737C51.348 37.3276 51.4495 37.1057 51.6355 36.8945C52.0455 36.41 52.5752 36.2632 53.0193 36.1339C53.2627 36.0667 53.7639 35.9257 54.4195 35.9753C54.8707 36.009 55.766 36.0761 56.3665 36.7457C56.5688 36.9737 56.6788 37.2119 56.7426 37.3702C56.7641 37.3641 56.7997 37.3585 56.8292 37.3315C56.939 37.2443 56.9556 37.0258 56.8204 36.5532C56.642 35.9372 56.5437 35.5934 56.241 35.2338C55.453 34.3226 54.1636 34.3729 53.7385 34.3898C53.4975 34.4006 53.1289 34.42 52.69 34.592C52.4887 34.6681 51.5962 35.0256 51.255 35.8807Z" fill="#126C0F"/>
<path d="M51.5981 35.3302C51.8197 35.1135 52.4589 34.5612 53.4558 34.4063C54.3247 34.2671 55.0148 34.5021 55.3064 34.6279" stroke="#131B24" stroke-width="0.114471" stroke-miterlimit="10" stroke-linecap="round" stroke-linejoin="round"/>
<path d="M51.7032 35.5117C51.6787 35.7511 51.6683 35.9911 51.6794 36.225" stroke="#131B24" stroke-width="0.114471" stroke-miterlimit="10" stroke-linecap="round" stroke-linejoin="round"/>
<path d="M52.0508 35.3286C52.0533 35.4348 52.0484 35.5478 52.0508 35.654" stroke="#131B24" stroke-width="0.114471" stroke-miterlimit="10" stroke-linecap="round" stroke-linejoin="round"/>
<path d="M55.4453 35.0015C55.4969 35.2795 55.5271 35.5637 55.5219 35.8464" stroke="#131B24" stroke-width="0.114471" stroke-miterlimit="10" stroke-linecap="round" stroke-linejoin="round"/>
<path d="M55.8262 35.3511C55.8796 35.5868 55.8904 35.8277 55.8662 36.0601" stroke="#131B24" stroke-width="0.114471" stroke-miterlimit="10" stroke-linecap="round" stroke-linejoin="round"/>
</svg>
