<svg width="219" height="54" viewBox="0 0 219 54" fill="none" xmlns="http://www.w3.org/2000/svg">
<circle cx="27" cy="27" r="25.5" fill="#223B6C" stroke="white" stroke-width="3"/>
<path fill-rule="evenodd" clip-rule="evenodd" d="M26.754 14.0094C26.5868 14.0032 26.4188 14 26.25 14C18.9322 14 13 19.9322 13 27.25C13 34.5678 18.9322 40.5 26.25 40.5C29.9738 40.5 33.3389 38.9638 35.746 36.4906C28.6618 36.2257 23 30.399 23 23.25C23 19.6561 24.4309 16.3963 26.754 14.0094ZM30.5 20L31.7154 23.2846L35 24.5L31.7154 25.7154L30.5 29L29.2846 25.7154L26 24.5L29.2846 23.2846L30.5 20ZM35.8103 18.1897L35 16L34.1897 18.1897L32 19L34.1897 19.8103L35 22L35.8103 19.8103L38 19L35.8103 18.1897Z" fill="white"/>
<circle cx="99" cy="27" r="24" fill="white"/>
<path fill-rule="evenodd" clip-rule="evenodd" d="M99.2004 13.1287C99.8631 13.1327 100.397 13.6732 100.393 14.336L100.371 17.9359C100.367 18.5986 99.8266 19.1326 99.1639 19.1286C98.5012 19.1245 97.9672 18.584 97.9712 17.9213L97.9931 14.3214C97.9972 13.6586 98.5377 13.1247 99.2004 13.1287ZM109.849 17.8486C110.317 18.3172 110.317 19.077 109.849 19.5456L107.303 22.0912C106.835 22.5598 106.075 22.5598 105.606 22.0912C105.137 21.6226 105.137 20.8628 105.606 20.3941L108.152 17.8486C108.62 17.3799 109.38 17.3799 109.849 17.8486ZM105 27C105 30.3137 102.314 33 99 33C95.6863 33 93 30.3137 93 27C93 23.6863 95.6863 21 99 21C102.314 21 105 23.6863 105 27ZM109.849 35.6971C110.317 36.1657 110.317 36.9255 109.849 37.3941C109.38 37.8628 108.62 37.8628 108.152 37.3941L105.606 34.8486C105.137 34.3799 105.137 33.6201 105.606 33.1515C106.075 32.6829 106.835 32.6829 107.303 33.1515L109.849 35.6971ZM98.6069 36.336C98.6029 35.6732 99.1369 35.1327 99.7996 35.1287C100.462 35.1247 101.003 35.6586 101.007 36.3214L101.029 39.9213C101.033 40.584 100.499 41.1245 99.8361 41.1286C99.1734 41.1326 98.6328 40.5986 98.6288 39.9359L98.6069 36.336ZM88.7153 17.1653C89.1789 16.6917 89.9386 16.6835 90.4123 17.1471L92.985 19.6653C93.4586 20.1288 93.4668 20.8886 93.0032 21.3622C92.5396 21.8358 91.7799 21.844 91.3062 21.3804L88.7335 18.8623C88.2599 18.3987 88.2517 17.6389 88.7153 17.1653ZM86.3445 25.6985C85.6818 25.6985 85.1445 26.2357 85.1445 26.8985C85.1445 27.5612 85.6818 28.0985 86.3445 28.0985H89.9445C90.6073 28.0985 91.1445 27.5612 91.1445 26.8985C91.1445 26.2357 90.6073 25.6985 89.9445 25.6985H86.3445ZM113.145 26.8985C113.145 26.2357 112.607 25.6985 111.945 25.6985H108.345C107.682 25.6985 107.145 26.2357 107.145 26.8985C107.145 27.5612 107.682 28.0985 108.345 28.0985H111.945C112.607 28.0985 113.145 27.5612 113.145 26.8985ZM91.6248 33.1471C92.0985 32.6835 92.8582 32.6917 93.3218 33.1653C93.7854 33.6389 93.7772 34.3987 93.3036 34.8623L90.7309 37.3804C90.2572 37.844 89.4975 37.8358 89.0339 37.3622C88.5703 36.8886 88.5785 36.1288 89.0521 35.6653L91.6248 33.1471Z" fill="#763D4D"/>
<line x1="147.5" y1="10.5" x2="147.5" y2="43.5" stroke="white" stroke-linecap="round"/>
<circle cx="195" cy="27" r="24" fill="white"/>
<path fill-rule="evenodd" clip-rule="evenodd" d="M199.5 13C200.052 13 200.5 13.4477 200.5 14V15.2794C209 20.0577 208.99 21.5849 208.5 26.0001C205.949 21.264 202.376 20.3161 200.5 20.4365V32.1941C200.534 32.3033 200.565 32.4144 200.591 32.5274C201.293 35.589 198.483 38.8463 194.314 39.8029C190.146 40.7594 186.197 39.0529 185.494 35.9913C184.792 32.9297 187.602 29.6723 191.77 28.7158C194.33 28.1285 196.806 28.5451 198.5 29.6628V14C198.5 13.4477 198.947 13 199.5 13ZM185.205 25.6164C185.546 25.5029 185.73 25.1348 185.616 24.7942C185.503 24.4537 185.135 24.2696 184.794 24.3831C183.127 24.9389 181.994 26.0586 181.418 27.2091C181.258 27.5302 181.388 27.9206 181.709 28.0812C182.03 28.2417 182.421 28.1116 182.581 27.7905C183.006 26.941 183.873 26.0606 185.205 25.6164ZM200.603 39.9819C200.444 39.6601 200.576 39.2703 200.898 39.1112C202.157 38.4888 202.895 37.4981 203.2 36.5984C203.315 36.2584 203.684 36.076 204.024 36.1911C204.364 36.3062 204.546 36.6752 204.431 37.0152C204.019 38.2336 203.05 39.4978 201.474 40.2766C201.152 40.4357 200.762 40.3037 200.603 39.9819ZM184.13 31.6577C184.583 29.848 186.389 27.6501 189 27.6501C189.359 27.6501 189.65 27.3591 189.65 27.0001C189.65 26.6411 189.359 26.3501 189 26.3501C185.61 26.3501 183.417 29.1522 182.869 31.3424C182.782 31.6907 182.994 32.0436 183.342 32.1307C183.69 32.2178 184.043 32.006 184.13 31.6577Z" fill="#223B6C"/>
</svg>
