<svg width="64" height="68" viewBox="0 0 64 68" fill="none" xmlns="http://www.w3.org/2000/svg">
<path d="M14.2587 64.8056C8.66088 64.9949 3.97071 60.6107 3.78138 55.0126C3.59207 49.4152 7.97529 44.7235 13.5731 44.5342C19.171 44.3448 23.8622 48.7297 24.0515 54.3271C24.2409 59.9251 19.8566 64.6163 14.2587 64.8056ZM13.5059 42.5466C6.81015 42.773 1.56569 48.3846 1.79213 55.0799C2.01859 61.7759 7.63025 67.0215 14.326 66.795C21.0218 66.5686 26.2672 60.9558 26.0408 54.2598C25.8143 47.5645 20.2017 42.3201 13.5059 42.5466" fill="#231F20"/>
<path d="M13.4547 56.0274C12.8464 58.7638 12.1425 61.4783 11.3442 64.1657C11.2943 64.3333 11.558 64.3947 11.6074 64.2283C12.4057 61.5415 13.1096 58.8271 13.7179 56.0906C13.7558 55.9203 13.4925 55.8571 13.4547 56.0274" fill="white"/>
<path d="M16.047 44.9848C15.2513 47.5993 14.5581 50.243 13.969 52.9117C13.9314 53.0819 14.1946 53.1452 14.2322 52.9749C14.8213 50.3063 15.5144 47.6619 16.3102 45.048C16.3612 44.881 16.0975 44.819 16.047 44.9848" fill="white"/>
<path d="M10.4111 45.3993C11.1386 47.6471 11.9128 49.8791 12.7334 52.0942C12.7937 52.2568 13.0525 52.1778 12.9917 52.0133C12.1711 49.7982 11.3969 47.5662 10.6695 45.3184C10.6159 45.153 10.3573 45.2327 10.4111 45.3993" fill="white"/>
<path d="M14.5277 56.2007C15.3959 58.59 16.3473 60.9486 17.3802 63.2719C17.4502 63.4286 17.7095 63.3502 17.6386 63.191C16.6056 60.8677 15.6542 58.5097 14.7861 56.1198C14.7268 55.9565 14.468 56.0362 14.5277 56.2007Z" fill="white"/>
<path d="M7.3287 61.3875C9.05293 59.6711 10.7455 57.9238 12.4054 56.146C12.5246 56.018 12.3269 55.8335 12.2077 55.9609C10.5478 57.7392 8.85523 59.4866 7.13098 61.2023C7.00709 61.3256 7.20517 61.5101 7.3287 61.3875" fill="white"/>
<path d="M15.3204 53.7004C17.3103 51.869 19.249 49.9819 21.1344 48.043C21.2562 47.9179 21.0583 47.7334 20.9367 47.8584C19.0513 49.7974 17.1126 51.6838 15.1227 53.5159C14.9941 53.6343 15.1928 53.8182 15.3204 53.7004" fill="white"/>
<path d="M4.70087 51.2146C6.99143 52.3091 9.31808 53.3253 11.6772 54.2626C11.8377 54.3263 11.9677 54.0887 11.8059 54.0245C9.44671 53.0871 7.12 52.0709 4.82951 50.9764C4.67227 50.9016 4.54337 51.1391 4.70087 51.2146Z" fill="white"/>
<path d="M15.3266 55.3976C17.8747 56.3187 20.4257 57.2323 22.9795 58.1378C23.1442 58.1964 23.205 57.9321 23.0425 57.8747C20.4888 56.9692 17.9378 56.0556 15.3896 55.1345C15.2253 55.0747 15.1646 55.3389 15.3266 55.3976" fill="white"/>
<path d="M4.60836 57.3195C6.9203 56.5659 9.24528 55.8532 11.5823 55.182C11.75 55.1337 11.6694 54.8755 11.5016 54.9238C9.16456 55.595 6.83958 56.3077 4.52768 57.0607C4.36211 57.115 4.44209 57.3733 4.60836 57.3195" fill="white"/>
<path d="M15.6185 54.6057C18.1801 54.0299 20.7416 53.4535 23.3032 52.8771C23.4733 52.8387 23.3918 52.5805 23.2225 52.6189C20.6609 53.1953 18.0993 53.7711 15.5377 54.3475C15.3676 54.386 15.4491 54.6441 15.6185 54.6057" fill="white"/>
<path d="M15.0482 54.6323C15.0707 55.2971 14.5502 55.8538 13.8856 55.8763C13.2209 55.8988 12.6639 55.3785 12.6414 54.7137C12.619 54.0495 13.1395 53.4922 13.8042 53.4697C14.4688 53.4472 15.0258 53.9681 15.0482 54.6323Z" fill="#646C81"/>
<path d="M51.7953 63.5361C46.1973 63.7254 41.5067 59.3412 41.3174 53.7431C41.1281 48.1457 45.5117 43.454 51.1097 43.2646C56.7071 43.0753 61.3983 47.4602 61.5876 53.0576C61.7769 58.6556 57.3927 63.3468 51.7953 63.5361ZM51.0425 41.277C44.3465 41.5035 39.1021 47.1151 39.3286 53.8104C39.555 60.5063 45.1666 65.752 51.8626 65.5255C58.5579 65.2991 63.8035 59.6862 63.577 52.9903C63.3506 46.295 57.7378 41.0506 51.0425 41.277Z" fill="#231F20"/>
<path d="M50.8845 43.5526C50.8794 45.4434 51.0185 47.3311 51.0103 49.222C51.01 49.3966 51.2805 49.3868 51.2808 49.2128C51.289 47.322 51.1499 45.4342 51.155 43.5435C51.1553 43.3689 50.8848 43.3787 50.8845 43.5526Z" fill="white"/>
<path d="M51.5186 54.9919C51.6998 57.6523 51.8805 60.3134 52.0618 62.9745C52.0732 63.148 52.3437 63.1395 52.3323 62.9653C52.151 60.3043 51.9703 57.6432 51.789 54.9828C51.777 54.8086 51.5065 54.8177 51.5186 54.9919" fill="white"/>
<path d="M47.0188 61.932C48.1087 59.6313 49.2738 57.367 50.5124 55.1428C50.5979 54.99 50.3592 54.8617 50.2743 55.0139C49.0356 57.2387 47.8705 59.5031 46.7807 61.8037C46.7058 61.9611 46.944 62.0899 47.0188 61.932" fill="white"/>
<path d="M52.4342 51.7152C53.6686 49.4405 54.9786 47.2095 56.3628 45.0229C56.4565 44.8754 56.2172 44.7478 56.1247 44.8946C54.7405 47.0812 53.4305 49.3122 52.196 51.5863C52.1124 51.7403 52.3505 51.8685 52.4342 51.7152Z" fill="white"/>
<path d="M43.1652 58.3155C45.3934 56.9164 47.6209 55.5167 49.8491 54.1176C49.9971 54.025 49.853 53.7955 49.705 53.8887C47.4768 55.2878 45.2487 56.6875 43.0205 58.0866C42.8731 58.1792 43.0172 58.4087 43.1652 58.3155Z" fill="white"/>
<path d="M53.2712 52.7875C55.4969 51.4976 57.722 50.2085 59.9477 48.9186C60.0983 48.8309 59.9542 48.602 59.803 48.6897C57.5779 49.9795 55.3522 51.2688 53.1271 52.5586C52.9758 52.6457 53.1205 52.8746 53.2712 52.7875Z" fill="white"/>
<path d="M43.6433 47.3907C45.652 49.0598 47.6964 50.6869 49.6285 52.4456C49.7577 52.5633 49.9429 52.3658 49.8137 52.2481C47.8809 50.4895 45.8372 48.8617 43.8278 47.1926C43.6945 47.0818 43.5087 47.2787 43.6433 47.3907" fill="white"/>
<path d="M52.5815 54.6161C54.4845 56.2967 56.4232 57.9373 58.3957 59.5367C58.5307 59.6456 58.7159 59.4488 58.5802 59.3386C56.6078 57.7399 54.6697 56.0993 52.7661 54.4186C52.6357 54.3034 52.4505 54.5002 52.5815 54.6161Z" fill="white"/>
<path d="M42.4156 53.2047C44.7019 53.323 46.9907 53.3695 49.2795 53.3439C49.454 53.3417 49.4448 53.0713 49.2703 53.0735C46.9815 53.099 44.6927 53.0525 42.4064 52.9343C42.2322 52.9254 42.2426 53.1958 42.4156 53.2047Z" fill="white"/>
<path d="M53.4281 53.7814C55.9749 53.9605 58.5242 54.1049 61.0749 54.2148C61.2491 54.2225 61.2387 53.9515 61.0657 53.9444C58.5151 53.8345 55.9658 53.69 53.419 53.5109C53.2446 53.4989 53.2556 53.7693 53.4281 53.7814Z" fill="white"/>
<path d="M52.5123 53.4281C52.3528 54.0737 51.7 54.4672 51.0543 54.307C50.4086 54.1475 50.0152 53.4946 50.1747 52.849C50.3348 52.2033 50.9877 51.8099 51.6334 51.97C52.2784 52.1295 52.6725 52.7824 52.5123 53.4281" fill="#646C81"/>
<path d="M46.3311 28.6191C45.9043 27.5257 45.1638 26.7871 44.0838 26.4431C44.0166 26.499 43.9397 26.5429 43.856 26.5673C43.2672 26.739 42.6618 26.8014 42.0578 26.8903C41.8381 26.923 41.6152 26.9546 41.3927 26.9578C41.2539 26.9594 41.1099 26.9514 40.9751 26.9214C40.9117 26.9075 40.8554 26.8859 40.8021 26.8606C40.6802 26.9375 40.5621 27.0211 40.4492 27.1125C39.7749 27.6571 39.3212 28.4855 39.2863 29.3521C39.2775 29.5652 39.2948 29.7842 39.3816 29.9786C39.4436 30.1178 39.5427 30.2378 39.6636 30.3299C39.815 30.4457 40.0005 30.5159 40.1913 30.5224C40.5335 30.5343 40.8747 30.3371 41.0353 30.0343C41.0985 29.9156 41.1342 29.7843 41.1793 29.6575C41.4939 28.766 42.2238 28.1523 43.0995 27.8531C43.9831 27.5512 44.711 28.1169 45.154 28.8693C45.4066 29.298 45.5574 29.7802 45.6639 30.2664C45.7295 30.5646 45.7647 31.187 46.0022 31.406C46.2454 31.6303 46.6583 31.3462 46.8961 31.2437C46.7397 30.3583 46.662 29.4672 46.3311 28.6191" fill="#4FBEB5"/>
<path d="M47.704 41.2754C49.9364 40.5313 52.387 40.586 54.6657 41.1744C56.9438 41.7629 59.0634 42.8645 61.021 44.1707C61.1314 44.2447 61.2556 44.3225 61.3876 44.3038C61.7418 44.253 61.6488 43.7109 61.4476 43.4154C58.9246 39.7086 54.2262 37.6093 49.7818 38.2037C46.8031 38.6024 44.0338 40.1974 42.094 42.4774C41.6929 42.948 39.5976 45.5022 40.0056 46.1496C40.5636 47.035 42.6161 44.5662 42.9264 44.275C44.3062 42.9793 45.8967 41.8781 47.704 41.2754Z" fill="#4FBEB5"/>
<path d="M13.863 41.8011C16.2161 41.806 18.5223 42.6385 20.4948 43.9214C22.4674 45.2049 24.1259 46.924 25.5656 48.785C25.6471 48.8908 25.7398 49.0042 25.8708 49.0281C26.2226 49.0921 26.3072 48.5489 26.2105 48.2049C24.9987 43.8875 21.213 40.4022 16.8105 39.5506C13.8601 38.9805 10.7271 39.6114 8.16212 41.1544C7.63214 41.4734 4.83305 43.2273 5.01371 43.9712C5.2606 44.988 7.99244 43.3012 8.37924 43.124C10.0998 42.3349 11.958 41.7971 13.863 41.8011" fill="#4FBEB5"/>
<path d="M45.2704 26.7835C45.1499 26.8154 45.0341 26.8563 44.9144 26.8906C44.8643 26.9052 44.8098 26.9181 44.7551 26.9249L45.7427 30.7356L46.6106 30.6292L45.5914 26.6814C45.4853 26.7189 45.3792 26.7539 45.2704 26.7835Z" fill="#4FBEB5"/>
<path d="M51.8961 53.6202L51.125 53.8005L45.8764 31.3296L46.6482 31.1499L51.8961 53.6202" fill="#4FBEB5"/>
<path d="M48.0464 39.5415L20.4277 40.4756L20.4019 39.7134L48.0206 38.7794L48.0464 39.5415Z" fill="#4FBEB5"/>
<path d="M35.4835 53.0343L34.753 52.6828L41.2571 39.1571L41.9876 39.5086L35.4835 53.0343Z" fill="#4FBEB5"/>
<path d="M14.3948 54.464L13.6643 54.1124L20.5185 39.8582L21.249 40.2097L14.3948 54.464Z" fill="#4FBEB5"/>
<path d="M34.0319 54.3023L33.439 54.8275L16.9502 36.2089L17.5433 35.6836L34.0319 54.3023Z" fill="#4FBEB5"/>
<path d="M36.6258 53.9015C36.6666 55.1066 35.7224 56.1169 34.5173 56.1576C33.3121 56.1984 32.3019 55.2543 32.2612 54.0491C32.2204 52.844 33.1645 51.8337 34.3697 51.793C35.5748 51.7522 36.5851 52.6964 36.6258 53.9015Z" fill="#646C81"/>
<path d="M34.7812 54.3908L14.402 55.0801L14.3731 54.2274L34.7523 53.5381L34.7812 54.3908Z" fill="#4FBEB5"/>
<path d="M14.2364 53.5641C20.4041 52.9564 26.5796 52.4298 32.761 51.9839C32.9899 51.9675 32.9784 51.6114 32.7489 51.6278C26.5676 52.0737 20.3921 52.6003 14.2244 53.2079C13.9968 53.2304 14.0075 53.5866 14.2364 53.5641Z" fill="#231F20"/>
<path d="M14.7002 56.3466C20.8095 56.4398 26.9189 56.5329 33.0282 56.6261C33.2584 56.6294 33.2451 56.2733 33.0162 56.2699C26.9068 56.1768 20.7975 56.0836 14.6881 55.9905C14.4581 55.9871 14.4712 56.3432 14.7002 56.3466" fill="#231F20"/>
<path d="M48.0125 30.0391C48.0069 30.0368 48.0007 30.0352 47.9944 30.0329C47.9565 30.0416 47.9179 30.0485 47.8784 30.0498C47.6517 30.0575 48.1584 29.9028 48.0356 29.7546L45.6247 30.2185L45.9455 31.6246L48.344 31.0851C48.2317 30.7373 48.12 30.3889 48.0125 30.0391" fill="#4FBEB5"/>
<path d="M48.1303 28.3279C47.7568 27.3708 47.1409 26.6866 46.2698 26.2991C46.2568 26.3174 46.2368 26.3459 46.2255 26.3592C46.2225 26.3624 46.2196 26.3662 46.216 26.3694C46.2142 26.3713 46.2124 26.3726 46.2106 26.3739C46.1987 26.3854 46.0865 26.4786 46.0732 26.4877C46.0702 26.4897 46.0672 26.4922 46.0635 26.4942C46.0617 26.4949 46.0599 26.4962 46.0581 26.4969C46.0429 26.5054 45.9093 26.5667 45.8941 26.5727C45.8594 26.5862 45.8157 26.589 45.7826 26.5944C45.7586 26.5983 45.7079 26.6111 45.6727 26.6117C45.6684 26.6118 45.6635 26.6114 45.6591 26.6109C45.627 26.6089 45.5051 26.597 45.4729 26.5925C45.471 26.592 45.4691 26.592 45.4673 26.5915C45.4592 26.5905 45.4511 26.5883 45.4436 26.5861C45.4387 26.5851 45.4343 26.584 45.4299 26.5823C45.3725 26.5626 45.3119 26.5381 45.2556 26.5154C45.2468 26.512 45.2381 26.5086 45.2299 26.5039C45.2124 26.4959 45.1954 26.4853 45.179 26.4748C45.114 26.432 45.0501 26.3866 44.9899 26.3381C44.9734 26.3257 44.9582 26.312 44.9435 26.2983C44.9353 26.2912 44.93 26.2815 44.9223 26.2737C44.8894 26.2662 44.8576 26.2562 44.8241 26.2512C44.7067 26.244 44.5888 26.2425 44.4709 26.2409C44.2815 26.2387 44.1191 26.1782 43.9768 26.0559C43.9698 26.0494 43.9646 26.0415 43.9582 26.0349C43.9557 26.0356 43.9533 26.0363 43.9508 26.037C43.9397 26.0535 43.931 26.0716 43.918 26.0869C43.8719 26.1637 43.8092 26.225 43.7305 26.2709C43.5708 26.346 43.4468 26.4729 43.3027 26.5716C43.269 26.5949 43.2333 26.6165 43.1963 26.635C43.1096 26.678 43.0193 26.7267 42.9246 26.7521C42.7204 26.8071 42.528 26.8099 42.3213 26.7701C42.2978 26.7881 42.2718 26.8026 42.249 26.8212C41.5741 27.3659 41.121 28.1942 41.0855 29.0608C41.0767 29.2739 41.094 29.4929 41.1814 29.688C41.2434 29.8265 41.3425 29.9472 41.4628 30.0393C41.6147 30.1545 41.8003 30.2253 41.9905 30.2318C42.3327 30.2431 42.6739 30.0459 42.8345 29.7431C42.8977 29.6244 42.934 29.4936 42.9784 29.3663C43.2931 28.4748 44.023 27.8617 44.8987 27.5625C45.7823 27.2606 46.5107 27.8256 46.9532 28.5786C47.2058 29.0074 47.3566 29.489 47.4637 29.9752C47.5198 30.2317 47.5853 30.9463 47.7445 31.2197L48.7172 31.0184C48.5602 30.133 48.4612 29.1765 48.1303 28.3279" fill="#4FBEB5"/>
<path d="M28.3116 17.5412C27.2522 13.604 24.8014 11.8234 24.8014 11.8234C29.3919 16.6522 20.3629 11.9735 20.3629 11.9735C20.3629 11.9735 19.8692 12.5195 19.374 13.4627C19.6012 13.3163 19.8425 13.1964 20.0905 13.1171C20.5707 12.9633 21.0859 13.0255 21.4821 13.2933C22.3506 13.1492 23.1788 13.9009 23.8093 14.4391C24.1904 14.7642 24.6018 15.0494 24.9671 15.3942C25.4193 15.8206 25.825 16.3121 26.1128 16.8655C26.7016 17.4069 27.2408 17.9999 27.7485 18.6193C27.8445 18.7043 27.937 18.7931 28.0264 18.8838C28.2365 18.2204 28.3582 17.7142 28.3116 17.5412" fill="white"/>
<path d="M24.4731 21.1278C23.6738 20.3005 22.8334 19.5123 22.0707 18.6511C21.7014 18.2336 21.1049 17.5488 20.6435 16.7976C20.5731 16.8537 20.5039 16.9109 20.4337 16.9663C20.3656 17.0205 20.2977 17.0746 20.2301 17.1293C20.1914 17.1602 20.1527 17.1917 20.1142 17.2233C20.1055 17.2304 20.1009 17.2342 20.096 17.2381C20.091 17.2419 20.0863 17.2464 20.0776 17.2535C20.0205 17.3017 19.963 17.3493 19.9058 17.3975C19.9027 17.4001 19.9043 17.3988 19.8988 17.4033C19.8516 17.4437 19.8042 17.4842 19.757 17.524C19.6172 17.6441 19.4766 17.7636 19.3322 17.8777C19.0876 18.0716 18.8064 18.2581 18.499 18.3302C18.4803 18.3352 18.46 18.3346 18.4408 18.3377C18.4457 18.3789 18.6929 19.8466 18.6986 19.8884C19.2874 20.291 21.2846 21.0247 22.8078 21.236C24.8741 21.5226 24.8722 25.1478 25.8096 24.5548C25.832 24.5485 26.1251 23.8792 26.503 22.9559C25.7558 22.4341 25.1054 21.7819 24.4731 21.1278" fill="white"/>
<path d="M8.3193 25.0403C8.3193 25.0403 11.4413 27.2953 14.304 26.755L18.9122 12.5532C18.9122 12.5532 15.0349 12.2026 14.7686 12.1592C14.5023 12.1158 11.4395 16.4583 11.6067 16.819C11.7739 17.1797 11.9573 17.6016 11.9573 17.6016C11.9573 17.6016 8.20122 24.7883 8.3193 25.0403" fill="white"/>
<path d="M31.3959 34.5993C31.2629 35.1146 27.8994 44.2588 27.8994 44.2588L36.8844 46.0305L38.7783 32.0322C39.1863 30.3418 37.9641 28.6943 36.2275 28.5957L34.4742 28.4959L31.3959 34.5993" fill="#AA5594"/>
<path d="M28.2449 45.7145C28.2449 45.7145 28.6075 46.3617 29.8879 46.4306C29.8879 46.4306 31.1502 46.4564 31.4932 46.0938C31.4932 46.0938 32.0699 46.4216 33.1169 46.702C34.1639 46.9824 36.3098 47.2362 36.1305 49.2105C36.1305 49.2105 34.397 49.2223 31.598 49.193C28.9385 49.1651 26.8241 49.1823 27.2008 49.2103C27.2008 49.2103 26.8621 47.3071 28.2449 45.7145Z" fill="white"/>
<path d="M14.6328 41.8684C14.5665 41.8152 12.3585 41.1157 12.1824 42.4491C12.0063 43.7825 13.4954 44.7548 14.7393 45.0169C15.9832 45.2789 19.9903 44.397 19.9903 44.397L14.6328 41.8684" fill="#231F20"/>
<path d="M15.2404 35.1989C15.2404 35.1989 13.1785 39.6377 14.6547 42.4079C16.1309 45.1781 23.1809 43.8337 25.6909 43.0851L26.0164 36.0064L15.2404 35.1989" fill="#559AD9"/>
<path d="M20.2007 33.7637L19.8391 35.458L21.0503 35.8433L34.8516 34.595L36.3817 28.6044L25.4499 27.7836L20.2007 33.7637" fill="#AA5594"/>
<path d="M15.3428 34.7402L26.1453 46.5098L28.7109 40.4725L22.7075 28.9255L15.3428 34.7402" fill="#AA5594"/>
<path d="M33.842 54.4113C34.1059 54.6084 34.3768 54.7954 34.633 55.0021C34.8746 55.1968 35.2514 55.4833 35.2659 55.822C35.2755 56.0518 35.6317 56.0398 35.622 55.81C35.5898 55.0567 34.6145 54.545 34.0855 54.1508C33.9032 54.0151 33.6578 54.2738 33.842 54.4113Z" fill="#231F20"/>
<path d="M35.3384 52.8664C35.6529 53.1543 36.0145 53.3962 36.3779 53.6171C36.781 53.8619 37.2381 54.1018 37.7125 54.1573C37.9385 54.1836 38.0237 53.8372 37.7958 53.8103C37.0006 53.7182 36.1599 53.1353 35.5813 52.6059C35.412 52.4507 35.1685 52.7106 35.3384 52.8664" fill="#231F20"/>
<path d="M21.6836 41.9314C22.1464 42.1939 31.0272 57.3582 31.0272 57.3582L38.0593 52.9691L28.7105 40.4724C27.1837 39.6395 24.6274 41.1027 24.0816 42.754L23.1743 41.1945L21.6836 41.9314Z" fill="#AA5594"/>
<path d="M24.3713 21.0492C23.2579 20.1277 22.3145 19.0253 21.396 17.9159C20.6682 17.0362 19.3862 15.226 20.1376 14.1613C19.4163 13.5886 18.8367 13.3911 18.5657 13.8776C14.6628 20.8841 6.6665 44.6449 6.6665 44.6449C13.4134 47.3645 24.9329 47.7077 24.9329 47.7077L26.0413 22.5169C25.4672 22.0429 24.9299 21.5114 24.3713 21.0492" fill="#DF70A5"/>
<path d="M25.5143 3.35458C26.0732 4.454 26.6351 5.59218 26.5927 6.85689C26.5527 8.04996 25.8019 9.07524 24.6114 9.31844C24.3866 9.36367 24.4944 9.70422 24.7177 9.65842C25.9864 9.39962 26.7897 8.33925 26.93 7.08727C27.0872 5.68544 26.4321 4.37648 25.8158 3.16427C25.7117 2.95992 25.4108 3.15083 25.5143 3.35458" fill="#231F20"/>
<path d="M24.9344 9.69345C24.2088 10.46 24.4364 11.8149 25.3067 12.3598C25.5021 12.4821 25.6697 12.1668 25.4761 12.0456C24.7976 11.6214 24.6341 10.5295 25.1948 9.93693C25.3529 9.76935 25.0924 9.52649 24.9344 9.69345Z" fill="#231F20"/>
<path d="M21.3183 11.4318C21.793 10.8815 21.8469 9.90821 21.8142 9.21538C21.8034 8.98628 21.4471 8.99772 21.458 9.22743C21.4733 9.55136 21.4472 9.87547 21.3996 10.196C21.3506 10.5258 21.2825 10.9278 21.0579 11.1883C20.9081 11.3624 21.1679 11.6065 21.3183 11.4318Z" fill="#231F20"/>
<path d="M21.8691 7.45977C21.8691 7.45977 25.5125 7.07562 26.9957 5.86026C26.9957 5.86026 27.6336 7.89583 26.8109 9.78402C26.8109 9.78402 24.2224 10.1973 22.2455 9.16122C22.2455 9.16122 23.4182 9.4565 24.1304 9.38862L23.8141 7.40262C23.8141 7.40262 22.477 7.49102 21.8879 7.5202L21.8691 7.45977" fill="white"/>
<path d="M24.4732 21.1279C23.6739 20.3006 22.8335 19.5124 22.0708 18.6512C21.1546 17.6163 18.8376 14.9331 20.663 13.6765C20.7433 13.6214 20.8235 13.5866 20.9018 13.5679C20.9448 13.5183 20.9926 13.4723 21.0514 13.4407C22.0736 12.8923 23.0758 13.8127 23.8101 14.4392C24.1913 14.7643 24.6026 15.0496 24.9679 15.3944C25.2053 15.6183 25.4305 15.8599 25.6329 16.1189C25.3754 15.2276 25.0155 14.2362 24.3431 13.602C23.7456 13.0381 23.3381 12.704 22.4634 12.0501C21.6733 11.6093 21.0381 11.1922 21.0381 11.1922C15.9801 14.0113 16.9457 24.7609 16.9457 24.7609C18.8111 26.6704 24.722 25.3201 24.722 25.3201C25.2083 24.3069 25.5917 23.373 25.9053 22.4976C25.399 22.0737 24.9311 21.6016 24.4732 21.1279" fill="#DF70A5"/>
<path d="M22.6595 13.7649C22.8058 13.7834 22.9362 13.8481 23.0526 13.9434C23.1854 14.0518 23.3182 14.1602 23.4438 14.2769C23.458 14.29 23.4685 14.3056 23.4812 14.3194C23.5367 14.3706 23.5934 14.4199 23.6467 14.4729C23.6998 14.5254 23.7473 14.5843 23.7981 14.6399C23.8381 14.3474 23.7534 13.8778 23.5866 13.6404C22.9299 12.7065 21.8242 12.1049 20.6836 12.0596C19.5429 12.0149 18.3932 12.5281 17.665 13.407C17.9096 13.482 18.1542 13.5577 18.3987 13.6327C18.4727 13.6554 17.8072 14.7475 17.8847 14.748C17.9923 14.7493 18.4699 14.1626 18.5524 14.0938C19.5531 13.255 20.7353 12.9917 21.6409 13.1844C22.1287 13.2881 22.42 13.4967 22.6595 13.7649Z" fill="white"/>
<path d="M21.4359 18.2918C21.6614 18.4427 21.887 18.593 22.1126 18.7439C20.1732 20.6674 17.9124 22.265 15.4532 23.4541C15.1867 23.5828 14.303 24.1629 14.1074 23.6859C13.9838 23.3848 14.5982 22.6509 14.8311 22.4691C15.1305 22.2357 15.529 22.1439 15.868 21.9831C16.4793 21.6941 17.0638 21.332 17.6402 20.9794C18.0088 20.7536 21.3465 18.2326 21.4359 18.2918" fill="white"/>
<path d="M37.2756 57.5958L38.0544 58.5539L41.5683 56.1589L40.732 55.1411L37.2756 57.5958Z" fill="white"/>
<path d="M34.8742 55.3286C34.8742 55.3286 35.5461 55.642 36.6262 54.9516C36.6262 54.9516 37.6667 54.2355 37.7332 53.741C37.7332 53.741 38.3933 53.6705 39.4068 53.2878C40.4202 52.905 42.3118 51.859 43.3183 53.5663C43.3183 53.5663 41.9142 54.584 39.6267 56.1973C37.5108 57.6888 36.2222 58.4726 36.2222 58.4726C36.2222 58.4726 34.68 57.4287 34.8742 55.3286" fill="white"/>
<path d="M31.4576 35.0706C32.7703 34.5086 33.9819 33.7657 35.0799 32.8539C35.2569 32.7067 34.994 32.4651 34.82 32.6104C33.7724 33.4804 32.603 34.1942 31.3517 34.7306C31.1425 34.8197 31.246 35.1616 31.4576 35.0706" fill="white"/>
<path d="M29.0288 41.3644C29.9325 42.57 30.8422 43.7704 31.758 44.9663C31.8967 45.1473 32.1994 44.9588 32.0593 44.776C31.1436 43.5801 30.2339 42.3796 29.3302 41.1741C29.1939 40.9918 28.8906 41.1797 29.0288 41.3644Z" fill="white"/>
<path d="M12.1033 17.61C12.9958 18.1824 13.9807 18.5828 15.0193 18.7968C15.2444 18.8429 15.3275 18.4965 15.1024 18.4498C14.0914 18.2416 13.1414 17.8537 12.2727 17.2964C12.0787 17.1716 11.9113 17.4869 12.1033 17.61" fill="#231F20"/>
<path d="M16.8928 13.413C16.3304 14.2148 15.768 15.0172 15.2056 15.8196C15.065 16.0199 14.9244 16.2202 14.7838 16.4211C14.6354 16.6327 14.4682 17.011 14.1582 16.9153C13.7015 16.7747 13.2624 16.586 12.8365 16.3703C12.6313 16.2663 12.4621 16.5804 12.6671 16.6839C13.1556 16.9314 13.6604 17.1345 14.1836 17.2957C14.6598 17.4424 14.8715 16.9128 15.0975 16.5906C15.8004 15.5879 16.5034 14.5846 17.2064 13.5819C17.3385 13.3936 17.023 13.2272 16.8928 13.413" fill="#231F20"/>
<path d="M14.4073 14.218C14.2429 14.4636 14.0786 14.7099 13.9142 14.9556C13.7862 15.1476 14.1015 15.3147 14.2281 15.1252C14.3924 14.8795 14.5568 14.6333 14.7212 14.3876C14.8493 14.1956 14.5339 14.0285 14.4073 14.218Z" fill="#231F20"/>
<path d="M8.71387 24.7971C9.87231 25.3889 11.0924 25.8498 12.3532 26.1705C12.5765 26.2271 12.6586 25.8807 12.4363 25.8241C11.2042 25.5104 10.0153 25.0621 8.88325 24.4836C8.67844 24.3789 8.50924 24.6924 8.71387 24.7971" fill="#231F20"/>
<path d="M12.5842 26.0234C13.3406 23.7538 14.1449 21.5004 14.9968 19.2652C15.0786 19.0503 14.7306 18.9707 14.6501 19.1819C13.7982 21.4172 12.9939 23.6705 12.2375 25.9401C12.1647 26.1585 12.5123 26.2393 12.5842 26.0234Z" fill="#231F20"/>
<path d="M20.8458 37.829C20.4769 40.1058 20.1081 42.3827 19.7392 44.6596C19.7026 44.8854 20.0492 44.9692 20.0859 44.7422C20.4548 42.4654 20.8236 40.1885 21.1924 37.9116C21.229 37.6859 20.8825 37.602 20.8458 37.829Z" fill="#231F20"/>
<path d="M19.7243 44.4755C17.26 44.0999 14.8386 43.4872 12.4922 42.6456C12.2756 42.5678 12.1954 42.916 12.4091 42.9927C14.7555 43.8336 17.1769 44.4469 19.6412 44.8225C19.8671 44.8568 19.9513 44.5103 19.7243 44.4755" fill="#231F20"/>
<path d="M20.4542 39.8867C17.8177 39.5959 15.2155 39.0542 12.6819 38.2689C12.7204 38.3552 12.7588 38.4408 12.7972 38.5271C13.1834 37.6635 13.4114 36.7564 13.4827 35.8139C13.5 35.5845 13.1436 35.599 13.1265 35.826C13.0602 36.7023 12.8423 37.5553 12.4836 38.3576C12.4346 38.4672 12.4836 38.5797 12.5989 38.6159C15.1324 39.4012 17.7346 39.9429 20.3711 40.2337C20.5968 40.2588 20.6819 39.9123 20.4542 39.8867" fill="#231F20"/>
<path d="M20.9685 37.3796C18.6964 37.2042 16.4607 36.6667 14.3571 35.791C14.1465 35.7031 13.9757 36.0161 14.1877 36.1045C16.3538 37.0065 18.641 37.5552 20.9805 37.7357C21.2095 37.7533 21.195 37.3966 20.9685 37.3796" fill="#231F20"/>
<path d="M12.6879 42.6765C13.0503 41.4534 13.4128 40.231 13.7752 39.0079C13.8407 38.7873 13.4935 38.7059 13.4285 38.9252C13.0661 40.1477 12.7036 41.3702 12.3412 42.5933C12.2757 42.8145 12.6229 42.8952 12.6879 42.6765" fill="#231F20"/>
<path d="M13.0506 27.7318C14.803 28.5559 16.7138 28.8885 18.619 29.143C20.7346 29.4261 22.8589 29.6466 24.9865 29.8165C25.2155 29.8346 25.2009 29.478 24.9745 29.4603C22.9148 29.2956 20.8599 29.0795 18.8112 28.8108C16.9034 28.5607 14.9752 28.2435 13.22 27.4177C13.0125 27.3205 12.8426 27.6334 13.0506 27.7318" fill="#231F20"/>
<path d="M21.8244 7.51322L22.0873 6.50198C24.2551 6.29666 26.418 5.38893 27.136 4.68736C27.136 4.68736 27.4289 0.985707 22.1715 1.34548C22.1715 1.34548 18.5363 1.44807 17.4368 6.65679C17.3641 7.00097 14.7479 10.4919 14.7479 10.4919C14.7479 10.4919 18.9119 12.5532 21.2914 11.1866C21.2914 11.1866 21.7785 9.65272 21.6361 9.22205C21.4936 8.79138 20.5216 7.81326 20.8056 7.1492C21.0896 6.48575 21.8244 7.51322 21.8244 7.51322" fill="#231F20"/>
<path d="M23.8901 20.4278C23.2195 19.7665 22.5481 19.1057 21.9207 18.4028C21.3002 17.7076 20.6584 16.9404 20.2928 16.0744C19.9788 15.3306 20.0201 14.3855 20.7264 13.8786C21.0367 13.6559 21.4715 13.6683 21.8357 13.6875C22.3555 13.7155 22.7494 14.0217 23.1553 14.3146C24.5718 15.3363 25.7755 16.6131 26.9648 17.8824C28.1779 19.1775 29.4394 20.4005 30.7558 21.5897C31.1993 21.9898 31.6422 22.3912 32.0761 22.8015C32.2431 22.9593 32.4865 22.6988 32.3196 22.541C31.0331 21.3249 29.677 20.1853 28.4387 18.9182C27.2227 17.6751 26.0843 16.3566 24.7929 15.1888C24.1486 14.6067 23.4616 14.0723 22.7351 13.596C22.1773 13.2306 21.2659 13.2232 20.6724 13.4974C20.0869 13.7682 19.7918 14.4604 19.7416 15.0654C19.6739 15.8813 20.1514 16.675 20.5981 17.315C21.4673 18.5612 22.5694 19.6262 23.6467 20.6877C23.8107 20.8494 24.0536 20.5889 23.8901 20.4278" fill="#231F20"/>
<path d="M30.3702 25.7022C30.7757 26.0394 31.4696 26.0388 31.9748 26.1111C32.6188 26.2041 33.2649 26.284 33.9109 26.3609C35.3514 26.5323 36.7943 26.6822 38.2383 26.8276C38.8467 26.8885 39.4551 26.9487 40.0641 27.0083C40.795 27.0798 41.5218 27.1595 42.255 27.06C42.6412 27.0075 43.0105 26.8938 43.36 26.7223C43.8212 26.4963 44.1505 26.1663 44.7044 26.2925C45.0904 26.3812 45.3272 26.7236 45.6921 26.8451C45.994 26.9453 46.305 26.6387 46.3793 26.3722C46.5684 25.6897 46.064 25.1461 45.6153 24.7023C45.1698 24.261 44.5345 23.7513 43.8764 23.7705C43.5245 23.7806 43.1842 24.0049 42.883 24.1637C42.5516 24.3396 42.2243 24.529 41.8749 24.6672C41.5145 24.8096 41.119 24.7132 40.7517 24.6509C40.4682 24.6026 40.1858 24.5504 39.9039 24.497C37.3641 24.0154 34.7892 23.4407 32.3522 22.5682C32.1355 22.4911 32.0547 22.8386 32.2689 22.9152C33.6226 23.3993 35.0215 23.7622 36.4172 24.1024C37.8477 24.4506 39.2887 24.764 40.7404 25.0097C41.0804 25.0673 41.4608 25.1525 41.8019 25.0614C42.1821 24.9603 42.5298 24.7537 42.8752 24.5705C43.3127 24.3386 43.7767 23.996 44.2874 24.1946C44.693 24.3523 45.0614 24.6662 45.3718 24.9622C45.6861 25.2619 46.0404 25.6157 46.0687 26.0712C46.0781 26.222 46.0142 26.3747 45.8953 26.47C45.7656 26.5749 45.5779 26.3851 45.4916 26.3158C45.335 26.1898 45.1611 26.0809 44.973 26.0095C44.6218 25.8759 44.2743 25.8679 43.9209 25.9976C43.4969 26.1539 43.158 26.4577 42.7192 26.5965C41.6939 26.9217 40.5521 26.7013 39.5056 26.5985C38.4825 26.498 37.46 26.395 36.438 26.2871C35.3757 26.1744 34.3145 26.0567 33.2546 25.9241C32.8098 25.8682 32.3655 25.8092 31.9217 25.7447C31.5417 25.6897 30.9151 25.6924 30.613 25.4417C30.4372 25.2953 30.1931 25.5546 30.3702 25.7022" fill="#231F20"/>
<path d="M23.6466 20.6887C25.6402 22.7469 28.0107 24.4142 30.5072 25.8052C30.7084 25.9175 30.8773 25.6033 30.6767 25.4911C28.2047 24.114 25.8639 22.466 23.89 20.4288C23.7298 20.2633 23.4872 20.5244 23.6466 20.6887" fill="#231F20"/>
</svg>
