<svg width="78" height="77" viewBox="0 0 78 77" fill="none" xmlns="http://www.w3.org/2000/svg">
<path d="M71.8166 59.2363L48.0486 60.1624L48.0318 59.7304L71.7998 58.8042L71.8166 59.2363Z" fill="#6D7982"/>
<path d="M60.6037 71.3604L60.1716 71.3772L59.2455 47.6091L59.6776 47.5923L60.6037 71.3604Z" fill="#6D7982"/>
<path d="M52.0064 68.3619L51.6901 68.0678L67.8415 50.6055L68.1586 50.8995L52.0064 68.3619" fill="#6D7982"/>
<path d="M68.5083 67.7189L51.0471 51.5662L51.3396 51.2484L68.8016 67.4011L68.5083 67.7189Z" fill="#6D7982"/>
<path d="M71.0182 63.7779L48.6831 55.5961L48.8319 55.1905L71.1666 63.3714L71.0182 63.7779" fill="#6D7982"/>
<path d="M56.0368 70.7262L55.6318 70.5784L63.8126 48.2427L64.2183 48.3922L56.0368 70.7262Z" fill="#6D7982"/>
<path d="M49.2267 64.6838L49.045 64.291L70.6228 54.2831L70.8046 54.675L49.2267 64.6838" fill="#6D7982"/>
<path d="M64.7327 70.3642L54.7239 48.7866L55.1171 48.6042L65.1256 70.1827L64.7327 70.3642" fill="#6D7982"/>
<path d="M59.96 70.5117L59.9647 70.5115C59.8177 70.5129 59.6763 70.5522 59.5575 70.6131C59.4376 70.5442 59.307 70.4982 59.1588 70.4867C59.0111 70.4786 58.8698 70.5057 58.7458 70.559C58.6342 70.4812 58.5025 70.4248 58.3542 70.4003C58.211 70.3799 58.0688 70.3985 57.9408 70.4467C57.8342 70.3557 57.7096 70.2922 57.566 70.2579C57.4219 70.2289 57.2787 70.2345 57.1461 70.2743C57.0479 70.1751 56.9277 70.1011 56.7878 70.0589C56.6428 70.017 56.4997 70.0139 56.3672 70.0407C56.2773 69.9369 56.1615 69.8548 56.0202 69.8032C55.8843 69.7523 55.74 69.7362 55.6072 69.7544C55.5248 69.646 55.4132 69.5499 55.2811 69.4902C55.1484 69.4261 55.0045 69.4014 54.8659 69.4111C54.7927 69.2928 54.6892 69.1973 54.5609 69.1244C54.4327 69.0515 54.2971 69.0179 54.1591 69.0146C54.0934 68.8916 53.9984 68.7872 53.8742 68.7046C53.7497 68.6238 53.6145 68.5814 53.4793 68.5651C53.4224 68.4418 53.3355 68.3283 53.2154 68.2378C53.0998 68.1514 52.9671 68.096 52.8326 68.071C52.7843 67.943 52.706 67.8249 52.5986 67.7252C52.4861 67.6301 52.358 67.5615 52.223 67.5322C52.1874 67.3994 52.1178 67.2723 52.0137 67.1682C51.9099 67.064 51.7897 66.9908 51.6586 66.9483C51.628 66.8154 51.5712 66.6826 51.4755 66.5703C51.3805 66.4563 51.2647 66.3751 51.137 66.3239C51.1145 66.1897 51.0652 66.0532 50.9785 65.9362C50.8925 65.8184 50.781 65.7267 50.6567 65.6675C50.6513 65.5292 50.6074 65.3916 50.5333 65.269C50.4547 65.1422 50.351 65.0424 50.2311 64.9744C50.2353 64.8401 50.2037 64.6976 50.1337 64.5662C50.0675 64.439 49.973 64.3301 49.8575 64.2524C49.8698 64.1178 49.8467 63.9759 49.7894 63.844C49.7324 63.7077 49.6455 63.5951 49.5383 63.5076C49.5588 63.3726 49.5495 63.2302 49.5002 63.0936C49.4515 62.9527 49.3736 62.8355 49.2707 62.7391C49.3041 62.6079 49.3033 62.4652 49.2674 62.3238L49.2672 62.3194C49.2276 62.1782 49.1569 62.0554 49.0623 61.9553C49.1052 61.8238 49.1169 61.6814 49.0897 61.5388C49.0617 61.3927 49.001 61.2653 48.9143 61.1561C48.9654 61.0287 48.9864 60.8894 48.9671 60.743C48.9526 60.5964 48.9003 60.4591 48.8222 60.3453C48.8819 60.2218 48.9117 60.0831 48.9059 59.9353C48.9002 59.7892 48.8557 59.6525 48.7865 59.534C48.8551 59.4136 48.8972 59.2779 48.9003 59.1306C48.9073 58.9832 48.8722 58.8461 48.8106 58.723C48.8886 58.6083 48.9404 58.4765 48.9552 58.3279C48.9711 58.1801 48.9486 58.0373 48.8958 57.9156C48.9834 57.8032 49.0433 57.6754 49.0679 57.5325C49.0923 57.3878 49.082 57.2454 49.038 57.113C49.133 57.0106 49.2023 56.8859 49.2401 56.7459C49.2733 56.6018 49.2725 56.4591 49.2413 56.3261C49.3414 56.2314 49.4185 56.1115 49.4656 55.9755C49.5119 55.8353 49.5239 55.692 49.501 55.5544C49.6055 55.4681 49.6927 55.3565 49.7523 55.2201C49.8075 55.0838 49.8276 54.9402 49.8143 54.8065C49.9278 54.7277 50.0235 54.621 50.0916 54.4885C50.1559 54.3605 50.1895 54.2164 50.1843 54.0824C50.3018 54.0077 50.4068 53.9085 50.4834 53.7843C50.557 53.6611 50.5985 53.5202 50.6068 53.3857C50.7294 53.3212 50.8387 53.2304 50.925 53.1102C51.0065 52.9893 51.0579 52.8584 51.0741 52.7184C51.2017 52.6701 51.3197 52.5842 51.4148 52.4723C51.5057 52.3606 51.5658 52.2284 51.5956 52.0922C51.7234 52.0483 51.8466 51.9743 51.949 51.8664L51.9491 51.8707C52.0501 51.763 52.1193 51.6391 52.1562 51.5035C52.2893 51.4732 52.4168 51.4068 52.5256 51.3074C52.6343 51.2079 52.7111 51.089 52.7577 50.9564C52.8917 50.9339 53.024 50.8768 53.1416 50.79C53.2588 50.6989 53.3453 50.5839 53.4013 50.4597C53.5346 50.4458 53.6713 50.3972 53.7936 50.3146C53.9163 50.2362 54.0114 50.1287 54.0753 50.005C54.2105 50.0041 54.3516 49.964 54.4783 49.8941C54.6063 49.8207 54.7052 49.7208 54.7792 49.6054C54.9172 49.6087 55.0586 49.5859 55.1903 49.5202C55.3227 49.4579 55.4318 49.368 55.5137 49.2566C55.6486 49.273 55.7904 49.2536 55.9281 49.2015C56.0643 49.1486 56.1818 49.0661 56.2687 48.9632C56.4039 48.9882 56.5464 48.9827 56.6876 48.9373C56.829 48.8981 56.9511 48.8198 57.0475 48.7251C57.1786 48.7581 57.3209 48.7664 57.4678 48.7347L57.4676 48.7304C57.6083 48.699 57.7359 48.6334 57.8409 48.5428C57.9678 48.5897 58.1115 48.6049 58.2577 48.5828C58.4042 48.5598 58.5314 48.5029 58.6456 48.4205C58.7684 48.4763 58.9073 48.5012 59.055 48.4911C59.2061 48.4809 59.338 48.4316 59.4565 48.3578C59.576 48.4224 59.7159 48.4567 59.8629 48.4553C60.0103 48.4539 60.1475 48.4174 60.27 48.3529C60.3855 48.4254 60.5215 48.4729 60.6685 48.4802C60.812 48.4919 60.954 48.4647 61.0809 48.4079C61.1924 48.4849 61.3241 48.5412 61.4685 48.5615C61.6114 48.5819 61.7538 48.5677 61.8868 48.5193C61.9892 48.6061 62.1177 48.6747 62.2611 48.7029C62.4054 48.7371 62.5478 48.7272 62.6816 48.6917C62.7752 48.7876 62.8998 48.8606 63.0394 48.9028C63.18 48.944 63.3227 48.948 63.4607 48.921C63.5508 49.0204 63.6668 49.1077 63.8019 49.1587C63.9428 49.2094 64.0825 49.2256 64.22 49.2081C64.3017 49.3166 64.4138 49.4074 64.5464 49.4715C64.6829 49.5311 64.8218 49.556 64.9604 49.5463C65.0343 49.6645 65.1373 49.7644 65.266 49.8329C65.3936 49.9059 65.5339 49.9393 65.672 49.9426C65.7374 50.0612 65.8336 50.17 65.9579 50.2517C66.0765 50.3293 66.2135 50.3759 66.3527 50.3886C66.4088 50.5111 66.4954 50.6246 66.6114 50.7144C66.7283 50.8067 66.8647 50.8612 66.9994 50.8819C67.0476 51.0098 67.1259 51.1288 67.2333 51.2276C67.3454 51.3228 67.4734 51.387 67.6089 51.4215C67.6442 51.5535 67.7135 51.6762 67.8172 51.7847C67.921 51.8889 68.0452 51.9628 68.1766 52.0053C68.2038 52.1375 68.2653 52.2649 68.3605 52.378C68.4552 52.4912 68.5717 52.5732 68.6985 52.6254C68.7167 52.7623 68.7688 52.8944 68.8563 53.013C68.943 53.1308 69.0507 53.2218 69.1741 53.2811C69.1845 53.4191 69.2281 53.5568 69.3021 53.6785C69.3804 53.8062 69.4836 53.9051 69.6034 53.9749C69.6048 54.1081 69.6357 54.2497 69.7015 54.3778L69.7017 54.3822C69.7712 54.5093 69.8673 54.6137 69.9822 54.6915C69.9707 54.8304 69.9932 54.9723 70.0507 55.1042C70.1071 55.2405 70.194 55.3539 70.3059 55.4405C70.2854 55.5754 70.2943 55.7179 70.3436 55.8544C70.388 55.9955 70.47 56.1135 70.5692 56.2048C70.5397 56.3401 70.5409 56.4837 70.5772 56.6243C70.6161 56.7655 70.6872 56.8883 70.7814 56.9893C70.7384 57.1199 70.7271 57.2632 70.7593 57.4099C70.7857 57.5508 70.8473 57.6826 70.9339 57.7883C70.8827 57.9149 70.8619 58.0585 70.8768 58.2051C70.896 58.3523 70.9481 58.4836 71.0259 58.5974C70.9662 58.7217 70.9371 58.8605 70.9429 59.0082L70.9437 59.029L70.9447 59.0549C70.9505 59.2027 70.9902 59.3396 71.0594 59.4581C70.9948 59.5774 70.9528 59.7132 70.9456 59.8606C70.9426 60.007 70.9735 60.1495 71.0354 60.2726C70.9573 60.3838 70.9061 60.5199 70.89 60.6634C70.8741 60.8111 70.8973 60.953 70.9495 61.0808C70.8634 61.1872 70.8022 61.3159 70.7781 61.4596C70.7492 61.6036 70.7633 61.7502 70.8035 61.8784C70.7126 61.9824 70.6437 62.1062 70.6058 62.2462C70.5675 62.3896 70.5694 62.5323 70.6002 62.6661C70.4998 62.7601 70.4223 62.8808 70.376 63.0202C70.3252 63.1563 70.3176 63.2994 70.3406 63.437C70.2313 63.5235 70.1444 63.6351 70.0899 63.7713C70.03 63.9078 70.009 64.048 70.0228 64.185C69.9096 64.263 69.8137 64.3706 69.7458 64.5031C69.6819 64.6319 69.6525 64.7716 69.6535 64.9091C69.5352 64.9795 69.4302 65.0788 69.3537 65.2064C69.2764 65.3315 69.238 65.4662 69.2303 65.605C69.1069 65.6669 68.9979 65.7577 68.9123 65.8779C68.8257 65.9981 68.7754 66.129 68.7581 66.2691C68.6307 66.3216 68.5119 66.4042 68.4219 66.5158C68.3266 66.6277 68.2671 66.7599 68.2375 66.8952C68.1098 66.9391 67.9872 67.0131 67.8821 67.1167C67.7832 67.2245 67.7143 67.3483 67.6758 67.4796C67.543 67.5151 67.4163 67.5806 67.3074 67.6801C67.1988 67.7752 67.1173 67.8952 67.0696 68.0269C66.9363 68.0494 66.8047 68.1064 66.6868 68.1976C66.5736 68.2842 66.4872 68.4001 66.4308 68.5234C66.2944 68.5374 66.1567 68.5861 66.0344 68.6687C65.9114 68.7471 65.8206 68.8536 65.7526 68.974C65.6185 68.9792 65.4763 69.015 65.3497 69.0892C65.2226 69.159 65.1227 69.2581 65.0489 69.3787C64.9107 69.3711 64.7687 69.3974 64.6369 69.4588C64.5054 69.5202 64.3963 69.611 64.3145 69.7232C64.1786 69.706 64.0372 69.7202 63.9002 69.7731C63.7593 69.8262 63.6464 69.9128 63.5548 70.0159C63.4196 69.9918 63.2772 69.9921 63.1357 70.0375C62.9944 70.0811 62.8769 70.1549 62.776 70.2549C62.6453 70.2158 62.5021 70.2084 62.3604 70.2442C62.2146 70.2767 62.0873 70.3414 61.9871 70.4327C61.8558 70.3851 61.7121 70.369 61.5704 70.3927C61.424 70.4105 61.2914 70.4685 61.1826 70.5498C61.0547 70.495 60.9155 70.4702 60.7681 70.4802C60.6225 70.4894 60.4848 70.538 60.3717 70.6125C60.2477 70.5473 60.1068 70.5147 59.96 70.5117V70.5117ZM59.9976 72.2404C60.1573 72.2341 60.3021 72.1861 60.4299 72.1067C60.571 72.1799 60.732 72.2169 60.9006 72.2052C61.0696 72.1951 61.2219 72.1321 61.3484 72.0371C61.4936 72.1007 61.655 72.1238 61.8228 72.1009C61.99 72.077 62.139 72.0063 62.2607 71.902C62.4106 71.9568 62.5749 71.9677 62.7375 71.9311C62.9055 71.8942 63.0489 71.8099 63.1612 71.6982C63.3105 71.7391 63.4796 71.7412 63.6423 71.6924C63.8048 71.6428 63.9391 71.551 64.0432 71.4301C64.2 71.463 64.3643 71.4514 64.522 71.389C64.6796 71.3266 64.8096 71.2272 64.9036 71.098C65.0609 71.117 65.2242 71.0933 65.3773 71.0233C65.5299 70.9473 65.6511 70.8387 65.7379 70.7055C65.893 70.7124 66.0558 70.6758 66.2044 70.5921C66.3489 70.5086 66.4656 70.3915 66.5383 70.2511C66.6979 70.2492 66.8554 70.1989 66.9949 70.1069C67.1382 70.0105 67.241 69.881 67.3055 69.74C67.4603 69.7253 67.6181 69.6681 67.7522 69.5625C67.883 69.4578 67.9815 69.3198 68.0316 69.176C68.1871 69.1474 68.3392 69.0766 68.4656 68.9643C68.5907 68.8513 68.676 68.7086 68.7177 68.5555C68.8722 68.5192 69.016 68.4357 69.1326 68.3143C69.2493 68.1929 69.3252 68.0428 69.3531 67.8903C69.5077 67.841 69.6431 67.7492 69.7503 67.6195C69.8622 67.4905 69.9252 67.3357 69.9458 67.1783C70.0903 67.1216 70.2199 67.0213 70.3186 66.8833C70.417 66.7453 70.4721 66.5874 70.4777 66.4271C70.6186 66.3567 70.7442 66.2479 70.834 66.106C70.919 65.9598 70.9606 65.7981 70.9586 65.6415C71.0944 65.5592 71.2101 65.4413 71.2867 65.2912C71.3633 65.1376 71.3918 64.9764 71.3809 64.8202C71.5076 64.7296 71.6146 64.6034 71.6825 64.4449C71.75 64.2865 71.7657 64.1267 71.7375 63.9668C71.8634 63.8667 71.9583 63.734 72.012 63.5753C72.0662 63.413 72.0733 63.2492 72.0321 63.0941C72.1486 62.9857 72.2388 62.8446 72.2803 62.6777C72.3216 62.516 72.3152 62.3518 72.2657 62.1979C72.3733 62.0812 72.4502 61.9363 72.4782 61.7699C72.5102 61.6042 72.4872 61.4363 72.4288 61.2906C72.5287 61.1664 72.5922 61.0168 72.6113 60.8473C72.6303 60.6769 72.5983 60.5146 72.5279 60.3745C72.6179 60.2455 72.6679 60.0878 72.6748 59.9188C72.6811 59.7497 72.6361 59.5914 72.557 59.456C72.6379 59.3187 72.6796 59.1569 72.673 58.9876L72.672 58.9616L72.6709 58.9323C72.6643 58.7629 72.6062 58.6094 72.519 58.4795C72.5872 58.3383 72.6156 58.1728 72.5955 58.0039C72.5761 57.8368 72.5098 57.6879 72.4099 57.562C72.4688 57.416 72.488 57.2517 72.4559 57.0833C72.4238 56.9201 72.348 56.7716 72.2407 56.6546C72.2862 56.5057 72.293 56.341 72.2475 56.1784C72.2064 56.0112 72.1185 55.8718 72.0017 55.7639C72.036 55.6111 72.033 55.4467 71.9747 55.2846L71.9748 55.2889C71.9211 55.1257 71.8202 54.992 71.6998 54.8928C71.7242 54.7404 71.7048 54.5724 71.6377 54.4192C71.5713 54.2617 71.4626 54.1353 71.3342 54.0494C71.3449 53.8897 71.3169 53.7264 71.2376 53.5771C71.1582 53.4288 71.0411 53.3122 70.9037 53.231C70.9057 53.0751 70.8653 52.9131 70.7732 52.7696C70.6853 52.625 70.5591 52.5174 70.4192 52.4501C70.4083 52.2896 70.3541 52.1316 70.2545 51.9979C70.1572 51.858 70.0235 51.7593 69.8788 51.7001C69.8545 51.5452 69.7888 51.392 69.68 51.2664C69.5712 51.1365 69.4334 51.0467 69.2848 50.9971C69.2484 50.8427 69.1734 50.6976 69.0569 50.5775C68.9383 50.4515 68.7927 50.3749 68.6394 50.3376C68.5947 50.1879 68.5076 50.0442 68.3812 49.9323C68.2562 49.8203 68.1021 49.7527 67.9494 49.7284C67.8918 49.58 67.7959 49.4444 67.6618 49.3415C67.5276 49.2385 67.3736 49.1796 67.2139 49.1685C67.1514 49.0238 67.0432 48.8939 66.9011 48.8042C66.7582 48.7103 66.6009 48.6645 66.4449 48.6619C66.3661 48.5221 66.2534 48.4045 66.103 48.3204C65.9572 48.2395 65.7953 48.206 65.6356 48.2122C65.5525 48.0822 65.4267 47.9702 65.2731 47.8975C65.1185 47.8264 64.9535 47.8061 64.7984 47.8259C64.7021 47.699 64.5732 47.601 64.4152 47.5371C64.2524 47.4785 64.0873 47.4685 63.9334 47.5005C63.8288 47.3834 63.6909 47.2892 63.5288 47.2427C63.3673 47.1936 63.198 47.195 63.048 47.2398C62.9357 47.1274 62.7889 47.0465 62.624 47.0149C62.4583 46.9772 62.2949 46.9922 62.1448 47.0465C62.0242 46.9422 61.8785 46.8743 61.7092 46.8506C61.5396 46.8269 61.3756 46.8506 61.2351 46.9167C61.1062 46.8265 60.9519 46.7633 60.7831 46.7525C60.6144 46.7418 60.4513 46.7828 60.3109 46.8575C60.1781 46.7718 60.0204 46.7269 59.8515 46.7291C59.6827 46.7271 59.5243 46.7756 59.3939 46.8638C59.2525 46.7906 59.09 46.7536 58.9229 46.7653C58.7544 46.7805 58.6004 46.8376 58.4743 46.9334C58.3299 46.8706 58.1643 46.8459 57.9958 46.8698C57.8286 46.898 57.6806 46.9686 57.5626 47.0736C57.4134 47.018 57.2487 47.008 57.0814 47.0448C56.9178 47.0814 56.774 47.1641 56.6617 47.2766C56.5083 47.2359 56.345 47.2336 56.1813 47.2824C56.0192 47.332 55.8837 47.4281 55.7807 47.5446C55.6231 47.517 55.4592 47.5269 55.3017 47.5901C55.1445 47.6517 55.0142 47.7528 54.9189 47.882C54.7633 47.8621 54.5999 47.8849 54.4463 47.961C54.2938 48.031 54.1725 48.1448 54.0874 48.2779C53.9296 48.2711 53.7667 48.3077 53.6229 48.3912C53.4754 48.4748 53.3633 48.5909 53.286 48.7332C53.131 48.7393 52.9726 48.7844 52.8286 48.8809C52.6891 48.9728 52.5863 49.1023 52.5226 49.2468C52.3637 49.2616 52.2101 49.3204 52.0752 49.4243C51.9404 49.53 51.847 49.6677 51.7958 49.8117C51.6414 49.8402 51.4883 49.9111 51.3633 50.0241C51.2378 50.1372 51.1521 50.279 51.1101 50.433C50.9565 50.4727 50.8125 50.5519 50.6956 50.6733C50.5801 50.799 50.507 50.9446 50.4745 51.1017C50.3247 51.1508 50.1854 51.2384 50.0787 51.3724C49.9706 51.5021 49.9079 51.656 49.8873 51.8135C49.7428 51.8702 49.6128 51.9704 49.5141 52.1093C49.4154 52.2473 49.3613 52.4043 49.3533 52.5647C49.2147 52.635 49.0882 52.743 49.0033 52.89C48.9133 53.0371 48.8724 53.1945 48.8786 53.3535C48.7438 53.4323 48.6268 53.5546 48.5498 53.7047C48.4695 53.855 48.4449 54.0204 48.4556 54.1758C48.33 54.2663 48.2221 54.3926 48.1541 54.551C48.0922 54.7049 48.077 54.8699 48.1004 55.0282C47.9784 55.1247 47.88 55.2627 47.825 55.4206C47.7704 55.5829 47.7691 55.7474 47.8052 55.9018C47.6927 56.01 47.6073 56.1518 47.5618 56.318C47.5197 56.4798 47.5308 56.6438 47.5757 56.7978C47.4717 56.9144 47.396 57.0601 47.3682 57.2257C47.3355 57.3914 47.3541 57.5594 47.4167 57.705C47.3178 57.83 47.2546 57.9796 47.2348 58.1483C47.2198 58.3185 47.2525 58.4808 47.3178 58.621C47.2322 58.7499 47.1782 58.9086 47.1713 59.0777C47.169 59.2457 47.2097 59.4051 47.2939 59.5437C47.2126 59.6767 47.1708 59.8384 47.1774 60.0078C47.184 60.1755 47.2382 60.3343 47.3298 60.4649C47.2609 60.6052 47.2283 60.7675 47.2484 60.9354C47.2682 61.1034 47.3343 61.2567 47.434 61.3783C47.3746 61.5268 47.3555 61.6886 47.3874 61.8552C47.4202 62.0236 47.4952 62.1678 47.6035 62.2847C47.5575 62.438 47.5506 62.6027 47.5922 62.7655C47.6374 62.9282 47.7253 63.0667 47.8421 63.1755C47.8043 63.3328 47.8107 63.497 47.8645 63.655C47.9189 63.8173 48.0198 63.9519 48.1394 64.0467C48.1161 64.2034 48.135 64.3671 48.2017 64.5255C48.268 64.6831 48.3766 64.8078 48.5062 64.8979C48.491 65.0543 48.5235 65.2175 48.603 65.3658C48.6774 65.5153 48.7953 65.6362 48.9315 65.7131C48.9296 65.8724 48.9704 66.0318 49.0584 66.1746C49.1499 66.3191 49.2709 66.4312 49.4172 66.4982C49.4233 66.6537 49.4768 66.8126 49.5775 66.9515C49.6778 67.0861 49.8074 67.1849 49.9565 67.244C49.9762 67.4033 50.0418 67.5522 50.1506 67.6822C50.2601 67.8112 50.3979 67.9019 50.5469 67.9523C50.579 68.1077 50.6535 68.2511 50.7754 68.3762C50.8927 68.4971 51.0391 68.5736 51.1913 68.6109C51.2321 68.7651 51.3194 68.9045 51.4458 69.0165C51.5754 69.1326 51.7244 69.2003 51.8768 69.2247C51.9354 69.3739 52.0316 69.5086 52.1651 69.6116C52.2993 69.7154 52.453 69.7734 52.6099 69.7846C52.6755 69.9301 52.7802 70.0602 52.922 70.149C53.0635 70.243 53.2263 70.2886 53.3816 70.292C53.456 70.4319 53.5743 70.5528 53.7198 70.6328C53.8702 70.7179 54.0313 70.7514 54.1873 70.7453C54.2748 70.8752 54.3966 70.9881 54.5501 71.0592C54.7044 71.1319 54.8691 71.1506 55.0249 71.1316C55.1201 71.2585 55.2502 71.3617 55.4074 71.4204C55.5705 71.4781 55.7349 71.489 55.8902 71.457C55.9947 71.5784 56.1321 71.6692 56.2939 71.7182C56.4561 71.769 56.6207 71.767 56.7744 71.722C56.8873 71.8336 57.0288 71.9146 57.1945 71.9523C57.3601 71.9839 57.5291 71.973 57.6734 71.9207C57.7946 72.0198 57.9448 72.091 58.1144 72.1155C58.2796 72.1394 58.4439 72.1114 58.5885 72.0486C58.7173 72.144 58.8714 72.2029 59.0401 72.2136C59.209 72.2243 59.3674 72.1879 59.5082 72.1132C59.6408 72.1937 59.7983 72.2447 59.9716 72.2414L59.9976 72.2404" fill="#16324D"/>
<path d="M61.6106 59.4165C61.6469 60.3481 60.9218 61.1319 59.9901 61.1682C59.0587 61.2045 58.2746 60.4795 58.2383 59.5479C58.202 58.6163 58.9273 57.8325 59.8587 57.7962C60.7904 57.7599 61.5743 58.4849 61.6106 59.4165Z" fill="#16324D"/>
<path d="M31.5424 60.8066L7.77508 61.7327L7.75825 61.3006L31.5255 60.3746L31.5424 60.8066Z" fill="#6D7982"/>
<path d="M20.3302 72.9287L19.8975 72.9456L18.9714 49.1775L19.4041 49.1607L20.3302 72.9287Z" fill="#6D7982"/>
<path d="M11.733 69.9303L11.4155 69.6362L27.5684 52.1738L27.8851 52.4678L11.733 69.9303Z" fill="#6D7982"/>
<path d="M28.2352 69.2873L10.7726 53.1346L11.0661 52.8168L28.5281 68.9695L28.2352 69.2873Z" fill="#6D7982"/>
<path d="M30.7442 65.3482L8.40872 57.1664L8.55753 56.7608L30.8926 64.9417L30.7442 65.3482" fill="#6D7982"/>
<path d="M15.7626 72.2946L15.3572 72.1468L23.5383 49.8111L23.9444 49.9606L15.7626 72.2946Z" fill="#6D7982"/>
<path d="M8.95226 66.2541L8.77035 65.8613L30.3487 55.8534L30.5306 56.2453L8.95226 66.2541" fill="#6D7982"/>
<path d="M24.4589 71.9325L14.4497 50.3549L14.8429 50.1726L24.8514 71.7511L24.4589 71.9325" fill="#6D7982"/>
<path d="M19.6864 72.0801L19.6905 72.0799C19.5434 72.0813 19.402 72.1206 19.2833 72.1814C19.164 72.1125 19.0331 72.0666 18.8838 72.0551C18.7368 72.047 18.5959 72.0741 18.4722 72.1274C18.3599 72.0495 18.2286 71.9932 18.0806 71.9687C17.9367 71.9483 17.7948 71.9668 17.6672 72.0151C17.5599 71.924 17.4354 71.8605 17.2921 71.8263C17.1479 71.7973 17.0044 71.8029 16.8724 71.8426C16.774 71.7435 16.6537 71.6694 16.5139 71.6273C16.3692 71.5853 16.2264 71.5822 16.0939 71.609C16.003 71.5052 15.8865 71.4232 15.7462 71.3716C15.61 71.3206 15.4664 71.3046 15.3332 71.3227C15.2505 71.2143 15.1393 71.1183 15.0068 71.0585C14.8741 70.9944 14.7302 70.9698 14.5923 70.9795C14.519 70.8612 14.4149 70.7657 14.2873 70.6928C14.1584 70.6199 14.0232 70.5862 13.8848 70.5829C13.8195 70.46 13.7241 70.3555 13.6006 70.2729C13.4754 70.1921 13.3402 70.1498 13.205 70.1334C13.1481 70.0101 13.0612 69.8967 12.9411 69.8062C12.8255 69.7198 12.6931 69.6644 12.5583 69.6393C12.5097 69.5114 12.432 69.3933 12.324 69.2936C12.2118 69.1985 12.084 69.1299 11.9487 69.1005C11.9131 68.9678 11.8436 68.8406 11.7394 68.7365C11.6356 68.6324 11.5165 68.5591 11.3846 68.5167C11.3538 68.3837 11.2962 68.2509 11.2016 68.1387C11.1058 68.0247 10.9904 67.9435 10.863 67.8922C10.8409 67.7581 10.7916 67.6215 10.7049 67.5046C10.6182 67.3868 10.5068 67.2951 10.3824 67.2359C10.377 67.0976 10.3331 66.96 10.2597 66.8373C10.1804 66.7106 10.0771 66.6108 9.95784 66.5427C9.96134 66.4084 9.93009 66.266 9.85971 66.1346C9.79331 66.0073 9.6988 65.8985 9.58317 65.8208C9.59618 65.6861 9.5724 65.5443 9.51516 65.4123C9.45818 65.2761 9.37122 65.1635 9.26335 65.076C9.28552 64.9409 9.27487 64.7986 9.22662 64.662C9.17786 64.5211 9.09929 64.4038 8.99574 64.3074C9.03053 64.1763 9.02903 64.0335 8.99314 63.8921L8.99297 63.8878C8.95328 63.7465 8.88291 63.6238 8.78804 63.5236C8.83061 63.3921 8.84262 63.2497 8.81543 63.1071C8.78749 62.9611 8.7267 62.8336 8.64032 62.7245C8.69178 62.597 8.71206 62.4577 8.69354 62.3113C8.67831 62.1648 8.62597 62.0275 8.54823 61.9137C8.60798 61.7902 8.63737 61.6514 8.63161 61.5036C8.62592 61.3576 8.58173 61.2208 8.5122 61.1024C8.58082 60.982 8.62356 60.8462 8.62596 60.699C8.63372 60.5515 8.598 60.4144 8.53669 60.2913C8.61504 60.1766 8.66607 60.0448 8.68157 59.8962C8.69745 59.7485 8.67432 59.6057 8.62189 59.484C8.70908 59.3715 8.76875 59.2437 8.79287 59.1008C8.8177 58.9562 8.80773 58.8138 8.76441 58.6813C8.85943 58.579 8.92796 58.4543 8.96647 58.3143C8.99937 58.1702 8.99823 58.0274 8.967 57.8945C9.06707 57.7997 9.14454 57.6799 9.19134 57.5439C9.23763 57.4036 9.24962 57.2603 9.22669 57.1228C9.33186 57.0364 9.41873 56.9249 9.47797 56.7884C9.53325 56.6521 9.55431 56.5085 9.54036 56.3749C9.65352 56.296 9.74915 56.1893 9.8173 56.0568C9.88163 55.9288 9.91523 55.7847 9.91001 55.6508C10.0275 55.5761 10.1325 55.4768 10.2098 55.3526C10.2827 55.2295 10.3249 55.0885 10.3326 54.9541C10.4561 54.8895 10.5645 54.7988 10.6507 54.6786C10.7322 54.5577 10.784 54.4267 10.7998 54.2867C10.9281 54.2385 11.0454 54.1525 11.1414 54.0406C11.2321 53.9289 11.2919 53.7968 11.3213 53.6606C11.4491 53.6167 11.5717 53.5426 11.6757 53.4347L11.6759 53.4391C11.7758 53.3313 11.8443 53.2075 11.8823 53.0718C12.0157 53.0415 12.1426 52.9752 12.2506 52.8757C12.36 52.7763 12.4378 52.6573 12.4844 52.5248C12.6174 52.5023 12.7497 52.4452 12.8674 52.3584C12.9845 52.2673 13.0717 52.1522 13.127 52.028C13.261 52.0142 13.3981 51.9656 13.5196 51.8829C13.642 51.8046 13.7372 51.697 13.802 51.5733C13.9359 51.5724 14.0773 51.5323 14.204 51.4625C14.3313 51.3891 14.4312 51.2892 14.5049 51.1738C14.6432 51.1771 14.785 51.1542 14.9173 51.0885C15.0484 51.0262 15.1575 50.9363 15.2394 50.8249C15.3743 50.8413 15.5168 50.8219 15.6531 50.7699C15.7894 50.717 15.9082 50.6344 15.9951 50.5315C16.1303 50.5565 16.2724 50.551 16.4133 50.5057C16.5548 50.4664 16.6772 50.3881 16.7728 50.2935C16.9043 50.3265 17.0477 50.3347 17.1935 50.3031L17.1933 50.2988C17.334 50.2673 17.4616 50.2018 17.5673 50.1111C17.6939 50.1581 17.8372 50.1733 17.9834 50.1511C18.1299 50.1281 18.2575 50.0712 18.3713 49.9889C18.4941 50.0447 18.6337 50.0695 18.7807 50.0595C18.9318 50.0493 19.0637 50 19.1826 49.9261C19.3024 49.9907 19.4416 50.0251 19.5887 50.0237C19.7354 50.0223 19.8732 49.9858 19.9958 49.9213C20.1108 49.9938 20.2473 50.0413 20.3942 50.0485C20.5378 50.0603 20.6797 50.0331 20.8073 49.9762C20.9181 50.0532 21.0498 50.1095 21.1943 50.1299C21.3381 50.1502 21.4805 50.136 21.6125 50.0876C21.7156 50.1745 21.8434 50.2431 21.9879 50.2712C22.1318 50.3054 22.2738 50.2955 22.407 50.26C22.5013 50.3559 22.6262 50.4289 22.7661 50.4711C22.9053 50.5124 23.0485 50.5163 23.1867 50.4893C23.2768 50.5888 23.3925 50.676 23.5287 50.727C23.6696 50.7777 23.8085 50.794 23.9464 50.7765C24.0281 50.8849 24.1402 50.9758 24.2718 51.0399C24.4087 51.0995 24.5486 51.1243 24.6861 51.1146C24.7603 51.2329 24.8637 51.3327 24.9921 51.4013C25.12 51.4742 25.2603 51.5077 25.3984 51.5109C25.4638 51.6296 25.559 51.7384 25.6836 51.8201C25.8032 51.8976 25.9399 51.9442 26.0784 51.957C26.1346 52.0794 26.2218 52.1929 26.3378 52.2827C26.454 52.3751 26.5904 52.4295 26.7251 52.4502C26.7733 52.5782 26.8516 52.6972 26.959 52.796C27.0715 52.8911 27.1991 52.9554 27.3347 52.9899C27.3699 53.1218 27.4396 53.2446 27.5436 53.3531C27.6467 53.4572 27.7716 53.5311 27.9027 53.5736C27.9295 53.7058 27.991 53.8333 28.0856 53.9464C28.1816 54.0595 28.2974 54.1416 28.4242 54.1937C28.4431 54.3306 28.4956 54.4627 28.5823 54.5814C28.6691 54.6992 28.7771 54.7902 28.9001 54.8494C28.9109 54.9875 28.9544 55.1251 29.0281 55.2469C29.1065 55.3745 29.2111 55.4734 29.3294 55.5432C29.3312 55.6764 29.3625 55.818 29.4279 55.9462L29.4281 55.9505C29.498 56.0776 29.593 56.1821 29.7079 56.2598C29.6964 56.3987 29.7189 56.5407 29.7764 56.6726C29.8338 56.8088 29.9204 56.9223 30.0323 57.0088C30.0115 57.1438 30.02 57.2862 30.0693 57.4228C30.1137 57.5639 30.1968 57.6818 30.2949 57.7732C30.2654 57.9085 30.2666 58.0521 30.3029 58.1926C30.3425 58.3339 30.4129 58.4566 30.5078 58.5577C30.4659 58.6882 30.4532 58.8315 30.485 58.9783C30.5124 59.1192 30.5733 59.2509 30.6596 59.3566C30.6084 59.4833 30.588 59.6269 30.6025 59.7734C30.6217 59.9207 30.6738 60.0519 30.7523 60.1657C30.6926 60.2901 30.6628 60.4288 30.6686 60.5766L30.6694 60.5973L30.6704 60.6233C30.6762 60.771 30.7166 60.9079 30.7858 61.0264C30.7212 61.1458 30.6785 61.2816 30.6717 61.429C30.6683 61.5754 30.7002 61.7178 30.7611 61.8409C30.683 61.9522 30.6328 62.0883 30.6164 62.2317C30.6002 62.3795 30.623 62.5214 30.6753 62.6492C30.5896 62.7555 30.529 62.8842 30.5041 63.028C30.4753 63.1719 30.4897 63.3185 30.5299 63.4467C30.4383 63.5507 30.3694 63.6746 30.3315 63.8145C30.2942 63.9579 30.2951 64.1007 30.3257 64.2345C30.2258 64.3284 30.1484 64.4491 30.1027 64.5885C30.0509 64.7247 30.0434 64.8678 30.0663 65.0054C29.9571 65.0918 29.8711 65.2034 29.8156 65.3397C29.7557 65.4762 29.7354 65.6163 29.7496 65.7534C29.6353 65.8314 29.5404 65.9389 29.4722 66.0714C29.4076 66.2003 29.3779 66.3399 29.3792 66.4775C29.2609 66.5479 29.1562 66.6472 29.0791 66.7748C29.0021 66.8998 28.9638 67.0346 28.957 67.1733C28.8326 67.2353 28.7236 67.3261 28.638 67.4463C28.5518 67.5665 28.5011 67.6974 28.4838 67.8374C28.3564 67.89 28.2376 67.9725 28.1476 68.0842C28.0526 68.1961 27.9929 68.3282 27.9632 68.4635C27.8349 68.5075 27.713 68.5815 27.6092 68.6851C27.5089 68.7928 27.44 68.9167 27.4016 69.048C27.2694 69.0834 27.1421 69.149 27.0334 69.2484C26.9245 69.3435 26.843 69.4635 26.7954 69.5952C26.6627 69.6177 26.5311 69.6748 26.4126 69.7659C26.2993 69.8526 26.2136 69.9684 26.1575 70.0918C26.0201 70.1058 25.8824 70.1544 25.7602 70.2371C25.6388 70.3154 25.5463 70.422 25.4783 70.5423C25.3442 70.5475 25.2027 70.5833 25.0764 70.6575C24.949 70.7274 24.8484 70.8265 24.7753 70.9471C24.6364 70.9395 24.4944 70.9658 24.363 71.0272C24.2311 71.0886 24.122 71.1794 24.0402 71.2916C23.9053 71.2744 23.7629 71.2886 23.6263 71.3415C23.4854 71.3946 23.3721 71.4812 23.2805 71.5843C23.146 71.5601 23.0029 71.5605 22.8621 71.6058C22.7211 71.6494 22.6023 71.7232 22.5027 71.8232C22.371 71.7842 22.2285 71.7768 22.0868 71.8126C21.9407 71.8451 21.8137 71.9098 21.7128 72.0011C21.5818 71.9534 21.4379 71.9374 21.2957 71.9611C21.1497 71.9789 21.0178 72.0368 20.9083 72.1181C20.7804 72.0634 20.6412 72.0385 20.4945 72.0486C20.3475 72.0578 20.2111 72.1063 20.0967 72.1809C19.9728 72.1156 19.8336 72.083 19.6864 72.0801V72.0801ZM19.7237 73.8087C19.883 73.8025 20.0285 73.7544 20.1549 73.6751C20.2968 73.7483 20.4584 73.7853 20.6263 73.7735C20.7953 73.7635 20.9487 73.7004 21.0745 73.6055C21.219 73.6691 21.3808 73.6922 21.5486 73.6692C21.7171 73.6453 21.8647 73.5747 21.9871 73.4704C22.137 73.5251 22.301 73.536 22.4639 73.4994C22.6319 73.4626 22.7746 73.3782 22.8876 73.2665C23.0362 73.3075 23.2053 73.3095 23.3681 73.2608C23.5305 73.2112 23.6652 73.1194 23.769 72.9985C23.9257 73.0313 24.09 73.0197 24.2478 72.9573C24.406 72.8949 24.5356 72.7955 24.631 72.6663C24.7866 72.6854 24.9509 72.6616 25.1041 72.5916C25.2567 72.5156 25.3778 72.407 25.4636 72.2738C25.6187 72.2808 25.7826 72.2441 25.9301 72.1605C26.0746 72.0769 26.1914 71.9599 26.264 71.8194C26.4236 71.8175 26.5821 71.7672 26.7209 71.6753C26.8646 71.5788 26.9674 71.4493 27.0312 71.3083C27.1864 71.2936 27.3445 71.2364 27.478 71.1308C27.6087 71.0262 27.7078 70.8882 27.758 70.7443C27.9121 70.7158 28.0655 70.6449 28.1913 70.5327C28.3164 70.4196 28.4017 70.2769 28.4435 70.1239C28.5983 70.0875 28.7417 70.0041 28.8584 69.8827C28.975 69.7613 29.052 69.6112 29.0799 69.4586C29.2334 69.4094 29.3688 69.3175 29.476 69.1879C29.5886 69.0588 29.6519 68.904 29.6715 68.7466C29.816 68.6899 29.9463 68.5897 30.0454 68.4517C30.1431 68.3137 30.1978 68.1558 30.2048 67.9954C30.3443 67.925 30.4699 67.8163 30.5597 67.6743C30.645 67.5282 30.6867 67.3665 30.6846 67.2099C30.8201 67.1276 30.9372 67.0096 31.0131 66.8595C31.0897 66.706 31.1175 66.5448 31.1073 66.3885C31.2333 66.2979 31.341 66.1717 31.4085 66.0133C31.4757 65.8549 31.4914 65.695 31.4632 65.5351C31.5891 65.435 31.6838 65.3024 31.7377 65.1436C31.7926 64.9814 31.799 64.8175 31.7582 64.6625C31.8749 64.5541 31.9645 64.413 32.006 64.2461C32.0477 64.0843 32.0413 63.9201 31.9921 63.7663C32.0993 63.6496 32.1766 63.5046 32.2039 63.3382C32.2363 63.1725 32.2129 63.0047 32.1554 62.8589C32.2545 62.7348 32.3179 62.5852 32.337 62.4157C32.3567 62.2452 32.324 62.0829 32.254 61.9429C32.344 61.8139 32.3936 61.6562 32.4006 61.4871C32.4075 61.3181 32.3618 61.1597 32.2827 61.0243C32.3636 60.887 32.4053 60.7253 32.3987 60.5559L32.3977 60.53L32.3966 60.5006C32.39 60.3312 32.3322 60.1777 32.2447 60.0478C32.3129 59.9067 32.3416 59.7411 32.3219 59.5723C32.3021 59.4051 32.2355 59.2563 32.1356 59.1303C32.1952 58.9844 32.2138 58.8201 32.1823 58.6517C32.1495 58.4885 32.0744 58.34 31.9664 58.223C32.0123 58.0741 32.0187 57.9094 31.9739 57.7467C31.9322 57.5795 31.8453 57.4401 31.7285 57.3322C31.7617 57.1794 31.7587 57.0151 31.7011 56.8529L31.7012 56.8572C31.6472 56.694 31.5469 56.5603 31.4264 56.4612C31.4499 56.3088 31.4309 56.1407 31.3644 55.9876C31.2974 55.8301 31.1887 55.7036 31.0603 55.6177C31.0706 55.4581 31.0422 55.2947 30.9634 55.1455C30.8839 54.9971 30.7668 54.8805 30.6294 54.7993C30.6325 54.6434 30.591 54.4815 30.4989 54.3379C30.411 54.1933 30.2865 54.0857 30.1443 54.0185C30.134 53.858 30.0805 53.6999 29.9803 53.5662C29.8838 53.4263 29.7502 53.3277 29.6045 53.2684C29.5809 53.1136 29.5145 52.9604 29.4058 52.8348C29.2979 52.7048 29.1595 52.615 29.0105 52.5654C28.9751 52.411 28.8988 52.266 28.7826 52.1459C28.6644 52.0198 28.5187 51.9433 28.3655 51.906C28.3211 51.7562 28.2333 51.6125 28.1069 51.5006C27.9823 51.3886 27.8285 51.3211 27.6758 51.2967C27.6172 51.1484 27.5216 51.0128 27.3885 50.9098C27.2547 50.8068 27.1002 50.7479 26.9396 50.7369C26.8778 50.5922 26.7693 50.4622 26.6269 50.3726C26.4849 50.2786 26.3269 50.2328 26.1716 50.2302C26.0918 50.0905 25.9787 49.9729 25.8294 49.8887C25.6829 49.8079 25.521 49.7743 25.3613 49.7806C25.2782 49.6505 25.1531 49.5386 24.9985 49.4658C24.8442 49.3948 24.6788 49.3744 24.5244 49.3943C24.4289 49.2673 24.2989 49.1694 24.1406 49.1055C23.9781 49.0469 23.813 49.0369 23.6591 49.0688C23.5552 48.9517 23.4166 48.8576 23.2552 48.8111C23.093 48.762 22.9244 48.7634 22.7747 48.8082C22.6625 48.6957 22.5157 48.6149 22.3497 48.5833C22.184 48.5456 22.0209 48.5606 21.8712 48.6149C21.7506 48.5105 21.6049 48.4426 21.4356 48.4189C21.2657 48.3953 21.1022 48.419 20.9615 48.485C20.8322 48.3949 20.6779 48.3316 20.5092 48.3209C20.3401 48.3102 20.177 48.3511 20.0366 48.4259C19.9038 48.3402 19.7472 48.2952 19.5779 48.2975C19.4088 48.2954 19.2507 48.344 19.1196 48.4322C18.9778 48.3589 18.8164 48.3219 18.6486 48.3337C18.4801 48.3489 18.3272 48.4059 18.2007 48.5017C18.0553 48.439 17.89 48.4143 17.7219 48.4382C17.5547 48.4663 17.4063 48.537 17.2883 48.642C17.1391 48.5864 16.9744 48.5763 16.8075 48.6131C16.6435 48.6498 16.5001 48.7324 16.3878 48.845C16.2344 48.8042 16.0707 48.8019 15.9073 48.8507C15.7449 48.9003 15.6094 48.9965 15.5071 49.113C15.3498 49.0854 15.1849 49.0952 15.0278 49.1585C14.8695 49.22 14.7393 49.3212 14.6453 49.4503C14.489 49.4305 14.3252 49.4533 14.1727 49.5293C14.0195 49.5994 13.8982 49.7131 13.8128 49.8463C13.6564 49.8394 13.4938 49.876 13.3493 49.9595C13.2018 50.0432 13.089 50.1592 13.0124 50.3016C12.8567 50.3076 12.6983 50.3527 12.555 50.4492C12.4155 50.5412 12.3121 50.6707 12.249 50.8151C12.0894 50.83 11.9358 50.8887 11.8012 50.9927C11.6671 51.0983 11.5727 51.2361 11.5216 51.38C11.3671 51.4086 11.2141 51.4794 11.089 51.5925C10.9642 51.7055 10.8782 51.8474 10.8362 52.0013C10.6822 52.0411 10.5382 52.1203 10.4216 52.2416C10.3058 52.3673 10.2334 52.5129 10.2003 52.67C10.0507 52.7191 9.91213 52.8067 9.80441 52.9408C9.69687 53.0704 9.63363 53.2244 9.61406 53.3818C9.46784 53.4385 9.33855 53.5388 9.24019 53.6776C9.1411 53.8156 9.08698 53.9727 9.08042 54.133C8.93984 54.2034 8.81457 54.3113 8.72899 54.4583C8.64004 54.6054 8.59883 54.7628 8.60502 54.9218C8.46953 55.0007 8.35253 55.1229 8.27624 55.2731C8.19589 55.4233 8.17196 55.5887 8.18139 55.7441C8.0557 55.8347 7.94776 55.9609 7.88054 56.1193C7.81791 56.2732 7.8027 56.4383 7.82575 56.5966C7.70445 56.6931 7.6057 56.8311 7.55067 56.989C7.49684 57.1512 7.49442 57.3158 7.5309 57.4701C7.41846 57.5784 7.33302 57.7202 7.28748 57.8864C7.24609 58.0481 7.25655 58.2121 7.30175 58.3662C7.19777 58.4827 7.12201 58.6285 7.09323 58.794C7.06048 58.9598 7.08053 59.1278 7.14202 59.2734C7.04347 59.3984 6.98067 59.5479 6.9605 59.7166C6.94584 59.8868 6.97787 60.0492 7.04348 60.1894C6.95789 60.3182 6.90393 60.477 6.89701 60.646C6.89507 60.814 6.93607 60.9734 7.01928 61.1121C6.93792 61.2451 6.89653 61.4068 6.90313 61.5762C6.90966 61.7438 6.96354 61.9027 7.05518 62.0333C6.98656 62.1736 6.95437 62.3358 6.97407 62.5038C6.99351 62.6718 7.06033 62.825 7.16009 62.9466C7.10097 63.0952 7.08122 63.2569 7.11377 63.4236C7.14664 63.5919 7.22124 63.7361 7.32956 63.8531C7.28352 64.0063 7.27704 64.171 7.31791 64.3339C7.36311 64.4966 7.45099 64.6351 7.56748 64.7439C7.53103 64.9011 7.53742 65.0653 7.59058 65.2234C7.64459 65.3857 7.74478 65.5203 7.86583 65.6151C7.84182 65.7718 7.86075 65.9355 7.92742 66.0939C7.99474 66.2514 8.10233 66.3761 8.23264 66.4663C8.2164 66.6227 8.24847 66.7859 8.32868 66.9342C8.40374 67.0836 8.52036 67.2046 8.65794 67.2814C8.65541 67.4408 8.69675 67.6001 8.78376 67.743C8.87559 67.8874 8.99732 67.9995 9.14222 68.0666C9.14828 68.2221 9.20215 68.381 9.30328 68.5199C9.40278 68.6545 9.53308 68.7533 9.68217 68.8124C9.70188 68.9717 9.76852 69.1206 9.8764 69.2505C9.98615 69.3795 10.1236 69.4702 10.2733 69.5207C10.3047 69.6761 10.3799 69.8194 10.5008 69.9445C10.6185 70.0654 10.7648 70.142 10.9177 70.1793C10.9581 70.3335 11.0464 70.4728 11.1708 70.5848C11.3014 70.7009 11.4514 70.7686 11.6035 70.793C11.6611 70.9422 11.7576 71.0769 11.8915 71.1799C12.0256 71.2837 12.1791 71.3418 12.3356 71.353C12.4015 71.4984 12.506 71.6285 12.6477 71.7173C12.7896 71.8113 12.9517 71.8569 13.1077 71.8604C13.1824 72.0003 13.3 72.1212 13.4455 72.2012C13.5962 72.2862 13.7577 72.3197 13.913 72.3137C14.0005 72.4435 14.1223 72.5565 14.2762 72.6275C14.4305 72.7003 14.5955 72.719 14.7506 72.6999C14.8465 72.8269 14.9759 72.93 15.1331 72.9888C15.2966 73.0465 15.4613 73.0574 15.616 73.0254C15.7204 73.1468 15.8578 73.2375 16.0193 73.2866C16.1818 73.3374 16.3464 73.3353 16.5005 73.2904C16.613 73.402 16.7552 73.483 16.9206 73.5207C17.0862 73.5523 17.2548 73.5414 17.3998 73.489C17.5203 73.5882 17.6705 73.6593 17.8401 73.6839C18.0053 73.7078 18.1696 73.6797 18.3142 73.617C18.443 73.7123 18.5971 73.7712 18.7658 73.782C18.935 73.7927 19.0941 73.7562 19.234 73.6815C19.3666 73.762 19.5247 73.813 19.6973 73.8097L19.7237 73.8087" fill="#16324D"/>
<path d="M37.1667 60.7544L36.7289 61.8819L42.5549 59.3345L40.6536 59.0684L37.0919 60.7262L37.1667 60.7544" fill="#6D7982"/>
<path d="M43.9853 58.6767C44.0004 59.0655 43.6971 59.3941 43.3079 59.4093L40.0101 59.5378C39.6212 59.5529 39.2923 59.249 39.2771 58.8601C39.2619 58.4704 39.5662 58.1417 39.9551 58.1266L43.2529 57.9981C43.6421 57.9829 43.9701 58.2869 43.9853 58.6767Z" fill="#16324D"/>
<path d="M37.7573 37.0291C37.9851 39.1288 37.9236 41.0736 37.4251 42.9426C42.8754 42.3537 47.0174 39.7969 46.8369 37.0208C46.6556 34.2438 42.21 32.2458 36.7235 32.3734C37.2754 33.853 37.5855 35.4498 37.7573 37.0291" fill="#975144"/>
<path d="M41.0051 57.1716C41.0051 57.1716 46.559 46.7812 46.8415 37.0934L39.7492 39.1101L39.3719 56.8786L41.0051 57.1716" fill="#975144"/>
<path d="M40.283 42.8725C40.283 42.8725 35.212 45.0313 27.3352 43.3363C27.3352 43.3363 28.871 38.8239 26.3746 33.4087C26.3746 33.4087 35.3159 31.3168 40.4241 32.2379C40.4241 32.2379 43.1713 38.6897 40.283 42.8725Z" fill="#1B2645"/>
<path d="M39.263 58.0026C39.4478 58.2749 39.7571 58.3797 40.1063 58.3436C40.3542 58.3184 40.5924 58.2545 40.8344 58.2018C41.1663 58.1292 41.4725 58.1882 41.7827 58.3215C42.3532 58.5685 42.8973 58.9688 43.5472 58.7911C43.89 58.6973 44.1661 58.3957 44.2297 58.0514L44.254 58.1188C44.2985 58.2971 44.2234 58.4792 44.1163 58.6192C43.8357 58.9841 43.3397 59.1489 42.8919 59.0997C42.4365 59.0491 42.0533 58.7853 41.6197 58.6663C41.4157 58.6102 41.2069 58.5984 40.9982 58.6213C40.7811 58.6453 40.5707 58.7037 40.357 58.7363C40.1532 58.7659 39.9418 58.7715 39.7491 58.6925C39.5508 58.611 39.3969 58.4517 39.2923 58.268C39.2459 58.1867 39.2247 58.0707 39.1967 57.9835L39.263 58.0026" fill="#16324D"/>
<path d="M39.1776 56.8707C39.2078 56.7856 39.2848 56.6458 39.2848 56.6458C39.4644 56.7357 39.6471 56.8247 39.8483 56.8506C40.0542 56.8772 40.2553 56.833 40.448 56.7641C40.8031 56.6368 41.1857 56.3995 41.5701 56.5481C41.7442 56.6158 41.8894 56.7399 42.0329 56.8555C42.1971 56.9858 42.3659 57.1074 42.558 57.1959C42.9793 57.3898 43.4626 57.4022 43.8777 57.6084C44.0356 57.6871 44.1873 57.8067 44.2322 57.9858C44.2773 58.1632 44.2022 58.3453 44.0951 58.4854C43.8145 58.8512 43.3182 59.015 42.8703 58.9658C42.4154 58.9152 42.0322 58.6523 41.5978 58.5325C41.3941 58.4764 41.1861 58.4637 40.9763 58.4875C40.7602 58.5115 40.5489 58.5699 40.335 58.6016C40.1314 58.632 39.9203 58.6377 39.7282 58.5586C39.5289 58.4772 39.376 58.3187 39.2708 58.1341C39.0516 57.7497 39.0287 57.2841 39.1776 56.8707" fill="#3E4156"/>
<path d="M42.9809 57.395C42.8774 57.36 42.7661 57.3436 42.6574 57.3478C42.3703 57.3607 42.1084 57.5052 42.0228 57.7917L41.9592 57.8262L41.9246 57.7626C42.0258 57.4253 42.3366 57.2573 42.6535 57.2467C42.7747 57.2419 42.8982 57.2596 43.0133 57.2985L43.0459 57.363L42.9809 57.395" fill="white"/>
<path d="M42.5234 57.1909C42.4192 57.1551 42.3079 57.1395 42.1986 57.1438C41.9118 57.1567 41.6499 57.302 41.5633 57.5885L41.4997 57.6222L41.4651 57.5586C41.5673 57.2221 41.878 57.0541 42.1946 57.0426C42.3165 57.0379 42.4403 57.0547 42.5558 57.0944L42.5885 57.1598L42.5234 57.1909" fill="white"/>
<path d="M42.0643 56.9906C41.9608 56.9557 41.8495 56.9401 41.7401 56.9444C41.4537 56.9564 41.1911 57.1017 41.1059 57.3882L41.0419 57.4219L41.0073 57.3583C41.1085 57.021 41.4199 56.853 41.7362 56.8424C41.8577 56.8376 41.9815 56.8544 42.0974 56.8941L42.1286 56.9587L42.0639 56.9907L42.0643 56.9906" fill="white"/>
<path d="M52.7058 37.8218C52.7058 37.8218 55.0422 35.6045 60.7358 35.5318C60.7358 35.5318 60.846 41.7963 61.0608 43.8729C61.1121 44.3668 60.8092 45.2 59.154 45.2645C57.4986 45.329 57.304 45.3418 56.3597 45.3734C55.8582 45.3895 55.0445 45.4878 54.5145 43.8934C53.9852 42.2982 52.7058 37.8218 52.7058 37.8218Z" fill="#6D7982"/>
<path d="M53.6338 39.4427L51.87 40.3874L51.7193 40.1059L53.4829 39.1619L53.6338 39.4427Z" fill="#6D7982"/>
<path d="M55.7628 44.2923L53.999 45.2361L53.8484 44.9555L55.613 44.0117L55.7628 44.2923Z" fill="#6D7982"/>
<path d="M47.3104 64.5192C47.1659 64.5249 47.0293 64.4384 46.9778 64.2959C45.1641 59.3181 46.2711 53.8129 49.865 49.9269C52.9269 46.6165 57.4315 44.9688 61.9148 45.522C62.1009 45.5442 62.2336 45.7138 62.2108 45.9C62.1876 46.0861 62.0178 46.2217 61.8315 46.196C57.5637 45.6708 53.2783 47.2373 50.3637 50.3887C46.9434 54.0861 45.8905 59.3262 47.6161 64.0633C47.6805 64.24 47.5891 64.4348 47.4127 64.4988L47.3104 64.5192" fill="#16324D"/>
<path d="M50.9321 38.1278C50.8541 38.1308 50.7751 38.1075 50.7082 38.0553C50.561 37.9397 50.5358 37.7263 50.6524 37.5788L52.7404 34.9239C52.8564 34.7764 53.0698 34.7516 53.2172 34.8672C53.3648 34.9834 53.3904 35.1972 53.2748 35.3443L51.1863 37.9985C51.1219 38.0805 51.028 38.1241 50.9321 38.1278" fill="#6D7982"/>
<path d="M31.4115 49.4224C31.27 49.4279 31.1352 49.3449 31.0812 49.2059L28.5363 42.6607C28.4679 42.485 28.5546 42.2886 28.7297 42.2204C28.9046 42.153 29.1016 42.2388 29.1694 42.4144L31.7145 48.9597C31.7829 49.1344 31.696 49.3317 31.5211 49.3991L31.4115 49.4224" fill="#6D7982"/>
<path d="M52.2177 41.4283C52.0773 41.4338 51.9425 41.3499 51.8884 41.2118L50.148 36.7448C50.0793 36.5701 50.1667 36.3729 50.3415 36.3052C50.517 36.2368 50.7134 36.3232 50.7815 36.4984L52.5218 40.9647C52.5895 41.1394 52.5025 41.3367 52.3286 41.4049L52.2177 41.4283Z" fill="#6D7982"/>
<path d="M36.2853 64.4639L19.6885 62.6794L19.7248 62.3413L36.322 64.1266L36.2853 64.4639" fill="#16324D"/>
<path d="M59.951 60.1632C59.6756 60.1739 59.4101 60.0155 59.2978 59.7455L51.0815 40.0757C50.9368 39.7298 51.0999 39.3312 51.4461 39.1866C51.7931 39.0415 52.191 39.2052 52.3357 39.5522L60.5523 59.2215C60.697 59.5681 60.533 59.9657 60.187 60.1107C60.1098 60.1432 60.031 60.1601 59.951 60.1632" fill="#386FAA"/>
<path d="M36.6439 62.1572C36.4059 62.1665 36.1857 62.0054 36.1299 61.7635C36.0662 61.4917 36.2331 61.2194 36.5037 61.1526C36.589 61.1303 41.9175 59.5569 52.8627 43.3775C53.02 43.1437 53.3378 43.0829 53.5701 43.2409C53.8034 43.3988 53.8645 43.715 53.7072 43.9487C42.4026 60.6597 36.9673 62.0918 36.7418 62.1439L36.6439 62.1572Z" fill="#386FAA"/>
<path d="M33.021 70.9491L32.1121 70.5405L36.173 61.4867L37.0829 61.8944L33.021 70.9491Z" fill="#6D7982"/>
<path d="M35.0312 70.6709C35.0464 71.0607 34.7424 71.3893 34.3535 71.4044L31.0551 71.533C30.6655 71.5481 30.3376 71.2441 30.3224 70.8544C30.3072 70.4646 30.6106 70.1369 31.0001 70.1217L34.2986 69.9932C34.6874 69.9781 35.016 70.2812 35.0312 70.6709Z" fill="#16324D"/>
<path d="M24.4827 41.6081C25.7508 45.3798 31.5142 43.317 34.3692 42.9218C35.0838 42.823 36.4787 42.3636 36.7355 41.5703C37.0052 40.7353 35.3145 40.9793 34.9853 41.0246C32.9787 41.3021 28.7563 42.3919 27.8925 39.8243C27.5006 38.6589 24.1028 40.4804 24.4827 41.6081" fill="#386FAA"/>
<path d="M44.644 39.4099C44.4685 39.4168 44.3027 39.3033 44.2505 39.1261C44.189 38.9161 44.3092 38.6979 44.5184 38.6359L57.1682 32.8304C57.3762 32.7695 57.5972 32.889 57.6584 33.0979C57.72 33.3071 57.5997 33.5262 57.39 33.5874L44.74 39.3937L44.644 39.4099" fill="#6D7982"/>
<path d="M32.968 57.7906C32.8121 57.7967 32.6688 57.6949 32.6265 57.5382C31.9695 55.1041 30.6391 52.9074 28.7795 51.1866C26.1432 48.7491 22.7148 47.4824 19.1275 47.6222C15.5395 47.762 12.221 49.2908 9.7834 51.9268C9.6559 52.0642 9.4409 52.0725 9.30275 51.9455C9.16483 51.8176 9.15645 51.6024 9.28403 51.465C11.8449 48.6961 15.3314 47.0898 19.1004 46.943L19.101 46.9429C22.871 46.7969 26.4712 48.1262 29.2409 50.6883C31.1948 52.4963 32.5933 54.8028 33.2833 57.3611C33.3316 57.5427 33.2243 57.7295 33.0433 57.7781L32.968 57.7906" fill="#16324D"/>
<path d="M48.1689 42.4002C46.1552 43.0992 42.9176 44.6906 39.9612 46.0486C37.4157 47.2167 34.8289 48.382 32.5004 49.9501C32.2115 50.1449 31.9205 50.3397 31.6304 50.5371C33.1575 51.472 34.7235 52.3405 36.2555 53.2649C39.1798 49.7954 44.7454 45.3741 48.1689 42.4002ZM52.1241 41.1772C47.5911 44.9084 41.0105 50.1932 37.3041 54.7568C37.265 54.8042 37.2196 54.8501 37.1702 54.8927C36.9686 56.6964 36.789 58.5503 37.1825 60.3291C37.3437 61.0559 35.8719 61.4958 35.7151 60.7844C35.3083 58.9516 35.4529 57.0679 35.6511 55.2132L35.53 55.1513C33.6657 53.9733 31.7251 52.9256 29.8468 51.7706C26.3299 54.2557 22.9532 57.0348 20.6537 60.6962C20.1771 61.4539 17.9069 61.5752 18.5327 60.5789C21.7004 55.5353 26.6536 51.908 31.5828 48.7171C34.2898 46.9646 37.211 45.5889 40.1896 44.3685C43.1694 43.1472 48.4775 40.602 51.4645 39.9791C52.3216 39.8008 52.8346 40.5922 52.1241 41.1772" fill="#386FAA"/>
<path d="M37.6824 61.4284C37.6595 60.8407 37.1649 60.3822 36.5776 60.4051C35.9892 60.4281 35.5314 60.9236 35.5543 61.5113C35.5772 62.0989 36.0721 62.5565 36.6605 62.5336C37.2478 62.5107 37.7053 62.016 37.6824 61.4284Z" fill="#16324D"/>
<path d="M21.3375 60.9868C21.3738 61.9184 20.6477 62.7023 19.7167 62.7386C18.7846 62.7749 18.0008 62.0498 17.9645 61.1183C17.9282 60.1867 18.6532 59.4028 19.5853 59.3665C20.5163 59.3302 21.3012 60.0552 21.3375 60.9868Z" fill="#16324D"/>
<path d="M38.523 61.3963C38.482 60.3437 37.5967 59.524 36.5449 59.565C35.4931 59.606 34.6729 60.4921 34.7139 61.5447C34.7549 62.5964 35.6415 63.4152 36.6933 63.3742C37.7451 63.3332 38.564 62.448 38.523 61.3963ZM39.8243 61.3456C39.8932 63.1154 38.5142 64.6067 36.7441 64.6757C33.3768 64.8069 32.3812 61.2842 32.2448 60.0493C32.1088 58.8135 19.6026 59.8123 19.6026 59.8123L19.5853 59.3681L36.4942 58.2635C38.2644 58.1946 39.7553 59.5749 39.8243 61.3456Z" fill="#16324D"/>
<path d="M33.962 44.5494C32.1227 45.5887 30.3129 46.3006 28.3985 46.5811C31.0941 51.3549 35.0798 54.1501 37.5578 52.886C40.038 51.6218 40.1156 46.7486 37.8305 41.7589C36.689 42.8515 35.3451 43.7676 33.962 44.5494" fill="#975144"/>
<path d="M32.3736 69.439C32.3736 69.439 38.5396 59.3996 39.4005 49.746L32.2006 51.3352L30.7609 69.0492L32.3736 69.439" fill="#975144"/>
<path d="M29.593 49.1765C29.593 49.1765 20.6883 41.734 19.1313 33.8287C19.1313 33.8287 30.0509 37.086 34.0384 32.6528C34.0384 32.6528 38.2455 40.0461 39.4179 45.1015C39.4179 45.1015 34.5771 50.1758 29.593 49.1765" fill="#1F2B4D"/>
<path d="M30.5841 70.1647C30.7526 70.4472 31.0553 70.5713 31.406 70.5559C31.6544 70.5453 31.8962 70.4952 32.1412 70.4571C32.4773 70.4051 32.7795 70.4825 33.0802 70.6335C33.6354 70.9147 34.1544 71.3472 34.8139 71.2081C35.1613 71.1357 35.4549 70.8499 35.539 70.51L35.5593 70.5801C35.5933 70.7597 35.5079 70.9361 35.3925 71.0704C35.0913 71.418 34.5853 71.5528 34.1408 71.4767C33.6895 71.3999 33.3237 71.113 32.8971 70.9686C32.697 70.9002 32.4894 70.8746 32.2796 70.8862C32.0616 70.8973 31.8488 70.9428 31.6321 70.9625C31.4283 70.98 31.216 70.9718 31.0282 70.8822C30.8349 70.7893 30.6911 70.6218 30.5985 70.4316C30.5564 70.3475 30.5427 70.2303 30.5197 70.1421L30.5841 70.1647" fill="#16324D"/>
<path d="M30.5665 69.0304C30.6032 68.9476 30.6878 68.8128 30.6878 68.8128C30.862 68.9124 31.0388 69.012 31.2377 69.051C31.441 69.0898 31.646 69.0576 31.8419 69.0006C32.2029 68.8957 32.5996 68.6812 32.9745 68.8526C33.1445 68.9291 33.2811 69.0623 33.4182 69.1859C33.5741 69.3269 33.7361 69.4582 33.9222 69.5574C34.33 69.777 34.8124 69.8179 35.2139 70.048C35.367 70.1356 35.5118 70.2649 35.5455 70.4462C35.5799 70.6267 35.4948 70.8031 35.3794 70.9374C35.0771 71.285 34.5712 71.4189 34.127 71.3428C33.6763 71.266 33.3099 70.9791 32.8834 70.8347C32.6839 70.7663 32.4764 70.7415 32.2655 70.7523C32.0482 70.7634 31.8346 70.8089 31.6183 70.8278C31.4141 70.847 31.2029 70.8387 31.0151 70.7491C30.8218 70.6554 30.678 70.4879 30.5844 70.2977C30.3887 69.9002 30.3942 69.4344 30.5665 69.0304" fill="#3E4156"/>
<path d="M34.3323 69.7804C34.2147 69.7322 34.0846 69.7095 33.9586 69.7144C33.6916 69.7266 33.4489 69.8555 33.3523 70.1191L33.2868 70.1493L33.2559 70.0839C33.3693 69.7746 33.6588 69.6231 33.9546 69.6133C34.0955 69.6078 34.2392 69.6325 34.3709 69.6854L34.3988 69.7518L34.3323 69.7804" fill="white"/>
<path d="M33.8875 69.551C33.7699 69.5028 33.6398 69.4801 33.5139 69.4851C33.2461 69.4972 33.0032 69.6262 32.9059 69.8906L32.8402 69.9209L32.8095 69.8554C32.9235 69.5453 33.2134 69.3946 33.5099 69.383C33.6507 69.3775 33.7945 69.4031 33.9262 69.4569L33.9541 69.5233L33.8875 69.551" fill="white"/>
<path d="M33.4412 69.3234C33.3236 69.2743 33.1941 69.2525 33.0682 69.2574C32.8014 69.2686 32.5585 69.3976 32.4612 69.6612L32.3951 69.6923L32.3648 69.6268C32.4789 69.3167 32.7686 69.166 33.0642 69.1553C33.205 69.1499 33.3484 69.1746 33.4798 69.2292L33.5077 69.2957L33.4412 69.3234" fill="white"/>
<path d="M39.6409 21.439C39.6409 21.439 40.2172 24.3336 41.0924 25.3262C42.3408 26.7388 55.2715 32.4138 55.2715 32.4138L53.7452 33.8135C53.7452 33.8135 40.5857 30.05 38.63 28.0311C37.5407 26.9062 35.8909 23.0454 35.8909 23.0454L39.6409 21.439" fill="#975144"/>
<path d="M39.1976 17.6838L33.9812 15.9189C32.9357 20.2613 34.7599 23.1134 36.5752 26.1368C39.5247 26.2761 42.0332 23.5052 42.0332 23.5052C42.0332 23.5052 40.4359 21.3478 39.1976 17.6838Z" fill="#373A4B"/>
<path d="M54.1707 34.431C55.0734 35.0984 55.1296 35.4319 55.7623 35.0347C56.3949 34.6371 57.2696 33.8762 56.4593 33.0027C55.6837 32.1671 54.9564 32.3465 54.3238 32.7441C53.6914 33.1409 53.452 33.9015 54.1707 34.431Z" fill="#1F2B4D"/>
<path d="M18.9877 32.6323C19.0212 36.7959 22.4236 40.1432 26.5868 40.1094C30.75 40.0757 34.0974 36.6737 34.0636 32.5105C34.0296 28.3476 30.6282 25.0002 26.4653 25.0343C22.3017 25.0677 18.9547 28.4694 18.9877 32.6323" fill="#1F2B4D"/>
<path d="M18.4447 30.9951C20.8992 15.3282 31.4348 10.3748 36.7263 11.5352C37.4368 12.3652 38.3876 13.1487 39.5061 13.3959C40.2068 20.1157 36.3018 22.8701 35.0271 33.8342C35.0271 33.8342 24.3701 39.4555 18.4447 30.9951Z" fill="#3E4156"/>
<path d="M38.2073 14.0077C37.9233 14.1218 37.1822 13.5448 36.8036 13.1225C36.466 12.7453 36.2111 12.4324 36.1672 11.9391C36.0929 11.092 36.8982 9.46901 37.3023 9.1313C37.6585 8.83267 38.5654 9.0215 38.7723 9.43667C39.0899 10.0743 38.7854 12.9388 38.7854 12.9388C38.6726 13.4798 38.6084 13.8458 38.2073 14.0077" fill="#975144"/>
<path d="M37.7263 10.4955C37.4249 10.1446 37.2307 9.79474 37.0881 9.39611C37.163 9.27895 37.2348 9.18787 37.3023 9.13158C37.6585 8.83295 38.5654 9.02178 38.7723 9.43694C38.9279 9.75111 38.9337 10.6034 38.8987 11.3898C38.4524 11.2228 37.9811 10.7902 37.7263 10.4955Z" fill="#1E0C0E"/>
<path d="M36.4729 1.58741C36.3528 1.77645 36.3295 1.92276 36.3672 2.14632C36.421 2.46879 36.2644 2.72675 36.2801 3.03512C36.2847 3.12668 36.2497 3.1817 36.2067 3.23184C35.9875 3.0041 36.2228 2.70846 35.9851 2.48231C35.9065 2.40834 35.8392 2.36509 35.7353 2.33452C35.5858 2.29101 35.6907 1.91823 35.7088 1.81279C35.7587 1.53043 35.321 1.45487 35.2718 1.73634C35.2119 2.08228 35.1317 2.56576 35.5259 2.73129C35.6851 2.79865 35.611 3.18928 35.6537 3.35639L35.6648 3.38106L35.5475 3.39168L35.4979 3.29669C35.4266 3.15925 35.5058 3.02201 35.3577 2.90055C35.2784 2.83613 35.1743 2.835 35.0794 2.83956C34.977 2.84615 34.8875 2.53806 34.8594 2.46818C34.7564 2.20216 34.3416 2.36027 34.4451 2.628C34.5141 2.80447 34.5876 2.97903 34.7202 3.11927C34.845 3.25029 34.9307 3.24608 35.053 3.26381L35.0626 3.37856C35.0874 3.46847 35.1275 3.54566 35.1747 3.62691L35.2347 3.71112L35.224 3.71414C35.1824 3.65172 35.1342 3.59473 35.0647 3.56369C34.9349 3.50383 34.7885 3.51213 34.6508 3.52616C34.5856 3.53475 34.5189 3.54255 34.4532 3.54944L34.3647 3.55808C34.2406 3.57503 34.2454 3.55927 34.3825 3.51151C34.4769 3.24386 34.0747 3.05701 33.9793 3.32557C33.9054 3.53617 33.8299 3.7849 34.0434 3.93843C34.2198 4.06571 34.692 3.88893 34.852 3.98049C34.7621 4.09132 34.796 4.1125 34.6081 4.03413C34.5304 4.00168 34.4335 3.99594 34.3499 4.00438C34.2627 4.01298 33.8452 4.31745 33.8711 4.33981C33.6529 4.15444 33.3721 4.49774 33.5907 4.68223C33.7886 4.85021 33.9758 4.79011 34.1742 4.64823C34.3436 4.52739 34.3742 4.46215 34.6124 4.51086C34.7551 4.53905 34.8877 4.55639 35.0162 4.4631C35.08 4.41647 35.131 4.35476 35.1824 4.29304C35.2447 4.31225 35.314 4.31302 35.3911 4.29617C35.3388 4.41072 35.2389 4.64138 35.2427 4.64382C35.1066 4.59287 35.0217 4.60223 34.8889 4.64981C34.5779 4.76233 34.7881 5.13063 34.3964 5.17792C34.0885 5.21501 33.9352 5.3785 33.8517 5.66478C33.7718 5.94052 34.2095 6.01262 34.2898 5.74119C34.3521 5.52585 34.824 5.62776 34.9593 5.43987C35.0293 5.34367 35.0573 5.28026 35.0879 5.16569C35.1355 4.99766 35.1131 5.10932 35.2553 5.09599C35.4847 5.0758 35.6042 4.90669 35.6956 4.71012C35.7499 4.59376 35.8178 4.5063 35.8924 4.43156C36.0178 4.45956 36.1351 4.44893 36.2449 4.4109C36.3409 4.43572 36.4472 4.37358 36.4935 4.27658L36.5664 4.21921C36.7365 4.23941 36.9154 4.04896 36.7808 3.87591C36.6865 3.75495 36.4412 3.61824 36.6095 3.49657C36.7042 3.42797 36.7788 3.28486 36.7575 3.16538C36.7126 2.92306 36.7955 2.74413 36.8354 2.5063C36.864 2.33035 36.7203 2.01918 36.8162 1.86831C36.9689 1.63127 36.6285 1.3468 36.4729 1.58741" fill="#190A0A"/>
<path d="M40.1685 10.7715C40.5811 10.7676 40.835 10.4963 40.9659 10.1865C41.1293 9.79848 41.1407 9.31942 41.1256 8.82927C41.3894 8.77138 41.9164 8.48168 41.6402 8.22068C41.4817 8.06847 41.377 7.84319 41.1835 7.55646C40.7985 6.96734 41.0311 6.23819 40.9387 5.59267C40.7167 3.96466 38.6031 3.94056 37.4823 4.54767C36.7704 4.94065 36.5508 5.70045 36.5893 6.46405C36.6341 7.13653 36.5902 7.77179 36.5605 8.43938C36.5275 9.13652 37.3653 9.77204 37.9379 10.07C38.2604 10.2443 39.3922 10.7793 40.1685 10.7715" fill="#975144"/>
<path d="M40.5025 6.69876L40.4903 6.66459L40.4839 6.64579L40.4669 6.61874L40.4227 6.55985L40.3616 6.50334L40.2832 6.45271L40.1919 6.41817L40.091 6.39958C40.0233 6.39616 39.9549 6.40402 39.8934 6.4246L39.8087 6.46341L39.7415 6.51106L39.6921 6.56147L39.662 6.60508L39.6392 6.64494C39.6164 6.69432 39.6376 6.75151 39.6865 6.77471L39.7717 6.77313L39.7966 6.7609L39.8217 6.74607L39.8811 6.71604L39.9218 6.70147L39.968 6.68927L40.0189 6.68382L40.0716 6.6835L40.1752 6.70199L40.2192 6.72019L40.2571 6.74036L40.2869 6.75738L40.298 6.76387L40.3121 6.77718L40.3371 6.80305L40.4791 6.80185L40.5025 6.69876" fill="#1E0C0E"/>
<path d="M39.8338 7.28709C39.8265 7.39562 39.9082 7.48855 40.0161 7.49647C40.1237 7.5044 40.2172 7.42195 40.2248 7.31428C40.2321 7.20662 40.152 7.11275 40.0438 7.10571C39.935 7.09783 39.8413 7.17942 39.8338 7.28709Z" fill="#1E0C0E"/>
<path d="M40.5167 8.8931L40.5152 8.96763C40.5231 9.12752 40.5847 9.20739 40.6755 9.261C40.7665 9.31374 40.8923 9.33308 41.0131 9.34137L41.0584 9.39329L41.0064 9.43862C40.8809 9.42965 40.7419 9.41169 40.6266 9.34517C40.5104 9.27956 40.4234 9.15738 40.4179 8.97142L40.419 8.88651L40.471 8.84119L40.5167 8.8931" fill="#362522"/>
<path d="M41.3911 4.48015C41.3827 4.36969 41.3722 4.25672 41.3542 4.14231C41.3129 3.87908 39.5621 1.36811 36.2497 4.25119C35.6415 4.7812 35.3978 5.606 35.4073 6.40535C35.4147 7.07409 35.5975 7.74898 35.9325 8.32793C36.1804 8.75448 36.5697 9.09849 36.9682 9.3807C37.1007 9.04231 37.2623 8.71233 37.4096 8.38029L37.4105 8.29717L37.4156 8.20523C37.4207 8.13665 37.4309 8.06875 37.4422 8.0008C37.4578 7.90845 37.4707 7.81187 37.4985 7.72078C37.527 7.62619 37.5716 7.53878 37.6234 7.45713C37.6169 7.56644 37.6141 7.67733 37.6352 7.78297C37.6508 7.86371 37.6864 7.94368 37.7578 7.9885C37.8146 8.02264 37.8877 8.03451 37.9498 8.01305C38.0189 7.99045 38.054 7.93022 38.0738 7.86454C38.1075 7.74984 38.1119 7.62764 38.1286 7.51014C38.1769 7.16899 38.29 6.85474 38.4837 6.5685C38.5391 6.48672 38.5975 6.40827 38.6581 6.33062C38.7632 6.1915 38.8729 6.05653 38.9798 5.91908C39.074 5.79597 39.1506 5.65105 39.2055 5.50611C39.2786 5.32064 39.3499 5.08331 39.5623 5.01618C39.8465 4.92634 40.1183 5.15896 40.3289 5.31606C40.4905 5.43699 40.8768 5.76381 41.0736 5.5389C41.3242 5.25391 41.4142 4.84795 41.3911 4.48015" fill="#1E0C0E"/>
<path d="M39.4779 6.79827C39.4892 6.73291 39.5373 6.65661 39.5187 6.5881C39.4973 6.51363 39.4062 6.48343 39.3422 6.45649C39.3456 6.39491 39.3958 6.37305 39.4296 6.33105C39.4619 6.29084 39.5087 6.22498 39.5185 6.17353L39.5019 6.02531C39.4644 5.97397 39.4197 5.98092 39.3949 5.91524C39.3499 5.80275 39.4773 5.7069 39.5016 5.5995C39.5152 5.54271 39.4982 5.47846 39.4803 5.42636C39.4621 5.36735 39.3772 5.31354 39.3957 5.26089C39.453 5.0994 39.6895 4.97335 39.8881 4.94483L39.8827 4.926C39.8827 4.84638 39.8695 4.76813 39.8596 4.69062L39.1103 4.67655L39.1436 4.77737C39.2262 4.9888 39.1549 5.12054 39.0378 5.306C38.9097 5.50745 38.779 5.74709 39.0464 5.89332C39.118 5.93295 39.2455 5.95221 39.2998 6.01761C39.3563 6.08811 39.2874 6.1609 39.2427 6.21976C39.1841 6.29475 39.1023 6.37929 39.0905 6.47841C39.0785 6.57841 39.1592 6.63499 39.2364 6.68132C39.3083 6.72352 39.4224 6.76062 39.4352 6.85533C39.4483 6.94915 39.3634 7.05027 39.3273 7.13216C39.2987 7.19559 39.2626 7.29307 39.3469 7.33047C39.4109 7.35913 39.5054 7.31996 39.542 7.26314C39.5855 7.19134 39.5476 7.11146 39.5206 7.04241C39.4873 6.96062 39.4631 6.88712 39.4779 6.79827" fill="#1E0C0E"/>
<path d="M39.3373 8.63678C39.3373 8.63678 38.4584 8.23395 37.6721 7.27186L37.4621 6.97626C37.4621 6.97626 39.1354 8.05438 39.5861 8.23588C39.5861 8.23588 39.6969 8.43409 39.3373 8.63678" fill="#81CACF"/>
<path d="M39.2908 10.4479C39.2908 10.4479 37.775 9.30825 37.0603 8.18066L37.3696 8.3244C37.3696 8.3244 38.2032 9.64036 39.1953 9.88732C39.1953 9.88732 39.5797 10.1484 39.2908 10.4479Z" fill="#81CACF"/>
<path d="M41.7472 9.2559C41.7933 8.52968 41.8312 7.92322 41.1857 7.43687C41.1256 7.42882 41.0642 7.42428 41.0022 7.42843C40.5373 7.4552 40.1148 7.75988 39.707 7.99041C39.5604 8.07316 39.4141 8.16194 39.3093 8.31229C39.0764 8.65112 39.0556 9.18421 39.0841 9.60114C39.1122 10.0129 39.135 10.5529 39.5038 10.7497C39.787 10.904 40.1713 10.9193 40.4789 10.8918C40.7127 10.8705 40.9671 10.8477 41.2038 10.7796C41.6157 10.4095 41.7159 9.75391 41.7472 9.2559" fill="#81CACF"/>
<path d="M41.7472 9.25635C41.786 8.64726 41.8166 8.12245 41.4462 7.6825C41.3369 7.64694 41.2225 7.62543 41.1044 7.63176L41.0721 7.63476C40.7291 7.66543 40.3996 7.86089 40.0807 8.04988C40.0047 8.09438 39.9297 8.13884 39.855 8.1807C39.7194 8.25869 39.5878 8.33739 39.5002 8.4637C39.3344 8.70384 39.2662 9.11415 39.3023 9.64849L39.3052 9.69078C39.3319 10.0801 39.3602 10.5212 39.6483 10.6771C39.9417 10.8335 40.3477 10.8246 40.5641 10.8058L40.5748 10.8045C40.8094 10.7842 41.0606 10.7596 41.2899 10.691C41.6277 10.3109 41.7181 9.71706 41.7472 9.25635" fill="white"/>
<path d="M41.5631 8.84024C41.6323 8.82802 41.6994 8.80462 41.761 8.7823L41.7687 8.7794L41.7691 8.66768L41.737 8.67586C41.6753 8.69039 41.6112 8.70328 41.5435 8.71197C41.4767 8.7241 41.4065 8.72943 41.3347 8.73569C41.2641 8.74451 41.1896 8.74568 41.1171 8.7485C41.0438 8.75309 40.9694 8.7508 40.8977 8.75272C40.8256 8.7512 40.7545 8.75051 40.6851 8.74975C40.5463 8.74477 40.4175 8.7394 40.3067 8.73506C40.0838 8.72469 39.9347 8.71751 39.9347 8.71751C39.9347 8.71751 39.9704 8.73171 40.0341 8.75087C40.0976 8.76831 40.1887 8.7968 40.2989 8.81935C40.4098 8.84361 40.5398 8.86453 40.6807 8.87895C40.819 8.89435 40.9704 8.8997 41.1211 8.8947C41.2716 8.8871 41.4231 8.876 41.5631 8.84024Z" fill="#81CACF"/>
<path d="M41.541 9.29133C41.6038 9.27936 41.6629 9.258 41.7171 9.23684L41.7495 9.22519L41.7563 9.11408C41.6843 9.13334 41.6077 9.15192 41.5229 9.16301C41.4633 9.17313 41.4003 9.17731 41.3368 9.18238C41.2762 9.18907 41.21 9.18992 41.1462 9.19328C41.0172 9.20003 40.8875 9.19642 40.7654 9.19599C40.6425 9.19212 40.529 9.18962 40.4302 9.18568C40.233 9.1795 40.1022 9.1742 40.1022 9.1742C40.1022 9.1742 40.1325 9.18775 40.1888 9.20634C40.2451 9.22146 40.3253 9.24864 40.4232 9.26908C40.5202 9.293 40.6356 9.31102 40.7596 9.32524C40.8833 9.33861 41.0161 9.34383 41.1499 9.34034C41.2836 9.3334 41.4177 9.32211 41.541 9.29133" fill="#81CACF"/>
<path d="M41.4801 9.65835C41.5295 9.6495 41.5755 9.63212 41.6191 9.61483L41.7182 9.56941L41.7302 9.47109L41.7109 9.47877C41.6394 9.50147 41.5549 9.52035 41.4613 9.53006C41.4145 9.53794 41.3672 9.53978 41.3177 9.54431C41.2678 9.55059 41.2178 9.55081 41.1671 9.55192C41.0672 9.55754 40.9663 9.55541 40.8713 9.55652C40.7745 9.55596 40.6855 9.55423 40.6087 9.55376C40.455 9.55022 40.3503 9.55343 40.3503 9.55343C40.3503 9.55343 40.4482 9.6007 40.6012 9.63804C40.6773 9.65759 40.7683 9.67396 40.8649 9.68579C40.9624 9.69757 41.0671 9.70215 41.1719 9.6998C41.2765 9.69399 41.3831 9.68552 41.4801 9.65835" fill="#81CACF"/>
<path d="M37.7188 7.94475C37.786 7.74296 37.845 7.53543 37.7877 7.32463C37.7338 7.1241 37.5857 6.95063 37.3721 6.92172C37.1657 6.89425 36.9274 6.9936 36.8241 7.17947C36.7656 7.28566 36.7577 7.41067 36.7683 7.52802C36.7831 7.68245 36.8284 7.83656 36.8924 7.97608C36.9574 8.11816 37.0484 8.26529 37.1921 8.33589C37.3195 8.4002 37.4622 8.38252 37.5988 8.36247L37.7188 7.94475" fill="#975144"/>
<path d="M38.2108 12.0463C39.4929 12.951 41.0875 13.0689 40.4876 14.5922C39.803 16.2676 37.9611 14.4206 37.2165 13.7892C36.1008 12.8434 34.9855 12.7069 33.6299 13.2998C32.6558 13.6978 30.989 15.5621 29.9835 14.3705C28.8828 13.065 28.7019 11.5124 29.5763 10.0987C30.4239 8.74668 31.3878 7.99249 32.9772 8.02057C33.8485 8.04634 34.8456 8.95261 35.4334 9.56325C36.0292 10.184 37.4362 11.5001 38.2108 12.0463" fill="#59586C"/>
<path d="M26.8912 36.2787C25.9603 37.8465 23.2883 38.3986 21.989 37.01C21.7654 36.7712 22.1108 36.394 22.3362 36.6354C23.3988 37.7716 25.6668 37.3417 26.4409 36.0383C26.6082 35.7563 27.06 35.9946 26.8912 36.2787" fill="white"/>
<path d="M34.0533 22.5845C34.0533 22.5845 34.1652 25.5337 34.8718 26.6529C35.8801 28.2452 48.1814 36.8381 48.1814 36.8381L46.1061 37.7178C46.1061 37.7178 33.6237 31.2369 32.0119 28.9335C31.1153 27.6506 30.0969 23.5778 30.0969 23.5778L34.0533 22.5845" fill="#975144"/>
<path d="M34.5514 19.9653C35.1938 23.7797 36.0887 25.0055 36.0887 25.0055C36.0887 25.0055 33.1735 27.3436 30.2838 26.7399C28.9692 23.467 27.6196 20.3622 29.3388 16.2397" fill="#3E4156"/>
<path d="M34.795 19.8873C35.085 21.4891 35.3497 23.484 36.304 24.8677C36.3882 24.9902 36.3324 25.1371 36.2264 25.22C34.5164 26.5494 32.3835 27.289 30.2256 26.988C30.1349 26.9753 30.0719 26.8953 30.0404 26.8167C28.5714 23.1628 27.6745 19.9359 29.1138 16.1189C29.2296 15.8124 29.6789 16.0554 29.5643 16.3593C28.5448 19.0622 28.6859 21.5203 29.5833 24.2205C29.9176 25.2268 30.1139 26.561 31.5052 26.5784C32.708 26.5934 33.9491 26.0113 34.9697 25.4441C35.2973 25.2623 35.608 25.0467 35.908 24.8236C35.6767 24.9956 35.8726 25.1999 35.5833 24.6112C34.887 23.1929 34.5879 21.5824 34.3082 20.0422C34.2504 19.7227 34.7365 19.5647 34.795 19.8873Z" fill="white"/>
<path d="M46.2976 38.6089C47.1922 39.2871 47.2441 39.6215 47.8817 39.2321C48.5187 38.8429 49.403 38.091 48.6031 37.209C47.837 36.3639 47.1076 36.535 46.4703 36.9242C45.833 37.3139 45.5855 38.0704 46.2976 38.6089Z" fill="#1F2B4D"/>
<path d="M27.9686 36.9053C29.9912 40.5475 31.9661 44.2284 34.8715 47.2613C35.098 47.4983 34.753 47.8743 34.5246 47.6366C31.5897 44.5728 29.5832 40.8612 27.538 37.1797C27.3788 36.8925 27.8086 36.617 27.9686 36.9053" fill="white"/>
<path d="M28.7667 36.4135C29.9177 38.0655 30.8026 39.8651 31.8096 41.6046C32.8855 43.4642 34.3898 45.031 35.7673 46.6641C35.977 46.9121 35.6328 47.2899 35.4204 47.0386C34.1724 45.5587 32.884 44.1281 31.7821 42.5309C30.4962 40.6689 29.6333 38.55 28.3363 36.6879C28.1475 36.417 28.5791 36.1446 28.7667 36.4135" fill="white"/>
</svg>
